<?xml version="1.0" encoding="utf-8"?>
<svg viewBox="194.9062 38.1536 428.4739 157.9646" width="428.474px" height="157.965px" xmlns="http://www.w3.org/2000/svg">
  <defs>
    <clipPath id="clippath1" transform="">
      <path d="M 194.9062 415.8818 L 621.8437 415.8818 L 621.8437 573.8464 L 194.9062 573.8464 Z" style="fill: none; clip-rule: nonzero;"/>
    </clipPath>
    <clipPath id="clippath2" transform="">
      <path d="M 606.6455 528.1021 L 623.38015 528.1021 L 623.38015 544.84279 L 606.6455 544.84279 Z" style="fill: none; clip-rule: nonzero;"/>
    </clipPath>
    <clipPath id="clippath3" transform="">
      <path d="M 343.5331 514.918 L 370.20104 514.918 L 370.20104 558.42122 L 343.5331 558.42122 Z" style="fill: none; clip-rule: nonzero;"/>
    </clipPath>
    <clipPath id="clippath4" transform="">
      <path d="M 377.9511 514.918 L 393.12278 514.918 L 393.12278 558.42122 L 377.9511 558.42122 Z" style="fill: none; clip-rule: nonzero;"/>
    </clipPath>
    <clipPath id="clippath5" transform="">
      <path d="M 399.2643 514.918 L 448.29466 514.918 L 448.29466 558.42122 L 399.2643 558.42122 Z" style="fill: none; clip-rule: nonzero;"/>
    </clipPath>
    <clipPath id="clippath6" transform="">
      <path d="M 346.2438 523.8421 L 445.75618 523.8421 L 445.75618 549.49702 L 346.2438 549.49702 Z" style="fill: none; clip-rule: nonzero;"/>
    </clipPath>
    <clipPath id="clippath7" transform="">
      <path d="M 341.7041 427.9327 L 573.1126 427.9327 L 573.1126 445.85983 L 341.7041 445.85983 Z" style="fill: none; clip-rule: nonzero;"/>
    </clipPath>
    <clipPath id="clippath8" transform="">
      <path d="M 343.5331 444.1725 L 571.2316 444.1725 L 571.2316 447.26625 L 343.5331 447.26625 Z" style="fill: none; clip-rule: nonzero;"/>
    </clipPath>
    <clipPath id="clippath9" transform="">
      <path d="M 376.1323 453.9973 L 507.5972 453.9973 L 507.5972 471.06232 L 376.1323 471.06232 Z" style="fill: none; clip-rule: nonzero;"/>
    </clipPath>
    <clipPath id="clippath10" transform="">
      <path d="M 377.9511 469.3954 L 505.4853 469.3954 L 505.4853 472.48915 L 377.9511 472.48915 Z" style="fill: none; clip-rule: nonzero;"/>
    </clipPath>
    <clipPath id="clippath11" transform="">
      <path d="M 399.2643 494.1072 L 563.7439 494.1072 L 563.7439 497.20095 L 399.2643 497.20095 Z" style="fill: none; clip-rule: nonzero;"/>
    </clipPath>
    <clipPath id="clippath12" transform="">
      <path d="M 397.4455 478.5245 L 566.118 478.5245 L 566.118 495.58952 L 397.4455 495.58952 Z" style="fill: none; clip-rule: nonzero;"/>
    </clipPath>
    <clipPath id="clippath13" transform="">
      <path d="M 352.3811 445.2499 L 352.3811 517.2947 L 361.353 517.2947 L 361.353 445.2499 Z" style="fill: none; clip-rule: nonzero;"/>
    </clipPath>
    <clipPath id="clippath14" transform="" style="clip-path: url('#clippath13');">
      <path d="M 0 9 L 792 9 L 792 603 L 0 603 Z" style="fill: none; clip-rule: nonzero;"/>
    </clipPath>
    <clipPath id="clippath15" transform="">
      <path d="M 381.051 470.2943 L 381.051 517.2947 L 390.0228 517.2947 L 390.0228 470.2943 Z" style="fill: none; clip-rule: nonzero;"/>
    </clipPath>
    <clipPath id="clippath16" transform="" style="clip-path: url('#clippath15');">
      <path d="M 0 9 L 792 9 L 792 603 L 0 603 Z" style="fill: none; clip-rule: nonzero;"/>
    </clipPath>
    <clipPath id="clippath17" transform="">
      <path d="M 419.2935 495.0746 L 419.2935 517.2947 L 428.2654 517.2947 L 428.2654 495.0746 Z" style="fill: none; clip-rule: nonzero;"/>
    </clipPath>
    <clipPath id="clippath18" transform="" style="clip-path: url('#clippath17');">
      <path d="M 0 9 L 792 9 L 792 603 L 0 603 Z" style="fill: none; clip-rule: nonzero;"/>
    </clipPath>
  </defs>
  <g transform="matrix(1, 0, 0, -1, 0, 612)">
    <path d="M 194.9062 415.8818 L 621.8437 415.8818 L 621.8437 573.8464 L 194.9062 573.8464 Z" style="fill: none;"/>
  </g>
  <g style="clip-path: url('#clippath1');" transform="matrix(1, 0, 0, -1, 0, 612)">
    <g transform="">
      <path d="M 195.6797 416.6552 L 621.0703 416.6552 L 621.0703 573.0729 L 195.6797 573.0729 Z" style="fill: rgb(255, 255, 255); fill-opacity: 1;"/>
    </g>
  </g>
  <g transform="matrix(1, 0, 0, -1, 0, 612)">
    <path d="M 606.6455 528.1021 L 623.38015 528.1021 L 623.38015 544.84279 L 606.6455 544.84279 Z" style="fill: none;"/>
  </g>
  <g style="clip-path: url('#clippath2');" transform="matrix(1, 0, 0, -1, 0, 612)">
    <g transform="matrix(0.7734375 0 0 0.7734375 609.9885 533.0735)">
      <path d="M 0.311 0.196 L 0.311 0.214 Q 0.237 0.177 0.188 0.127 Q 0.117 0.056 0.079 -0.04 Q 0.041 -0.136 0.041 -0.24 Q 0.041 -0.391 0.116 -0.516 Q 0.19 -0.641 0.311 -0.694 L 0.311 -0.674 Q 0.25 -0.641 0.212 -0.583 Q 0.173 -0.525 0.154 -0.437 Q 0.135 -0.349 0.135 -0.252 Q 0.135 -0.148 0.151 -0.062 Q 0.164 0.005 0.182 0.046 Q 0.2 0.086 0.231 0.124 Q 0.261 0.162 0.311 0.196 Z" transform="matrix(12, 0, 0, -12, 0, 0)"/>
      <path d="M 0.45 -0.597 L 0.611 -0.676 L 0.627 -0.676 L 0.627 -0.117 Q 0.627 -0.061 0.632 -0.047 Q 0.637 -0.034 0.651 -0.026 Q 0.666 -0.019 0.711 -0.018 L 0.711 0 L 0.462 0 L 0.462 -0.018 Q 0.509 -0.019 0.522 -0.026 Q 0.536 -0.033 0.541 -0.045 Q 0.547 -0.057 0.547 -0.117 L 0.547 -0.474 Q 0.547 -0.546 0.542 -0.567 Q 0.539 -0.583 0.53 -0.59 Q 0.521 -0.597 0.508 -0.597 Q 0.49 -0.597 0.458 -0.582 Z" transform="matrix(12, 0, 0, -12, 0, 0)"/>
      <path d="M 0.855 -0.674 L 0.855 -0.694 Q 0.93 -0.658 0.979 -0.608 Q 1.049 -0.537 1.087 -0.441 Q 1.125 -0.345 1.125 -0.241 Q 1.125 -0.089 1.051 0.035 Q 0.976 0.16 0.855 0.214 L 0.855 0.196 Q 0.916 0.162 0.954 0.105 Q 0.993 0.047 1.012 -0.041 Q 1.031 -0.13 1.031 -0.226 Q 1.031 -0.33 1.015 -0.416 Q 1.002 -0.483 0.984 -0.524 Q 0.966 -0.564 0.936 -0.602 Q 0.905 -0.64 0.855 -0.674 Z" transform="matrix(12, 0, 0, -12, 0, 0)"/>
    </g>
  </g>
  <g transform="matrix(1, 0, 0, -1, 0, 612)">
    <path d="M 343.5331 514.918 L 370.20104 514.918 L 370.20104 558.42122 L 343.5331 558.42122 Z" style="fill: none;"/>
  </g>
  <g style="clip-path: url('#clippath3');" transform="matrix(1, 0, 0, -1, 0, 612)">
    <g transform="">
      <path d="M 344.3065 515.6914 L 369.42757 515.6914 L 369.42757 557.64774 L 344.3065 557.64774 Z" style="fill: rgb(86, 193, 255); fill-opacity: 0.254;"/>
    </g>
  </g>
  <g transform="matrix(1, 0, 0, -1, 0, 612)">
    <path d="M 377.9511 514.918 L 393.12278 514.918 L 393.12278 558.42122 L 377.9511 558.42122 Z" style="fill: none;"/>
  </g>
  <g style="clip-path: url('#clippath4');" transform="matrix(1, 0, 0, -1, 0, 612)">
    <g transform="">
      <path d="M 378.7245 515.6914 L 392.3493 515.6914 L 392.3493 557.64774 L 378.7245 557.64774 Z" style="fill: rgb(97, 216, 54); fill-opacity: 0.249;"/>
    </g>
  </g>
  <g transform="matrix(1, 0, 0, -1, 0, 612)">
    <path d="M 399.2643 514.918 L 448.29466 514.918 L 448.29466 558.42122 L 399.2643 558.42122 Z" style="fill: none;"/>
  </g>
  <g style="clip-path: url('#clippath5');" transform="matrix(1, 0, 0, -1, 0, 612)">
    <g transform="">
      <path d="M 400.0377 515.6914 L 447.52119 515.6914 L 447.52119 557.64774 L 400.0377 557.64774 Z" style="fill: rgb(248, 186, 0); fill-opacity: 0.2487;"/>
    </g>
  </g>
  <g transform="matrix(1, 0, 0, -1, 0, 612)">
    <path d="M 346.2438 523.8421 L 445.75618 523.8421 L 445.75618 549.49702 L 346.2438 549.49702 Z" style="fill: none;"/>
  </g>
  <g style="clip-path: url('#clippath6');" transform="matrix(1, 0, 0, -1, 0, 612)">
    <g transform="matrix(0.7055325 0 0 0.7055325 347.0278 519.5357)">
      <path d="M 0.634 -0.653 L 0.137 -0.653 L 0.137 -0.637 C 0.199 -0.631 0.214 -0.623 0.214 -0.596 C 0.214 -0.584 0.209 -0.552 0.203 -0.532 L 0.08 -0.09 C 0.064 -0.032 0.055 -0.026 -0.001 -0.016 L -0.001 0 L 0.506 0 L 0.568 -0.162 L 0.552 -0.17 C 0.514 -0.117 0.49 -0.089 0.458 -0.072 C 0.407 -0.045 0.353 -0.033 0.255 -0.033 C 0.199 -0.033 0.176 -0.043 0.176 -0.067 C 0.176 -0.079 0.187 -0.125 0.212 -0.213 L 0.244 -0.325 L 0.322 -0.325 C 0.362 -0.325 0.389 -0.32 0.4 -0.31 C 0.405 -0.305 0.407 -0.296 0.407 -0.279 C 0.407 -0.261 0.405 -0.249 0.4 -0.227 L 0.42 -0.222 L 0.488 -0.454 L 0.47 -0.458 C 0.432 -0.373 0.421 -0.361 0.331 -0.361 L 0.253 -0.361 L 0.319 -0.594 C 0.325 -0.616 0.335 -0.62 0.392 -0.62 C 0.549 -0.62 0.584 -0.607 0.584 -0.547 C 0.584 -0.534 0.583 -0.518 0.581 -0.501 L 0.603 -0.499 Z" transform="matrix(15, 0, 0, -15, 0, 20.790001)"/>
    </g>
  </g>
  <g style="clip-path: url('#clippath6');" transform="matrix(1, 0, 0, -1, 0, 612)">
    <g transform="matrix(0.7055325 0 0 0.7055325 347.0278 519.5357)">
      <path d="M 0.304 0.161 C 0.164 0.044 0.134 -0.069 0.134 -0.255 C 0.134 -0.448 0.165 -0.541 0.304 -0.66 L 0.295 -0.676 C 0.135 -0.581 0.048 -0.437 0.048 -0.252 C 0.048 -0.082 0.134 0.087 0.292 0.177 Z" transform="matrix(15, 0, 0, -15, 9.777546, 20.790001)"/>
    </g>
  </g>
  <g style="clip-path: url('#clippath6');" transform="matrix(1, 0, 0, -1, 0, 612)">
    <g transform="matrix(0.7055325 0 0 0.7055325 347.0278 519.5357)">
      <path d="M 0.508 -0.667 L 0.485 -0.667 C 0.471 -0.646 0.462 -0.641 0.44 -0.641 C 0.427 -0.641 0.415 -0.644 0.394 -0.652 C 0.373 -0.661 0.34 -0.666 0.309 -0.666 C 0.213 -0.666 0.131 -0.607 0.131 -0.502 C 0.131 -0.448 0.146 -0.416 0.206 -0.352 C 0.219 -0.339 0.231 -0.325 0.245 -0.31 L 0.284 -0.268 C 0.33 -0.218 0.344 -0.188 0.344 -0.145 C 0.344 -0.069 0.29 -0.017 0.213 -0.017 C 0.129 -0.017 0.069 -0.086 0.069 -0.184 C 0.069 -0.191 0.069 -0.198 0.071 -0.207 L 0.051 -0.209 L 0.017 0.015 L 0.035 0.015 C 0.042 -0.008 0.058 -0.017 0.078 -0.017 C 0.089 -0.017 0.098 -0.015 0.125 -0.005 C 0.171 0.011 0.198 0.018 0.229 0.018 C 0.344 0.018 0.431 -0.063 0.431 -0.177 C 0.431 -0.242 0.409 -0.285 0.318 -0.377 C 0.227 -0.468 0.219 -0.484 0.219 -0.533 C 0.219 -0.596 0.262 -0.633 0.331 -0.633 C 0.428 -0.633 0.45 -0.572 0.45 -0.47 L 0.468 -0.467 Z" transform="matrix(15, 0, 0, -15, 14.77255, 20.790001)"/>
    </g>
  </g>
  <g style="clip-path: url('#clippath6');" transform="matrix(1, 0, 0, -1, 0, 612)">
    <g transform="matrix(0.7055325 0 0 0.7055325 347.0278 519.5357)">
      <path d="M 0.029 -0.66 C 0.174 -0.546 0.199 -0.431 0.199 -0.244 C 0.199 -0.05 0.171 0.044 0.029 0.161 L 0.038 0.177 C 0.197 0.08 0.285 -0.062 0.285 -0.247 C 0.285 -0.417 0.194 -0.584 0.041 -0.676 Z" transform="matrix(15, 0, 0, -15, 23.956551, 20.790001)"/>
    </g>
  </g>
  <g style="clip-path: url('#clippath6');" transform="matrix(1, 0, 0, -1, 0, 612)">
    <g transform="matrix(0.7055325 0 0 0.7055325 347.0278 519.5357)">
      <path d="M 0.637 -0.32 L 0.637 -0.386 L 0.048 -0.386 L 0.048 -0.32 Z M 0.637 -0.12 L 0.637 -0.186 L 0.048 -0.186 L 0.048 -0.12 Z" transform="matrix(15, 0, 0, -15, 33.11821, 20.790001)"/>
    </g>
  </g>
  <g style="clip-path: url('#clippath6');" transform="matrix(1, 0, 0, -1, 0, 612)">
    <g transform="matrix(0.7055325 0 0 0.7055325 347.0278 519.5357)">
      <path d="M 0.549 -0.428 L 0.463 -0.428 L 0.417 -0.322 C 0.417 -0.381 0.376 -0.441 0.291 -0.441 C 0.229 -0.441 0.162 -0.409 0.118 -0.364 C 0.062 -0.307 0.027 -0.222 0.027 -0.141 C 0.027 -0.057 0.064 0.011 0.161 0.011 C 0.236 0.011 0.305 -0.035 0.355 -0.096 C 0.357 -0.035 0.369 0.009 0.407 0.009 C 0.455 0.009 0.486 -0.043 0.508 -0.117 L 0.492 -0.124 C 0.471 -0.069 0.455 -0.05 0.441 -0.05 C 0.419 -0.05 0.407 -0.101 0.407 -0.149 L 0.407 -0.167 Z M 0.359 -0.272 C 0.359 -0.245 0.347 -0.22 0.343 -0.201 C 0.316 -0.145 0.248 -0.01 0.178 -0.01 C 0.127 -0.01 0.109 -0.068 0.109 -0.125 C 0.109 -0.284 0.219 -0.42 0.282 -0.42 C 0.346 -0.42 0.359 -0.34 0.359 -0.272 Z" transform="matrix(15, 0, 0, -15, 47.559879, 20.790001)"/>
    </g>
  </g>
  <g style="clip-path: url('#clippath6');" transform="matrix(1, 0, 0, -1, 0, 612)">
    <g transform="matrix(0.7055325 0 0 0.7055325 347.0278 514.2442)">
      <path d="M 0.476 -0.33 C 0.476 -0.535 0.385 -0.676 0.254 -0.676 C 0.093 -0.676 0.024 -0.513 0.024 -0.336 C 0.024 -0.172 0.079 0.014 0.25 0.014 C 0.413 0.014 0.476 -0.158 0.476 -0.33 Z M 0.38 -0.325 C 0.38 -0.127 0.335 -0.012 0.25 -0.012 C 0.164 -0.012 0.12 -0.126 0.12 -0.329 C 0.12 -0.532 0.165 -0.65 0.248 -0.65 C 0.336 -0.65 0.38 -0.533 0.38 -0.325 Z" transform="matrix(10.65, 0, 0, -10.65, 55.76656, 24.540001)"/>
    </g>
  </g>
  <g style="clip-path: url('#clippath6');" transform="matrix(1, 0, 0, -1, 0, 612)">
    <g transform="matrix(0.7055325 0 0 0.7055325 347.0278 519.5357)">
      <path d="M 0.636 -0.22 L 0.636 -0.286 L 0.375 -0.286 L 0.375 -0.547 L 0.309 -0.547 L 0.309 -0.286 L 0.048 -0.286 L 0.048 -0.22 L 0.309 -0.22 L 0.309 0.041 L 0.375 0.041 L 0.375 -0.22 Z" transform="matrix(15, 0, 0, -15, 64.449287, 20.790001)"/>
    </g>
  </g>
  <g style="clip-path: url('#clippath6');" transform="matrix(1, 0, 0, -1, 0, 612)">
    <g transform="matrix(0.7055325 0 0 0.7055325 347.0278 519.5357)">
      <path d="M 0.549 -0.428 L 0.463 -0.428 L 0.417 -0.322 C 0.417 -0.381 0.376 -0.441 0.291 -0.441 C 0.229 -0.441 0.162 -0.409 0.118 -0.364 C 0.062 -0.307 0.027 -0.222 0.027 -0.141 C 0.027 -0.057 0.064 0.011 0.161 0.011 C 0.236 0.011 0.305 -0.035 0.355 -0.096 C 0.357 -0.035 0.369 0.009 0.407 0.009 C 0.455 0.009 0.486 -0.043 0.508 -0.117 L 0.492 -0.124 C 0.471 -0.069 0.455 -0.05 0.441 -0.05 C 0.419 -0.05 0.407 -0.101 0.407 -0.149 L 0.407 -0.167 Z M 0.359 -0.272 C 0.359 -0.245 0.347 -0.22 0.343 -0.201 C 0.316 -0.145 0.248 -0.01 0.178 -0.01 C 0.127 -0.01 0.109 -0.068 0.109 -0.125 C 0.109 -0.284 0.219 -0.42 0.282 -0.42 C 0.346 -0.42 0.359 -0.34 0.359 -0.272 Z" transform="matrix(15, 0, 0, -15, 78.057617, 20.790001)"/>
    </g>
  </g>
  <g style="clip-path: url('#clippath6');" transform="matrix(1, 0, 0, -1, 0, 612)">
    <g transform="matrix(0.7055325 0 0 0.7055325 347.0278 534.4577)">
      <path d="M 0.299 0.156 L 0.299 0.131 L 0.216 0.131 C 0.183 0.131 0.164 0.117 0.164 0.077 L 0.164 -0.589 C 0.164 -0.625 0.182 -0.637 0.216 -0.637 L 0.299 -0.637 L 0.299 -0.662 L 0.088 -0.662 L 0.088 0.156 Z" transform="matrix(15, 0, 0, -15, 104.015999, 10.215)"/>
    </g>
  </g>
  <g style="clip-path: url('#clippath6');" transform="matrix(1, 0, 0, -1, 0, 612)">
    <g transform="matrix(0.7055325 0 0 0.7055325 347.0278 534.4577)">
      <path d="M 0.508 -0.667 L 0.485 -0.667 C 0.471 -0.646 0.462 -0.641 0.44 -0.641 C 0.427 -0.641 0.415 -0.644 0.394 -0.652 C 0.373 -0.661 0.34 -0.666 0.309 -0.666 C 0.213 -0.666 0.131 -0.607 0.131 -0.502 C 0.131 -0.448 0.146 -0.416 0.206 -0.352 C 0.219 -0.339 0.231 -0.325 0.245 -0.31 L 0.284 -0.268 C 0.33 -0.218 0.344 -0.188 0.344 -0.145 C 0.344 -0.069 0.29 -0.017 0.213 -0.017 C 0.129 -0.017 0.069 -0.086 0.069 -0.184 C 0.069 -0.191 0.069 -0.198 0.071 -0.207 L 0.051 -0.209 L 0.017 0.015 L 0.035 0.015 C 0.042 -0.008 0.058 -0.017 0.078 -0.017 C 0.089 -0.017 0.098 -0.015 0.125 -0.005 C 0.171 0.011 0.198 0.018 0.229 0.018 C 0.344 0.018 0.431 -0.063 0.431 -0.177 C 0.431 -0.242 0.409 -0.285 0.318 -0.377 C 0.227 -0.468 0.219 -0.484 0.219 -0.533 C 0.219 -0.596 0.262 -0.633 0.331 -0.633 C 0.428 -0.633 0.45 -0.572 0.45 -0.47 L 0.468 -0.467 Z" transform="matrix(15, 0, 0, -15, 109.011002, 10.215)"/>
    </g>
  </g>
  <g style="clip-path: url('#clippath6');" transform="matrix(1, 0, 0, -1, 0, 612)">
    <g transform="matrix(0.7055325 0 0 0.7055325 347.0278 534.4577)">
      <path d="M 0.245 0.156 L 0.245 -0.662 L 0.034 -0.662 L 0.034 -0.637 L 0.118 -0.637 C 0.156 -0.637 0.169 -0.618 0.169 -0.583 L 0.169 0.085 C 0.169 0.116 0.157 0.131 0.122 0.131 L 0.034 0.131 L 0.034 0.156 Z" transform="matrix(15, 0, 0, -15, 118.120003, 10.215)"/>
    </g>
  </g>
  <g style="clip-path: url('#clippath6');" transform="matrix(1, 0, 0, -1, 0, 612)">
    <g transform="">
      <path d="M 409.8503 537.2305 L 444.4536 537.2305 L 444.4536 536.532 L 409.8503 536.532 Z" style="fill: rgb(0, 0, 0); fill-opacity: 1;"/>
    </g>
    <g transform="matrix(0.7055325 0 0 0.7055325 347.0278 503.6612)">
      <path d="M 0.299 0.156 L 0.299 0.131 L 0.216 0.131 C 0.183 0.131 0.164 0.117 0.164 0.077 L 0.164 -0.589 C 0.164 -0.625 0.182 -0.637 0.216 -0.637 L 0.299 -0.637 L 0.299 -0.662 L 0.088 -0.662 L 0.088 0.156 Z" transform="matrix(15, 0, 0, -15, 90.542618, 32.040001)"/>
    </g>
    <g transform="matrix(0.7055325 0 0 0.7055325 347.0278 503.6612)">
      <path d="M 0.508 -0.667 L 0.485 -0.667 C 0.471 -0.646 0.462 -0.641 0.44 -0.641 C 0.427 -0.641 0.415 -0.644 0.394 -0.652 C 0.373 -0.661 0.34 -0.666 0.309 -0.666 C 0.213 -0.666 0.131 -0.607 0.131 -0.502 C 0.131 -0.448 0.146 -0.416 0.206 -0.352 C 0.219 -0.339 0.231 -0.325 0.245 -0.31 L 0.284 -0.268 C 0.33 -0.218 0.344 -0.188 0.344 -0.145 C 0.344 -0.069 0.29 -0.017 0.213 -0.017 C 0.129 -0.017 0.069 -0.086 0.069 -0.184 C 0.069 -0.191 0.069 -0.198 0.071 -0.207 L 0.051 -0.209 L 0.017 0.015 L 0.035 0.015 C 0.042 -0.008 0.058 -0.017 0.078 -0.017 C 0.089 -0.017 0.098 -0.015 0.125 -0.005 C 0.171 0.011 0.198 0.018 0.229 0.018 C 0.344 0.018 0.431 -0.063 0.431 -0.177 C 0.431 -0.242 0.409 -0.285 0.318 -0.377 C 0.227 -0.468 0.219 -0.484 0.219 -0.533 C 0.219 -0.596 0.262 -0.633 0.331 -0.633 C 0.428 -0.633 0.45 -0.572 0.45 -0.47 L 0.468 -0.467 Z" transform="matrix(15, 0, 0, -15, 95.537621, 32.040001)"/>
    </g>
    <g transform="matrix(0.7055325 0 0 0.7055325 347.0278 503.6612)">
      <path d="M 0.245 0.156 L 0.245 -0.662 L 0.034 -0.662 L 0.034 -0.637 L 0.118 -0.637 C 0.156 -0.637 0.169 -0.618 0.169 -0.583 L 0.169 0.085 C 0.169 0.116 0.157 0.131 0.122 0.131 L 0.034 0.131 L 0.034 0.156 Z" transform="matrix(15, 0, 0, -15, 104.646599, 32.040001)"/>
    </g>
    <g transform="matrix(0.7055325 0 0 0.7055325 347.0278 503.6612)">
      <path d="M 0.636 -0.22 L 0.636 -0.286 L 0.375 -0.286 L 0.375 -0.547 L 0.309 -0.547 L 0.309 -0.286 L 0.048 -0.286 L 0.048 -0.22 L 0.309 -0.22 L 0.309 0.041 L 0.375 0.041 L 0.375 -0.22 Z" transform="matrix(15, 0, 0, -15, 112.974998, 32.040001)"/>
    </g>
    <g transform="matrix(0.7055325 0 0 0.7055325 347.0278 503.6612)">
      <path d="M 0.722 -0.653 L 0.501 -0.653 L 0.501 -0.637 L 0.525 -0.634 C 0.549 -0.631 0.561 -0.626 0.561 -0.615 C 0.561 -0.591 0.507 -0.541 0.418 -0.478 L 0.265 -0.369 L 0.318 -0.563 C 0.333 -0.619 0.365 -0.633 0.417 -0.637 L 0.417 -0.653 L 0.147 -0.653 L 0.147 -0.637 C 0.209 -0.634 0.226 -0.621 0.226 -0.594 C 0.226 -0.578 0.219 -0.557 0.212 -0.532 L 0.088 -0.087 C 0.073 -0.034 0.067 -0.023 0.007 -0.016 L 0.007 0 L 0.254 0 L 0.254 -0.016 C 0.199 -0.021 0.183 -0.029 0.183 -0.06 C 0.183 -0.071 0.186 -0.083 0.194 -0.111 L 0.259 -0.348 L 0.382 -0.133 C 0.4 -0.101 0.419 -0.072 0.419 -0.051 C 0.419 -0.034 0.404 -0.022 0.373 -0.019 L 0.344 -0.016 L 0.344 0 L 0.619 0 L 0.619 -0.016 C 0.556 -0.022 0.546 -0.028 0.515 -0.082 L 0.347 -0.375 L 0.645 -0.6 C 0.674 -0.622 0.697 -0.637 0.722 -0.637 Z" transform="matrix(15, 0, 0, -15, 126.583298, 32.040001)"/>
    </g>
  </g>
  <g transform="matrix(1, 0, 0, -1, 0, 612)">
    <path d="M 341.7041 427.9327 L 573.1126 427.9327 L 573.1126 445.85983 L 341.7041 445.85983 Z" style="fill: none;"/>
  </g>
  <g style="clip-path: url('#clippath7');" transform="matrix(1, 0, 0, -1, 0, 612)">
    <g transform="matrix(0.7734375 0 0 0.7734375 344.3065 434.0577)">
      <path d="M 0.079 0 L 0.079 -0.716 L 0.597 -0.716 L 0.597 -0.631 L 0.174 -0.631 L 0.174 -0.412 L 0.57 -0.412 L 0.57 -0.328 L 0.174 -0.328 L 0.174 -0.084 L 0.613 -0.084 L 0.613 0 Z" transform="matrix(12, 0, 0, -12, 0, 0)"/>
      <path d="M 0.674 0 L 0.864 -0.27 L 0.688 -0.519 L 0.798 -0.519 L 0.878 -0.397 Q 0.9 -0.362 0.914 -0.339 Q 0.936 -0.371 0.954 -0.396 L 1.041 -0.519 L 1.146 -0.519 L 0.967 -0.274 L 1.16 0 L 1.052 0 L 0.945 -0.161 L 0.917 -0.205 L 0.781 0 Z" transform="matrix(12, 0, 0, -12, 0, 0)"/>
      <path d="M 1.233 0.199 L 1.233 -0.519 L 1.313 -0.519 L 1.313 -0.451 Q 1.341 -0.491 1.377 -0.51 Q 1.413 -0.53 1.463 -0.53 Q 1.53 -0.53 1.581 -0.496 Q 1.631 -0.462 1.657 -0.4 Q 1.683 -0.337 1.683 -0.263 Q 1.683 -0.184 1.655 -0.12 Q 1.626 -0.056 1.572 -0.022 Q 1.517 0.012 1.457 0.012 Q 1.413 0.012 1.378 -0.007 Q 1.343 -0.025 1.321 -0.054 L 1.321 0.199 Z M 1.313 -0.256 Q 1.313 -0.156 1.353 -0.108 Q 1.394 -0.061 1.451 -0.061 Q 1.51 -0.061 1.552 -0.11 Q 1.593 -0.16 1.593 -0.264 Q 1.593 -0.363 1.552 -0.412 Q 1.512 -0.461 1.455 -0.461 Q 1.399 -0.461 1.356 -0.409 Q 1.313 -0.356 1.313 -0.256 Z" transform="matrix(12, 0, 0, -12, 0, 0)"/>
      <path d="M 1.788 0 L 1.788 -0.519 L 1.867 -0.519 L 1.867 -0.44 Q 1.898 -0.495 1.923 -0.513 Q 1.949 -0.53 1.98 -0.53 Q 2.024 -0.53 2.07 -0.502 L 2.04 -0.42 Q 2.007 -0.439 1.975 -0.439 Q 1.946 -0.439 1.923 -0.422 Q 1.9 -0.405 1.891 -0.374 Q 1.876 -0.327 1.876 -0.271 L 1.876 0 Z" transform="matrix(12, 0, 0, -12, 0, 0)"/>
      <path d="M 2.477 -0.167 L 2.568 -0.156 Q 2.546 -0.076 2.488 -0.032 Q 2.43 0.012 2.34 0.012 Q 2.226 0.012 2.159 -0.058 Q 2.093 -0.128 2.093 -0.255 Q 2.093 -0.386 2.16 -0.458 Q 2.228 -0.53 2.335 -0.53 Q 2.439 -0.53 2.505 -0.459 Q 2.571 -0.389 2.571 -0.26 Q 2.571 -0.252 2.57 -0.237 L 2.184 -0.237 Q 2.189 -0.151 2.232 -0.106 Q 2.275 -0.061 2.34 -0.061 Q 2.389 -0.061 2.423 -0.086 Q 2.457 -0.111 2.477 -0.167 Z M 2.189 -0.309 L 2.478 -0.309 Q 2.472 -0.375 2.445 -0.407 Q 2.403 -0.458 2.336 -0.458 Q 2.275 -0.458 2.234 -0.417 Q 2.193 -0.377 2.189 -0.309 Z" transform="matrix(12, 0, 0, -12, 0, 0)"/>
      <path d="M 2.643 -0.155 L 2.73 -0.168 Q 2.737 -0.116 2.771 -0.088 Q 2.804 -0.061 2.864 -0.061 Q 2.925 -0.061 2.954 -0.085 Q 2.983 -0.11 2.983 -0.143 Q 2.983 -0.173 2.958 -0.19 Q 2.94 -0.202 2.868 -0.22 Q 2.771 -0.244 2.734 -0.262 Q 2.696 -0.28 2.677 -0.311 Q 2.658 -0.343 2.658 -0.381 Q 2.658 -0.416 2.674 -0.445 Q 2.69 -0.475 2.717 -0.494 Q 2.737 -0.509 2.773 -0.52 Q 2.808 -0.53 2.849 -0.53 Q 2.91 -0.53 2.956 -0.513 Q 3.002 -0.495 3.024 -0.465 Q 3.046 -0.435 3.054 -0.385 L 2.968 -0.373 Q 2.962 -0.413 2.934 -0.436 Q 2.906 -0.458 2.855 -0.458 Q 2.795 -0.458 2.769 -0.438 Q 2.743 -0.418 2.743 -0.391 Q 2.743 -0.374 2.754 -0.36 Q 2.764 -0.346 2.787 -0.337 Q 2.8 -0.332 2.865 -0.314 Q 2.958 -0.29 2.995 -0.274 Q 3.032 -0.258 3.053 -0.228 Q 3.074 -0.197 3.074 -0.152 Q 3.074 -0.108 3.048 -0.07 Q 3.023 -0.031 2.974 -0.01 Q 2.926 0.012 2.865 0.012 Q 2.764 0.012 2.711 -0.03 Q 2.658 -0.072 2.643 -0.155 Z" transform="matrix(12, 0, 0, -12, 0, 0)"/>
      <path d="M 3.143 -0.155 L 3.23 -0.168 Q 3.237 -0.116 3.271 -0.088 Q 3.304 -0.061 3.364 -0.061 Q 3.425 -0.061 3.454 -0.085 Q 3.483 -0.11 3.483 -0.143 Q 3.483 -0.173 3.458 -0.19 Q 3.44 -0.202 3.368 -0.22 Q 3.271 -0.244 3.234 -0.262 Q 3.196 -0.28 3.177 -0.311 Q 3.158 -0.343 3.158 -0.381 Q 3.158 -0.416 3.174 -0.445 Q 3.19 -0.475 3.217 -0.494 Q 3.237 -0.509 3.273 -0.52 Q 3.308 -0.53 3.349 -0.53 Q 3.41 -0.53 3.456 -0.513 Q 3.502 -0.495 3.524 -0.465 Q 3.546 -0.435 3.554 -0.385 L 3.468 -0.373 Q 3.462 -0.413 3.434 -0.436 Q 3.406 -0.458 3.355 -0.458 Q 3.295 -0.458 3.269 -0.438 Q 3.243 -0.418 3.243 -0.391 Q 3.243 -0.374 3.254 -0.36 Q 3.264 -0.346 3.287 -0.337 Q 3.3 -0.332 3.365 -0.314 Q 3.458 -0.29 3.495 -0.274 Q 3.532 -0.258 3.553 -0.228 Q 3.574 -0.197 3.574 -0.152 Q 3.574 -0.108 3.548 -0.07 Q 3.523 -0.031 3.474 -0.01 Q 3.426 0.012 3.365 0.012 Q 3.264 0.012 3.211 -0.03 Q 3.158 -0.072 3.143 -0.155 Z" transform="matrix(12, 0, 0, -12, 0, 0)"/>
      <path d="M 3.679 -0.615 L 3.679 -0.716 L 3.767 -0.716 L 3.767 -0.615 Z M 3.679 0 L 3.679 -0.519 L 3.767 -0.519 L 3.767 0 Z" transform="matrix(12, 0, 0, -12, 0, 0)"/>
      <path d="M 3.868 -0.259 Q 3.868 -0.403 3.948 -0.473 Q 4.015 -0.53 4.111 -0.53 Q 4.218 -0.53 4.286 -0.46 Q 4.354 -0.39 4.354 -0.267 Q 4.354 -0.167 4.324 -0.109 Q 4.294 -0.052 4.236 -0.02 Q 4.179 0.012 4.111 0.012 Q 4.002 0.012 3.935 -0.058 Q 3.868 -0.128 3.868 -0.259 Z M 3.958 -0.259 Q 3.958 -0.16 4.002 -0.11 Q 4.045 -0.061 4.111 -0.061 Q 4.176 -0.061 4.22 -0.11 Q 4.263 -0.16 4.263 -0.262 Q 4.263 -0.358 4.22 -0.408 Q 4.176 -0.458 4.111 -0.458 Q 4.045 -0.458 4.002 -0.408 Q 3.958 -0.359 3.958 -0.259 Z" transform="matrix(12, 0, 0, -12, 0, 0)"/>
      <path d="M 4.457 0 L 4.457 -0.519 L 4.536 -0.519 L 4.536 -0.445 Q 4.593 -0.53 4.701 -0.53 Q 4.748 -0.53 4.787 -0.513 Q 4.826 -0.497 4.846 -0.469 Q 4.865 -0.442 4.873 -0.404 Q 4.878 -0.38 4.878 -0.319 L 4.878 0 L 4.79 0 L 4.79 -0.315 Q 4.79 -0.369 4.78 -0.396 Q 4.77 -0.422 4.744 -0.438 Q 4.717 -0.454 4.682 -0.454 Q 4.626 -0.454 4.585 -0.418 Q 4.545 -0.383 4.545 -0.283 L 4.545 0 Z" transform="matrix(12, 0, 0, -12, 0, 0)"/>
      <path d="M 5.289 0 L 5.289 -0.716 L 5.377 -0.716 L 5.377 0 Z" transform="matrix(12, 0, 0, -12, 0, 0)"/>
      <path d="M 5.868 -0.167 L 5.959 -0.156 Q 5.937 -0.076 5.879 -0.032 Q 5.821 0.012 5.731 0.012 Q 5.617 0.012 5.55 -0.058 Q 5.484 -0.128 5.484 -0.255 Q 5.484 -0.386 5.551 -0.458 Q 5.618 -0.53 5.726 -0.53 Q 5.83 -0.53 5.896 -0.459 Q 5.962 -0.389 5.962 -0.26 Q 5.962 -0.252 5.961 -0.237 L 5.574 -0.237 Q 5.579 -0.151 5.623 -0.106 Q 5.666 -0.061 5.731 -0.061 Q 5.78 -0.061 5.814 -0.086 Q 5.848 -0.111 5.868 -0.167 Z M 5.579 -0.309 L 5.869 -0.309 Q 5.863 -0.375 5.836 -0.407 Q 5.794 -0.458 5.727 -0.458 Q 5.666 -0.458 5.625 -0.417 Q 5.584 -0.377 5.579 -0.309 Z" transform="matrix(12, 0, 0, -12, 0, 0)"/>
      <path d="M 6.213 0 L 6.016 -0.519 L 6.109 -0.519 L 6.22 -0.208 Q 6.238 -0.158 6.253 -0.104 Q 6.265 -0.145 6.286 -0.202 L 6.401 -0.519 L 6.491 -0.519 L 6.295 0 Z" transform="matrix(12, 0, 0, -12, 0, 0)"/>
      <path d="M 6.924 -0.167 L 7.015 -0.156 Q 6.993 -0.076 6.935 -0.032 Q 6.877 0.012 6.787 0.012 Q 6.673 0.012 6.606 -0.058 Q 6.54 -0.128 6.54 -0.255 Q 6.54 -0.386 6.607 -0.458 Q 6.675 -0.53 6.782 -0.53 Q 6.886 -0.53 6.952 -0.459 Q 7.018 -0.389 7.018 -0.26 Q 7.018 -0.252 7.017 -0.237 L 6.631 -0.237 Q 6.636 -0.151 6.679 -0.106 Q 6.722 -0.061 6.787 -0.061 Q 6.836 -0.061 6.87 -0.086 Q 6.904 -0.111 6.924 -0.167 Z M 6.636 -0.309 L 6.925 -0.309 Q 6.919 -0.375 6.892 -0.407 Q 6.85 -0.458 6.783 -0.458 Q 6.722 -0.458 6.681 -0.417 Q 6.64 -0.377 6.636 -0.309 Z" transform="matrix(12, 0, 0, -12, 0, 0)"/>
      <path d="M 7.123 0 L 7.123 -0.716 L 7.211 -0.716 L 7.211 0 Z" transform="matrix(12, 0, 0, -12, 0, 0)"/>
      <path d="M 7.964 -0.064 Q 7.915 -0.022 7.87 -0.005 Q 7.825 0.012 7.773 0.012 Q 7.687 0.012 7.641 -0.03 Q 7.596 -0.072 7.596 -0.137 Q 7.596 -0.175 7.613 -0.206 Q 7.63 -0.238 7.658 -0.257 Q 7.686 -0.276 7.722 -0.286 Q 7.747 -0.292 7.8 -0.299 Q 7.906 -0.312 7.956 -0.329 Q 7.957 -0.347 7.957 -0.352 Q 7.957 -0.406 7.932 -0.428 Q 7.898 -0.458 7.832 -0.458 Q 7.77 -0.458 7.74 -0.436 Q 7.711 -0.414 7.697 -0.359 L 7.611 -0.371 Q 7.622 -0.426 7.649 -0.46 Q 7.676 -0.494 7.727 -0.512 Q 7.778 -0.53 7.845 -0.53 Q 7.911 -0.53 7.952 -0.515 Q 7.994 -0.499 8.014 -0.475 Q 8.033 -0.452 8.041 -0.416 Q 8.045 -0.393 8.045 -0.334 L 8.045 -0.217 Q 8.045 -0.095 8.051 -0.062 Q 8.056 -0.03 8.073 0 L 7.981 0 Q 7.968 -0.027 7.964 -0.064 Z M 7.956 -0.26 Q 7.909 -0.241 7.813 -0.227 Q 7.759 -0.219 7.736 -0.209 Q 7.714 -0.2 7.701 -0.181 Q 7.689 -0.162 7.689 -0.139 Q 7.689 -0.104 7.716 -0.081 Q 7.743 -0.057 7.794 -0.057 Q 7.845 -0.057 7.884 -0.079 Q 7.924 -0.102 7.942 -0.14 Q 7.956 -0.17 7.956 -0.228 Z" transform="matrix(12, 0, 0, -12, 0, 0)"/>
      <path d="M 8.146 -0.155 L 8.233 -0.168 Q 8.241 -0.116 8.274 -0.088 Q 8.307 -0.061 8.368 -0.061 Q 8.428 -0.061 8.457 -0.085 Q 8.487 -0.11 8.487 -0.143 Q 8.487 -0.173 8.461 -0.19 Q 8.443 -0.202 8.371 -0.22 Q 8.274 -0.244 8.237 -0.262 Q 8.2 -0.28 8.18 -0.311 Q 8.161 -0.343 8.161 -0.381 Q 8.161 -0.416 8.177 -0.445 Q 8.193 -0.475 8.22 -0.494 Q 8.241 -0.509 8.276 -0.52 Q 8.311 -0.53 8.352 -0.53 Q 8.413 -0.53 8.459 -0.513 Q 8.505 -0.495 8.527 -0.465 Q 8.549 -0.435 8.557 -0.385 L 8.472 -0.373 Q 8.466 -0.413 8.438 -0.436 Q 8.41 -0.458 8.358 -0.458 Q 8.298 -0.458 8.272 -0.438 Q 8.246 -0.418 8.246 -0.391 Q 8.246 -0.374 8.257 -0.36 Q 8.267 -0.346 8.29 -0.337 Q 8.304 -0.332 8.368 -0.314 Q 8.461 -0.29 8.498 -0.274 Q 8.535 -0.258 8.556 -0.228 Q 8.577 -0.197 8.577 -0.152 Q 8.577 -0.108 8.551 -0.07 Q 8.526 -0.031 8.477 -0.01 Q 8.429 0.012 8.368 0.012 Q 8.267 0.012 8.214 -0.03 Q 8.161 -0.072 8.146 -0.155 Z" transform="matrix(12, 0, 0, -12, 0, 0)"/>
      <path d="M 9.298 -0.064 Q 9.249 -0.022 9.204 -0.005 Q 9.159 0.012 9.107 0.012 Q 9.021 0.012 8.975 -0.03 Q 8.93 -0.072 8.93 -0.137 Q 8.93 -0.175 8.947 -0.206 Q 8.964 -0.238 8.992 -0.257 Q 9.02 -0.276 9.056 -0.286 Q 9.081 -0.292 9.134 -0.299 Q 9.24 -0.312 9.29 -0.329 Q 9.291 -0.347 9.291 -0.352 Q 9.291 -0.406 9.266 -0.428 Q 9.232 -0.458 9.166 -0.458 Q 9.104 -0.458 9.074 -0.436 Q 9.045 -0.414 9.031 -0.359 L 8.945 -0.371 Q 8.956 -0.426 8.983 -0.46 Q 9.01 -0.494 9.061 -0.512 Q 9.112 -0.53 9.179 -0.53 Q 9.245 -0.53 9.286 -0.515 Q 9.328 -0.499 9.348 -0.475 Q 9.367 -0.452 9.375 -0.416 Q 9.379 -0.393 9.379 -0.334 L 9.379 -0.217 Q 9.379 -0.095 9.385 -0.062 Q 9.39 -0.03 9.407 0 L 9.315 0 Q 9.302 -0.027 9.298 -0.064 Z M 9.29 -0.26 Q 9.243 -0.241 9.147 -0.227 Q 9.093 -0.219 9.07 -0.209 Q 9.048 -0.2 9.035 -0.181 Q 9.023 -0.162 9.023 -0.139 Q 9.023 -0.104 9.05 -0.081 Q 9.077 -0.057 9.128 -0.057 Q 9.179 -0.057 9.218 -0.079 Q 9.258 -0.102 9.276 -0.14 Q 9.29 -0.17 9.29 -0.228 Z" transform="matrix(12, 0, 0, -12, 0, 0)"/>
      <path d="M 9.814 0 L 9.814 -0.45 L 9.737 -0.45 L 9.737 -0.519 L 9.814 -0.519 L 9.814 -0.574 Q 9.814 -0.626 9.824 -0.651 Q 9.836 -0.686 9.868 -0.707 Q 9.9 -0.728 9.958 -0.728 Q 9.995 -0.728 10.04 -0.719 L 10.027 -0.643 Q 9.999 -0.647 9.975 -0.647 Q 9.935 -0.647 9.918 -0.63 Q 9.902 -0.613 9.902 -0.566 L 9.902 -0.519 L 10.003 -0.519 L 10.003 -0.45 L 9.902 -0.45 L 9.902 0 Z" transform="matrix(12, 0, 0, -12, 0, 0)"/>
      <path d="M 10.411 0 L 10.411 -0.076 Q 10.35 0.012 10.246 0.012 Q 10.201 0.012 10.161 -0.006 Q 10.121 -0.023 10.102 -0.05 Q 10.082 -0.077 10.075 -0.115 Q 10.069 -0.141 10.069 -0.197 L 10.069 -0.519 L 10.157 -0.519 L 10.157 -0.231 Q 10.157 -0.162 10.162 -0.138 Q 10.171 -0.104 10.198 -0.084 Q 10.224 -0.064 10.264 -0.064 Q 10.304 -0.064 10.338 -0.084 Q 10.373 -0.104 10.387 -0.139 Q 10.402 -0.174 10.402 -0.241 L 10.402 -0.519 L 10.49 -0.519 L 10.49 0 Z" transform="matrix(12, 0, 0, -12, 0, 0)"/>
      <path d="M 10.627 0 L 10.627 -0.519 L 10.706 -0.519 L 10.706 -0.445 Q 10.764 -0.53 10.871 -0.53 Q 10.918 -0.53 10.958 -0.513 Q 10.997 -0.497 11.016 -0.469 Q 11.036 -0.442 11.044 -0.404 Q 11.049 -0.38 11.049 -0.319 L 11.049 0 L 10.961 0 L 10.961 -0.315 Q 10.961 -0.369 10.951 -0.396 Q 10.94 -0.422 10.914 -0.438 Q 10.888 -0.454 10.853 -0.454 Q 10.797 -0.454 10.756 -0.418 Q 10.715 -0.383 10.715 -0.283 L 10.715 0 Z" transform="matrix(12, 0, 0, -12, 0, 0)"/>
      <path d="M 11.522 -0.19 L 11.608 -0.179 Q 11.594 -0.089 11.536 -0.039 Q 11.477 0.012 11.393 0.012 Q 11.286 0.012 11.221 -0.058 Q 11.157 -0.127 11.157 -0.257 Q 11.157 -0.341 11.184 -0.404 Q 11.212 -0.467 11.269 -0.499 Q 11.326 -0.53 11.393 -0.53 Q 11.477 -0.53 11.531 -0.488 Q 11.585 -0.445 11.6 -0.366 L 11.515 -0.353 Q 11.502 -0.405 11.471 -0.432 Q 11.44 -0.458 11.396 -0.458 Q 11.33 -0.458 11.288 -0.41 Q 11.247 -0.363 11.247 -0.26 Q 11.247 -0.155 11.287 -0.108 Q 11.327 -0.061 11.392 -0.061 Q 11.443 -0.061 11.478 -0.092 Q 11.513 -0.124 11.522 -0.19 Z" transform="matrix(12, 0, 0, -12, 0, 0)"/>
      <path d="M 11.875 -0.079 L 11.888 -0.001 Q 11.851 0.007 11.822 0.007 Q 11.774 0.007 11.747 -0.008 Q 11.721 -0.023 11.71 -0.048 Q 11.7 -0.073 11.7 -0.152 L 11.7 -0.45 L 11.635 -0.45 L 11.635 -0.519 L 11.7 -0.519 L 11.7 -0.647 L 11.787 -0.7 L 11.787 -0.519 L 11.875 -0.519 L 11.875 -0.45 L 11.787 -0.45 L 11.787 -0.147 Q 11.787 -0.109 11.792 -0.099 Q 11.796 -0.088 11.807 -0.082 Q 11.817 -0.075 11.837 -0.075 Q 11.851 -0.075 11.875 -0.079 Z" transform="matrix(12, 0, 0, -12, 0, 0)"/>
      <path d="M 11.962 -0.615 L 11.962 -0.716 L 12.05 -0.716 L 12.05 -0.615 Z M 11.962 0 L 11.962 -0.519 L 12.05 -0.519 L 12.05 0 Z" transform="matrix(12, 0, 0, -12, 0, 0)"/>
      <path d="M 12.151 -0.259 Q 12.151 -0.403 12.231 -0.473 Q 12.298 -0.53 12.394 -0.53 Q 12.501 -0.53 12.569 -0.46 Q 12.637 -0.39 12.637 -0.267 Q 12.637 -0.167 12.607 -0.109 Q 12.577 -0.052 12.519 -0.02 Q 12.462 0.012 12.394 0.012 Q 12.285 0.012 12.218 -0.058 Q 12.151 -0.128 12.151 -0.259 Z M 12.241 -0.259 Q 12.241 -0.16 12.285 -0.11 Q 12.328 -0.061 12.394 -0.061 Q 12.459 -0.061 12.503 -0.11 Q 12.546 -0.16 12.546 -0.262 Q 12.546 -0.358 12.503 -0.408 Q 12.459 -0.458 12.394 -0.458 Q 12.328 -0.458 12.285 -0.408 Q 12.241 -0.359 12.241 -0.259 Z" transform="matrix(12, 0, 0, -12, 0, 0)"/>
      <path d="M 12.74 0 L 12.74 -0.519 L 12.819 -0.519 L 12.819 -0.445 Q 12.876 -0.53 12.984 -0.53 Q 13.031 -0.53 13.07 -0.513 Q 13.109 -0.497 13.129 -0.469 Q 13.148 -0.442 13.156 -0.404 Q 13.161 -0.38 13.161 -0.319 L 13.161 0 L 13.073 0 L 13.073 -0.315 Q 13.073 -0.369 13.063 -0.396 Q 13.053 -0.422 13.027 -0.438 Q 13 -0.454 12.965 -0.454 Q 12.909 -0.454 12.868 -0.418 Q 12.828 -0.383 12.828 -0.283 L 12.828 0 Z" transform="matrix(12, 0, 0, -12, 0, 0)"/>
      <path d="M 13.541 -0.259 Q 13.541 -0.403 13.621 -0.473 Q 13.688 -0.53 13.784 -0.53 Q 13.891 -0.53 13.959 -0.46 Q 14.027 -0.39 14.027 -0.267 Q 14.027 -0.167 13.997 -0.109 Q 13.967 -0.052 13.909 -0.02 Q 13.852 0.012 13.784 0.012 Q 13.675 0.012 13.608 -0.058 Q 13.541 -0.128 13.541 -0.259 Z M 13.631 -0.259 Q 13.631 -0.16 13.675 -0.11 Q 13.718 -0.061 13.784 -0.061 Q 13.85 -0.061 13.893 -0.11 Q 13.937 -0.16 13.937 -0.262 Q 13.937 -0.358 13.893 -0.408 Q 13.849 -0.458 13.784 -0.458 Q 13.718 -0.458 13.675 -0.408 Q 13.631 -0.359 13.631 -0.259 Z" transform="matrix(12, 0, 0, -12, 0, 0)"/>
      <path d="M 14.151 0 L 14.151 -0.45 L 14.073 -0.45 L 14.073 -0.519 L 14.151 -0.519 L 14.151 -0.574 Q 14.151 -0.626 14.16 -0.651 Q 14.173 -0.686 14.205 -0.707 Q 14.237 -0.728 14.294 -0.728 Q 14.332 -0.728 14.377 -0.719 L 14.363 -0.643 Q 14.336 -0.647 14.312 -0.647 Q 14.272 -0.647 14.255 -0.63 Q 14.238 -0.613 14.238 -0.566 L 14.238 -0.519 L 14.339 -0.519 L 14.339 -0.45 L 14.238 -0.45 L 14.238 0 Z" transform="matrix(12, 0, 0, -12, 0, 0)"/>
      <path d="M 14.65 -0.155 L 14.737 -0.168 Q 14.745 -0.116 14.778 -0.088 Q 14.811 -0.061 14.872 -0.061 Q 14.932 -0.061 14.961 -0.085 Q 14.991 -0.11 14.991 -0.143 Q 14.991 -0.173 14.965 -0.19 Q 14.947 -0.202 14.875 -0.22 Q 14.778 -0.244 14.741 -0.262 Q 14.704 -0.28 14.684 -0.311 Q 14.665 -0.343 14.665 -0.381 Q 14.665 -0.416 14.681 -0.445 Q 14.697 -0.475 14.724 -0.494 Q 14.745 -0.509 14.78 -0.52 Q 14.815 -0.53 14.856 -0.53 Q 14.917 -0.53 14.963 -0.513 Q 15.009 -0.495 15.031 -0.465 Q 15.053 -0.435 15.061 -0.385 L 14.976 -0.373 Q 14.97 -0.413 14.942 -0.436 Q 14.914 -0.458 14.862 -0.458 Q 14.802 -0.458 14.776 -0.438 Q 14.75 -0.418 14.75 -0.391 Q 14.75 -0.374 14.761 -0.36 Q 14.771 -0.346 14.794 -0.337 Q 14.808 -0.332 14.872 -0.314 Q 14.965 -0.29 15.002 -0.274 Q 15.039 -0.258 15.06 -0.228 Q 15.081 -0.197 15.081 -0.152 Q 15.081 -0.108 15.055 -0.07 Q 15.03 -0.031 14.981 -0.01 Q 14.933 0.012 14.872 0.012 Q 14.771 0.012 14.718 -0.03 Q 14.665 -0.072 14.65 -0.155 Z" transform="matrix(12, 0, 0, -12, 0, 0)"/>
      <path d="M 15.186 -0.615 L 15.186 -0.716 L 15.274 -0.716 L 15.274 -0.615 Z M 15.186 0 L 15.186 -0.519 L 15.274 -0.519 L 15.274 0 Z" transform="matrix(12, 0, 0, -12, 0, 0)"/>
      <path d="M 15.392 0.043 L 15.477 0.056 Q 15.482 0.095 15.507 0.113 Q 15.54 0.138 15.596 0.138 Q 15.657 0.138 15.69 0.113 Q 15.724 0.089 15.735 0.045 Q 15.742 0.018 15.742 -0.068 Q 15.684 0 15.598 0 Q 15.491 0 15.433 -0.077 Q 15.374 -0.154 15.374 -0.262 Q 15.374 -0.336 15.401 -0.399 Q 15.428 -0.462 15.479 -0.496 Q 15.53 -0.53 15.599 -0.53 Q 15.69 -0.53 15.75 -0.456 L 15.75 -0.519 L 15.831 -0.519 L 15.831 -0.07 Q 15.831 0.051 15.806 0.101 Q 15.782 0.152 15.728 0.181 Q 15.675 0.21 15.597 0.21 Q 15.504 0.21 15.447 0.169 Q 15.39 0.127 15.392 0.043 Z M 15.464 -0.269 Q 15.464 -0.167 15.505 -0.12 Q 15.545 -0.073 15.606 -0.073 Q 15.667 -0.073 15.708 -0.119 Q 15.749 -0.166 15.749 -0.266 Q 15.749 -0.361 15.707 -0.409 Q 15.665 -0.458 15.605 -0.458 Q 15.546 -0.458 15.505 -0.41 Q 15.464 -0.362 15.464 -0.269 Z" transform="matrix(12, 0, 0, -12, 0, 0)"/>
      <path d="M 15.964 0 L 15.964 -0.519 L 16.043 -0.519 L 16.043 -0.445 Q 16.1 -0.53 16.208 -0.53 Q 16.255 -0.53 16.294 -0.513 Q 16.334 -0.497 16.353 -0.469 Q 16.373 -0.442 16.38 -0.404 Q 16.385 -0.38 16.385 -0.319 L 16.385 0 L 16.297 0 L 16.297 -0.315 Q 16.297 -0.369 16.287 -0.396 Q 16.277 -0.422 16.251 -0.438 Q 16.225 -0.454 16.19 -0.454 Q 16.133 -0.454 16.093 -0.418 Q 16.052 -0.383 16.052 -0.283 L 16.052 0 Z" transform="matrix(12, 0, 0, -12, 0, 0)"/>
      <path d="M 16.858 -0.064 Q 16.81 -0.022 16.765 -0.005 Q 16.719 0.012 16.668 0.012 Q 16.582 0.012 16.536 -0.03 Q 16.49 -0.072 16.49 -0.137 Q 16.49 -0.175 16.508 -0.206 Q 16.525 -0.238 16.553 -0.257 Q 16.581 -0.276 16.616 -0.286 Q 16.642 -0.292 16.694 -0.299 Q 16.801 -0.312 16.851 -0.329 Q 16.852 -0.347 16.852 -0.352 Q 16.852 -0.406 16.827 -0.428 Q 16.793 -0.458 16.727 -0.458 Q 16.665 -0.458 16.635 -0.436 Q 16.606 -0.414 16.591 -0.359 L 16.505 -0.371 Q 16.517 -0.426 16.544 -0.46 Q 16.571 -0.494 16.622 -0.512 Q 16.672 -0.53 16.739 -0.53 Q 16.806 -0.53 16.847 -0.515 Q 16.889 -0.499 16.908 -0.475 Q 16.928 -0.452 16.936 -0.416 Q 16.94 -0.393 16.94 -0.334 L 16.94 -0.217 Q 16.94 -0.095 16.946 -0.062 Q 16.951 -0.03 16.968 0 L 16.876 0 Q 16.862 -0.027 16.858 -0.064 Z M 16.851 -0.26 Q 16.803 -0.241 16.708 -0.227 Q 16.653 -0.219 16.631 -0.209 Q 16.608 -0.2 16.596 -0.181 Q 16.584 -0.162 16.584 -0.139 Q 16.584 -0.104 16.611 -0.081 Q 16.637 -0.057 16.689 -0.057 Q 16.739 -0.057 16.779 -0.079 Q 16.818 -0.102 16.837 -0.14 Q 16.851 -0.17 16.851 -0.228 Z" transform="matrix(12, 0, 0, -12, 0, 0)"/>
      <path d="M 17.074 0 L 17.074 -0.716 L 17.162 -0.716 L 17.162 0 Z" transform="matrix(12, 0, 0, -12, 0, 0)"/>
      <path d="M 17.915 -0.19 L 18.001 -0.179 Q 17.987 -0.089 17.929 -0.039 Q 17.87 0.012 17.785 0.012 Q 17.679 0.012 17.614 -0.058 Q 17.549 -0.127 17.549 -0.257 Q 17.549 -0.341 17.577 -0.404 Q 17.605 -0.467 17.662 -0.499 Q 17.719 -0.53 17.786 -0.53 Q 17.87 -0.53 17.924 -0.488 Q 17.978 -0.445 17.993 -0.366 L 17.907 -0.353 Q 17.895 -0.405 17.864 -0.432 Q 17.833 -0.458 17.789 -0.458 Q 17.723 -0.458 17.681 -0.41 Q 17.64 -0.363 17.64 -0.26 Q 17.64 -0.155 17.68 -0.108 Q 17.72 -0.061 17.784 -0.061 Q 17.836 -0.061 17.871 -0.092 Q 17.905 -0.124 17.915 -0.19 Z" transform="matrix(12, 0, 0, -12, 0, 0)"/>
      <path d="M 18.044 -0.259 Q 18.044 -0.403 18.124 -0.473 Q 18.191 -0.53 18.287 -0.53 Q 18.394 -0.53 18.462 -0.46 Q 18.529 -0.39 18.529 -0.267 Q 18.529 -0.167 18.499 -0.109 Q 18.469 -0.052 18.412 -0.02 Q 18.355 0.012 18.287 0.012 Q 18.178 0.012 18.111 -0.058 Q 18.044 -0.128 18.044 -0.259 Z M 18.134 -0.259 Q 18.134 -0.16 18.177 -0.11 Q 18.221 -0.061 18.287 -0.061 Q 18.352 -0.061 18.396 -0.11 Q 18.439 -0.16 18.439 -0.262 Q 18.439 -0.358 18.395 -0.408 Q 18.352 -0.458 18.287 -0.458 Q 18.221 -0.458 18.177 -0.408 Q 18.134 -0.359 18.134 -0.259 Z" transform="matrix(12, 0, 0, -12, 0, 0)"/>
      <path d="M 18.633 0 L 18.633 -0.519 L 18.712 -0.519 L 18.712 -0.445 Q 18.769 -0.53 18.877 -0.53 Q 18.924 -0.53 18.963 -0.513 Q 19.002 -0.497 19.022 -0.469 Q 19.041 -0.442 19.049 -0.404 Q 19.054 -0.38 19.054 -0.319 L 19.054 0 L 18.966 0 L 18.966 -0.315 Q 18.966 -0.369 18.956 -0.396 Q 18.946 -0.422 18.919 -0.438 Q 18.893 -0.454 18.858 -0.454 Q 18.802 -0.454 18.761 -0.418 Q 18.72 -0.383 18.72 -0.283 L 18.72 0 Z" transform="matrix(12, 0, 0, -12, 0, 0)"/>
      <path d="M 19.527 -0.19 L 19.614 -0.179 Q 19.599 -0.089 19.541 -0.039 Q 19.483 0.012 19.398 0.012 Q 19.291 0.012 19.227 -0.058 Q 19.162 -0.127 19.162 -0.257 Q 19.162 -0.341 19.19 -0.404 Q 19.218 -0.467 19.274 -0.499 Q 19.331 -0.53 19.398 -0.53 Q 19.483 -0.53 19.536 -0.488 Q 19.59 -0.445 19.605 -0.366 L 19.52 -0.353 Q 19.508 -0.405 19.477 -0.432 Q 19.446 -0.458 19.402 -0.458 Q 19.335 -0.458 19.294 -0.41 Q 19.252 -0.363 19.252 -0.26 Q 19.252 -0.155 19.292 -0.108 Q 19.332 -0.061 19.397 -0.061 Q 19.448 -0.061 19.483 -0.092 Q 19.518 -0.124 19.527 -0.19 Z" transform="matrix(12, 0, 0, -12, 0, 0)"/>
      <path d="M 20.044 -0.167 L 20.135 -0.156 Q 20.113 -0.076 20.055 -0.032 Q 19.997 0.012 19.906 0.012 Q 19.793 0.012 19.726 -0.058 Q 19.659 -0.128 19.659 -0.255 Q 19.659 -0.386 19.727 -0.458 Q 19.794 -0.53 19.902 -0.53 Q 20.006 -0.53 20.072 -0.459 Q 20.137 -0.389 20.137 -0.26 Q 20.137 -0.252 20.137 -0.237 L 19.75 -0.237 Q 19.755 -0.151 19.799 -0.106 Q 19.842 -0.061 19.907 -0.061 Q 19.955 -0.061 19.99 -0.086 Q 20.024 -0.111 20.044 -0.167 Z M 19.755 -0.309 L 20.045 -0.309 Q 20.039 -0.375 20.011 -0.407 Q 19.969 -0.458 19.903 -0.458 Q 19.842 -0.458 19.801 -0.417 Q 19.76 -0.377 19.755 -0.309 Z" transform="matrix(12, 0, 0, -12, 0, 0)"/>
      <path d="M 20.245 0 L 20.245 -0.519 L 20.324 -0.519 L 20.324 -0.445 Q 20.381 -0.53 20.489 -0.53 Q 20.536 -0.53 20.575 -0.513 Q 20.615 -0.497 20.634 -0.469 Q 20.654 -0.442 20.661 -0.404 Q 20.666 -0.38 20.666 -0.319 L 20.666 0 L 20.578 0 L 20.578 -0.315 Q 20.578 -0.369 20.568 -0.396 Q 20.558 -0.422 20.532 -0.438 Q 20.506 -0.454 20.471 -0.454 Q 20.414 -0.454 20.374 -0.418 Q 20.333 -0.383 20.333 -0.283 L 20.333 0 Z" transform="matrix(12, 0, 0, -12, 0, 0)"/>
      <path d="M 20.993 -0.079 L 21.006 -0.001 Q 20.969 0.007 20.939 0.007 Q 20.891 0.007 20.865 -0.008 Q 20.839 -0.023 20.828 -0.048 Q 20.817 -0.073 20.817 -0.152 L 20.817 -0.45 L 20.753 -0.45 L 20.753 -0.519 L 20.817 -0.519 L 20.817 -0.647 L 20.905 -0.7 L 20.905 -0.519 L 20.993 -0.519 L 20.993 -0.45 L 20.905 -0.45 L 20.905 -0.147 Q 20.905 -0.109 20.909 -0.099 Q 20.914 -0.088 20.924 -0.082 Q 20.935 -0.075 20.954 -0.075 Q 20.969 -0.075 20.993 -0.079 Z" transform="matrix(12, 0, 0, -12, 0, 0)"/>
      <path d="M 21.078 0 L 21.078 -0.519 L 21.157 -0.519 L 21.157 -0.44 Q 21.187 -0.495 21.213 -0.513 Q 21.239 -0.53 21.269 -0.53 Q 21.314 -0.53 21.36 -0.502 L 21.329 -0.42 Q 21.297 -0.439 21.265 -0.439 Q 21.236 -0.439 21.213 -0.422 Q 21.19 -0.405 21.18 -0.374 Q 21.166 -0.327 21.166 -0.271 L 21.166 0 Z" transform="matrix(12, 0, 0, -12, 0, 0)"/>
      <path d="M 21.75 -0.064 Q 21.701 -0.022 21.656 -0.005 Q 21.611 0.012 21.559 0.012 Q 21.474 0.012 21.428 -0.03 Q 21.382 -0.072 21.382 -0.137 Q 21.382 -0.175 21.399 -0.206 Q 21.417 -0.238 21.445 -0.257 Q 21.473 -0.276 21.508 -0.286 Q 21.534 -0.292 21.586 -0.299 Q 21.693 -0.312 21.743 -0.329 Q 21.743 -0.347 21.743 -0.352 Q 21.743 -0.406 21.719 -0.428 Q 21.685 -0.458 21.618 -0.458 Q 21.556 -0.458 21.527 -0.436 Q 21.497 -0.414 21.483 -0.359 L 21.397 -0.371 Q 21.409 -0.426 21.436 -0.46 Q 21.463 -0.494 21.513 -0.512 Q 21.564 -0.53 21.631 -0.53 Q 21.698 -0.53 21.739 -0.515 Q 21.781 -0.499 21.8 -0.475 Q 21.82 -0.452 21.827 -0.416 Q 21.832 -0.393 21.832 -0.334 L 21.832 -0.217 Q 21.832 -0.095 21.837 -0.062 Q 21.843 -0.03 21.86 0 L 21.768 0 Q 21.754 -0.027 21.75 -0.064 Z M 21.743 -0.26 Q 21.695 -0.241 21.599 -0.227 Q 21.545 -0.219 21.523 -0.209 Q 21.5 -0.2 21.488 -0.181 Q 21.476 -0.162 21.476 -0.139 Q 21.476 -0.104 21.502 -0.081 Q 21.529 -0.057 21.58 -0.057 Q 21.631 -0.057 21.671 -0.079 Q 21.71 -0.102 21.729 -0.14 Q 21.743 -0.17 21.743 -0.228 Z" transform="matrix(12, 0, 0, -12, 0, 0)"/>
      <path d="M 22.16 -0.079 L 22.173 -0.001 Q 22.136 0.007 22.106 0.007 Q 22.058 0.007 22.032 -0.008 Q 22.006 -0.023 21.995 -0.048 Q 21.984 -0.073 21.984 -0.152 L 21.984 -0.45 L 21.92 -0.45 L 21.92 -0.519 L 21.984 -0.519 L 21.984 -0.647 L 22.072 -0.7 L 22.072 -0.519 L 22.16 -0.519 L 22.16 -0.45 L 22.072 -0.45 L 22.072 -0.147 Q 22.072 -0.109 22.076 -0.099 Q 22.081 -0.088 22.091 -0.082 Q 22.102 -0.075 22.121 -0.075 Q 22.136 -0.075 22.16 -0.079 Z" transform="matrix(12, 0, 0, -12, 0, 0)"/>
      <path d="M 22.246 -0.615 L 22.246 -0.716 L 22.334 -0.716 L 22.334 -0.615 Z M 22.246 0 L 22.246 -0.519 L 22.334 -0.519 L 22.334 0 Z" transform="matrix(12, 0, 0, -12, 0, 0)"/>
      <path d="M 22.435 -0.259 Q 22.435 -0.403 22.515 -0.473 Q 22.582 -0.53 22.679 -0.53 Q 22.786 -0.53 22.853 -0.46 Q 22.921 -0.39 22.921 -0.267 Q 22.921 -0.167 22.891 -0.109 Q 22.861 -0.052 22.804 -0.02 Q 22.746 0.012 22.679 0.012 Q 22.57 0.012 22.503 -0.058 Q 22.435 -0.128 22.435 -0.259 Z M 22.526 -0.259 Q 22.526 -0.16 22.569 -0.11 Q 22.613 -0.061 22.679 -0.061 Q 22.744 -0.061 22.787 -0.11 Q 22.831 -0.16 22.831 -0.262 Q 22.831 -0.358 22.787 -0.408 Q 22.744 -0.458 22.679 -0.458 Q 22.613 -0.458 22.569 -0.408 Q 22.526 -0.359 22.526 -0.259 Z" transform="matrix(12, 0, 0, -12, 0, 0)"/>
      <path d="M 23.024 0 L 23.024 -0.519 L 23.103 -0.519 L 23.103 -0.445 Q 23.161 -0.53 23.268 -0.53 Q 23.315 -0.53 23.355 -0.513 Q 23.394 -0.497 23.413 -0.469 Q 23.433 -0.442 23.441 -0.404 Q 23.446 -0.38 23.446 -0.319 L 23.446 0 L 23.358 0 L 23.358 -0.315 Q 23.358 -0.369 23.348 -0.396 Q 23.337 -0.422 23.311 -0.438 Q 23.285 -0.454 23.25 -0.454 Q 23.194 -0.454 23.153 -0.418 Q 23.112 -0.383 23.112 -0.283 L 23.112 0 Z" transform="matrix(12, 0, 0, -12, 0, 0)"/>
    </g>
  </g>
  <g style="clip-path: url('#clippath7');" transform="matrix(1, 0, 0, -1, 0, 612)">
    <g transform="matrix(0.7734375 0 0 0.7734375 344.3065 434.0577)">
      <path d="M 0.007 0.015 L 0.062 -0.23 L 0.078 -0.23 Q 0.075 -0.195 0.075 -0.171 Q 0.075 -0.104 0.117 -0.062 Q 0.16 -0.021 0.229 -0.021 Q 0.293 -0.021 0.326 -0.06 Q 0.359 -0.099 0.359 -0.15 Q 0.359 -0.184 0.344 -0.211 Q 0.321 -0.251 0.222 -0.354 Q 0.173 -0.402 0.16 -0.426 Q 0.137 -0.466 0.137 -0.509 Q 0.137 -0.579 0.189 -0.628 Q 0.241 -0.677 0.322 -0.677 Q 0.349 -0.677 0.374 -0.672 Q 0.389 -0.669 0.429 -0.652 Q 0.457 -0.641 0.46 -0.64 Q 0.467 -0.639 0.475 -0.639 Q 0.489 -0.639 0.5 -0.646 Q 0.51 -0.653 0.523 -0.677 L 0.542 -0.677 L 0.491 -0.458 L 0.475 -0.458 Q 0.477 -0.487 0.477 -0.505 Q 0.477 -0.564 0.438 -0.602 Q 0.398 -0.639 0.334 -0.639 Q 0.284 -0.639 0.252 -0.609 Q 0.22 -0.58 0.22 -0.541 Q 0.22 -0.506 0.24 -0.475 Q 0.261 -0.444 0.334 -0.374 Q 0.407 -0.304 0.428 -0.265 Q 0.45 -0.226 0.45 -0.181 Q 0.45 -0.131 0.423 -0.084 Q 0.396 -0.037 0.347 -0.011 Q 0.297 0.015 0.238 0.015 Q 0.208 0.015 0.183 0.01 Q 0.158 0.004 0.102 -0.017 Q 0.083 -0.024 0.07 -0.024 Q 0.042 -0.024 0.025 0.015 Z" transform="matrix(12, 0, 0, -12, 285.497986, 0)"/>
    </g>
  </g>
  <g transform="matrix(1, 0, 0, -1, 0, 612)">
    <path d="M 343.5331 444.1725 L 571.2316 444.1725 L 571.2316 447.26625 L 343.5331 447.26625 Z" style="fill: none;"/>
  </g>
  <g style="clip-path: url('#clippath8');" transform="matrix(1, 0, 0, -1, 0, 611.999755859375)">
    <g transform="matrix(0.7734375 0 0 -0.7734375 344.3065 445.7194)">
      <path d="M 0 0 L 292.3981 0" style="fill: none; stroke: rgb(86, 193, 255); stroke-opacity: 1; stroke-miterlimit: 4; stroke-width: 2px; stroke-dashoffset: 0px;"/>
    </g>
  </g>
  <g transform="matrix(1, 0, 0, -1, 0, 612)">
    <path d="M 376.1323 453.9973 L 507.5972 453.9973 L 507.5972 471.06232 L 376.1323 471.06232 Z" style="fill: none;"/>
  </g>
  <g style="clip-path: url('#clippath9');" transform="matrix(1, 0, 0, -1, 0, 612)">
    <g transform="matrix(0.7734375 0 0 0.7734375 378.7245 459.9125)">
      <path d="M 0.073 0 L 0.073 -0.716 L 0.342 -0.716 Q 0.424 -0.716 0.473 -0.694 Q 0.523 -0.672 0.551 -0.627 Q 0.579 -0.582 0.579 -0.533 Q 0.579 -0.487 0.554 -0.446 Q 0.529 -0.406 0.479 -0.381 Q 0.544 -0.362 0.579 -0.316 Q 0.614 -0.27 0.614 -0.208 Q 0.614 -0.157 0.593 -0.114 Q 0.571 -0.071 0.54 -0.047 Q 0.509 -0.024 0.462 -0.012 Q 0.415 0 0.346 0 Z M 0.168 -0.415 L 0.323 -0.415 Q 0.386 -0.415 0.413 -0.423 Q 0.449 -0.434 0.468 -0.459 Q 0.486 -0.484 0.486 -0.521 Q 0.486 -0.557 0.469 -0.584 Q 0.452 -0.611 0.42 -0.621 Q 0.388 -0.631 0.311 -0.631 L 0.168 -0.631 Z M 0.168 -0.084 L 0.346 -0.084 Q 0.392 -0.084 0.411 -0.088 Q 0.443 -0.094 0.465 -0.107 Q 0.487 -0.121 0.501 -0.147 Q 0.516 -0.173 0.516 -0.208 Q 0.516 -0.248 0.495 -0.277 Q 0.475 -0.307 0.438 -0.319 Q 0.402 -0.331 0.333 -0.331 L 0.168 -0.331 Z" transform="matrix(12, 0, 0, -12, 0, 0)"/>
      <path d="M 1.071 -0.064 Q 1.022 -0.022 0.977 -0.005 Q 0.932 0.012 0.88 0.012 Q 0.795 0.012 0.749 -0.03 Q 0.703 -0.072 0.703 -0.137 Q 0.703 -0.175 0.72 -0.206 Q 0.738 -0.238 0.766 -0.257 Q 0.794 -0.276 0.829 -0.286 Q 0.855 -0.292 0.907 -0.299 Q 1.014 -0.312 1.064 -0.329 Q 1.064 -0.347 1.064 -0.352 Q 1.064 -0.406 1.04 -0.428 Q 1.006 -0.458 0.939 -0.458 Q 0.877 -0.458 0.848 -0.436 Q 0.818 -0.414 0.804 -0.359 L 0.718 -0.371 Q 0.73 -0.426 0.757 -0.46 Q 0.784 -0.494 0.834 -0.512 Q 0.885 -0.53 0.952 -0.53 Q 1.019 -0.53 1.06 -0.515 Q 1.102 -0.499 1.121 -0.475 Q 1.141 -0.452 1.148 -0.416 Q 1.153 -0.393 1.153 -0.334 L 1.153 -0.217 Q 1.153 -0.095 1.158 -0.062 Q 1.164 -0.03 1.181 0 L 1.089 0 Q 1.075 -0.027 1.071 -0.064 Z M 1.064 -0.26 Q 1.016 -0.241 0.92 -0.227 Q 0.866 -0.219 0.844 -0.209 Q 0.821 -0.2 0.809 -0.181 Q 0.797 -0.162 0.797 -0.139 Q 0.797 -0.104 0.823 -0.081 Q 0.85 -0.057 0.901 -0.057 Q 0.952 -0.057 0.992 -0.079 Q 1.031 -0.102 1.05 -0.14 Q 1.064 -0.17 1.064 -0.228 Z" transform="matrix(12, 0, 0, -12, 0, 0)"/>
      <path d="M 1.254 -0.155 L 1.341 -0.168 Q 1.348 -0.116 1.382 -0.088 Q 1.415 -0.061 1.475 -0.061 Q 1.536 -0.061 1.565 -0.085 Q 1.594 -0.11 1.594 -0.143 Q 1.594 -0.173 1.568 -0.19 Q 1.55 -0.202 1.479 -0.22 Q 1.382 -0.244 1.345 -0.262 Q 1.307 -0.28 1.288 -0.311 Q 1.269 -0.343 1.269 -0.381 Q 1.269 -0.416 1.284 -0.445 Q 1.3 -0.475 1.328 -0.494 Q 1.348 -0.509 1.384 -0.52 Q 1.419 -0.53 1.46 -0.53 Q 1.521 -0.53 1.567 -0.513 Q 1.613 -0.495 1.635 -0.465 Q 1.657 -0.435 1.665 -0.385 L 1.579 -0.373 Q 1.573 -0.413 1.545 -0.436 Q 1.517 -0.458 1.466 -0.458 Q 1.405 -0.458 1.379 -0.438 Q 1.354 -0.418 1.354 -0.391 Q 1.354 -0.374 1.364 -0.36 Q 1.375 -0.346 1.398 -0.337 Q 1.411 -0.332 1.476 -0.314 Q 1.569 -0.29 1.606 -0.274 Q 1.643 -0.258 1.664 -0.228 Q 1.685 -0.197 1.685 -0.152 Q 1.685 -0.108 1.659 -0.07 Q 1.633 -0.031 1.585 -0.01 Q 1.537 0.012 1.476 0.012 Q 1.375 0.012 1.322 -0.03 Q 1.269 -0.072 1.254 -0.155 Z" transform="matrix(12, 0, 0, -12, 0, 0)"/>
      <path d="M 2.127 -0.064 Q 2.079 -0.022 2.034 -0.005 Q 1.988 0.012 1.937 0.012 Q 1.851 0.012 1.805 -0.03 Q 1.759 -0.072 1.759 -0.137 Q 1.759 -0.175 1.777 -0.206 Q 1.794 -0.238 1.822 -0.257 Q 1.85 -0.276 1.885 -0.286 Q 1.911 -0.292 1.963 -0.299 Q 2.07 -0.312 2.12 -0.329 Q 2.121 -0.347 2.121 -0.352 Q 2.121 -0.406 2.096 -0.428 Q 2.062 -0.458 1.996 -0.458 Q 1.934 -0.458 1.904 -0.436 Q 1.875 -0.414 1.86 -0.359 L 1.774 -0.371 Q 1.786 -0.426 1.813 -0.46 Q 1.84 -0.494 1.891 -0.512 Q 1.941 -0.53 2.008 -0.53 Q 2.075 -0.53 2.116 -0.515 Q 2.158 -0.499 2.177 -0.475 Q 2.197 -0.452 2.205 -0.416 Q 2.209 -0.393 2.209 -0.334 L 2.209 -0.217 Q 2.209 -0.095 2.215 -0.062 Q 2.22 -0.03 2.237 0 L 2.145 0 Q 2.131 -0.027 2.127 -0.064 Z M 2.12 -0.26 Q 2.072 -0.241 1.977 -0.227 Q 1.922 -0.219 1.9 -0.209 Q 1.877 -0.2 1.865 -0.181 Q 1.853 -0.162 1.853 -0.139 Q 1.853 -0.104 1.88 -0.081 Q 1.906 -0.057 1.958 -0.057 Q 2.008 -0.057 2.048 -0.079 Q 2.087 -0.102 2.106 -0.14 Q 2.12 -0.17 2.12 -0.228 Z" transform="matrix(12, 0, 0, -12, 0, 0)"/>
      <path d="M 2.343 0 L 2.343 -0.716 L 2.431 -0.716 L 2.431 0 Z" transform="matrix(12, 0, 0, -12, 0, 0)"/>
      <path d="M 3.013 0.21 Q 2.941 0.119 2.89 -0.004 Q 2.84 -0.127 2.84 -0.259 Q 2.84 -0.375 2.878 -0.482 Q 2.921 -0.605 3.013 -0.728 L 3.076 -0.728 Q 3.017 -0.626 2.998 -0.583 Q 2.968 -0.516 2.951 -0.442 Q 2.93 -0.351 2.93 -0.259 Q 2.93 -0.024 3.076 0.21 Z" transform="matrix(12, 0, 0, -12, 0, 0)"/>
      <path d="M 3.517 -0.19 L 3.603 -0.179 Q 3.589 -0.089 3.531 -0.039 Q 3.472 0.012 3.387 0.012 Q 3.281 0.012 3.216 -0.058 Q 3.151 -0.127 3.151 -0.257 Q 3.151 -0.341 3.179 -0.404 Q 3.207 -0.467 3.264 -0.499 Q 3.321 -0.53 3.388 -0.53 Q 3.472 -0.53 3.526 -0.488 Q 3.58 -0.445 3.595 -0.366 L 3.509 -0.353 Q 3.497 -0.405 3.466 -0.432 Q 3.435 -0.458 3.391 -0.458 Q 3.325 -0.458 3.283 -0.41 Q 3.242 -0.363 3.242 -0.26 Q 3.242 -0.155 3.282 -0.108 Q 3.322 -0.061 3.386 -0.061 Q 3.438 -0.061 3.473 -0.092 Q 3.507 -0.124 3.517 -0.19 Z" transform="matrix(12, 0, 0, -12, 0, 0)"/>
      <path d="M 3.646 -0.259 Q 3.646 -0.403 3.726 -0.473 Q 3.793 -0.53 3.889 -0.53 Q 3.996 -0.53 4.064 -0.46 Q 4.131 -0.39 4.131 -0.267 Q 4.131 -0.167 4.101 -0.109 Q 4.071 -0.052 4.014 -0.02 Q 3.957 0.012 3.889 0.012 Q 3.78 0.012 3.713 -0.058 Q 3.646 -0.128 3.646 -0.259 Z M 3.736 -0.259 Q 3.736 -0.16 3.779 -0.11 Q 3.823 -0.061 3.889 -0.061 Q 3.954 -0.061 3.998 -0.11 Q 4.041 -0.16 4.041 -0.262 Q 4.041 -0.358 3.997 -0.408 Q 3.954 -0.458 3.889 -0.458 Q 3.823 -0.458 3.779 -0.408 Q 3.736 -0.359 3.736 -0.259 Z" transform="matrix(12, 0, 0, -12, 0, 0)"/>
      <path d="M 4.235 0 L 4.235 -0.519 L 4.314 -0.519 L 4.314 -0.445 Q 4.371 -0.53 4.479 -0.53 Q 4.526 -0.53 4.565 -0.513 Q 4.604 -0.497 4.624 -0.469 Q 4.643 -0.442 4.651 -0.404 Q 4.656 -0.38 4.656 -0.319 L 4.656 0 L 4.568 0 L 4.568 -0.315 Q 4.568 -0.369 4.558 -0.396 Q 4.548 -0.422 4.521 -0.438 Q 4.495 -0.454 4.46 -0.454 Q 4.404 -0.454 4.363 -0.418 Q 4.322 -0.383 4.322 -0.283 L 4.322 0 Z" transform="matrix(12, 0, 0, -12, 0, 0)"/>
      <path d="M 4.756 -0.155 L 4.842 -0.168 Q 4.85 -0.116 4.883 -0.088 Q 4.917 -0.061 4.977 -0.061 Q 5.037 -0.061 5.067 -0.085 Q 5.096 -0.11 5.096 -0.143 Q 5.096 -0.173 5.07 -0.19 Q 5.052 -0.202 4.98 -0.22 Q 4.883 -0.244 4.846 -0.262 Q 4.809 -0.28 4.789 -0.311 Q 4.77 -0.343 4.77 -0.381 Q 4.77 -0.416 4.786 -0.445 Q 4.802 -0.475 4.829 -0.494 Q 4.85 -0.509 4.885 -0.52 Q 4.921 -0.53 4.961 -0.53 Q 5.022 -0.53 5.068 -0.513 Q 5.114 -0.495 5.136 -0.465 Q 5.158 -0.435 5.167 -0.385 L 5.081 -0.373 Q 5.075 -0.413 5.047 -0.436 Q 5.019 -0.458 4.967 -0.458 Q 4.907 -0.458 4.881 -0.438 Q 4.855 -0.418 4.855 -0.391 Q 4.855 -0.374 4.866 -0.36 Q 4.877 -0.346 4.9 -0.337 Q 4.913 -0.332 4.977 -0.314 Q 5.071 -0.29 5.107 -0.274 Q 5.144 -0.258 5.165 -0.228 Q 5.186 -0.197 5.186 -0.152 Q 5.186 -0.108 5.161 -0.07 Q 5.135 -0.031 5.087 -0.01 Q 5.038 0.012 4.977 0.012 Q 4.876 0.012 4.823 -0.03 Q 4.77 -0.072 4.756 -0.155 Z" transform="matrix(12, 0, 0, -12, 0, 0)"/>
      <path d="M 5.483 -0.079 L 5.495 -0.001 Q 5.458 0.007 5.429 0.007 Q 5.381 0.007 5.355 -0.008 Q 5.328 -0.023 5.318 -0.048 Q 5.307 -0.073 5.307 -0.152 L 5.307 -0.45 L 5.242 -0.45 L 5.242 -0.519 L 5.307 -0.519 L 5.307 -0.647 L 5.394 -0.7 L 5.394 -0.519 L 5.483 -0.519 L 5.483 -0.45 L 5.394 -0.45 L 5.394 -0.147 Q 5.394 -0.109 5.399 -0.099 Q 5.404 -0.088 5.414 -0.082 Q 5.425 -0.075 5.444 -0.075 Q 5.459 -0.075 5.483 -0.079 Z" transform="matrix(12, 0, 0, -12, 0, 0)"/>
      <path d="M 5.569 -0.615 L 5.569 -0.716 L 5.657 -0.716 L 5.657 -0.615 Z M 5.569 0 L 5.569 -0.519 L 5.657 -0.519 L 5.657 0 Z" transform="matrix(12, 0, 0, -12, 0, 0)"/>
      <path d="M 5.983 -0.079 L 5.995 -0.001 Q 5.958 0.007 5.929 0.007 Q 5.881 0.007 5.855 -0.008 Q 5.828 -0.023 5.818 -0.048 Q 5.807 -0.073 5.807 -0.152 L 5.807 -0.45 L 5.742 -0.45 L 5.742 -0.519 L 5.807 -0.519 L 5.807 -0.647 L 5.894 -0.7 L 5.894 -0.519 L 5.983 -0.519 L 5.983 -0.45 L 5.894 -0.45 L 5.894 -0.147 Q 5.894 -0.109 5.899 -0.099 Q 5.904 -0.088 5.914 -0.082 Q 5.925 -0.075 5.944 -0.075 Q 5.959 -0.075 5.983 -0.079 Z" transform="matrix(12, 0, 0, -12, 0, 0)"/>
      <path d="M 6.408 0 L 6.408 -0.076 Q 6.348 0.012 6.244 0.012 Q 6.198 0.012 6.158 -0.006 Q 6.118 -0.023 6.099 -0.05 Q 6.08 -0.077 6.072 -0.115 Q 6.067 -0.141 6.067 -0.197 L 6.067 -0.519 L 6.154 -0.519 L 6.154 -0.231 Q 6.154 -0.162 6.16 -0.138 Q 6.168 -0.104 6.195 -0.084 Q 6.222 -0.064 6.261 -0.064 Q 6.301 -0.064 6.336 -0.084 Q 6.37 -0.104 6.385 -0.139 Q 6.399 -0.174 6.399 -0.241 L 6.399 -0.519 L 6.487 -0.519 L 6.487 0 Z" transform="matrix(12, 0, 0, -12, 0, 0)"/>
      <path d="M 6.817 -0.079 L 6.829 -0.001 Q 6.792 0.007 6.763 0.007 Q 6.715 0.007 6.689 -0.008 Q 6.662 -0.023 6.652 -0.048 Q 6.641 -0.073 6.641 -0.152 L 6.641 -0.45 L 6.576 -0.45 L 6.576 -0.519 L 6.641 -0.519 L 6.641 -0.647 L 6.728 -0.7 L 6.728 -0.519 L 6.817 -0.519 L 6.817 -0.45 L 6.728 -0.45 L 6.728 -0.147 Q 6.728 -0.109 6.733 -0.099 Q 6.738 -0.088 6.748 -0.082 Q 6.759 -0.075 6.778 -0.075 Q 6.793 -0.075 6.817 -0.079 Z" transform="matrix(12, 0, 0, -12, 0, 0)"/>
      <path d="M 6.903 -0.615 L 6.903 -0.716 L 6.991 -0.716 L 6.991 -0.615 Z M 6.903 0 L 6.903 -0.519 L 6.991 -0.519 L 6.991 0 Z" transform="matrix(12, 0, 0, -12, 0, 0)"/>
      <path d="M 7.269 0 L 7.071 -0.519 L 7.164 -0.519 L 7.276 -0.208 Q 7.294 -0.158 7.309 -0.104 Q 7.321 -0.145 7.342 -0.202 L 7.457 -0.519 L 7.547 -0.519 L 7.351 0 Z" transform="matrix(12, 0, 0, -12, 0, 0)"/>
      <path d="M 7.98 -0.167 L 8.071 -0.156 Q 8.049 -0.076 7.991 -0.032 Q 7.933 0.012 7.842 0.012 Q 7.729 0.012 7.662 -0.058 Q 7.595 -0.128 7.595 -0.255 Q 7.595 -0.386 7.663 -0.458 Q 7.73 -0.53 7.838 -0.53 Q 7.942 -0.53 8.008 -0.459 Q 8.073 -0.389 8.073 -0.26 Q 8.073 -0.252 8.073 -0.237 L 7.686 -0.237 Q 7.691 -0.151 7.735 -0.106 Q 7.778 -0.061 7.843 -0.061 Q 7.891 -0.061 7.925 -0.086 Q 7.96 -0.111 7.98 -0.167 Z M 7.691 -0.309 L 7.981 -0.309 Q 7.975 -0.375 7.947 -0.407 Q 7.905 -0.458 7.839 -0.458 Q 7.778 -0.458 7.737 -0.417 Q 7.696 -0.377 7.691 -0.309 Z" transform="matrix(12, 0, 0, -12, 0, 0)"/>
      <path d="M 8.239 0.21 L 8.176 0.21 Q 8.322 -0.024 8.322 -0.259 Q 8.322 -0.351 8.301 -0.441 Q 8.284 -0.514 8.254 -0.582 Q 8.235 -0.625 8.176 -0.728 L 8.239 -0.728 Q 8.33 -0.605 8.374 -0.482 Q 8.412 -0.375 8.412 -0.259 Q 8.412 -0.127 8.361 -0.004 Q 8.311 0.119 8.239 0.21 Z" transform="matrix(12, 0, 0, -12, 0, 0)"/>
      <path d="M 9.147 -0.167 L 9.238 -0.156 Q 9.216 -0.076 9.158 -0.032 Q 9.1 0.012 9.009 0.012 Q 8.896 0.012 8.829 -0.058 Q 8.762 -0.128 8.762 -0.255 Q 8.762 -0.386 8.83 -0.458 Q 8.897 -0.53 9.005 -0.53 Q 9.109 -0.53 9.175 -0.459 Q 9.24 -0.389 9.24 -0.26 Q 9.24 -0.252 9.24 -0.237 L 8.853 -0.237 Q 8.858 -0.151 8.902 -0.106 Q 8.945 -0.061 9.01 -0.061 Q 9.058 -0.061 9.092 -0.086 Q 9.127 -0.111 9.147 -0.167 Z M 8.858 -0.309 L 9.148 -0.309 Q 9.142 -0.375 9.114 -0.407 Q 9.072 -0.458 9.006 -0.458 Q 8.945 -0.458 8.904 -0.417 Q 8.863 -0.377 8.858 -0.309 Z" transform="matrix(12, 0, 0, -12, 0, 0)"/>
      <path d="M 9.289 0 L 9.479 -0.27 L 9.303 -0.519 L 9.413 -0.519 L 9.493 -0.397 Q 9.515 -0.362 9.529 -0.339 Q 9.551 -0.371 9.569 -0.396 L 9.656 -0.519 L 9.761 -0.519 L 9.582 -0.274 L 9.775 0 L 9.667 0 L 9.56 -0.161 L 9.532 -0.205 L 9.396 0 Z" transform="matrix(12, 0, 0, -12, 0, 0)"/>
      <path d="M 9.848 0.199 L 9.848 -0.519 L 9.928 -0.519 L 9.928 -0.451 Q 9.956 -0.491 9.992 -0.51 Q 10.028 -0.53 10.078 -0.53 Q 10.145 -0.53 10.196 -0.496 Q 10.246 -0.462 10.272 -0.4 Q 10.298 -0.337 10.298 -0.263 Q 10.298 -0.184 10.27 -0.12 Q 10.241 -0.056 10.187 -0.022 Q 10.132 0.012 10.072 0.012 Q 10.028 0.012 9.993 -0.007 Q 9.958 -0.025 9.936 -0.054 L 9.936 0.199 Z M 9.928 -0.256 Q 9.928 -0.156 9.968 -0.108 Q 10.009 -0.061 10.066 -0.061 Q 10.125 -0.061 10.167 -0.11 Q 10.208 -0.16 10.208 -0.264 Q 10.208 -0.363 10.167 -0.412 Q 10.127 -0.461 10.07 -0.461 Q 10.014 -0.461 9.971 -0.409 Q 9.928 -0.356 9.928 -0.256 Z" transform="matrix(12, 0, 0, -12, 0, 0)"/>
      <path d="M 10.403 0 L 10.403 -0.519 L 10.482 -0.519 L 10.482 -0.44 Q 10.513 -0.495 10.538 -0.513 Q 10.564 -0.53 10.595 -0.53 Q 10.639 -0.53 10.685 -0.502 L 10.655 -0.42 Q 10.622 -0.439 10.59 -0.439 Q 10.561 -0.439 10.538 -0.422 Q 10.515 -0.405 10.506 -0.374 Q 10.491 -0.327 10.491 -0.271 L 10.491 0 Z" transform="matrix(12, 0, 0, -12, 0, 0)"/>
      <path d="M 11.092 -0.167 L 11.183 -0.156 Q 11.161 -0.076 11.103 -0.032 Q 11.045 0.012 10.955 0.012 Q 10.841 0.012 10.774 -0.058 Q 10.708 -0.128 10.708 -0.255 Q 10.708 -0.386 10.775 -0.458 Q 10.843 -0.53 10.95 -0.53 Q 11.054 -0.53 11.12 -0.459 Q 11.186 -0.389 11.186 -0.26 Q 11.186 -0.252 11.185 -0.237 L 10.799 -0.237 Q 10.804 -0.151 10.847 -0.106 Q 10.89 -0.061 10.955 -0.061 Q 11.004 -0.061 11.038 -0.086 Q 11.072 -0.111 11.092 -0.167 Z M 10.804 -0.309 L 11.093 -0.309 Q 11.087 -0.375 11.06 -0.407 Q 11.018 -0.458 10.951 -0.458 Q 10.89 -0.458 10.849 -0.417 Q 10.808 -0.377 10.804 -0.309 Z" transform="matrix(12, 0, 0, -12, 0, 0)"/>
      <path d="M 11.258 -0.155 L 11.345 -0.168 Q 11.352 -0.116 11.386 -0.088 Q 11.419 -0.061 11.479 -0.061 Q 11.54 -0.061 11.569 -0.085 Q 11.598 -0.11 11.598 -0.143 Q 11.598 -0.173 11.573 -0.19 Q 11.555 -0.202 11.483 -0.22 Q 11.386 -0.244 11.349 -0.262 Q 11.311 -0.28 11.292 -0.311 Q 11.273 -0.343 11.273 -0.381 Q 11.273 -0.416 11.289 -0.445 Q 11.305 -0.475 11.332 -0.494 Q 11.352 -0.509 11.388 -0.52 Q 11.423 -0.53 11.464 -0.53 Q 11.525 -0.53 11.571 -0.513 Q 11.617 -0.495 11.639 -0.465 Q 11.661 -0.435 11.669 -0.385 L 11.583 -0.373 Q 11.577 -0.413 11.549 -0.436 Q 11.521 -0.458 11.47 -0.458 Q 11.41 -0.458 11.384 -0.438 Q 11.358 -0.418 11.358 -0.391 Q 11.358 -0.374 11.369 -0.36 Q 11.379 -0.346 11.402 -0.337 Q 11.415 -0.332 11.48 -0.314 Q 11.573 -0.29 11.61 -0.274 Q 11.647 -0.258 11.668 -0.228 Q 11.689 -0.197 11.689 -0.152 Q 11.689 -0.108 11.663 -0.07 Q 11.638 -0.031 11.589 -0.01 Q 11.541 0.012 11.48 0.012 Q 11.379 0.012 11.326 -0.03 Q 11.273 -0.072 11.258 -0.155 Z" transform="matrix(12, 0, 0, -12, 0, 0)"/>
      <path d="M 11.758 -0.155 L 11.845 -0.168 Q 11.852 -0.116 11.886 -0.088 Q 11.919 -0.061 11.979 -0.061 Q 12.04 -0.061 12.069 -0.085 Q 12.098 -0.11 12.098 -0.143 Q 12.098 -0.173 12.073 -0.19 Q 12.055 -0.202 11.983 -0.22 Q 11.886 -0.244 11.849 -0.262 Q 11.811 -0.28 11.792 -0.311 Q 11.773 -0.343 11.773 -0.381 Q 11.773 -0.416 11.789 -0.445 Q 11.805 -0.475 11.832 -0.494 Q 11.852 -0.509 11.888 -0.52 Q 11.923 -0.53 11.964 -0.53 Q 12.025 -0.53 12.071 -0.513 Q 12.117 -0.495 12.139 -0.465 Q 12.161 -0.435 12.169 -0.385 L 12.083 -0.373 Q 12.077 -0.413 12.049 -0.436 Q 12.021 -0.458 11.97 -0.458 Q 11.91 -0.458 11.884 -0.438 Q 11.858 -0.418 11.858 -0.391 Q 11.858 -0.374 11.869 -0.36 Q 11.879 -0.346 11.902 -0.337 Q 11.915 -0.332 11.98 -0.314 Q 12.073 -0.29 12.11 -0.274 Q 12.147 -0.258 12.168 -0.228 Q 12.189 -0.197 12.189 -0.152 Q 12.189 -0.108 12.163 -0.07 Q 12.138 -0.031 12.089 -0.01 Q 12.041 0.012 11.98 0.012 Q 11.879 0.012 11.826 -0.03 Q 11.773 -0.072 11.758 -0.155 Z" transform="matrix(12, 0, 0, -12, 0, 0)"/>
      <path d="M 12.294 -0.615 L 12.294 -0.716 L 12.382 -0.716 L 12.382 -0.615 Z M 12.294 0 L 12.294 -0.519 L 12.382 -0.519 L 12.382 0 Z" transform="matrix(12, 0, 0, -12, 0, 0)"/>
      <path d="M 12.483 -0.259 Q 12.483 -0.403 12.563 -0.473 Q 12.63 -0.53 12.726 -0.53 Q 12.833 -0.53 12.901 -0.46 Q 12.969 -0.39 12.969 -0.267 Q 12.969 -0.167 12.939 -0.109 Q 12.909 -0.052 12.851 -0.02 Q 12.794 0.012 12.726 0.012 Q 12.617 0.012 12.55 -0.058 Q 12.483 -0.128 12.483 -0.259 Z M 12.573 -0.259 Q 12.573 -0.16 12.617 -0.11 Q 12.66 -0.061 12.726 -0.061 Q 12.791 -0.061 12.835 -0.11 Q 12.878 -0.16 12.878 -0.262 Q 12.878 -0.358 12.835 -0.408 Q 12.791 -0.458 12.726 -0.458 Q 12.66 -0.458 12.617 -0.408 Q 12.573 -0.359 12.573 -0.259 Z" transform="matrix(12, 0, 0, -12, 0, 0)"/>
      <path d="M 13.072 0 L 13.072 -0.519 L 13.151 -0.519 L 13.151 -0.445 Q 13.208 -0.53 13.316 -0.53 Q 13.363 -0.53 13.402 -0.513 Q 13.441 -0.497 13.461 -0.469 Q 13.48 -0.442 13.488 -0.404 Q 13.493 -0.38 13.493 -0.319 L 13.493 0 L 13.405 0 L 13.405 -0.315 Q 13.405 -0.369 13.395 -0.396 Q 13.385 -0.422 13.359 -0.438 Q 13.332 -0.454 13.297 -0.454 Q 13.241 -0.454 13.2 -0.418 Q 13.16 -0.383 13.16 -0.283 L 13.16 0 Z" transform="matrix(12, 0, 0, -12, 0, 0)"/>
    </g>
  </g>
  <g transform="matrix(1, 0, 0, -1, 0, 612)">
    <path d="M 377.9511 469.3954 L 505.4853 469.3954 L 505.4853 472.48915 L 377.9511 472.48915 Z" style="fill: none;"/>
  </g>
  <g style="clip-path: url('#clippath10');" transform="matrix(1, 0, 0, -0.999998927116394, 0, 611.99951171875)">
    <g transform="matrix(0.7734375 0 0 -0.7734375 378.7245 470.9423)">
      <path d="M 0 0 L 162.8926 0" style="fill: none; stroke: rgb(97, 216, 54); stroke-opacity: 1; stroke-miterlimit: 4; stroke-width: 2px; stroke-dashoffset: 0px;"/>
    </g>
  </g>
  <g transform="matrix(1, 0, 0, -1, 0, 612)">
    <path d="M 399.2643 494.1072 L 563.7439 494.1072 L 563.7439 497.20095 L 399.2643 497.20095 Z" style="fill: none;"/>
  </g>
  <g style="clip-path: url('#clippath11');" transform="matrix(1, 0, 0, -1, 0, 611.9999389648438)">
    <g transform="matrix(0.7734375 0 0 -0.7734375 400.0377 495.6541)">
      <path d="M 0 0 L 210.6604 0" style="fill: none; stroke: rgb(248, 186, 0); stroke-opacity: 1; stroke-miterlimit: 4; stroke-width: 2px; stroke-dashoffset: 0px;"/>
    </g>
  </g>
  <g transform="matrix(1, 0, 0, -1, 0, 612)">
    <path d="M 397.4455 478.5245 L 566.118 478.5245 L 566.118 495.58952 L 397.4455 495.58952 Z" style="fill: none;"/>
  </g>
  <g style="clip-path: url('#clippath12');" transform="matrix(1, 0, 0, -1, 0, 612)">
    <g transform="matrix(0.7734375 0 0 0.7734375 400.0377 484.4396)">
      <path d="M -0.001 0 L 0.273 -0.716 L 0.375 -0.716 L 0.668 0 L 0.561 0 L 0.477 -0.217 L 0.178 -0.217 L 0.099 0 Z M 0.205 -0.294 L 0.448 -0.294 L 0.373 -0.492 Q 0.339 -0.583 0.322 -0.641 Q 0.309 -0.572 0.284 -0.504 Z" transform="matrix(12, 0, 0, -12, 0, 0)"/>
      <path d="M 1.069 0 L 1.069 -0.065 Q 1.02 0.012 0.924 0.012 Q 0.862 0.012 0.81 -0.022 Q 0.758 -0.057 0.73 -0.118 Q 0.701 -0.179 0.701 -0.259 Q 0.701 -0.336 0.727 -0.4 Q 0.753 -0.463 0.805 -0.497 Q 0.856 -0.53 0.92 -0.53 Q 0.967 -0.53 1.004 -0.51 Q 1.041 -0.491 1.063 -0.459 L 1.063 -0.716 L 1.151 -0.716 L 1.151 0 Z M 0.792 -0.259 Q 0.792 -0.159 0.834 -0.11 Q 0.875 -0.061 0.933 -0.061 Q 0.99 -0.061 1.031 -0.108 Q 1.071 -0.155 1.071 -0.251 Q 1.071 -0.358 1.03 -0.408 Q 0.989 -0.458 0.929 -0.458 Q 0.87 -0.458 0.831 -0.41 Q 0.792 -0.362 0.792 -0.259 Z" transform="matrix(12, 0, 0, -12, 0, 0)"/>
      <path d="M 1.626 0 L 1.626 -0.065 Q 1.576 0.012 1.481 0.012 Q 1.419 0.012 1.367 -0.022 Q 1.315 -0.057 1.286 -0.118 Q 1.257 -0.179 1.257 -0.259 Q 1.257 -0.336 1.283 -0.4 Q 1.309 -0.463 1.361 -0.497 Q 1.413 -0.53 1.477 -0.53 Q 1.523 -0.53 1.56 -0.51 Q 1.597 -0.491 1.62 -0.459 L 1.62 -0.716 L 1.707 -0.716 L 1.707 0 Z M 1.348 -0.259 Q 1.348 -0.159 1.39 -0.11 Q 1.432 -0.061 1.489 -0.061 Q 1.546 -0.061 1.587 -0.108 Q 1.627 -0.155 1.627 -0.251 Q 1.627 -0.358 1.586 -0.408 Q 1.545 -0.458 1.485 -0.458 Q 1.426 -0.458 1.387 -0.41 Q 1.348 -0.362 1.348 -0.259 Z" transform="matrix(12, 0, 0, -12, 0, 0)"/>
      <path d="M 1.846 -0.615 L 1.846 -0.716 L 1.934 -0.716 L 1.934 -0.615 Z M 1.846 0 L 1.846 -0.519 L 1.934 -0.519 L 1.934 0 Z" transform="matrix(12, 0, 0, -12, 0, 0)"/>
      <path d="M 2.259 -0.079 L 2.272 -0.001 Q 2.235 0.007 2.206 0.007 Q 2.158 0.007 2.131 -0.008 Q 2.105 -0.023 2.094 -0.048 Q 2.084 -0.073 2.084 -0.152 L 2.084 -0.45 L 2.019 -0.45 L 2.019 -0.519 L 2.084 -0.519 L 2.084 -0.647 L 2.171 -0.7 L 2.171 -0.519 L 2.259 -0.519 L 2.259 -0.45 L 2.171 -0.45 L 2.171 -0.147 Q 2.171 -0.109 2.176 -0.099 Q 2.18 -0.088 2.191 -0.082 Q 2.201 -0.075 2.221 -0.075 Q 2.235 -0.075 2.259 -0.079 Z" transform="matrix(12, 0, 0, -12, 0, 0)"/>
      <path d="M 2.346 -0.615 L 2.346 -0.716 L 2.434 -0.716 L 2.434 -0.615 Z M 2.346 0 L 2.346 -0.519 L 2.434 -0.519 L 2.434 0 Z" transform="matrix(12, 0, 0, -12, 0, 0)"/>
      <path d="M 2.535 -0.259 Q 2.535 -0.403 2.615 -0.473 Q 2.682 -0.53 2.778 -0.53 Q 2.885 -0.53 2.953 -0.46 Q 3.021 -0.39 3.021 -0.267 Q 3.021 -0.167 2.991 -0.109 Q 2.961 -0.052 2.903 -0.02 Q 2.846 0.012 2.778 0.012 Q 2.669 0.012 2.602 -0.058 Q 2.535 -0.128 2.535 -0.259 Z M 2.625 -0.259 Q 2.625 -0.16 2.669 -0.11 Q 2.712 -0.061 2.778 -0.061 Q 2.843 -0.061 2.887 -0.11 Q 2.93 -0.16 2.93 -0.262 Q 2.93 -0.358 2.887 -0.408 Q 2.843 -0.458 2.778 -0.458 Q 2.712 -0.458 2.669 -0.408 Q 2.625 -0.359 2.625 -0.259 Z" transform="matrix(12, 0, 0, -12, 0, 0)"/>
      <path d="M 3.124 0 L 3.124 -0.519 L 3.203 -0.519 L 3.203 -0.445 Q 3.26 -0.53 3.368 -0.53 Q 3.415 -0.53 3.454 -0.513 Q 3.493 -0.497 3.513 -0.469 Q 3.532 -0.442 3.54 -0.404 Q 3.545 -0.38 3.545 -0.319 L 3.545 0 L 3.457 0 L 3.457 -0.315 Q 3.457 -0.369 3.447 -0.396 Q 3.437 -0.422 3.411 -0.438 Q 3.384 -0.454 3.349 -0.454 Q 3.293 -0.454 3.252 -0.418 Q 3.212 -0.383 3.212 -0.283 L 3.212 0 Z" transform="matrix(12, 0, 0, -12, 0, 0)"/>
      <path d="M 4.018 -0.064 Q 3.969 -0.022 3.924 -0.005 Q 3.879 0.012 3.827 0.012 Q 3.742 0.012 3.696 -0.03 Q 3.65 -0.072 3.65 -0.137 Q 3.65 -0.175 3.667 -0.206 Q 3.685 -0.238 3.713 -0.257 Q 3.741 -0.276 3.776 -0.286 Q 3.802 -0.292 3.854 -0.299 Q 3.961 -0.312 4.011 -0.329 Q 4.011 -0.347 4.011 -0.352 Q 4.011 -0.406 3.987 -0.428 Q 3.953 -0.458 3.886 -0.458 Q 3.824 -0.458 3.795 -0.436 Q 3.765 -0.414 3.751 -0.359 L 3.665 -0.371 Q 3.677 -0.426 3.704 -0.46 Q 3.731 -0.494 3.781 -0.512 Q 3.832 -0.53 3.899 -0.53 Q 3.966 -0.53 4.007 -0.515 Q 4.049 -0.499 4.068 -0.475 Q 4.088 -0.452 4.095 -0.416 Q 4.1 -0.393 4.1 -0.334 L 4.1 -0.217 Q 4.1 -0.095 4.105 -0.062 Q 4.111 -0.03 4.128 0 L 4.036 0 Q 4.022 -0.027 4.018 -0.064 Z M 4.011 -0.26 Q 3.963 -0.241 3.867 -0.227 Q 3.813 -0.219 3.791 -0.209 Q 3.768 -0.2 3.756 -0.181 Q 3.744 -0.162 3.744 -0.139 Q 3.744 -0.104 3.77 -0.081 Q 3.797 -0.057 3.848 -0.057 Q 3.899 -0.057 3.939 -0.079 Q 3.978 -0.102 3.997 -0.14 Q 4.011 -0.17 4.011 -0.228 Z" transform="matrix(12, 0, 0, -12, 0, 0)"/>
      <path d="M 4.234 0 L 4.234 -0.716 L 4.322 -0.716 L 4.322 0 Z" transform="matrix(12, 0, 0, -12, 0, 0)"/>
      <path d="M 5.091 -0.167 L 5.182 -0.156 Q 5.16 -0.076 5.102 -0.032 Q 5.044 0.012 4.954 0.012 Q 4.84 0.012 4.773 -0.058 Q 4.707 -0.128 4.707 -0.255 Q 4.707 -0.386 4.774 -0.458 Q 4.842 -0.53 4.949 -0.53 Q 5.053 -0.53 5.119 -0.459 Q 5.185 -0.389 5.185 -0.26 Q 5.185 -0.252 5.184 -0.237 L 4.798 -0.237 Q 4.803 -0.151 4.846 -0.106 Q 4.889 -0.061 4.954 -0.061 Q 5.003 -0.061 5.037 -0.086 Q 5.071 -0.111 5.091 -0.167 Z M 4.803 -0.309 L 5.092 -0.309 Q 5.086 -0.375 5.059 -0.407 Q 5.017 -0.458 4.95 -0.458 Q 4.889 -0.458 4.848 -0.417 Q 4.807 -0.377 4.803 -0.309 Z" transform="matrix(12, 0, 0, -12, 0, 0)"/>
      <path d="M 5.234 0 L 5.423 -0.27 L 5.248 -0.519 L 5.358 -0.519 L 5.437 -0.397 Q 5.46 -0.362 5.473 -0.339 Q 5.495 -0.371 5.513 -0.396 L 5.6 -0.519 L 5.705 -0.519 L 5.526 -0.274 L 5.719 0 L 5.611 0 L 5.505 -0.161 L 5.476 -0.205 L 5.34 0 Z" transform="matrix(12, 0, 0, -12, 0, 0)"/>
      <path d="M 5.792 0.199 L 5.792 -0.519 L 5.872 -0.519 L 5.872 -0.451 Q 5.901 -0.491 5.936 -0.51 Q 5.972 -0.53 6.023 -0.53 Q 6.089 -0.53 6.14 -0.496 Q 6.191 -0.462 6.217 -0.4 Q 6.243 -0.337 6.243 -0.263 Q 6.243 -0.184 6.214 -0.12 Q 6.185 -0.056 6.131 -0.022 Q 6.076 0.012 6.016 0.012 Q 5.972 0.012 5.938 -0.007 Q 5.903 -0.025 5.88 -0.054 L 5.88 0.199 Z M 5.872 -0.256 Q 5.872 -0.156 5.912 -0.108 Q 5.953 -0.061 6.011 -0.061 Q 6.069 -0.061 6.111 -0.11 Q 6.153 -0.16 6.153 -0.264 Q 6.153 -0.363 6.112 -0.412 Q 6.071 -0.461 6.014 -0.461 Q 5.958 -0.461 5.915 -0.409 Q 5.872 -0.356 5.872 -0.256 Z" transform="matrix(12, 0, 0, -12, 0, 0)"/>
      <path d="M 6.348 0 L 6.348 -0.519 L 6.427 -0.519 L 6.427 -0.44 Q 6.457 -0.495 6.483 -0.513 Q 6.508 -0.53 6.539 -0.53 Q 6.583 -0.53 6.629 -0.502 L 6.599 -0.42 Q 6.567 -0.439 6.535 -0.439 Q 6.506 -0.439 6.483 -0.422 Q 6.46 -0.405 6.45 -0.374 Q 6.435 -0.327 6.435 -0.271 L 6.435 0 Z" transform="matrix(12, 0, 0, -12, 0, 0)"/>
      <path d="M 7.036 -0.167 L 7.127 -0.156 Q 7.106 -0.076 7.048 -0.032 Q 6.99 0.012 6.899 0.012 Q 6.786 0.012 6.719 -0.058 Q 6.652 -0.128 6.652 -0.255 Q 6.652 -0.386 6.72 -0.458 Q 6.787 -0.53 6.894 -0.53 Q 6.998 -0.53 7.064 -0.459 Q 7.13 -0.389 7.13 -0.26 Q 7.13 -0.252 7.13 -0.237 L 6.743 -0.237 Q 6.748 -0.151 6.791 -0.106 Q 6.835 -0.061 6.9 -0.061 Q 6.948 -0.061 6.982 -0.086 Q 7.016 -0.111 7.036 -0.167 Z M 6.748 -0.309 L 7.037 -0.309 Q 7.032 -0.375 7.004 -0.407 Q 6.962 -0.458 6.895 -0.458 Q 6.835 -0.458 6.794 -0.417 Q 6.752 -0.377 6.748 -0.309 Z" transform="matrix(12, 0, 0, -12, 0, 0)"/>
      <path d="M 7.203 -0.155 L 7.289 -0.168 Q 7.297 -0.116 7.33 -0.088 Q 7.364 -0.061 7.424 -0.061 Q 7.484 -0.061 7.514 -0.085 Q 7.543 -0.11 7.543 -0.143 Q 7.543 -0.173 7.517 -0.19 Q 7.499 -0.202 7.427 -0.22 Q 7.33 -0.244 7.293 -0.262 Q 7.256 -0.28 7.236 -0.311 Q 7.217 -0.343 7.217 -0.381 Q 7.217 -0.416 7.233 -0.445 Q 7.249 -0.475 7.276 -0.494 Q 7.297 -0.509 7.332 -0.52 Q 7.368 -0.53 7.408 -0.53 Q 7.469 -0.53 7.515 -0.513 Q 7.561 -0.495 7.583 -0.465 Q 7.605 -0.435 7.614 -0.385 L 7.528 -0.373 Q 7.522 -0.413 7.494 -0.436 Q 7.466 -0.458 7.414 -0.458 Q 7.354 -0.458 7.328 -0.438 Q 7.302 -0.418 7.302 -0.391 Q 7.302 -0.374 7.313 -0.36 Q 7.324 -0.346 7.347 -0.337 Q 7.36 -0.332 7.424 -0.314 Q 7.518 -0.29 7.554 -0.274 Q 7.591 -0.258 7.612 -0.228 Q 7.633 -0.197 7.633 -0.152 Q 7.633 -0.108 7.608 -0.07 Q 7.582 -0.031 7.534 -0.01 Q 7.485 0.012 7.424 0.012 Q 7.323 0.012 7.27 -0.03 Q 7.217 -0.072 7.203 -0.155 Z" transform="matrix(12, 0, 0, -12, 0, 0)"/>
      <path d="M 7.703 -0.155 L 7.789 -0.168 Q 7.797 -0.116 7.83 -0.088 Q 7.864 -0.061 7.924 -0.061 Q 7.984 -0.061 8.014 -0.085 Q 8.043 -0.11 8.043 -0.143 Q 8.043 -0.173 8.017 -0.19 Q 7.999 -0.202 7.927 -0.22 Q 7.83 -0.244 7.793 -0.262 Q 7.756 -0.28 7.736 -0.311 Q 7.717 -0.343 7.717 -0.381 Q 7.717 -0.416 7.733 -0.445 Q 7.749 -0.475 7.776 -0.494 Q 7.797 -0.509 7.832 -0.52 Q 7.868 -0.53 7.908 -0.53 Q 7.969 -0.53 8.015 -0.513 Q 8.061 -0.495 8.083 -0.465 Q 8.105 -0.435 8.114 -0.385 L 8.028 -0.373 Q 8.022 -0.413 7.994 -0.436 Q 7.966 -0.458 7.914 -0.458 Q 7.854 -0.458 7.828 -0.438 Q 7.802 -0.418 7.802 -0.391 Q 7.802 -0.374 7.813 -0.36 Q 7.824 -0.346 7.847 -0.337 Q 7.86 -0.332 7.924 -0.314 Q 8.018 -0.29 8.054 -0.274 Q 8.091 -0.258 8.112 -0.228 Q 8.133 -0.197 8.133 -0.152 Q 8.133 -0.108 8.108 -0.07 Q 8.082 -0.031 8.034 -0.01 Q 7.985 0.012 7.924 0.012 Q 7.823 0.012 7.77 -0.03 Q 7.717 -0.072 7.703 -0.155 Z" transform="matrix(12, 0, 0, -12, 0, 0)"/>
      <path d="M 8.238 -0.615 L 8.238 -0.716 L 8.326 -0.716 L 8.326 -0.615 Z M 8.238 0 L 8.238 -0.519 L 8.326 -0.519 L 8.326 0 Z" transform="matrix(12, 0, 0, -12, 0, 0)"/>
      <path d="M 8.427 -0.259 Q 8.427 -0.403 8.507 -0.473 Q 8.574 -0.53 8.67 -0.53 Q 8.777 -0.53 8.845 -0.46 Q 8.913 -0.39 8.913 -0.267 Q 8.913 -0.167 8.883 -0.109 Q 8.853 -0.052 8.796 -0.02 Q 8.738 0.012 8.67 0.012 Q 8.561 0.012 8.494 -0.058 Q 8.427 -0.128 8.427 -0.259 Z M 8.518 -0.259 Q 8.518 -0.16 8.561 -0.11 Q 8.604 -0.061 8.67 -0.061 Q 8.736 -0.061 8.779 -0.11 Q 8.823 -0.16 8.823 -0.262 Q 8.823 -0.358 8.779 -0.408 Q 8.735 -0.458 8.67 -0.458 Q 8.604 -0.458 8.561 -0.408 Q 8.518 -0.359 8.518 -0.259 Z" transform="matrix(12, 0, 0, -12, 0, 0)"/>
      <path d="M 9.016 0 L 9.016 -0.519 L 9.095 -0.519 L 9.095 -0.445 Q 9.152 -0.53 9.26 -0.53 Q 9.307 -0.53 9.346 -0.513 Q 9.386 -0.497 9.405 -0.469 Q 9.425 -0.442 9.433 -0.404 Q 9.438 -0.38 9.438 -0.319 L 9.438 0 L 9.35 0 L 9.35 -0.315 Q 9.35 -0.369 9.339 -0.396 Q 9.329 -0.422 9.303 -0.438 Q 9.277 -0.454 9.242 -0.454 Q 9.186 -0.454 9.145 -0.418 Q 9.104 -0.383 9.104 -0.283 L 9.104 0 Z" transform="matrix(12, 0, 0, -12, 0, 0)"/>
      <path d="M 9.851 -0.615 L 9.851 -0.716 L 9.938 -0.716 L 9.938 -0.615 Z M 9.851 0 L 9.851 -0.519 L 9.938 -0.519 L 9.938 0 Z" transform="matrix(12, 0, 0, -12, 0, 0)"/>
      <path d="M 10.072 0 L 10.072 -0.519 L 10.151 -0.519 L 10.151 -0.445 Q 10.209 -0.53 10.316 -0.53 Q 10.363 -0.53 10.403 -0.513 Q 10.442 -0.497 10.461 -0.469 Q 10.481 -0.442 10.489 -0.404 Q 10.494 -0.38 10.494 -0.319 L 10.494 0 L 10.406 0 L 10.406 -0.315 Q 10.406 -0.369 10.396 -0.396 Q 10.385 -0.422 10.359 -0.438 Q 10.333 -0.454 10.298 -0.454 Q 10.242 -0.454 10.201 -0.418 Q 10.16 -0.383 10.16 -0.283 L 10.16 0 Z" transform="matrix(12, 0, 0, -12, 0, 0)"/>
      <path d="M 10.965 0 L 10.965 -0.065 Q 10.916 0.012 10.82 0.012 Q 10.758 0.012 10.706 -0.022 Q 10.654 -0.057 10.625 -0.118 Q 10.597 -0.179 10.597 -0.259 Q 10.597 -0.336 10.623 -0.4 Q 10.649 -0.463 10.7 -0.497 Q 10.752 -0.53 10.816 -0.53 Q 10.863 -0.53 10.9 -0.51 Q 10.936 -0.491 10.959 -0.459 L 10.959 -0.716 L 11.046 -0.716 L 11.046 0 Z M 10.687 -0.259 Q 10.687 -0.159 10.729 -0.11 Q 10.771 -0.061 10.828 -0.061 Q 10.886 -0.061 10.926 -0.108 Q 10.966 -0.155 10.966 -0.251 Q 10.966 -0.358 10.925 -0.408 Q 10.884 -0.458 10.824 -0.458 Q 10.766 -0.458 10.726 -0.41 Q 10.687 -0.362 10.687 -0.259 Z" transform="matrix(12, 0, 0, -12, 0, 0)"/>
      <path d="M 11.525 0 L 11.525 -0.076 Q 11.464 0.012 11.36 0.012 Q 11.314 0.012 11.274 -0.006 Q 11.235 -0.023 11.215 -0.05 Q 11.196 -0.077 11.188 -0.115 Q 11.183 -0.141 11.183 -0.197 L 11.183 -0.519 L 11.271 -0.519 L 11.271 -0.231 Q 11.271 -0.162 11.276 -0.138 Q 11.284 -0.104 11.311 -0.084 Q 11.338 -0.064 11.378 -0.064 Q 11.417 -0.064 11.452 -0.084 Q 11.486 -0.104 11.501 -0.139 Q 11.515 -0.174 11.515 -0.241 L 11.515 -0.519 L 11.603 -0.519 L 11.603 0 Z" transform="matrix(12, 0, 0, -12, 0, 0)"/>
      <path d="M 12.079 -0.19 L 12.166 -0.179 Q 12.152 -0.089 12.093 -0.039 Q 12.035 0.012 11.95 0.012 Q 11.843 0.012 11.779 -0.058 Q 11.714 -0.127 11.714 -0.257 Q 11.714 -0.341 11.742 -0.404 Q 11.77 -0.467 11.827 -0.499 Q 11.883 -0.53 11.95 -0.53 Q 12.035 -0.53 12.089 -0.488 Q 12.142 -0.445 12.157 -0.366 L 12.072 -0.353 Q 12.06 -0.405 12.029 -0.432 Q 11.998 -0.458 11.954 -0.458 Q 11.887 -0.458 11.846 -0.41 Q 11.804 -0.363 11.804 -0.26 Q 11.804 -0.155 11.844 -0.108 Q 11.884 -0.061 11.949 -0.061 Q 12.001 -0.061 12.035 -0.092 Q 12.07 -0.124 12.079 -0.19 Z" transform="matrix(12, 0, 0, -12, 0, 0)"/>
      <path d="M 12.596 -0.167 L 12.687 -0.156 Q 12.665 -0.076 12.607 -0.032 Q 12.549 0.012 12.459 0.012 Q 12.345 0.012 12.278 -0.058 Q 12.212 -0.128 12.212 -0.255 Q 12.212 -0.386 12.279 -0.458 Q 12.346 -0.53 12.454 -0.53 Q 12.558 -0.53 12.624 -0.459 Q 12.69 -0.389 12.69 -0.26 Q 12.69 -0.252 12.689 -0.237 L 12.302 -0.237 Q 12.307 -0.151 12.351 -0.106 Q 12.394 -0.061 12.459 -0.061 Q 12.508 -0.061 12.542 -0.086 Q 12.576 -0.111 12.596 -0.167 Z M 12.307 -0.309 L 12.597 -0.309 Q 12.591 -0.375 12.564 -0.407 Q 12.522 -0.458 12.455 -0.458 Q 12.394 -0.458 12.353 -0.417 Q 12.312 -0.377 12.307 -0.309 Z" transform="matrix(12, 0, 0, -12, 0, 0)"/>
      <path d="M 13.134 0 L 13.134 -0.065 Q 13.084 0.012 12.989 0.012 Q 12.927 0.012 12.875 -0.022 Q 12.823 -0.057 12.794 -0.118 Q 12.765 -0.179 12.765 -0.259 Q 12.765 -0.336 12.791 -0.4 Q 12.817 -0.463 12.869 -0.497 Q 12.921 -0.53 12.985 -0.53 Q 13.031 -0.53 13.068 -0.51 Q 13.105 -0.491 13.128 -0.459 L 13.128 -0.716 L 13.215 -0.716 L 13.215 0 Z M 12.856 -0.259 Q 12.856 -0.159 12.898 -0.11 Q 12.94 -0.061 12.997 -0.061 Q 13.054 -0.061 13.095 -0.108 Q 13.135 -0.155 13.135 -0.251 Q 13.135 -0.358 13.094 -0.408 Q 13.053 -0.458 12.993 -0.458 Q 12.934 -0.458 12.895 -0.41 Q 12.856 -0.362 12.856 -0.259 Z" transform="matrix(12, 0, 0, -12, 0, 0)"/>
      <path d="M 13.712 0 L 13.631 0 L 13.631 -0.716 L 13.719 -0.716 L 13.719 -0.46 Q 13.774 -0.53 13.861 -0.53 Q 13.908 -0.53 13.951 -0.511 Q 13.994 -0.492 14.021 -0.457 Q 14.049 -0.422 14.065 -0.373 Q 14.08 -0.323 14.08 -0.267 Q 14.08 -0.134 14.014 -0.061 Q 13.949 0.012 13.856 0.012 Q 13.764 0.012 13.712 -0.065 Z M 13.711 -0.263 Q 13.711 -0.17 13.737 -0.128 Q 13.778 -0.061 13.849 -0.061 Q 13.907 -0.061 13.949 -0.111 Q 13.99 -0.161 13.99 -0.26 Q 13.99 -0.361 13.95 -0.41 Q 13.91 -0.458 13.853 -0.458 Q 13.795 -0.458 13.753 -0.408 Q 13.711 -0.358 13.711 -0.263 Z" transform="matrix(12, 0, 0, -12, 0, 0)"/>
      <path d="M 14.183 0.2 L 14.174 0.117 Q 14.202 0.125 14.224 0.125 Q 14.253 0.125 14.271 0.115 Q 14.288 0.105 14.3 0.088 Q 14.308 0.075 14.326 0.022 Q 14.329 0.015 14.334 0.001 L 14.138 -0.519 L 14.232 -0.519 L 14.34 -0.218 Q 14.361 -0.161 14.378 -0.098 Q 14.393 -0.159 14.414 -0.216 L 14.525 -0.519 L 14.613 -0.519 L 14.415 0.009 Q 14.384 0.094 14.366 0.126 Q 14.343 0.17 14.312 0.19 Q 14.282 0.21 14.24 0.21 Q 14.215 0.21 14.183 0.2 Z" transform="matrix(12, 0, 0, -12, 0, 0)"/>
      <path d="M 14.93 -0.155 L 15.017 -0.168 Q 15.024 -0.116 15.058 -0.088 Q 15.091 -0.061 15.151 -0.061 Q 15.212 -0.061 15.241 -0.085 Q 15.27 -0.11 15.27 -0.143 Q 15.27 -0.173 15.244 -0.19 Q 15.226 -0.202 15.155 -0.22 Q 15.058 -0.244 15.021 -0.262 Q 14.983 -0.28 14.964 -0.311 Q 14.945 -0.343 14.945 -0.381 Q 14.945 -0.416 14.96 -0.445 Q 14.976 -0.475 15.004 -0.494 Q 15.024 -0.509 15.06 -0.52 Q 15.095 -0.53 15.136 -0.53 Q 15.197 -0.53 15.243 -0.513 Q 15.289 -0.495 15.311 -0.465 Q 15.333 -0.435 15.341 -0.385 L 15.255 -0.373 Q 15.249 -0.413 15.221 -0.436 Q 15.193 -0.458 15.142 -0.458 Q 15.081 -0.458 15.055 -0.438 Q 15.03 -0.418 15.03 -0.391 Q 15.03 -0.374 15.04 -0.36 Q 15.051 -0.346 15.074 -0.337 Q 15.087 -0.332 15.152 -0.314 Q 15.245 -0.29 15.282 -0.274 Q 15.319 -0.258 15.34 -0.228 Q 15.361 -0.197 15.361 -0.152 Q 15.361 -0.108 15.335 -0.07 Q 15.309 -0.031 15.261 -0.01 Q 15.213 0.012 15.152 0.012 Q 15.051 0.012 14.998 -0.03 Q 14.945 -0.072 14.93 -0.155 Z" transform="matrix(12, 0, 0, -12, 0, 0)"/>
      <path d="M 15.466 -0.615 L 15.466 -0.716 L 15.553 -0.716 L 15.553 -0.615 Z M 15.466 0 L 15.466 -0.519 L 15.553 -0.519 L 15.553 0 Z" transform="matrix(12, 0, 0, -12, 0, 0)"/>
      <path d="M 15.671 0.043 L 15.757 0.056 Q 15.762 0.095 15.786 0.113 Q 15.819 0.138 15.876 0.138 Q 15.937 0.138 15.97 0.113 Q 16.003 0.089 16.015 0.045 Q 16.022 0.018 16.021 -0.068 Q 15.964 0 15.878 0 Q 15.771 0 15.712 -0.077 Q 15.654 -0.154 15.654 -0.262 Q 15.654 -0.336 15.68 -0.399 Q 15.707 -0.462 15.758 -0.496 Q 15.809 -0.53 15.878 -0.53 Q 15.97 -0.53 16.03 -0.456 L 16.03 -0.519 L 16.111 -0.519 L 16.111 -0.07 Q 16.111 0.051 16.086 0.101 Q 16.061 0.152 16.008 0.181 Q 15.954 0.21 15.876 0.21 Q 15.784 0.21 15.726 0.169 Q 15.669 0.127 15.671 0.043 Z M 15.744 -0.269 Q 15.744 -0.167 15.784 -0.12 Q 15.825 -0.073 15.886 -0.073 Q 15.947 -0.073 15.988 -0.119 Q 16.029 -0.166 16.029 -0.266 Q 16.029 -0.361 15.986 -0.409 Q 15.944 -0.458 15.885 -0.458 Q 15.826 -0.458 15.785 -0.41 Q 15.744 -0.362 15.744 -0.269 Z" transform="matrix(12, 0, 0, -12, 0, 0)"/>
      <path d="M 16.244 0 L 16.244 -0.519 L 16.323 -0.519 L 16.323 -0.445 Q 16.38 -0.53 16.488 -0.53 Q 16.535 -0.53 16.574 -0.513 Q 16.613 -0.497 16.633 -0.469 Q 16.652 -0.442 16.66 -0.404 Q 16.665 -0.38 16.665 -0.319 L 16.665 0 L 16.577 0 L 16.577 -0.315 Q 16.577 -0.369 16.567 -0.396 Q 16.557 -0.422 16.53 -0.438 Q 16.504 -0.454 16.469 -0.454 Q 16.413 -0.454 16.372 -0.418 Q 16.331 -0.383 16.331 -0.283 L 16.331 0 Z" transform="matrix(12, 0, 0, -12, 0, 0)"/>
      <path d="M 17.138 -0.064 Q 17.089 -0.022 17.044 -0.005 Q 16.999 0.012 16.947 0.012 Q 16.862 0.012 16.816 -0.03 Q 16.77 -0.072 16.77 -0.137 Q 16.77 -0.175 16.787 -0.206 Q 16.805 -0.238 16.833 -0.257 Q 16.861 -0.276 16.896 -0.286 Q 16.922 -0.292 16.974 -0.299 Q 17.08 -0.312 17.131 -0.329 Q 17.131 -0.347 17.131 -0.352 Q 17.131 -0.406 17.106 -0.428 Q 17.073 -0.458 17.006 -0.458 Q 16.944 -0.458 16.915 -0.436 Q 16.885 -0.414 16.871 -0.359 L 16.785 -0.371 Q 16.797 -0.426 16.824 -0.46 Q 16.851 -0.494 16.901 -0.512 Q 16.952 -0.53 17.019 -0.53 Q 17.085 -0.53 17.127 -0.515 Q 17.168 -0.499 17.188 -0.475 Q 17.207 -0.452 17.215 -0.416 Q 17.22 -0.393 17.22 -0.334 L 17.22 -0.217 Q 17.22 -0.095 17.225 -0.062 Q 17.231 -0.03 17.247 0 L 17.156 0 Q 17.142 -0.027 17.138 -0.064 Z M 17.131 -0.26 Q 17.083 -0.241 16.987 -0.227 Q 16.933 -0.219 16.911 -0.209 Q 16.888 -0.2 16.876 -0.181 Q 16.864 -0.162 16.864 -0.139 Q 16.864 -0.104 16.89 -0.081 Q 16.917 -0.057 16.968 -0.057 Q 17.019 -0.057 17.059 -0.079 Q 17.098 -0.102 17.117 -0.14 Q 17.131 -0.17 17.131 -0.228 Z" transform="matrix(12, 0, 0, -12, 0, 0)"/>
      <path d="M 17.354 0 L 17.354 -0.716 L 17.442 -0.716 L 17.442 0 Z" transform="matrix(12, 0, 0, -12, 0, 0)"/>
    </g>
  </g>
  <g transform="matrix(1, 0, 0, -1, 0, 612)">
    <path d="M 352.3811 445.2499 L 352.3811 517.2947 L 361.353 517.2947 L 361.353 445.2499 Z" style="fill: none;"/>
  </g>
  <g style="clip-path: url('#clippath13');" transform="matrix(1, 0, 0, -1, 0, 612)">
    <g transform="">
      <path d="M 0 9 L 792 9 L 792 603 L 0 603 Z" style="fill: none;"/>
    </g>
  </g>
  <g style="clip-path: url('#clippath14');" transform="matrix(1, 0, 0, -1.0000009536743164, 0, 612.0005493164062)">
    <g transform="matrix(0 0.7734375 0.7734375 0 356.8671 446.0234)">
      <path d="M 0 0 L 81.54875 0 L 82.54875 0" style="fill: none; stroke: rgb(86, 193, 255); stroke-opacity: 1; stroke-miterlimit: 4; stroke-width: 2px; stroke-dashoffset: 0px;"/>
    </g>
  </g>
  <g style="clip-path: url('#clippath14');" transform="matrix(1, 0, 0, -1, 0, 612)">
    <g transform="">
      <path d="M 360.5796 509.0962 L 356.8671 516.5212 L 353.1546 509.0962 Z" style="fill: rgb(86, 193, 255); fill-opacity: 1;"/>
    </g>
  </g>
  <g transform="matrix(1, 0, 0, -1, 0, 612)">
    <path d="M 381.051 470.2943 L 381.051 517.2947 L 390.0228 517.2947 L 390.0228 470.2943 Z" style="fill: none;"/>
  </g>
  <g style="clip-path: url('#clippath15');" transform="matrix(1, 0, 0, -1, 0, 612)">
    <g transform="">
      <path d="M 0 9 L 792 9 L 792 603 L 0 603 Z" style="fill: none;"/>
    </g>
  </g>
  <g style="clip-path: url('#clippath16');" transform="matrix(1, 0, 0, -1.0000020265579224, 0, 612.0008544921875)">
    <g transform="matrix(0 0.7734375 0.7734375 0 385.5369 471.0677)">
      <path d="M 0 0 L 49.16816 0 L 50.16816 0" style="fill: none; stroke: rgb(97, 216, 54); stroke-opacity: 1; stroke-miterlimit: 4; stroke-width: 2px; stroke-dashoffset: 0px;"/>
    </g>
  </g>
  <g style="clip-path: url('#clippath16');" transform="matrix(1, 0, 0, -1, 0, 612)">
    <g transform="">
      <path d="M 389.2494 509.0962 L 385.5369 516.5212 L 381.8244 509.0962 Z" style="fill: rgb(97, 216, 54); fill-opacity: 1;"/>
    </g>
  </g>
  <g transform="matrix(1, 0, 0, -1, 0, 612)">
    <path d="M 419.2935 495.0746 L 419.2935 517.2947 L 428.2654 517.2947 L 428.2654 495.0746 Z" style="fill: none;"/>
  </g>
  <g style="clip-path: url('#clippath17');" transform="matrix(1, 0, 0, -1, 0, 612)">
    <g transform="">
      <path d="M 0 9 L 792 9 L 792 603 L 0 603 Z" style="fill: none;"/>
    </g>
  </g>
  <g style="clip-path: url('#clippath18');" transform="matrix(1, 0, 0, -1.0000100135803223, 0, 612.0047607421875)">
    <g transform="matrix(0 0.7734375 0.7734375 0 423.7795 495.8481)">
      <path d="M 0 0 L 17.12893 0 L 18.12893 0" style="fill: none; stroke: rgb(248, 186, 0); stroke-opacity: 1; stroke-miterlimit: 4; stroke-width: 2px; stroke-dashoffset: 0px;"/>
    </g>
  </g>
  <g style="clip-path: url('#clippath18');" transform="matrix(1, 0, 0, -1, 0, 612)">
    <g transform="">
      <path d="M 427.492 509.0962 L 423.7795 516.5212 L 420.067 509.0962 Z" style="fill: rgb(248, 186, 0); fill-opacity: 1;"/>
    </g>
  </g>
</svg>