<?xml version="1.0" encoding="UTF-8" standalone="no"?><!DOCTYPE svg PUBLIC "-//W3C//DTD SVG 1.1//EN" "http://www.w3.org/Graphics/SVG/1.1/DTD/svg11.dtd"><svg width="417px" height="398px" version="1.1" xmlns="http://www.w3.org/2000/svg" xmlns:xlink="http://www.w3.org/1999/xlink" xml:space="preserve" xmlns:serif="http://www.serif.com/" style="fill-rule:evenodd;clip-rule:evenodd;stroke-linejoin:round;stroke-miterlimit:10;"><g transform="matrix(1,0,0,1,1.31959e-05,0)"><g transform="matrix(2.16216,0,0,-2.16216,-680.049,425.011)"><path d="M406.283,20.5L507,52.84L507,144.854L429.717,187L329,154.66L329,62.646L406.283,20.5Z" style="fill:white;fill-rule:nonzero;"/></g><g transform="matrix(-1.89824,-1.0352,1.0352,-1.89824,640.954,1030.67)"><path d="M323.627,165.927L411.656,165.927" style="fill:none;fill-rule:nonzero;stroke:rgb(33,33,33);stroke-opacity:0.15;stroke-width:0.5px;"/></g><g transform="matrix(-1.89824,-1.0352,1.0352,-1.89824,788.43,1021.66)"><path d="M357.2,155.147L445.228,155.147" style="fill:none;fill-rule:nonzero;stroke:rgb(33,33,33);stroke-opacity:0.15;stroke-width:0.5px;"/></g><g transform="matrix(-1.89824,-1.0352,1.0352,-1.89824,935.907,1012.64)"><path d="M390.772,144.367L478.8,144.367" style="fill:none;fill-rule:nonzero;stroke:rgb(33,33,33);stroke-opacity:0.15;stroke-width:0.5px;"/></g><g transform="matrix(-1.89824,-1.0352,1.0352,-1.89824,1083.38,1003.62)"><path d="M424.344,133.587L512.373,133.587" style="fill:none;fill-rule:nonzero;stroke:rgb(33,33,33);stroke-opacity:0.15;stroke-width:0.5px;"/></g><g transform="matrix(0,-2.16216,2.16216,0,-182.42,901.436)"><path d="M282.993,98.847L375.007,98.847" style="fill:none;fill-rule:nonzero;stroke:rgb(33,33,33);stroke-opacity:0.15;stroke-width:0.5px;"/></g><g transform="matrix(0,-2.16216,2.16216,0,-86.5235,950.717)"><path d="M316.565,88.067L408.579,88.067" style="fill:none;fill-rule:nonzero;stroke:rgb(33,33,33);stroke-opacity:0.15;stroke-width:0.5px;"/></g><g transform="matrix(0,-2.16216,2.16216,0,9.37345,999.998)"><path d="M350.138,77.287L442.152,77.287" style="fill:none;fill-rule:nonzero;stroke:rgb(33,33,33);stroke-opacity:0.15;stroke-width:0.5px;"/></g><g transform="matrix(0,-2.16216,2.16216,0,105.27,1049.28)"><path d="M383.71,66.507L475.724,66.507" style="fill:none;fill-rule:nonzero;stroke:rgb(33,33,33);stroke-opacity:0.15;stroke-width:0.5px;"/></g><g transform="matrix(-2.05864,0.661023,-0.661023,-2.05864,1360.27,395.551)"><path d="M403.751,170.83L509.532,170.83" style="fill:none;fill-rule:nonzero;stroke:rgb(33,33,33);stroke-opacity:0.15;stroke-width:0.5px;"/></g><g transform="matrix(-2.05864,0.661023,-0.661023,-2.05864,1242.25,353.283)"><path d="M377.99,156.781L483.771,156.781" style="fill:none;fill-rule:nonzero;stroke:rgb(33,33,33);stroke-opacity:0.15;stroke-width:0.5px;"/></g><g transform="matrix(-2.05864,0.661023,-0.661023,-2.05864,1124.23,311.014)"><path d="M352.229,142.733L458.01,142.733" style="fill:none;fill-rule:nonzero;stroke:rgb(33,33,33);stroke-opacity:0.15;stroke-width:0.5px;"/></g><g transform="matrix(-2.05864,0.661023,-0.661023,-2.05864,1006.21,268.746)"><path d="M326.468,128.684L432.249,128.684" style="fill:none;fill-rule:nonzero;stroke:rgb(33,33,33);stroke-opacity:0.15;stroke-width:0.5px;"/></g><g transform="matrix(0,2.16216,-2.16216,0,651.093,-884.929)"><path d="M460.993,108.653L553.007,108.653" style="fill:none;fill-rule:nonzero;stroke:rgb(33,33,33);stroke-opacity:0.15;stroke-width:0.5px;"/></g><g transform="matrix(0,2.16216,-2.16216,0,565.018,-859.605)"><path d="M435.232,94.604L527.246,94.604" style="fill:none;fill-rule:nonzero;stroke:rgb(33,33,33);stroke-opacity:0.15;stroke-width:0.5px;"/></g><g transform="matrix(0,2.16216,-2.16216,0,478.943,-834.281)"><path d="M409.471,80.556L501.485,80.556" style="fill:none;fill-rule:nonzero;stroke:rgb(33,33,33);stroke-opacity:0.15;stroke-width:0.5px;"/></g><g transform="matrix(0,2.16216,-2.16216,0,392.868,-808.957)"><path d="M383.71,66.507L475.724,66.507" style="fill:none;fill-rule:nonzero;stroke:rgb(33,33,33);stroke-opacity:0.15;stroke-width:0.5px;"/></g><g transform="matrix(-2.05864,0.661023,-0.661023,-2.05864,1006.21,268.746)"><path d="M326.468,128.684L432.249,128.684" style="fill:none;fill-rule:nonzero;stroke:rgb(33,33,33);stroke-opacity:0.15;stroke-width:0.5px;"/></g><g transform="matrix(-2.05864,0.661023,-0.661023,-2.05864,994.046,191.071)"><path d="M326.468,110.281L432.249,110.281" style="fill:none;fill-rule:nonzero;stroke:rgb(33,33,33);stroke-opacity:0.15;stroke-width:0.5px;"/></g><g transform="matrix(-2.05864,0.661023,-0.661023,-2.05864,981.882,113.397)"><path d="M326.468,91.878L432.249,91.878" style="fill:none;fill-rule:nonzero;stroke:rgb(33,33,33);stroke-opacity:0.15;stroke-width:0.5px;"/></g><g transform="matrix(-2.05864,0.661023,-0.661023,-2.05864,969.717,35.7227)"><path d="M326.468,73.475L432.249,73.475" style="fill:none;fill-rule:nonzero;stroke:rgb(33,33,33);stroke-opacity:0.15;stroke-width:0.5px;"/></g><g transform="matrix(-2.05864,0.661023,-0.661023,-2.05864,957.552,-41.9517)"><path d="M326.468,55.073L432.249,55.073" style="fill:none;fill-rule:nonzero;stroke:rgb(33,33,33);stroke-opacity:0.15;stroke-width:0.5px;"/></g><g transform="matrix(-2.05864,0.661023,-0.661023,-2.05864,945.388,-119.626)"><path d="M326.468,36.67L432.249,36.67" style="fill:none;fill-rule:nonzero;stroke:rgb(33,33,33);stroke-opacity:0.15;stroke-width:0.5px;"/></g><g transform="matrix(-1.89824,-1.0352,1.0352,-1.89824,1083.38,1003.62)"><path d="M424.344,133.587L512.373,133.587" style="fill:none;fill-rule:nonzero;stroke:rgb(33,33,33);stroke-opacity:0.15;stroke-width:0.5px;"/></g><g transform="matrix(-1.89824,-1.0352,1.0352,-1.89824,1102.43,928.902)"><path d="M424.344,115.184L512.373,115.184" style="fill:none;fill-rule:nonzero;stroke:rgb(33,33,33);stroke-opacity:0.15;stroke-width:0.5px;"/></g><g transform="matrix(-1.89824,-1.0352,1.0352,-1.89824,1121.48,854.179)"><path d="M424.344,96.781L512.373,96.781" style="fill:none;fill-rule:nonzero;stroke:rgb(33,33,33);stroke-opacity:0.15;stroke-width:0.5px;"/></g><g transform="matrix(-1.89824,-1.0352,1.0352,-1.89824,1140.54,779.457)"><path d="M424.344,78.379L512.373,78.379" style="fill:none;fill-rule:nonzero;stroke:rgb(33,33,33);stroke-opacity:0.15;stroke-width:0.5px;"/></g><g transform="matrix(-1.89824,-1.0352,1.0352,-1.89824,1159.59,704.734)"><path d="M424.344,59.976L512.373,59.976" style="fill:none;fill-rule:nonzero;stroke:rgb(33,33,33);stroke-opacity:0.15;stroke-width:0.5px;"/></g><g transform="matrix(-1.89824,-1.0352,1.0352,-1.89824,1178.64,630.012)"><path d="M424.344,41.573L512.373,41.573" style="fill:none;fill-rule:nonzero;stroke:rgb(33,33,33);stroke-opacity:0.15;stroke-width:0.5px;"/></g><g transform="matrix(0,-2.16216,2.16216,0,-182.42,901.436)"><path d="M282.993,98.847L375.007,98.847" style="fill:none;fill-rule:nonzero;stroke:rgb(33,33,33);stroke-width:0.5px;stroke-linecap:square;"/></g><g transform="matrix(-1.89824,-1.0352,1.0352,-1.89824,640.954,1030.67)"><path d="M323.627,165.927L411.656,165.927" style="fill:none;fill-rule:nonzero;stroke:rgb(33,33,33);stroke-width:0.5px;stroke-linecap:square;"/></g><g transform="matrix(2.03715,-0.724555,0.724555,2.03715,-669.83,286.045)"><path d="M408.51,57.919L426.326,57.919" style="fill:none;fill-rule:nonzero;stroke:rgb(229,113,94);stroke-opacity:0.5;stroke-width:1px;stroke-linecap:square;"/></g><g transform="matrix(0,2.16216,-2.16216,0,340.06,-844.876)"><path d="M416.867,45.989L434.756,45.989" style="fill:none;fill-rule:nonzero;stroke:rgb(44,49,114);stroke-width:2px;stroke-linecap:square;"/></g><g transform="matrix(-1.7809,-1.22611,1.22611,-1.7809,951.554,740.44)"><path d="M424.433,59.367L440.071,59.367" style="fill:none;fill-rule:nonzero;stroke:rgb(229,113,94);stroke-opacity:0.5;stroke-width:1px;stroke-linecap:square;"/></g><g transform="matrix(-1.78161,-1.22508,1.22508,-1.78161,878.414,742.995)"><path d="M407.65,65.332L423.281,65.332" style="fill:none;fill-rule:nonzero;stroke:rgb(229,113,94);stroke-opacity:0.5;stroke-width:1px;stroke-linecap:square;"/></g><g transform="matrix(2.02304,-0.763048,0.763048,2.02304,-673.201,290.977)"><path d="M391.662,64.07L409.602,64.07" style="fill:none;fill-rule:nonzero;stroke:rgb(229,113,94);stroke-opacity:0.5;stroke-width:1px;stroke-linecap:round;"/></g><g transform="matrix(0,2.16216,-2.16216,0,335.51,-776.837)"><path d="M408.792,60.671L409.258,60.671" style="fill:none;fill-rule:nonzero;stroke:rgb(44,49,114);stroke-width:2px;"/></g><g transform="matrix(0,2.16216,-2.16216,0,204.33,107.038)"><circle cx="0" cy="0" r="2.5" style="fill:rgb(44,49,114);"/></g><g transform="matrix(0,2.16216,-2.16216,0,240.624,56.4572)"><circle cx="0" cy="0" r="2.5" style="fill:rgb(44,49,114);"/></g><g transform="matrix(2.05864,-0.661023,0.661023,2.05864,-745.698,295.897)"><path d="M403.751,170.83L509.532,170.83" style="fill:none;fill-rule:nonzero;stroke:rgb(33,33,33);stroke-width:0.5px;"/></g><g transform="matrix(0,2.16216,-2.16216,0,388.805,-851.83)"><path d="M430.543,55.653L446.84,55.653" style="fill:none;fill-rule:nonzero;stroke:rgb(44,49,114);stroke-width:2px;"/></g><g transform="matrix(2.03757,-0.72337,0.72337,2.03757,-674.743,295.948)"><path d="M421.392,66.781L439.205,66.781" style="fill:none;fill-rule:nonzero;stroke:rgb(229,113,94);stroke-opacity:0.5;stroke-width:1px;"/></g><g transform="matrix(-1.72215,-1.30734,1.30734,-1.72215,959.182,825.116)"><path d="M437.046,68.69L453.218,68.69" style="fill:none;fill-rule:nonzero;stroke:rgb(229,113,94);stroke-opacity:0.5;stroke-width:1px;stroke-linecap:round;"/></g><g transform="matrix(0.184853,-2.15425,2.15425,0.184853,-280.623,970.049)"><path d="M332.903,129.158L352.537,129.158" style="fill:none;fill-rule:nonzero;stroke:rgb(229,113,94);stroke-opacity:0.5;stroke-width:1px;"/></g><g transform="matrix(0,2.16216,-2.16216,0,358.781,-463.211)"><path d="M341.52,138.578L342.241,138.578" style="fill:none;fill-rule:nonzero;stroke:rgb(44,49,114);stroke-width:2px;"/></g><g transform="matrix(-1.85008,-1.119,1.119,-1.85008,557.667,939.216)"><path d="M340.794,142.834L355.847,142.834" style="fill:none;fill-rule:nonzero;stroke:rgb(229,113,94);stroke-opacity:0.5;stroke-width:1px;"/></g><g transform="matrix(0,2.16216,-2.16216,0,59.1522,275.211)"><circle cx="0" cy="0" r="2.5" style="fill:rgb(44,49,114);"/></g><g transform="matrix(0,-2.16216,2.16216,0,74.2214,1046.55)"><path d="M418.611,73.056L425.201,73.056" style="fill:none;fill-rule:nonzero;stroke:rgb(44,49,114);stroke-width:2px;"/></g><g transform="matrix(0,2.16216,-2.16216,0,232.18,141.444)"><circle cx="0" cy="0" r="2.5" style="fill:rgb(44,49,114);"/></g><g transform="matrix(0,2.16216,-2.16216,0,305.767,-733.991)"><path d="M388.705,63.701L395.773,63.701" style="fill:none;fill-rule:nonzero;stroke:rgb(44,49,114);stroke-width:2px;"/></g><g transform="matrix(-1.78276,-1.2234,1.2234,-1.78276,805.047,746.779)"><path d="M390.868,71.655L406.49,71.655" style="fill:none;fill-rule:nonzero;stroke:rgb(229,113,94);stroke-opacity:0.5;stroke-width:1px;"/></g><g transform="matrix(1.98789,-0.850442,0.850442,1.98789,-673.387,315.144)"><path d="M374.717,70.826L392.975,70.826" style="fill:none;fill-rule:nonzero;stroke:rgb(229,113,94);stroke-opacity:0.5;stroke-width:1px;stroke-linecap:round;"/></g><g transform="matrix(-1.72327,-1.30586,1.30586,-1.72327,886.791,825.735)"><path d="M420.265,74.641L436.426,74.641" style="fill:none;fill-rule:nonzero;stroke:rgb(229,113,94);stroke-opacity:0.5;stroke-width:1px;stroke-linecap:round;"/></g><g transform="matrix(2.02375,-0.761164,0.761164,2.02375,-678.317,301.205)"><path d="M404.545,72.918L422.48,72.918" style="fill:none;fill-rule:nonzero;stroke:rgb(229,113,94);stroke-opacity:0.5;stroke-width:1px;stroke-linecap:round;"/></g><g transform="matrix(0,2.16216,-2.16216,0,268.474,79.0743)"><circle cx="0" cy="0" r="2.5" style="fill:rgb(44,49,114);"/></g><g transform="matrix(-4.375e-08,-1,1,-4.375e-08,5.05183,120.184)"><g transform="matrix(17.2973,0,0,17.2973,-38.0967,16.7371)"></g><text x="-103.414px" y="16.737px" style="font-family:'ArialMT', 'Arial', sans-serif;font-size:17.297px;fill:rgb(33,33,33);">RLU/OD</text></g><g transform="matrix(1,0,0,1,157.447,204.02)"><text x="135.477px" y="187.477px" style="font-family:'ArialMT', 'Arial', sans-serif;font-size:16.649px;fill:rgb(33,33,33);">[C</text><text x="152.775px" y="193.964px" style="font-family:'ArialMT', 'Arial', sans-serif;font-size:13.319px;fill:rgb(33,33,33);">4</text><g transform="matrix(16.6486,0,0,16.6486,246.823,187.477)"></g><text x="161.423px" y="187.477px" style="font-family:'ArialMT', 'Arial', sans-serif;font-size:16.649px;fill:rgb(33,33,33);">–HSL] (μM)</text></g><g transform="matrix(1,0,0,1,-0.607362,204.02)"><text x="-0.523px" y="187.477px" style="font-family:'ArialMT', 'Arial', sans-serif;font-size:16.649px;fill:rgb(33,33,33);">[3–oxo–C</text><text x="70.829px" y="193.964px" style="font-family:'ArialMT', 'Arial', sans-serif;font-size:13.319px;fill:rgb(33,33,33);">12</text><g transform="matrix(16.6486,0,0,16.6486,171.364,187.477)"></g><text x="85.964px" y="187.477px" style="font-family:'ArialMT', 'Arial', sans-serif;font-size:16.649px;fill:rgb(33,33,33);">–HSL] (μM)</text></g><g transform="matrix(1,0,0,1,15.0737,18.1537)"><text x="12.97px" y="29.56px" style="font-family:'Arial-ItalicMT', 'Arial', sans-serif;font-style:italic;font-size:19.459px;">lasB</text><g transform="matrix(19.4595,0,0,19.4595,154.583,29.5596)"></g><text x="58.361px" y="29.56px" style="font-family:'ArialMT', 'Arial', sans-serif;font-size:19.459px;">Expression</text></g><g transform="matrix(0,2.16216,-2.16216,0,453.393,-842.942)"><path d="M450.637,72.644L452.507,72.644" style="fill:none;fill-rule:nonzero;stroke:rgb(44,49,114);stroke-width:2px;"/></g><g transform="matrix(-1.60311,-1.45086,1.45086,-1.60311,929.282,939.867)"><path d="M449.326,79.408L466.699,79.408" style="fill:none;fill-rule:nonzero;stroke:rgb(229,113,94);stroke-opacity:0.5;stroke-width:1px;stroke-linecap:round;"/></g><g transform="matrix(2.03823,-0.721489,0.721489,2.03823,-680.357,305.598)"><path d="M434.276,76.55L452.083,76.55" style="fill:none;fill-rule:nonzero;stroke:rgb(229,113,94);stroke-opacity:0.5;stroke-width:1px;"/></g><g transform="matrix(0,2.16216,-2.16216,0,168.035,106.452)"><circle cx="0" cy="0" r="2.5" style="fill:rgb(44,49,114);"/></g><g transform="matrix(2.05864,-0.661024,0.661024,2.05864,-735.675,311.38)"><path d="M473.006,159.61L490.636,159.61" style="fill:none;fill-rule:nonzero;stroke:rgb(229,113,94);stroke-opacity:0.5;stroke-width:1px;"/></g><g transform="matrix(0,2.16216,-2.16216,0,719.14,-744.293)"><path d="M490.21,156.911L490.218,156.911" style="fill:none;fill-rule:nonzero;stroke:rgb(44,49,114);stroke-width:2px;"/></g><g transform="matrix(-0.21063,-2.15188,2.15188,-0.21063,158.095,1386.57)"><path d="M482.959,150.336L496.181,150.336" style="fill:none;fill-rule:nonzero;stroke:rgb(229,113,94);stroke-opacity:0.5;stroke-width:1px;"/></g><g transform="matrix(0,2.16216,-2.16216,0,379.873,315.62)"><circle cx="0" cy="0" r="2.5" style="fill:rgb(44,49,114);"/></g><g transform="matrix(0,2.16216,-2.16216,0,296.324,131.409)"><circle cx="0" cy="0" r="2.5" style="fill:rgb(44,49,114);"/></g><g transform="matrix(0,-2.16216,2.16216,0,-34.283,954.176)"><path d="M373.083,76.786L377.822,76.786" style="fill:none;fill-rule:nonzero;stroke:rgb(44,49,114);stroke-width:2px;"/></g><g transform="matrix(0,2.16216,-2.16216,0,131.741,147.509)"><circle cx="0" cy="0" r="2.5" style="fill:rgb(44,49,114);"/></g><g transform="matrix(0.565152,-2.087,2.087,0.565152,-349.284,871.221)"><path d="M334.072,106.979L359.76,106.979" style="fill:none;fill-rule:nonzero;stroke:rgb(229,113,94);stroke-opacity:0.5;stroke-width:1px;"/></g><g transform="matrix(0,2.16216,-2.16216,0,302.877,-526.373)"><path d="M335.227,111.044L351.891,111.044" style="fill:none;fill-rule:nonzero;stroke:rgb(44,49,114);stroke-width:2px;"/></g><g transform="matrix(-1.82731,-1.1558,1.1558,-1.82731,573.58,873.393)"><path d="M342.379,123.45L357.62,123.45" style="fill:none;fill-rule:nonzero;stroke:rgb(229,113,94);stroke-opacity:0.5;stroke-width:1px;"/></g><g transform="matrix(0,2.16216,-2.16216,0,87.0019,294.315)"><circle cx="0" cy="0" r="2.5" style="fill:rgb(44,49,114);"/></g><g transform="matrix(0,-2.16216,2.16216,0,-230.601,1061.02)"><path d="M354.599,146.891L354.923,146.891" style="fill:none;fill-rule:nonzero;stroke:rgb(44,49,114);stroke-width:2px;"/></g><g transform="matrix(-1.83222,-1.148,1.148,-1.83222,589.651,993.232)"><path d="M353.601,150.765L368.801,150.765" style="fill:none;fill-rule:nonzero;stroke:rgb(229,113,94);stroke-opacity:0.5;stroke-width:1px;stroke-linecap:round;"/></g><g transform="matrix(0.188258,-2.15395,2.15395,0.188258,-273.492,1012.98)"><path d="M345.961,137.126L365.24,137.126" style="fill:none;fill-rule:nonzero;stroke:rgb(229,113,94);stroke-opacity:0.5;stroke-width:1px;"/></g><g transform="matrix(1.85122,-1.11711,1.11711,1.85122,-654.703,411.123)"><path d="M357.257,79.481L376.863,79.481" style="fill:none;fill-rule:nonzero;stroke:rgb(229,113,94);stroke-opacity:0.5;stroke-width:1px;stroke-linecap:round;"/></g><g transform="matrix(-1.78495,-1.2202,1.2202,-1.78495,731.152,753.456)"><path d="M374.092,78.819L389.694,78.819" style="fill:none;fill-rule:nonzero;stroke:rgb(229,113,94);stroke-opacity:0.5;stroke-width:1px;"/></g><g transform="matrix(0,2.16216,-2.16216,0,260.029,160.818)"><circle cx="0" cy="0" r="2.5" style="fill:rgb(44,49,114);"/></g><g transform="matrix(0,-2.16216,2.16216,0,81.832,1094.64)"><path d="M431.891,82.416L437.681,82.416" style="fill:none;fill-rule:nonzero;stroke:rgb(44,49,114);stroke-width:2px;"/></g><g transform="matrix(0,2.16216,-2.16216,0,673.936,-783.927)"><path d="M482.462,137.292L495.39,137.292" style="fill:none;fill-rule:nonzero;stroke:rgb(44,49,114);stroke-width:2px;"/></g><g transform="matrix(-0.414235,-2.12211,2.12211,-0.414235,295.921,1344.82)"><path d="M472.903,130.559L499.796,130.559" style="fill:none;fill-rule:nonzero;stroke:rgb(229,113,94);stroke-opacity:0.5;stroke-width:1px;stroke-linecap:round;"/></g><g transform="matrix(2.05428,-0.674458,0.674458,2.05428,-727.022,316.268)"><path d="M471.699,146.512L489.367,146.512" style="fill:none;fill-rule:nonzero;stroke:rgb(229,113,94);stroke-opacity:0.5;stroke-width:1px;"/></g><g transform="matrix(-1.7251,-1.30345,1.30345,-1.7251,814.288,827.447)"><path d="M403.488,80.941L419.632,80.941" style="fill:none;fill-rule:nonzero;stroke:rgb(229,113,94);stroke-opacity:0.5;stroke-width:1px;stroke-linecap:round;"/></g><g transform="matrix(0,2.16216,-2.16216,0,336.351,-759.107)"><path d="M394.01,64.965L416.229,64.965" style="fill:none;fill-rule:nonzero;stroke:rgb(44,49,114);stroke-width:2px;"/></g><g transform="matrix(1.98934,-0.84704,0.84704,1.98934,-678.95,326.17)"><path d="M387.604,79.648L405.849,79.648" style="fill:none;fill-rule:nonzero;stroke:rgb(229,113,94);stroke-opacity:0.5;stroke-width:1px;stroke-linecap:round;"/></g><g transform="matrix(2.02487,-0.758175,0.758175,2.02487,-684.184,310.991)"><path d="M417.431,82.664L435.355,82.664" style="fill:none;fill-rule:nonzero;stroke:rgb(229,113,94);stroke-opacity:0.5;stroke-width:1px;stroke-linecap:round;"/></g><g transform="matrix(-1.60508,-1.44868,1.44868,-1.60508,858.536,937.031)"><path d="M432.551,85.334L449.902,85.334" style="fill:none;fill-rule:nonzero;stroke:rgb(229,113,94);stroke-opacity:0.5;stroke-width:1px;stroke-linecap:round;"/></g><g transform="matrix(-1.3094,-1.72059,1.72059,-1.3094,793.469,1111.86)"><path d="M460.259,93.699L481.528,93.699" style="fill:none;fill-rule:nonzero;stroke:rgb(229,113,94);stroke-opacity:0.5;stroke-width:1px;stroke-linecap:round;"/></g><g transform="matrix(0,2.16216,-2.16216,0,506.563,-845.471)"><path d="M463.571,84.355L465.334,84.355" style="fill:none;fill-rule:nonzero;stroke:rgb(44,49,114);stroke-width:2px;"/></g><g transform="matrix(2.03945,-0.718049,0.718049,2.03945,-687.41,314.657)"><path d="M447.162,88.192L464.958,88.192" style="fill:none;fill-rule:nonzero;stroke:rgb(229,113,94);stroke-opacity:0.5;stroke-width:1px;"/></g><g transform="matrix(0,2.16216,-2.16216,0,77.2994,187.283)"><circle cx="0" cy="0" r="2.5" style="fill:rgb(44,49,114);"/></g><g transform="matrix(0,-2.16216,2.16216,0,-130.411,941.421)"><path d="M348.789,96.066L351.759,96.066" style="fill:none;fill-rule:nonzero;stroke:rgb(44,49,114);stroke-width:2px;"/></g><g transform="matrix(0,-2.16216,2.16216,0,-7.44215,1351.01)"><path d="M473.386,162.347L473.47,162.347" style="fill:none;fill-rule:nonzero;stroke:rgb(44,49,114);stroke-width:2px;"/></g><g transform="matrix(0,2.16216,-2.16216,0,343.578,327.473)"><circle cx="0" cy="0" r="2.5" style="fill:rgb(44,49,114);"/></g><g transform="matrix(-0.212575,-2.15169,2.15169,-0.212575,107.485,1363.6)"><path d="M466.233,155.786L479.334,155.786" style="fill:none;fill-rule:nonzero;stroke:rgb(229,113,94);stroke-opacity:0.5;stroke-width:1px;"/></g><g transform="matrix(2.05864,-0.661021,0.661021,2.05864,-740.976,300.841)"><path d="M456.219,165L473.85,165" style="fill:none;fill-rule:nonzero;stroke:rgb(229,113,94);stroke-opacity:0.5;stroke-width:1px;stroke-linecap:round;"/></g><g transform="matrix(0,2.16216,-2.16216,0,324.173,156.845)"><circle cx="0" cy="0" r="2.5" style="fill:rgb(44,49,114);"/></g><g transform="matrix(1.38716,-1.65854,1.65854,1.38716,-553.877,633.676)"><path d="M347.929,89.564L361.011,89.564" style="fill:none;fill-rule:nonzero;stroke:rgb(229,113,94);stroke-opacity:0.5;stroke-width:1px;stroke-linecap:round;"/></g><g transform="matrix(-1.79075,-1.21168,1.21168,-1.79075,655.464,770.182)"><path d="M357.331,88.904L372.883,88.904" style="fill:none;fill-rule:nonzero;stroke:rgb(229,113,94);stroke-opacity:0.5;stroke-width:1px;"/></g><g transform="matrix(0,2.16216,-2.16216,0,273.138,-621.442)"><path d="M356.303,82.182L361.031,82.182" style="fill:none;fill-rule:nonzero;stroke:rgb(44,49,114);stroke-width:2px;"/></g><g transform="matrix(-1.79972,-1.19831,1.19831,-1.79972,614.734,795.524)"><path d="M348.977,98.869L364.451,98.869" style="fill:none;fill-rule:nonzero;stroke:rgb(229,113,94);stroke-opacity:0.5;stroke-width:1px;"/></g><g transform="matrix(0,2.16216,-2.16216,0,62.7816,198.441)"><circle cx="0" cy="0" r="2.5" style="fill:rgb(44,49,114);"/></g><g transform="matrix(-1.7959,-1.20403,1.20403,-1.7959,597.512,935.116)"><path d="M355.126,131.841L370.634,131.841" style="fill:none;fill-rule:nonzero;stroke:rgb(229,113,94);stroke-opacity:0.5;stroke-width:1px;"/></g><g transform="matrix(0,2.16216,-2.16216,0,347.875,-537.075)"><path d="M347.891,118.975L364.988,118.975" style="fill:none;fill-rule:nonzero;stroke:rgb(44,49,114);stroke-width:2px;"/></g><g transform="matrix(0.574405,-2.08447,2.08447,0.574405,-349.202,909.479)"><path d="M347.16,115.34L372.434,115.34" style="fill:none;fill-rule:nonzero;stroke:rgb(229,113,94);stroke-opacity:0.5;stroke-width:1px;stroke-linecap:round;"/></g><g transform="matrix(0,2.16216,-2.16216,0,95.4466,148.942)"><circle cx="0" cy="0" r="2.5" style="fill:rgb(44,49,114);"/></g><g transform="matrix(0,2.16216,-2.16216,0,377.088,259.234)"><circle cx="0" cy="0" r="2.5" style="fill:rgb(44,49,114);"/></g><g transform="matrix(0,2.16216,-2.16216,0,159.591,161.515)"><circle cx="0" cy="0" r="2.5" style="fill:rgb(44,49,114);"/></g><g transform="matrix(0,-2.16216,2.16216,0,-22.955,998.547)"><path d="M387.128,84.427L389.539,84.427" style="fill:none;fill-rule:nonzero;stroke:rgb(44,49,114);stroke-width:2px;"/></g><g transform="matrix(0,-2.16216,2.16216,0,32.8414,1071.04)"><path d="M415.518,88.288L420.482,88.288" style="fill:none;fill-rule:nonzero;stroke:rgb(44,49,114);stroke-width:2px;"/></g><g transform="matrix(0,2.16216,-2.16216,0,223.735,172.621)"><circle cx="0" cy="0" r="2.5" style="fill:rgb(44,49,114);"/></g><g transform="matrix(0,2.16216,-2.16216,0,114.852,312.029)"><circle cx="0" cy="0" r="2.5" style="fill:rgb(44,49,114);"/></g><g transform="matrix(0,-2.16216,2.16216,0,-220.333,1106.45)"><path d="M367.418,155.023L367.864,155.023" style="fill:none;fill-rule:nonzero;stroke:rgb(44,49,114);stroke-width:2px;"/></g><g transform="matrix(0,-2.16216,2.16216,0,84.5521,1147.62)"><path d="M444.775,94.039L450.559,94.039" style="fill:none;fill-rule:nonzero;stroke:rgb(44,49,114);stroke-width:2px;"/></g><g transform="matrix(0,2.16216,-2.16216,0,287.879,185.942)"><circle cx="0" cy="0" r="2.5" style="fill:rgb(44,49,114);"/></g><g transform="matrix(0,2.16216,-2.16216,0,614.368,-821.215)"><path d="M481.306,114.894L486.241,114.894" style="fill:none;fill-rule:nonzero;stroke:rgb(44,49,114);stroke-width:2px;"/></g><g transform="matrix(-0.843534,-1.99083,1.99083,-0.843534,545.832,1262.97)"><path d="M472.3,109.762L488.807,109.762" style="fill:none;fill-rule:nonzero;stroke:rgb(229,113,94);stroke-opacity:0.5;stroke-width:1px;stroke-linecap:round;"/></g><g transform="matrix(2.04615,-0.698735,0.698735,2.04615,-708.905,322.475)"><path d="M466.512,120.228L484.249,120.228" style="fill:none;fill-rule:nonzero;stroke:rgb(229,113,94);stroke-opacity:0.5;stroke-width:1px;"/></g><g transform="matrix(-1.80221,-1.19457,1.19457,-1.80221,612.932,1053.83)"><path d="M366.355,159.069L381.808,159.069" style="fill:none;fill-rule:nonzero;stroke:rgb(229,113,94);stroke-opacity:0.5;stroke-width:1px;stroke-linecap:round;"/></g><g transform="matrix(0.19392,-2.15345,2.15345,0.19392,-268.072,1056.2)"><path d="M359.123,145.479L377.839,145.479" style="fill:none;fill-rule:nonzero;stroke:rgb(229,113,94);stroke-opacity:0.5;stroke-width:1px;"/></g><g transform="matrix(1.8556,-1.10982,1.10982,1.8556,-661.505,425.081)"><path d="M370.161,88.242L389.72,88.242" style="fill:none;fill-rule:nonzero;stroke:rgb(229,113,94);stroke-opacity:0.5;stroke-width:1px;stroke-linecap:round;"/></g><g transform="matrix(-1.72856,-1.29885,1.29885,-1.72856,741.528,831.736)"><path d="M386.718,88.061L402.829,88.061" style="fill:none;fill-rule:nonzero;stroke:rgb(229,113,94);stroke-opacity:0.5;stroke-width:1px;stroke-linecap:round;"/></g><g transform="matrix(-0.417604,-2.12145,2.12145,-0.417604,242.415,1323.83)"><path d="M456.226,136.181L482.901,136.181" style="fill:none;fill-rule:nonzero;stroke:rgb(229,113,94);stroke-opacity:0.5;stroke-width:1px;stroke-linecap:round;"/></g><g transform="matrix(2.05153,-0.682777,0.682777,2.05153,-732.565,309.821)"><path d="M454.901,152.061L472.592,152.061" style="fill:none;fill-rule:nonzero;stroke:rgb(229,113,94);stroke-opacity:0.5;stroke-width:1px;stroke-linecap:round;"/></g><g transform="matrix(0,2.16216,-2.16216,0,650.084,-735.19)"><path d="M465.919,143.047L478.36,143.047" style="fill:none;fill-rule:nonzero;stroke:rgb(44,49,114);stroke-width:2px;"/></g><g transform="matrix(2.04236,-0.709734,0.709734,2.04236,-698.445,321.773)"><path d="M460.055,105.079L477.826,105.079" style="fill:none;fill-rule:nonzero;stroke:rgb(229,113,94);stroke-opacity:0.5;stroke-width:1px;"/></g><g transform="matrix(0,2.16216,-2.16216,0,571.987,-835.747)"><path d="M476.905,101.733L477.762,101.733" style="fill:none;fill-rule:nonzero;stroke:rgb(44,49,114);stroke-width:2px;"/></g><g transform="matrix(0,2.16216,-2.16216,0,352.023,195.398)"><circle cx="0" cy="0" r="2.5" style="fill:rgb(44,49,114);"/></g><g transform="matrix(0,-2.16216,2.16216,0,-127.889,994.597)"><path d="M358.532,107.78L367.777,107.78" style="fill:none;fill-rule:nonzero;stroke:rgb(44,49,114);stroke-width:2px;"/></g><g transform="matrix(0,2.16216,-2.16216,0,105.149,219.394)"><circle cx="0" cy="0" r="2.5" style="fill:rgb(44,49,114);"/></g><g transform="matrix(-1.60829,-1.44512,1.44512,-1.60829,787.917,935.076)"><path d="M415.782,91.593L433.098,91.593" style="fill:none;fill-rule:nonzero;stroke:rgb(229,113,94);stroke-opacity:0.5;stroke-width:1px;"/></g><g transform="matrix(1.99163,-0.841631,0.841631,1.99163,-685.402,336.337)"><path d="M400.495,89.353L418.719,89.353" style="fill:none;fill-rule:nonzero;stroke:rgb(229,113,94);stroke-opacity:0.5;stroke-width:1px;"/></g><g transform="matrix(0,2.16216,-2.16216,0,365.948,219.447)"><circle cx="0" cy="0" r="2.5" style="fill:rgb(44,49,114);"/></g><g transform="matrix(-1.31317,-1.71771,1.71771,-1.31317,727.089,1102.43)"><path d="M443.503,99.571L464.711,99.571" style="fill:none;fill-rule:nonzero;stroke:rgb(229,113,94);stroke-opacity:0.5;stroke-width:1px;"/></g><g transform="matrix(2.02692,-0.752701,0.752701,2.02692,-691.591,319.752)"><path d="M430.32,94.264L448.227,94.264" style="fill:none;fill-rule:nonzero;stroke:rgb(229,113,94);stroke-opacity:0.5;stroke-width:1px;"/></g><g transform="matrix(2.05864,-0.661024,0.661024,2.05864,-746.276,290.304)"><path d="M439.433,170.39L457.064,170.39" style="fill:none;fill-rule:nonzero;stroke:rgb(229,113,94);stroke-opacity:0.5;stroke-width:1px;"/></g><g transform="matrix(0,2.16216,-2.16216,0,669.581,-648.674)"><path d="M456.509,167.562L456.774,167.562" style="fill:none;fill-rule:nonzero;stroke:rgb(44,49,114);stroke-width:2px;"/></g><g transform="matrix(-0.215793,-2.15137,2.15137,-0.215793,57.3322,1340.88)"><path d="M449.545,161.274L462.45,161.274" style="fill:none;fill-rule:nonzero;stroke:rgb(229,113,94);stroke-opacity:0.5;stroke-width:1px;"/></g><g transform="matrix(0,2.16216,-2.16216,0,307.284,338.372)"><circle cx="0" cy="0" r="2.5" style="fill:rgb(44,49,114);"/></g><g transform="matrix(0,2.16216,-2.16216,0,187.44,201.057)"><circle cx="0" cy="0" r="2.5" style="fill:rgb(44,49,114);"/></g><g transform="matrix(0,-2.16216,2.16216,0,-25.3396,1056.63)"><path d="M395.703,98.411L406.724,98.411" style="fill:none;fill-rule:nonzero;stroke:rgb(44,49,114);stroke-width:2px;"/></g><g transform="matrix(0,2.16216,-2.16216,0,195.885,92.8078)"><circle cx="0" cy="0" r="2.5" style="fill:rgb(44,49,114);"/></g><g transform="matrix(0,-2.16216,2.16216,0,76.4395,1211.43)"><path d="M457.871,110.671L463.223,110.671" style="fill:none;fill-rule:nonzero;stroke:rgb(44,49,114);stroke-width:2px;"/></g><g transform="matrix(0,2.16216,-2.16216,0,315.729,221.437)"><circle cx="0" cy="0" r="2.5" style="fill:rgb(44,49,114);"/></g><g transform="matrix(0,2.16216,-2.16216,0,323.801,-626.478)"><path d="M371.019,92.734L372.075,92.734" style="fill:none;fill-rule:nonzero;stroke:rgb(44,49,114);stroke-width:2px;"/></g><g transform="matrix(1.39854,-1.64895,1.64895,1.39854,-561.473,657.101)"><path d="M360.863,98.209L373.839,98.209" style="fill:none;fill-rule:nonzero;stroke:rgb(229,113,94);stroke-opacity:0.5;stroke-width:1px;stroke-linecap:round;"/></g><g transform="matrix(-1.73775,-1.28654,1.28654,-1.73775,667.948,844.964)"><path d="M369.974,98.03L386.001,98.03" style="fill:none;fill-rule:nonzero;stroke:rgb(229,113,94);stroke-opacity:0.5;stroke-width:1px;stroke-linecap:round;"/></g><g transform="matrix(-1.75198,-1.26709,1.26709,-1.75198,629.985,866.674)"><path d="M361.646,107.815L377.542,107.815" style="fill:none;fill-rule:nonzero;stroke:rgb(229,113,94);stroke-opacity:0.5;stroke-width:1px;stroke-linecap:round;"/></g><g transform="matrix(0,2.16216,-2.16216,0,123.296,175.726)"><circle cx="0" cy="0" r="2.5" style="fill:rgb(44,49,114);"/></g><g transform="matrix(0,2.16216,-2.16216,0,340.793,272.203)"><circle cx="0" cy="0" r="2.5" style="fill:rgb(44,49,114);"/></g><g transform="matrix(0,2.16216,-2.16216,0,90.6313,215.123)"><circle cx="0" cy="0" r="2.5" style="fill:rgb(44,49,114);"/></g><g transform="matrix(0,-2.16216,2.16216,0,62.9895,1252.73)"><path d="M466.749,123.332L467.226,123.332" style="fill:none;fill-rule:nonzero;stroke:rgb(44,49,114);stroke-width:2px;"/></g><g transform="matrix(0,2.16216,-2.16216,0,329.654,243.541)"><circle cx="0" cy="0" r="2.5" style="fill:rgb(44,49,114);"/></g><g transform="matrix(2.03811,-0.721846,0.721846,2.03811,-714.159,323.035)"><path d="M449.69,126.067L467.498,126.067" style="fill:none;fill-rule:nonzero;stroke:rgb(229,113,94);stroke-opacity:0.5;stroke-width:1px;"/></g><g transform="matrix(-0.848312,-1.9888,1.9888,-0.848312,486.316,1246.54)"><path d="M455.56,115.545L471.975,115.545" style="fill:none;fill-rule:nonzero;stroke:rgb(229,113,94);stroke-opacity:0.5;stroke-width:1px;"/></g><g transform="matrix(0.58969,-2.08019,2.08019,0.58969,-352.626,947.087)"><path d="M360.368,124.316L384.987,124.316" style="fill:none;fill-rule:nonzero;stroke:rgb(229,113,94);stroke-opacity:0.5;stroke-width:1px;"/></g><g transform="matrix(0,2.16216,-2.16216,0,407.873,-532.776)"><path d="M367.005,133.844L371.635,133.844" style="fill:none;fill-rule:nonzero;stroke:rgb(44,49,114);stroke-width:2px;"/></g><g transform="matrix(-1.73556,-1.28949,1.28949,-1.73556,602.814,1010.26)"><path d="M367.737,140.944L383.784,140.944" style="fill:none;fill-rule:nonzero;stroke:rgb(229,113,94);stroke-opacity:0.5;stroke-width:1px;stroke-linecap:round;"/></g><g transform="matrix(-0.423184,-2.12034,2.12034,-0.423184,189.561,1303.39)"><path d="M439.615,141.947L465.939,141.947" style="fill:none;fill-rule:nonzero;stroke:rgb(229,113,94);stroke-opacity:0.5;stroke-width:1px;stroke-linecap:round;"/></g><g transform="matrix(2.04495,-0.70222,0.70222,2.04495,-738.426,308.714)"><path d="M438.086,157.736L455.834,157.736" style="fill:none;fill-rule:nonzero;stroke:rgb(229,113,94);stroke-opacity:0.5;stroke-width:1px;stroke-linecap:round;"/></g><g transform="matrix(0,2.16216,-2.16216,0,631.698,-680.987)"><path d="M451.829,151.329L458.878,151.329" style="fill:none;fill-rule:nonzero;stroke:rgb(44,49,114);stroke-width:2px;"/></g><g transform="matrix(2.03179,-0.739444,0.739444,2.03179,-703.215,325.182)"><path d="M443.222,111.05L461.086,111.05" style="fill:none;fill-rule:nonzero;stroke:rgb(229,113,94);stroke-opacity:0.5;stroke-width:1px;stroke-linecap:round;"/></g><g transform="matrix(1.86252,-1.09817,1.09817,1.86252,-669.797,437.065)"><path d="M383.077,97.849L402.564,97.849" style="fill:none;fill-rule:nonzero;stroke:rgb(229,113,94);stroke-opacity:0.5;stroke-width:1px;stroke-linecap:round;"/></g><g transform="matrix(-1.6144,-1.43829,1.43829,-1.6144,717.611,935.197)"><path d="M399.029,98.638L416.279,98.638" style="fill:none;fill-rule:nonzero;stroke:rgb(229,113,94);stroke-opacity:0.5;stroke-width:1px;stroke-linecap:round;"/></g><g transform="matrix(0,-2.16216,2.16216,0,-210.901,1152.71)"><path d="M380.318,163.541L380.726,163.541" style="fill:none;fill-rule:nonzero;stroke:rgb(44,49,114);stroke-width:2px;"/></g><g transform="matrix(0,2.16216,-2.16216,0,142.701,330.405)"><circle cx="0" cy="0" r="2.5" style="fill:rgb(44,49,114);"/></g><g transform="matrix(-1.74601,-1.2753,1.2753,-1.74601,617.964,1126.59)"><path d="M378.987,168.041L394.937,168.041" style="fill:none;fill-rule:nonzero;stroke:rgb(229,113,94);stroke-opacity:0.5;stroke-width:1px;"/></g><g transform="matrix(0.20519,-2.1524,2.1524,0.20519,-266.353,1099.62)"><path d="M372.517,154.533L390.205,154.533" style="fill:none;fill-rule:nonzero;stroke:rgb(229,113,94);stroke-opacity:0.5;stroke-width:1px;"/></g><g transform="matrix(-1.31931,-1.713,1.713,-1.31931,661.336,1093.63)"><path d="M426.766,105.742L447.875,105.742" style="fill:none;fill-rule:nonzero;stroke:rgb(229,113,94);stroke-opacity:0.5;stroke-width:1px;stroke-linecap:round;"/></g><g transform="matrix(0,2.16216,-2.16216,0,451.738,-755.118)"><path d="M426.071,92.571L435.69,92.571" style="fill:none;fill-rule:nonzero;stroke:rgb(44,49,114);stroke-width:2px;"/></g><g transform="matrix(1.9958,-0.831703,0.831703,1.9958,-693.663,344.528)"><path d="M413.395,100.878L431.58,100.878" style="fill:none;fill-rule:nonzero;stroke:rgb(229,113,94);stroke-opacity:0.5;stroke-width:1px;stroke-linecap:round;"/></g><g transform="matrix(0,2.16216,-2.16216,0,151.146,218.85)"><circle cx="0" cy="0" r="2.5" style="fill:rgb(44,49,114);"/></g><g transform="matrix(0,-2.16216,2.16216,0,-81.2307,1039.93)"><path d="M379.751,107.474L389.104,107.474" style="fill:none;fill-rule:nonzero;stroke:rgb(44,49,114);stroke-width:2px;"/></g><g transform="matrix(0,2.16216,-2.16216,0,118.481,260.748)"><circle cx="0" cy="0" r="2.5" style="fill:rgb(44,49,114);"/></g><g transform="matrix(0,-2.16216,2.16216,0,-103.336,1301.73)"><path d="M439.815,173.126L439.896,173.126" style="fill:none;fill-rule:nonzero;stroke:rgb(44,49,114);stroke-width:2px;"/></g><g transform="matrix(0,2.16216,-2.16216,0,270.99,350.776)"><circle cx="0" cy="0" r="2.5" style="fill:rgb(44,49,114);"/></g><g transform="matrix(-0.222209,-2.15071,2.15071,-0.222209,8.34376,1318.82)"><path d="M432.945,166.852L445.478,166.852" style="fill:none;fill-rule:nonzero;stroke:rgb(229,113,94);stroke-opacity:0.5;stroke-width:1px;"/></g><g transform="matrix(2.05864,-0.661021,0.661021,2.05864,-751.577,279.765)"><path d="M422.647,175.78L440.277,175.78" style="fill:none;fill-rule:nonzero;stroke:rgb(229,113,94);stroke-opacity:0.5;stroke-width:1px;stroke-linecap:round;"/></g><g transform="matrix(0,-2.16216,2.16216,0,-118.648,1041.06)"><path d="M372.121,116.387L379.948,116.387" style="fill:none;fill-rule:nonzero;stroke:rgb(44,49,114);stroke-width:2px;"/></g><g transform="matrix(0,2.16216,-2.16216,0,132.999,236.47)"><circle cx="0" cy="0" r="2.5" style="fill:rgb(44,49,114);"/></g><g transform="matrix(0,2.16216,-2.16216,0,304.499,295.94)"><circle cx="0" cy="0" r="2.5" style="fill:rgb(44,49,114);"/></g><g transform="matrix(0,-2.16216,2.16216,0,25.9977,1189.28)"><path d="M440.651,117.214L446.871,117.214" style="fill:none;fill-rule:nonzero;stroke:rgb(44,49,114);stroke-width:2px;"/></g><g transform="matrix(0,2.16216,-2.16216,0,279.434,236.523)"><circle cx="0" cy="0" r="2.5" style="fill:rgb(44,49,114);"/></g><g transform="matrix(-1.63065,-1.41984,1.41984,-1.63065,648.521,942.49)"><path d="M382.328,108.405L399.407,108.405" style="fill:none;fill-rule:nonzero;stroke:rgb(229,113,94);stroke-opacity:0.5;stroke-width:1px;"/></g><g transform="matrix(1.41681,-1.63328,1.63328,1.41681,-572.441,677.61)"><path d="M373.827,107.635L386.635,107.635" style="fill:none;fill-rule:nonzero;stroke:rgb(229,113,94);stroke-opacity:0.5;stroke-width:1px;"/></g><g transform="matrix(0,2.16216,-2.16216,0,251.585,166.117)"><circle cx="0" cy="0" r="2.5" style="fill:rgb(44,49,114);"/></g><g transform="matrix(0,2.16216,-2.16216,0,215.29,212.507)"><circle cx="0" cy="0" r="2.5" style="fill:rgb(44,49,114);"/></g><g transform="matrix(0,-2.16216,2.16216,0,-15.6209,1102.61)"><path d="M411.674,106.796L416.515,106.796" style="fill:none;fill-rule:nonzero;stroke:rgb(44,49,114);stroke-width:2px;"/></g><g transform="matrix(0,2.16216,-2.16216,0,566.296,-724.109)"><path d="M447.395,126.233L453.007,126.233" style="fill:none;fill-rule:nonzero;stroke:rgb(44,49,114);stroke-width:2px;"/></g><g transform="matrix(2.01844,-0.775154,0.775154,2.01844,-719.073,337.841)"><path d="M432.817,132.262L450.799,132.262" style="fill:none;fill-rule:nonzero;stroke:rgb(229,113,94);stroke-opacity:0.5;stroke-width:1px;stroke-linecap:round;"/></g><g transform="matrix(-0.856168,-1.98543,1.98543,-0.856168,427.716,1230.75)"><path d="M438.849,121.572L455.113,121.572" style="fill:none;fill-rule:nonzero;stroke:rgb(229,113,94);stroke-opacity:0.5;stroke-width:1px;stroke-linecap:round;"/></g><g transform="matrix(-1.65603,-1.39015,1.39015,-1.65603,616.445,958.143)"><path d="M374.066,117.879L390.883,117.879" style="fill:none;fill-rule:nonzero;stroke:rgb(229,113,94);stroke-opacity:0.5;stroke-width:1px;stroke-linecap:round;"/></g><g transform="matrix(2.0057,-0.807524,0.807524,2.0057,-706.803,346.313)"><path d="M426.32,117.484L444.416,117.484" style="fill:none;fill-rule:nonzero;stroke:rgb(229,113,94);stroke-opacity:0.5;stroke-width:1px;stroke-linecap:round;"/></g><g transform="matrix(0,2.16216,-2.16216,0,606.76,-633.336)"><path d="M434.531,156.582L442.604,156.582" style="fill:none;fill-rule:nonzero;stroke:rgb(44,49,114);stroke-width:2px;"/></g><g transform="matrix(2.0211,-0.768187,0.768187,2.0211,-745.202,329.924)"><path d="M421.195,163.808L439.153,163.808" style="fill:none;fill-rule:nonzero;stroke:rgb(229,113,94);stroke-opacity:0.5;stroke-width:1px;stroke-linecap:round;"/></g><g transform="matrix(-0.434214,-2.11811,2.11811,-0.434214,138.358,1284.24)"><path d="M423.164,148.052L448.819,148.052" style="fill:none;fill-rule:nonzero;stroke:rgb(229,113,94);stroke-opacity:0.5;stroke-width:1px;stroke-linecap:round;"/></g><g transform="matrix(0.619718,-2.07145,2.07145,0.619718,-363.972,982.494)"><path d="M373.845,134.507L397.271,134.507" style="fill:none;fill-rule:nonzero;stroke:rgb(229,113,94);stroke-opacity:0.5;stroke-width:1px;stroke-linecap:round;"/></g><g transform="matrix(-1.5884,-1.46695,1.46695,-1.5884,555.07,1115.35)"><path d="M379.874,151.677L397.407,151.677" style="fill:none;fill-rule:nonzero;stroke:rgb(229,113,94);stroke-opacity:0.5;stroke-width:1px;stroke-linecap:round;"/></g><g transform="matrix(0,2.16216,-2.16216,0,454.191,-542.158)"><path d="M378.857,142.385L385.544,142.385" style="fill:none;fill-rule:nonzero;stroke:rgb(44,49,114);stroke-width:2px;"/></g><g transform="matrix(1.87511,-1.07653,1.07653,1.87511,-681.141,444.458)"><path d="M396.023,109.194L415.379,109.194" style="fill:none;fill-rule:nonzero;stroke:rgb(229,113,94);stroke-opacity:0.5;stroke-width:1px;stroke-linecap:round;"/></g><g transform="matrix(-1.33112,-1.70384,1.70384,-1.33112,597.111,1086.3)"><path d="M410.074,112.619L430.996,112.619" style="fill:none;fill-rule:nonzero;stroke:rgb(229,113,94);stroke-opacity:0.5;stroke-width:1px;stroke-linecap:round;"/></g><g transform="matrix(0,-2.16216,2.16216,0,-78.7578,1093.16)"><path d="M392.11,119.211L402.506,119.211" style="fill:none;fill-rule:nonzero;stroke:rgb(44,49,114);stroke-width:2px;"/></g><g transform="matrix(0,2.16216,-2.16216,0,178.996,245.355)"><circle cx="0" cy="0" r="2.5" style="fill:rgb(44,49,114);"/></g><g transform="matrix(0,2.16216,-2.16216,0,293.359,243.233)"><circle cx="0" cy="0" r="2.5" style="fill:rgb(44,49,114);"/></g><g transform="matrix(0,2.16216,-2.16216,0,243.14,259.343)"><circle cx="0" cy="0" r="2.5" style="fill:rgb(44,49,114);"/></g><g transform="matrix(0,-2.16216,2.16216,0,-29.0131,1171.7)"><path d="M421.967,125.871L431.983,125.871" style="fill:none;fill-rule:nonzero;stroke:rgb(44,49,114);stroke-width:2px;"/></g><g transform="matrix(0.238565,-2.14896,2.14896,0.238565,-276.663,1141.32)"><path d="M386.635,165.185L401.849,165.185" style="fill:none;fill-rule:nonzero;stroke:rgb(229,113,94);stroke-opacity:0.5;stroke-width:1px;"/></g><g transform="matrix(0,2.16216,-2.16216,0,544.029,-500.759)"><path d="M393.391,172.734L393.414,172.734" style="fill:none;fill-rule:nonzero;stroke:rgb(44,49,114);stroke-width:2px;"/></g><g transform="matrix(-1.66895,-1.37461,1.37461,-1.66895,598.351,1193.53)"><path d="M392.451,175.398L400.794,175.398" style="fill:none;fill-rule:nonzero;stroke:rgb(229,113,94);stroke-opacity:0.5;stroke-width:1px;stroke-linecap:round;"/></g><g transform="matrix(0,2.16216,-2.16216,0,170.551,349.815)"><circle cx="0" cy="0" r="2.5" style="fill:rgb(44,49,114);"/></g><g transform="matrix(-0.241146,-2.14867,2.14867,-0.241146,-35.9859,1299.15)"><path d="M416.651,172.737L428.199,172.737" style="fill:none;fill-rule:nonzero;stroke:rgb(229,113,94);stroke-opacity:0.5;stroke-width:1px;"/></g><g transform="matrix(2.05864,-0.661027,0.661027,2.05864,-755.553,271.864)"><path d="M414.465,179.823L423.28,179.823" style="fill:none;fill-rule:nonzero;stroke:rgb(229,113,94);stroke-opacity:0.5;stroke-width:1px;stroke-linecap:round;"/></g><g transform="matrix(0,2.16216,-2.16216,0,620.488,-552.589)"><path d="M423.023,178.429L423.115,178.429" style="fill:none;fill-rule:nonzero;stroke:rgb(44,49,114);stroke-width:2px;"/></g><g transform="matrix(0,2.16216,-2.16216,0,234.695,362.056)"><circle cx="0" cy="0" r="2.5" style="fill:rgb(44,49,114);"/></g><g transform="matrix(0,-2.16216,2.16216,0,-116.159,1094.27)"><path d="M384.085,128.116L393.745,128.116" style="fill:none;fill-rule:nonzero;stroke:rgb(44,49,114);stroke-width:2px;"/></g><g transform="matrix(0,2.16216,-2.16216,0,160.848,263.813)"><circle cx="0" cy="0" r="2.5" style="fill:rgb(44,49,114);"/></g><g transform="matrix(0,2.16216,-2.16216,0,268.205,306.19)"><circle cx="0" cy="0" r="2.5" style="fill:rgb(44,49,114);"/></g><g transform="matrix(0,2.16216,-2.16216,0,146.331,276.992)"><circle cx="0" cy="0" r="2.5" style="fill:rgb(44,49,114);"/></g><g transform="matrix(0,2.16216,-2.16216,0,257.065,274.431)"><circle cx="0" cy="0" r="2.5" style="fill:rgb(44,49,114);"/></g><g transform="matrix(0,-2.16216,2.16216,0,-38.4408,1208.98)"><path d="M432.229,136.671L434.601,136.671" style="fill:none;fill-rule:nonzero;stroke:rgb(44,49,114);stroke-width:2px;"/></g><g transform="matrix(1.94342,-0.947663,0.947663,1.94342,-719.352,409.671)"><path d="M415.684,139.578L434.36,139.578" style="fill:none;fill-rule:nonzero;stroke:rgb(229,113,94);stroke-opacity:0.5;stroke-width:1px;stroke-linecap:round;"/></g><g transform="matrix(-0.871485,-1.97875,1.97875,-0.871485,371.386,1216.45)"><path d="M422.206,128.174L438.184,128.174" style="fill:none;fill-rule:nonzero;stroke:rgb(229,113,94);stroke-opacity:0.5;stroke-width:1px;stroke-linecap:round;"/></g><g transform="matrix(0.30335,-2.14078,2.14078,0.30335,-303.741,1154.08)"><path d="M394.7,172.127L406.664,172.127" style="fill:none;fill-rule:nonzero;stroke:rgb(229,113,94);stroke-opacity:0.5;stroke-width:1px;"/></g><g transform="matrix(0,2.16216,-2.16216,0,569.007,-503.632)"><path d="M399.638,177.846L400.047,177.846" style="fill:none;fill-rule:nonzero;stroke:rgb(44,49,114);stroke-width:2px;"/></g><g transform="matrix(-1.59055,-1.46462,1.46462,-1.59055,565.864,1242.82)"><path d="M398.917,180.422L405.921,180.422" style="fill:none;fill-rule:nonzero;stroke:rgb(229,113,94);stroke-opacity:0.5;stroke-width:1px;stroke-linecap:round;"/></g><g transform="matrix(1.90506,-1.02259,1.02259,1.90506,-700.63,436.634)"><path d="M409.056,125.368L428.108,125.368" style="fill:none;fill-rule:nonzero;stroke:rgb(229,113,94);stroke-opacity:0.5;stroke-width:1px;stroke-linecap:round;"/></g><g transform="matrix(0,2.16216,-2.16216,0,608.181,-528.602)"><path d="M414.636,181.13L414.716,181.13" style="fill:none;fill-rule:nonzero;stroke:rgb(44,49,114);stroke-width:2px;"/></g><g transform="matrix(-0.277769,-2.14425,2.14425,-0.277769,-47.6522,1294.06)"><path d="M409.019,176.198L419.045,176.198" style="fill:none;fill-rule:nonzero;stroke:rgb(229,113,94);stroke-opacity:0.5;stroke-width:1px;"/></g><g transform="matrix(2.05864,-0.661021,0.661021,2.05864,-757.938,267.119)"><path d="M407.793,182.248L414.845,182.248" style="fill:none;fill-rule:nonzero;stroke:rgb(229,113,94);stroke-opacity:0.5;stroke-width:1px;stroke-linecap:round;"/></g><g transform="matrix(0,2.16216,-2.16216,0,216.548,367.909)"><circle cx="0" cy="0" r="2.5" style="fill:rgb(44,49,114);"/></g><g transform="matrix(-1.36306,-1.6784,1.6784,-1.36306,538.585,1083.89)"><path d="M393.532,121.943L413.964,121.943" style="fill:none;fill-rule:nonzero;stroke:rgb(229,113,94);stroke-opacity:0.5;stroke-width:1px;stroke-linecap:round;"/></g><g transform="matrix(1.45097,-1.60301,1.60301,1.45097,-590.665,690.906)"><path d="M386.858,118.649L399.365,118.649" style="fill:none;fill-rule:nonzero;stroke:rgb(229,113,94);stroke-opacity:0.5;stroke-width:1px;stroke-linecap:round;"/></g><g transform="matrix(0,2.16216,-2.16216,0,184.476,360.452)"><circle cx="0" cy="0" r="2.5" style="fill:rgb(44,49,114);"/></g><g transform="matrix(-0.466308,-2.11128,2.11128,-0.466308,93.8637,1269.71)"><path d="M407.26,155.335L431.15,155.335" style="fill:none;fill-rule:nonzero;stroke:rgb(229,113,94);stroke-opacity:0.5;stroke-width:1px;stroke-linecap:round;"/></g><g transform="matrix(0,2.16216,-2.16216,0,587.368,-580.139)"><path d="M419.182,164.399L424.38,164.399" style="fill:none;fill-rule:nonzero;stroke:rgb(44,49,114);stroke-width:2px;"/></g><g transform="matrix(1.93095,-0.972816,0.972816,1.93095,-748.014,421.696)"><path d="M412.885,169.113L422.284,169.113" style="fill:none;fill-rule:nonzero;stroke:rgb(229,113,94);stroke-opacity:0.5;stroke-width:1px;stroke-linecap:round;"/></g><g transform="matrix(-1.41457,-1.63522,1.63522,-1.41457,520.258,1090.44)"><path d="M385.511,130.73L405.199,130.73" style="fill:none;fill-rule:nonzero;stroke:rgb(229,113,94);stroke-opacity:0.5;stroke-width:1px;stroke-linecap:round;"/></g><g transform="matrix(0,2.16216,-2.16216,0,206.845,279.16)"><circle cx="0" cy="0" r="2.5" style="fill:rgb(44,49,114);"/></g><g transform="matrix(0,-2.16216,2.16216,0,-84.9571,1155.06)"><path d="M405.103,134.959L415.274,134.959" style="fill:none;fill-rule:nonzero;stroke:rgb(44,49,114);stroke-width:2px;"/></g><g transform="matrix(0,2.16216,-2.16216,0,513.683,-538.364)"><path d="M394.477,157.02L395.686,157.02" style="fill:none;fill-rule:nonzero;stroke:rgb(44,49,114);stroke-width:2px;"/></g><g transform="matrix(0.705571,-2.0438,2.0438,0.705571,-401.965,1006.12)"><path d="M388.15,147.9L408.726,147.9" style="fill:none;fill-rule:nonzero;stroke:rgb(229,113,94);stroke-opacity:0.5;stroke-width:1px;stroke-linecap:round;"/></g><g transform="matrix(-1.29807,-1.72915,1.72915,-1.29807,418.191,1225.35)"><path d="M392.937,161.914L403.665,161.914" style="fill:none;fill-rule:nonzero;stroke:rgb(229,113,94);stroke-opacity:0.5;stroke-width:1px;stroke-linecap:round;"/></g><g transform="matrix(0,-2.16216,2.16216,0,-97.8758,1195.83)"><path d="M412.926,147.374L420.332,147.374" style="fill:none;fill-rule:nonzero;stroke:rgb(44,49,114);stroke-width:2px;"/></g><g transform="matrix(0,2.16216,-2.16216,0,220.77,303.014)"><circle cx="0" cy="0" r="2.5" style="fill:rgb(44,49,114);"/></g><g transform="matrix(0,2.16216,-2.16216,0,174.18,314.558)"><circle cx="0" cy="0" r="2.5" style="fill:rgb(44,49,114);"/></g><g transform="matrix(0,2.16216,-2.16216,0,231.91,326.2)"><circle cx="0" cy="0" r="2.5" style="fill:rgb(44,49,114);"/></g><g transform="matrix(0,2.16216,-2.16216,0,202.03,373.345)"><circle cx="0" cy="0" r="2.5" style="fill:rgb(44,49,114);"/></g><g transform="matrix(0,-2.16216,2.16216,0,-194.652,1255.12)"><path d="M407.822,183.465L408.101,183.465" style="fill:none;fill-rule:nonzero;stroke:rgb(44,49,114);stroke-width:2px;"/></g><g transform="matrix(0.72976,-2.03529,2.03529,0.72976,-466.005,1060.83)"><path d="M403.347,180.453L408.321,180.453" style="fill:none;fill-rule:nonzero;stroke:rgb(229,113,94);stroke-opacity:0.5;stroke-width:1px;"/></g><g transform="matrix(0,2.16216,-2.16216,0,588.931,-505.988)"><path d="M404.109,181.908L405.881,181.908" style="fill:none;fill-rule:nonzero;stroke:rgb(44,49,114);stroke-width:2px;"/></g><g transform="matrix(-1.53147,-1.52628,1.52628,-1.53147,538.257,1273.03)"><path d="M404.73,183.436L406.548,183.436" style="fill:none;fill-rule:nonzero;stroke:rgb(229,113,94);stroke-opacity:0.5;stroke-width:1px;"/></g><g transform="matrix(-0.518594,-2.09905,2.09905,-0.518594,32.5316,1315.81)"><path d="M404.632,180.719L410.003,180.719" style="fill:none;fill-rule:nonzero;stroke:rgb(229,113,94);stroke-opacity:0.5;stroke-width:1px;"/></g><g transform="matrix(1.97328,-0.883805,0.883805,1.97328,-765.507,370.877)"><path d="M406.203,183.702L408.042,183.702" style="fill:none;fill-rule:nonzero;stroke:rgb(229,113,94);stroke-opacity:0.5;stroke-width:1px;"/></g><g transform="matrix(-0.526254,-2.09714,2.09714,-0.526254,86.8264,1270.62)"><path d="M400.228,160.961L421.396,160.961" style="fill:none;fill-rule:nonzero;stroke:rgb(229,113,94);stroke-opacity:0.5;stroke-width:1px;stroke-linecap:round;"/></g><g transform="matrix(0,2.16216,-2.16216,0,576.565,-554.647)"><path d="M409.957,167.796L416.819,167.796" style="fill:none;fill-rule:nonzero;stroke:rgb(44,49,114);stroke-width:2px;"/></g><g transform="matrix(1.50951,-1.548,1.548,1.50951,-682.832,725.089)"><path d="M405.222,174.67L414.839,174.67" style="fill:none;fill-rule:nonzero;stroke:rgb(229,113,94);stroke-opacity:0.5;stroke-width:1px;stroke-linecap:round;"/></g><g transform="matrix(0,2.16216,-2.16216,0,198.401,374.368)"><circle cx="0" cy="0" r="2.5" style="fill:rgb(44,49,114);"/></g><g transform="matrix(0,2.16216,-2.16216,0,195.616,367.761)"><circle cx="0" cy="0" r="2.5" style="fill:rgb(44,49,114);"/></g><g transform="matrix(0,2.16216,-2.16216,0,578.918,-523.259)"><path d="M404.16,175.599L409.187,175.599" style="fill:none;fill-rule:nonzero;stroke:rgb(44,49,114);stroke-width:2px;"/></g><g transform="matrix(-0.858527,-1.98441,1.98441,-0.858527,198.972,1298.29)"><path d="M397.61,172.158L410.585,172.158" style="fill:none;fill-rule:nonzero;stroke:rgb(229,113,94);stroke-opacity:0.5;stroke-width:1px;stroke-linecap:round;"/></g><g transform="matrix(0,2.16216,-2.16216,0,188.698,288.033)"><circle cx="0" cy="0" r="2.5" style="fill:rgb(44,49,114);"/></g><g transform="matrix(0,-2.16216,2.16216,0,-116.516,1150.32)"><path d="M398.809,141.162L404.782,141.162" style="fill:none;fill-rule:nonzero;stroke:rgb(44,49,114);stroke-width:2px;"/></g><g transform="matrix(0,2.16216,-2.16216,0,543.22,-536.677)"><path d="M399.558,164.241L403.484,164.241" style="fill:none;fill-rule:nonzero;stroke:rgb(44,49,114);stroke-width:2px;"/></g><g transform="matrix(0.859058,-1.98418,1.98418,0.859058,-466.842,986.189)"><path d="M396.429,158.449L413.328,158.449" style="fill:none;fill-rule:nonzero;stroke:rgb(229,113,94);stroke-opacity:0.5;stroke-width:1px;stroke-linecap:round;"/></g><g transform="matrix(0,2.16216,-2.16216,0,202.623,314.876)"><circle cx="0" cy="0" r="2.5" style="fill:rgb(44,49,114);"/></g><g transform="matrix(0,-2.16216,2.16216,0,-129.548,1191.2)"><path d="M405.302,153.629L411.17,153.629" style="fill:none;fill-rule:nonzero;stroke:rgb(44,49,114);stroke-width:2px;"/></g><g transform="matrix(-0.914493,-1.95925,1.95925,-0.914493,323.897,1207.13)"><path d="M405.795,136.772L421.022,136.772" style="fill:none;fill-rule:nonzero;stroke:rgb(229,113,94);stroke-opacity:0.5;stroke-width:1px;stroke-linecap:round;"/></g><g transform="matrix(1.53721,-1.5205,1.5205,1.53721,-630.107,677.434)"><path d="M400.089,134.024L411.895,134.024" style="fill:none;fill-rule:nonzero;stroke:rgb(229,113,94);stroke-opacity:0.5;stroke-width:1px;stroke-linecap:round;"/></g><g transform="matrix(1.65811,-1.38766,1.38766,1.65811,-676.403,622.866)"><path d="M406.96,147.183L417.905,147.183" style="fill:none;fill-rule:nonzero;stroke:rgb(229,113,94);stroke-opacity:0.5;stroke-width:1px;stroke-linecap:round;"/></g><g transform="matrix(0,2.16216,-2.16216,0,188.105,327.233)"><circle cx="0" cy="0" r="2.5" style="fill:rgb(44,49,114);"/></g><g transform="matrix(0,2.16216,-2.16216,0,199.245,350.6)"><circle cx="0" cy="0" r="2.5" style="fill:rgb(44,49,114);"/></g><g transform="matrix(0,2.16216,-2.16216,0,213.763,331.747)"><circle cx="0" cy="0" r="2.5" style="fill:rgb(44,49,114);"/></g><g transform="matrix(-0.989025,-1.9227,1.9227,-0.989025,318.526,1210.23)"><path d="M397.976,144.435L412.055,144.435" style="fill:none;fill-rule:nonzero;stroke:rgb(229,113,94);stroke-opacity:0.5;stroke-width:1px;stroke-linecap:round;"/></g></g></svg>