<?xml version="1.0" encoding="utf-8"?>
<svg viewBox="-0.5 -155.0999 427.9999 353.0999" width="428px" height="353.1px" xmlns="http://www.w3.org/2000/svg">
  <g class="page-1" transform="matrix(1.7833329439163208, 0, 0, -1.7833329439163208, 0.3916650116443634, 201.56666564941406)">
    <g transform="matrix(0.75 0 0 -0.75 0 200)">
      <path d="M -0.666664123 0 L 319.333335 0 L 319.333335 263.999999 L -0.666664123 263.999999 L -0.666664123 0 Z" style="fill: rgb(255, 255, 255); fill-rule: evenodd; fill-opacity: 1;"/>
    </g>
    <g transform="matrix(0.75 0 0 -0.75 0 200)">
      <path d="M 24.0000013 240.66666 L 313.333327 240.66666 L 313.333327 12.3333328 L 24.0000013 12.3333328 L 24.0000013 240.66666 Z" style="fill: rgb(255, 255, 255); fill-rule: evenodd; fill-opacity: 1;"/>
    </g>
    <g transform="matrix(0.4999999995 0 0 -0.4999999995 -18.499998075 206.499999995)">
      <path d="M 73 374 L 507 374" style="fill: none; stroke: rgb(38, 38, 38); stroke-opacity: 1; stroke-miterlimit: 0; stroke-linecap: square; stroke-linejoin: round; stroke-width: 0.5px; stroke-dashoffset: 0px;"/>
      <path d="M 73 31.5 L 507 31.5" style="fill: none; stroke: rgb(38, 38, 38); stroke-opacity: 1; stroke-miterlimit: 0; stroke-linecap: square; stroke-linejoin: round; stroke-width: 0.5px; stroke-dashoffset: 0px;"/>
      <path d="M 73 374 L 73 369.660003" style="fill: none; stroke: rgb(38, 38, 38); stroke-opacity: 1; stroke-miterlimit: 0; stroke-linecap: square; stroke-linejoin: round; stroke-width: 0.5px; stroke-dashoffset: 0px;"/>
      <path d="M 127.25 374 L 127.25 369.660003" style="fill: none; stroke: rgb(38, 38, 38); stroke-opacity: 1; stroke-miterlimit: 0; stroke-linecap: square; stroke-linejoin: round; stroke-width: 0.5px; stroke-dashoffset: 0px;"/>
      <path d="M 181.5 374 L 181.5 369.660003" style="fill: none; stroke: rgb(38, 38, 38); stroke-opacity: 1; stroke-miterlimit: 0; stroke-linecap: square; stroke-linejoin: round; stroke-width: 0.5px; stroke-dashoffset: 0px;"/>
      <path d="M 235.75 374 L 235.75 369.660003" style="fill: none; stroke: rgb(38, 38, 38); stroke-opacity: 1; stroke-miterlimit: 0; stroke-linecap: square; stroke-linejoin: round; stroke-width: 0.5px; stroke-dashoffset: 0px;"/>
      <path d="M 290 374 L 290 369.660003" style="fill: none; stroke: rgb(38, 38, 38); stroke-opacity: 1; stroke-miterlimit: 0; stroke-linecap: square; stroke-linejoin: round; stroke-width: 0.5px; stroke-dashoffset: 0px;"/>
      <path d="M 344.25 374 L 344.25 369.660003" style="fill: none; stroke: rgb(38, 38, 38); stroke-opacity: 1; stroke-miterlimit: 0; stroke-linecap: square; stroke-linejoin: round; stroke-width: 0.5px; stroke-dashoffset: 0px;"/>
      <path d="M 398.5 374 L 398.5 369.660003" style="fill: none; stroke: rgb(38, 38, 38); stroke-opacity: 1; stroke-miterlimit: 0; stroke-linecap: square; stroke-linejoin: round; stroke-width: 0.5px; stroke-dashoffset: 0px;"/>
      <path d="M 452.75 374 L 452.75 369.660003" style="fill: none; stroke: rgb(38, 38, 38); stroke-opacity: 1; stroke-miterlimit: 0; stroke-linecap: square; stroke-linejoin: round; stroke-width: 0.5px; stroke-dashoffset: 0px;"/>
      <path d="M 507 374 L 507 369.660003" style="fill: none; stroke: rgb(38, 38, 38); stroke-opacity: 1; stroke-miterlimit: 0; stroke-linecap: square; stroke-linejoin: round; stroke-width: 0.5px; stroke-dashoffset: 0px;"/>
      <path d="M 73 31.5 L 73 35.8400115" style="fill: none; stroke: rgb(38, 38, 38); stroke-opacity: 1; stroke-miterlimit: 0; stroke-linecap: square; stroke-linejoin: round; stroke-width: 0.5px; stroke-dashoffset: 0px;"/>
      <path d="M 127.25 31.5 L 127.25 35.8400115" style="fill: none; stroke: rgb(38, 38, 38); stroke-opacity: 1; stroke-miterlimit: 0; stroke-linecap: square; stroke-linejoin: round; stroke-width: 0.5px; stroke-dashoffset: 0px;"/>
      <path d="M 181.5 31.5 L 181.5 35.8400115" style="fill: none; stroke: rgb(38, 38, 38); stroke-opacity: 1; stroke-miterlimit: 0; stroke-linecap: square; stroke-linejoin: round; stroke-width: 0.5px; stroke-dashoffset: 0px;"/>
      <path d="M 235.75 31.5 L 235.75 35.8400115" style="fill: none; stroke: rgb(38, 38, 38); stroke-opacity: 1; stroke-miterlimit: 0; stroke-linecap: square; stroke-linejoin: round; stroke-width: 0.5px; stroke-dashoffset: 0px;"/>
      <path d="M 290 31.5 L 290 35.8400115" style="fill: none; stroke: rgb(38, 38, 38); stroke-opacity: 1; stroke-miterlimit: 0; stroke-linecap: square; stroke-linejoin: round; stroke-width: 0.5px; stroke-dashoffset: 0px;"/>
      <path d="M 344.25 31.5 L 344.25 35.8400115" style="fill: none; stroke: rgb(38, 38, 38); stroke-opacity: 1; stroke-miterlimit: 0; stroke-linecap: square; stroke-linejoin: round; stroke-width: 0.5px; stroke-dashoffset: 0px;"/>
      <path d="M 398.5 31.5 L 398.5 35.8400115" style="fill: none; stroke: rgb(38, 38, 38); stroke-opacity: 1; stroke-miterlimit: 0; stroke-linecap: square; stroke-linejoin: round; stroke-width: 0.5px; stroke-dashoffset: 0px;"/>
      <path d="M 452.75 31.5 L 452.75 35.8400115" style="fill: none; stroke: rgb(38, 38, 38); stroke-opacity: 1; stroke-miterlimit: 0; stroke-linecap: square; stroke-linejoin: round; stroke-width: 0.5px; stroke-dashoffset: 0px;"/>
      <path d="M 507 31.5 L 507 35.8400115" style="fill: none; stroke: rgb(38, 38, 38); stroke-opacity: 1; stroke-miterlimit: 0; stroke-linecap: square; stroke-linejoin: round; stroke-width: 0.5px; stroke-dashoffset: 0px;"/>
    </g>
    <g transform="matrix(0.4999999995 0 0 -0.4999999995 14.50000185 13.00000025)">
      <path d="M 0.415 -3.483 Q 0.415 -4.748 0.679 -5.529 Q 0.933 -6.296 1.455 -6.721 Q 1.963 -7.136 2.749 -7.141 Q 3.325 -7.136 3.76 -6.911 Q 4.189 -6.672 4.478 -6.242 Q 4.761 -5.798 4.922 -5.178 Q 5.083 -4.543 5.083 -3.483 Q 5.078 -2.219 4.824 -1.452 Q 4.565 -0.671 4.053 -0.256 Q 3.53 0.169 2.749 0.169 Q 1.714 0.169 1.123 -0.573 Q 0.41 -1.467 0.415 -3.483 Z M 1.318 -3.483 Q 1.313 -1.716 1.733 -1.14 Q 2.139 -0.554 2.749 -0.554 Q 3.35 -0.554 3.77 -1.14 Q 4.18 -1.726 4.18 -3.483 Q 4.18 -5.246 3.77 -5.832 Q 3.35 -6.408 2.739 -6.413 Q 2.129 -6.413 1.772 -5.9 Q 1.318 -5.246 1.318 -3.483 Z" style="fill: rgb(38, 38, 38);"/>
      <path d="M 6.455 0.047 L 6.455 -0.954 L 7.456 -0.954 L 7.456 0.047 Z" style="fill: rgb(38, 38, 38);"/>
      <path d="M 8.728 -3.483 Q 8.728 -4.748 8.991 -5.529 Q 9.245 -6.296 9.768 -6.721 Q 10.275 -7.136 11.062 -7.141 Q 11.638 -7.136 12.072 -6.911 Q 12.502 -6.672 12.79 -6.242 Q 13.073 -5.798 13.234 -5.178 Q 13.396 -4.543 13.396 -3.483 Q 13.391 -2.219 13.137 -1.452 Q 12.878 -0.671 12.365 -0.256 Q 11.843 0.169 11.062 0.169 Q 10.026 0.169 9.436 -0.573 Q 8.723 -1.467 8.728 -3.483 Z M 9.631 -3.483 Q 9.626 -1.716 10.046 -1.14 Q 10.451 -0.554 11.062 -0.554 Q 11.662 -0.554 12.082 -1.14 Q 12.492 -1.726 12.492 -3.483 Q 12.492 -5.246 12.082 -5.832 Q 11.662 -6.408 11.052 -6.413 Q 10.441 -6.413 10.085 -5.9 Q 9.631 -5.246 9.631 -3.483 Z" style="fill: rgb(38, 38, 38);"/>
    </g>
    <g transform="matrix(0.4999999995 0 0 -0.4999999995 41.625001875 13.00000025)">
      <path d="M 0.415 -3.483 Q 0.415 -4.748 0.679 -5.529 Q 0.933 -6.296 1.455 -6.721 Q 1.963 -7.136 2.749 -7.141 Q 3.325 -7.136 3.76 -6.911 Q 4.189 -6.672 4.478 -6.242 Q 4.761 -5.798 4.922 -5.178 Q 5.083 -4.543 5.083 -3.483 Q 5.078 -2.219 4.824 -1.452 Q 4.565 -0.671 4.053 -0.256 Q 3.53 0.169 2.749 0.169 Q 1.714 0.169 1.123 -0.573 Q 0.41 -1.467 0.415 -3.483 Z M 1.318 -3.483 Q 1.313 -1.716 1.733 -1.14 Q 2.139 -0.554 2.749 -0.554 Q 3.35 -0.554 3.77 -1.14 Q 4.18 -1.726 4.18 -3.483 Q 4.18 -5.246 3.77 -5.832 Q 3.35 -6.408 2.739 -6.413 Q 2.129 -6.413 1.772 -5.9 Q 1.318 -5.246 1.318 -3.483 Z" style="fill: rgb(38, 38, 38);"/>
      <path d="M 6.455 0.047 L 6.455 -0.954 L 7.456 -0.954 L 7.456 0.047 Z" style="fill: rgb(38, 38, 38);"/>
      <path d="M 12.038 0.047 L 11.159 0.047 L 11.159 -5.554 Q 10.842 -5.246 10.329 -4.948 Q 9.807 -4.646 9.401 -4.494 L 9.401 -5.344 Q 10.139 -5.686 10.69 -6.184 Q 11.237 -6.672 11.472 -7.141 L 12.038 -7.141 Z" style="fill: rgb(38, 38, 38);"/>
    </g>
    <g transform="matrix(0.4999999995 0 0 -0.4999999995 68.7500019 13.00000025)">
      <path d="M 0.415 -3.483 Q 0.415 -4.748 0.679 -5.529 Q 0.933 -6.296 1.455 -6.721 Q 1.963 -7.136 2.749 -7.141 Q 3.325 -7.136 3.76 -6.911 Q 4.189 -6.672 4.478 -6.242 Q 4.761 -5.798 4.922 -5.178 Q 5.083 -4.543 5.083 -3.483 Q 5.078 -2.219 4.824 -1.452 Q 4.565 -0.671 4.053 -0.256 Q 3.53 0.169 2.749 0.169 Q 1.714 0.169 1.123 -0.573 Q 0.41 -1.467 0.415 -3.483 Z M 1.318 -3.483 Q 1.313 -1.716 1.733 -1.14 Q 2.139 -0.554 2.749 -0.554 Q 3.35 -0.554 3.77 -1.14 Q 4.18 -1.726 4.18 -3.483 Q 4.18 -5.246 3.77 -5.832 Q 3.35 -6.408 2.739 -6.413 Q 2.129 -6.413 1.772 -5.9 Q 1.318 -5.246 1.318 -3.483 Z" style="fill: rgb(38, 38, 38);"/>
      <path d="M 6.455 0.047 L 6.455 -0.954 L 7.456 -0.954 L 7.456 0.047 Z" style="fill: rgb(38, 38, 38);"/>
      <path d="M 13.347 -0.798 L 13.347 0.047 L 8.615 0.047 Q 8.605 -0.266 8.75 -0.656 Q 8.894 -1.047 9.299 -1.516 Q 9.689 -1.984 10.649 -2.768 Q 11.608 -3.552 12.023 -4.118 Q 12.434 -4.675 12.434 -5.173 Q 12.434 -5.69 12.063 -6.057 Q 11.687 -6.413 11.086 -6.413 Q 10.446 -6.413 10.07 -6.032 Q 9.689 -5.651 9.685 -4.978 L 8.781 -5.07 Q 8.869 -6.076 9.479 -6.613 Q 10.085 -7.141 11.105 -7.141 Q 12.136 -7.141 12.736 -6.569 Q 13.337 -5.993 13.337 -5.153 Q 13.337 -4.719 13.161 -4.309 Q 12.98 -3.889 12.58 -3.435 Q 12.165 -2.971 11.223 -2.175 Q 10.432 -1.506 10.207 -1.276 Q 9.978 -1.032 9.836 -0.798 Z" style="fill: rgb(38, 38, 38);"/>
    </g>
    <g transform="matrix(0.4999999995 0 0 -0.4999999995 95.87500125 13.00000025)">
      <path d="M 0.415 -3.483 Q 0.415 -4.748 0.679 -5.529 Q 0.933 -6.296 1.455 -6.721 Q 1.963 -7.136 2.749 -7.141 Q 3.325 -7.136 3.76 -6.911 Q 4.189 -6.672 4.478 -6.242 Q 4.761 -5.798 4.922 -5.178 Q 5.083 -4.543 5.083 -3.483 Q 5.078 -2.219 4.824 -1.452 Q 4.565 -0.671 4.053 -0.256 Q 3.53 0.169 2.749 0.169 Q 1.714 0.169 1.123 -0.573 Q 0.41 -1.467 0.415 -3.483 Z M 1.318 -3.483 Q 1.313 -1.716 1.733 -1.14 Q 2.139 -0.554 2.749 -0.554 Q 3.35 -0.554 3.77 -1.14 Q 4.18 -1.726 4.18 -3.483 Q 4.18 -5.246 3.77 -5.832 Q 3.35 -6.408 2.739 -6.413 Q 2.129 -6.413 1.772 -5.9 Q 1.318 -5.246 1.318 -3.483 Z" style="fill: rgb(38, 38, 38);"/>
      <path d="M 6.455 0.047 L 6.455 -0.954 L 7.456 -0.954 L 7.456 0.047 Z" style="fill: rgb(38, 38, 38);"/>
      <path d="M 8.732 -1.843 L 9.611 -1.96 Q 9.763 -1.213 10.129 -0.886 Q 10.485 -0.554 11.013 -0.554 Q 11.628 -0.549 12.063 -0.983 Q 12.487 -1.408 12.487 -2.048 Q 12.487 -2.653 12.092 -3.049 Q 11.691 -3.435 11.086 -3.439 Q 10.837 -3.435 10.466 -3.342 L 10.563 -4.113 Q 10.651 -4.104 10.705 -4.104 Q 11.267 -4.104 11.716 -4.396 Q 12.16 -4.689 12.165 -5.3 Q 12.165 -5.783 11.838 -6.101 Q 11.506 -6.413 10.993 -6.418 Q 10.48 -6.418 10.139 -6.096 Q 9.792 -5.773 9.699 -5.129 L 8.82 -5.285 Q 8.981 -6.164 9.553 -6.657 Q 10.124 -7.141 10.974 -7.141 Q 11.56 -7.141 12.053 -6.892 Q 12.541 -6.633 12.81 -6.203 Q 13.063 -5.769 13.068 -5.28 Q 13.068 -4.816 12.819 -4.436 Q 12.57 -4.055 12.082 -3.83 Q 12.717 -3.684 13.068 -3.225 Q 13.42 -2.761 13.42 -2.067 Q 13.415 -1.13 12.736 -0.48 Q 12.053 0.174 11.008 0.174 Q 10.061 0.179 9.445 -0.388 Q 8.82 -0.949 8.732 -1.843 Z" style="fill: rgb(38, 38, 38);"/>
    </g>
    <g transform="matrix(0.4999999995 0 0 -0.4999999995 123.0000015 13.00000025)">
      <path d="M 0.415 -3.483 Q 0.415 -4.748 0.679 -5.529 Q 0.933 -6.296 1.455 -6.721 Q 1.963 -7.136 2.749 -7.141 Q 3.325 -7.136 3.76 -6.911 Q 4.189 -6.672 4.478 -6.242 Q 4.761 -5.798 4.922 -5.178 Q 5.083 -4.543 5.083 -3.483 Q 5.078 -2.219 4.824 -1.452 Q 4.565 -0.671 4.053 -0.256 Q 3.53 0.169 2.749 0.169 Q 1.714 0.169 1.123 -0.573 Q 0.41 -1.467 0.415 -3.483 Z M 1.318 -3.483 Q 1.313 -1.716 1.733 -1.14 Q 2.139 -0.554 2.749 -0.554 Q 3.35 -0.554 3.77 -1.14 Q 4.18 -1.726 4.18 -3.483 Q 4.18 -5.246 3.77 -5.832 Q 3.35 -6.408 2.739 -6.413 Q 2.129 -6.413 1.772 -5.9 Q 1.318 -5.246 1.318 -3.483 Z" style="fill: rgb(38, 38, 38);"/>
      <path d="M 6.455 0.047 L 6.455 -0.954 L 7.456 -0.954 L 7.456 0.047 Z" style="fill: rgb(38, 38, 38);"/>
      <path d="M 11.545 0.047 L 11.545 -1.667 L 8.439 -1.667 L 8.439 -2.473 L 11.706 -7.111 L 12.424 -7.111 L 12.424 -2.473 L 13.391 -2.473 L 13.391 -1.667 L 12.424 -1.667 L 12.424 0.047 Z M 11.545 -2.473 L 11.545 -5.7 L 9.304 -2.473 Z" style="fill: rgb(38, 38, 38);"/>
    </g>
    <g transform="matrix(0.4999999995 0 0 -0.4999999995 150.12500175 13.00000025)">
      <path d="M 0.415 -3.483 Q 0.415 -4.748 0.679 -5.529 Q 0.933 -6.296 1.455 -6.721 Q 1.963 -7.136 2.749 -7.141 Q 3.325 -7.136 3.76 -6.911 Q 4.189 -6.672 4.478 -6.242 Q 4.761 -5.798 4.922 -5.178 Q 5.083 -4.543 5.083 -3.483 Q 5.078 -2.219 4.824 -1.452 Q 4.565 -0.671 4.053 -0.256 Q 3.53 0.169 2.749 0.169 Q 1.714 0.169 1.123 -0.573 Q 0.41 -1.467 0.415 -3.483 Z M 1.318 -3.483 Q 1.313 -1.716 1.733 -1.14 Q 2.139 -0.554 2.749 -0.554 Q 3.35 -0.554 3.77 -1.14 Q 4.18 -1.726 4.18 -3.483 Q 4.18 -5.246 3.77 -5.832 Q 3.35 -6.408 2.739 -6.413 Q 2.129 -6.413 1.772 -5.9 Q 1.318 -5.246 1.318 -3.483 Z" style="fill: rgb(38, 38, 38);"/>
      <path d="M 6.455 0.047 L 6.455 -0.954 L 7.456 -0.954 L 7.456 0.047 Z" style="fill: rgb(38, 38, 38);"/>
      <path d="M 8.728 -1.828 L 9.65 -1.906 Q 9.753 -1.232 10.129 -0.896 Q 10.5 -0.549 11.027 -0.554 Q 11.662 -0.554 12.102 -1.032 Q 12.541 -1.506 12.541 -2.302 Q 12.536 -3.054 12.121 -3.488 Q 11.691 -3.918 11.013 -3.923 Q 10.588 -3.923 10.246 -3.732 Q 9.899 -3.532 9.709 -3.229 L 8.884 -3.337 L 9.577 -7.014 L 13.137 -7.014 L 13.137 -6.174 L 10.28 -6.174 L 9.895 -4.25 Q 10.534 -4.694 11.247 -4.699 Q 12.185 -4.699 12.829 -4.05 Q 13.474 -3.396 13.474 -2.38 Q 13.469 -1.403 12.907 -0.7 Q 12.219 0.174 11.027 0.169 Q 10.051 0.174 9.436 -0.378 Q 8.811 -0.925 8.728 -1.828 Z" style="fill: rgb(38, 38, 38);"/>
    </g>
    <g transform="matrix(0.4999999995 0 0 -0.4999999995 177.25000125 13.00000025)">
      <path d="M 0.415 -3.483 Q 0.415 -4.748 0.679 -5.529 Q 0.933 -6.296 1.455 -6.721 Q 1.963 -7.136 2.749 -7.141 Q 3.325 -7.136 3.76 -6.911 Q 4.189 -6.672 4.478 -6.242 Q 4.761 -5.798 4.922 -5.178 Q 5.083 -4.543 5.083 -3.483 Q 5.078 -2.219 4.824 -1.452 Q 4.565 -0.671 4.053 -0.256 Q 3.53 0.169 2.749 0.169 Q 1.714 0.169 1.123 -0.573 Q 0.41 -1.467 0.415 -3.483 Z M 1.318 -3.483 Q 1.313 -1.716 1.733 -1.14 Q 2.139 -0.554 2.749 -0.554 Q 3.35 -0.554 3.77 -1.14 Q 4.18 -1.726 4.18 -3.483 Q 4.18 -5.246 3.77 -5.832 Q 3.35 -6.408 2.739 -6.413 Q 2.129 -6.413 1.772 -5.9 Q 1.318 -5.246 1.318 -3.483 Z" style="fill: rgb(38, 38, 38);"/>
      <path d="M 6.455 0.047 L 6.455 -0.954 L 7.456 -0.954 L 7.456 0.047 Z" style="fill: rgb(38, 38, 38);"/>
      <path d="M 13.288 -5.358 L 12.414 -5.29 Q 12.292 -5.808 12.006 -6.11 Q 11.721 -6.413 11.203 -6.418 Q 10.778 -6.418 10.412 -6.147 Q 10.046 -5.876 9.812 -5.3 Q 9.567 -4.719 9.563 -3.645 Q 9.875 -4.128 10.339 -4.362 Q 10.793 -4.597 11.301 -4.597 Q 12.175 -4.597 12.8 -3.952 Q 13.415 -3.298 13.415 -2.277 Q 13.41 -1.604 13.127 -1.027 Q 12.829 -0.446 12.326 -0.139 Q 11.818 0.169 11.174 0.169 Q 10.075 0.174 9.382 -0.642 Q 8.684 -1.447 8.688 -3.303 Q 8.684 -5.373 9.455 -6.32 Q 10.119 -7.141 11.257 -7.141 Q 12.097 -7.141 12.644 -6.667 Q 13.176 -6.188 13.288 -5.358 Z M 9.699 -2.272 Q 9.694 -1.818 9.895 -1.403 Q 10.085 -0.983 10.432 -0.773 Q 10.773 -0.554 11.242 -0.554 Q 11.711 -0.554 12.116 -1.003 Q 12.517 -1.447 12.517 -2.224 Q 12.517 -2.961 12.121 -3.396 Q 11.726 -3.82 11.125 -3.82 Q 10.529 -3.82 10.114 -3.396 Q 9.694 -2.961 9.699 -2.272 Z" style="fill: rgb(38, 38, 38);"/>
    </g>
    <g transform="matrix(0.4999999995 0 0 -0.4999999995 204.3750015 13.00000025)">
      <path d="M 0.415 -3.483 Q 0.415 -4.748 0.679 -5.529 Q 0.933 -6.296 1.455 -6.721 Q 1.963 -7.136 2.749 -7.141 Q 3.325 -7.136 3.76 -6.911 Q 4.189 -6.672 4.478 -6.242 Q 4.761 -5.798 4.922 -5.178 Q 5.083 -4.543 5.083 -3.483 Q 5.078 -2.219 4.824 -1.452 Q 4.565 -0.671 4.053 -0.256 Q 3.53 0.169 2.749 0.169 Q 1.714 0.169 1.123 -0.573 Q 0.41 -1.467 0.415 -3.483 Z M 1.318 -3.483 Q 1.313 -1.716 1.733 -1.14 Q 2.139 -0.554 2.749 -0.554 Q 3.35 -0.554 3.77 -1.14 Q 4.18 -1.726 4.18 -3.483 Q 4.18 -5.246 3.77 -5.832 Q 3.35 -6.408 2.739 -6.413 Q 2.129 -6.413 1.772 -5.9 Q 1.318 -5.246 1.318 -3.483 Z" style="fill: rgb(38, 38, 38);"/>
      <path d="M 6.455 0.047 L 6.455 -0.954 L 7.456 -0.954 L 7.456 0.047 Z" style="fill: rgb(38, 38, 38);"/>
      <path d="M 8.786 -6.174 L 8.786 -7.019 L 13.42 -7.019 L 13.42 -6.335 Q 12.731 -5.607 12.067 -4.401 Q 11.394 -3.19 11.027 -1.921 Q 10.764 -1.018 10.69 0.047 L 9.787 0.047 Q 9.802 -0.793 10.119 -1.994 Q 10.432 -3.186 11.032 -4.304 Q 11.623 -5.407 12.292 -6.174 Z" style="fill: rgb(38, 38, 38);"/>
    </g>
    <g transform="matrix(0.4999999995 0 0 -0.4999999995 231.50000175 13.00000025)">
      <path d="M 0.415 -3.483 Q 0.415 -4.748 0.679 -5.529 Q 0.933 -6.296 1.455 -6.721 Q 1.963 -7.136 2.749 -7.141 Q 3.325 -7.136 3.76 -6.911 Q 4.189 -6.672 4.478 -6.242 Q 4.761 -5.798 4.922 -5.178 Q 5.083 -4.543 5.083 -3.483 Q 5.078 -2.219 4.824 -1.452 Q 4.565 -0.671 4.053 -0.256 Q 3.53 0.169 2.749 0.169 Q 1.714 0.169 1.123 -0.573 Q 0.41 -1.467 0.415 -3.483 Z M 1.318 -3.483 Q 1.313 -1.716 1.733 -1.14 Q 2.139 -0.554 2.749 -0.554 Q 3.35 -0.554 3.77 -1.14 Q 4.18 -1.726 4.18 -3.483 Q 4.18 -5.246 3.77 -5.832 Q 3.35 -6.408 2.739 -6.413 Q 2.129 -6.413 1.772 -5.9 Q 1.318 -5.246 1.318 -3.483 Z" style="fill: rgb(38, 38, 38);"/>
      <path d="M 6.455 0.047 L 6.455 -0.954 L 7.456 -0.954 L 7.456 0.047 Z" style="fill: rgb(38, 38, 38);"/>
      <path d="M 10.08 -3.835 Q 9.528 -4.03 9.27 -4.406 Q 9.006 -4.772 9.003 -5.422 Q 9.001 -6.071 9.567 -6.608 Q 10.129 -7.141 11.062 -7.141 Q 11.999 -7.141 12.57 -6.599 Q 13.142 -6.047 13.142 -5.271 Q 13.137 -4.772 12.883 -4.406 Q 12.619 -4.03 12.087 -3.835 Q 12.746 -3.615 13.093 -3.142 Q 13.435 -2.663 13.435 -1.999 Q 13.435 -1.076 12.785 -0.456 Q 12.131 0.169 11.076 0.169 Q 10.012 0.169 9.367 -0.461 Q 8.713 -1.081 8.718 -2.023 Q 8.713 -2.717 9.074 -3.195 Q 9.426 -3.664 10.08 -3.835 Z M 9.904 -5.324 Q 9.899 -4.816 10.231 -4.494 Q 10.559 -4.172 11.081 -4.172 Q 11.584 -4.172 11.916 -4.494 Q 12.238 -4.807 12.238 -5.275 Q 12.233 -5.759 11.906 -6.091 Q 11.569 -6.418 11.071 -6.418 Q 10.563 -6.418 10.236 -6.096 Q 9.904 -5.769 9.904 -5.324 Z M 9.621 -2.019 Q 9.616 -1.643 9.802 -1.291 Q 9.978 -0.939 10.329 -0.749 Q 10.681 -0.549 11.198 -0.551 Q 11.716 -0.554 12.126 -0.959 Q 12.536 -1.359 12.536 -1.989 Q 12.531 -2.619 12.116 -3.039 Q 11.691 -3.454 11.057 -3.454 Q 10.432 -3.454 10.031 -3.044 Q 9.621 -2.634 9.621 -2.019 Z" style="fill: rgb(38, 38, 38);"/>
    </g>
    <g transform="matrix(0.4999999995 0 0 -0.4999999995 80.00010825 5)">
      <path d="M 1.08 -0.328 L 1.08 -10.35 L 4.86 -10.35 Q 5.852 -10.343 6.484 -10.233 Q 7.116 -10.124 7.622 -9.789 Q 8.121 -9.44 8.429 -8.818 Q 8.723 -8.189 8.729 -7.451 Q 8.723 -6.166 7.916 -5.291 Q 7.096 -4.396 4.977 -4.402 L 2.406 -4.402 L 2.406 -0.328 Z M 2.406 -5.585 L 4.997 -5.585 Q 6.275 -5.578 6.822 -6.063 Q 7.362 -6.535 7.362 -7.41 Q 7.362 -8.032 7.048 -8.49 Q 6.727 -8.928 6.207 -9.078 Q 5.865 -9.167 4.97 -9.167 L 2.406 -9.167 Z" style="fill: rgb(38, 38, 38);"/>
      <path d="M 9.793 -3.958 Q 9.793 -5.968 10.914 -6.945 Q 11.844 -7.752 13.197 -7.752 Q 14.687 -7.745 15.645 -6.774 Q 16.595 -5.79 16.595 -4.061 Q 16.595 -2.652 16.178 -1.859 Q 15.754 -1.046 14.954 -0.608 Q 14.141 -0.164 13.197 -0.164 Q 11.666 -0.164 10.736 -1.142 Q 9.793 -2.112 9.793 -3.958 Z M 11.058 -3.958 Q 11.058 -2.557 11.666 -1.873 Q 12.268 -1.176 13.197 -1.176 Q 14.106 -1.176 14.722 -1.873 Q 15.323 -2.57 15.33 -3.999 Q 15.323 -5.339 14.722 -6.043 Q 14.106 -6.727 13.197 -6.733 Q 12.268 -6.727 11.666 -6.043 Q 11.058 -5.353 11.058 -3.958 Z" style="fill: rgb(38, 38, 38);"/>
      <path d="M 18.032 2.454 L 18.032 -7.588 L 19.153 -7.588 L 19.153 -6.645 Q 19.543 -7.198 20.049 -7.479 Q 20.548 -7.752 21.259 -7.752 Q 22.189 -7.752 22.899 -7.273 Q 23.604 -6.788 23.973 -5.927 Q 24.328 -5.045 24.335 -4.013 Q 24.335 -2.892 23.939 -2.01 Q 23.535 -1.114 22.776 -0.643 Q 22.004 -0.157 21.17 -0.164 Q 20.548 -0.164 20.069 -0.424 Q 19.577 -0.677 19.263 -1.08 L 19.263 2.454 Z M 19.147 -3.917 Q 19.147 -2.509 19.714 -1.846 Q 20.274 -1.176 21.088 -1.176 Q 21.908 -1.176 22.496 -1.873 Q 23.077 -2.557 23.077 -4.02 Q 23.07 -5.4 22.51 -6.098 Q 21.929 -6.781 21.143 -6.788 Q 20.35 -6.781 19.755 -6.057 Q 19.147 -5.318 19.147 -3.917 Z" style="fill: rgb(38, 38, 38);"/>
      <path d="M 30.571 -0.328 L 30.571 -1.395 Q 29.717 -0.164 28.268 -0.164 Q 27.618 -0.164 27.071 -0.41 Q 26.504 -0.649 26.244 -1.032 Q 25.964 -1.395 25.861 -1.941 Q 25.786 -2.297 25.786 -3.09 L 25.786 -7.588 L 27.017 -7.588 L 27.017 -3.562 Q 27.017 -2.598 27.109 -2.187 Q 27.201 -1.777 27.584 -1.504 Q 27.96 -1.224 28.514 -1.224 Q 29.067 -1.224 29.553 -1.511 Q 30.031 -1.784 30.243 -2.283 Q 30.435 -2.762 30.441 -3.698 L 30.441 -7.588 L 31.672 -7.588 L 31.672 -0.328 Z" style="fill: rgb(38, 38, 38);"/>
      <path d="M 33.567 -0.328 L 33.567 -10.35 L 34.798 -10.35 L 34.798 -0.328 Z" style="fill: rgb(38, 38, 38);"/>
      <path d="M 41.441 -1.224 Q 40.751 -0.636 40.129 -0.403 Q 39.493 -0.164 38.769 -0.164 Q 37.565 -0.164 36.93 -0.752 Q 36.28 -1.326 36.287 -2.242 Q 36.287 -2.775 36.533 -3.22 Q 36.766 -3.657 37.169 -3.924 Q 37.559 -4.19 38.051 -4.327 Q 38.406 -4.416 39.144 -4.512 Q 40.628 -4.683 41.339 -4.936 Q 41.346 -5.182 41.346 -5.257 Q 41.346 -6.002 40.935 -6.368 Q 40.525 -6.733 39.596 -6.733 Q 38.721 -6.727 38.317 -6.433 Q 37.894 -6.118 37.702 -5.353 L 36.499 -5.517 Q 36.656 -6.282 37.039 -6.768 Q 37.415 -7.239 38.126 -7.499 Q 38.83 -7.752 39.773 -7.752 Q 40.696 -7.745 41.284 -7.533 Q 41.858 -7.314 42.139 -6.986 Q 42.405 -6.645 42.521 -6.146 Q 42.583 -5.824 42.583 -5.011 L 42.583 -3.37 Q 42.583 -1.654 42.665 -1.203 Q 42.733 -0.738 42.973 -0.328 L 41.687 -0.328 Q 41.489 -0.704 41.441 -1.224 Z M 41.339 -3.972 Q 40.669 -3.691 39.329 -3.507 Q 38.57 -3.391 38.256 -3.261 Q 37.935 -3.117 37.77 -2.864 Q 37.593 -2.591 37.593 -2.187 Q 37.593 -1.784 37.976 -1.456 Q 38.345 -1.128 39.062 -1.128 Q 39.767 -1.121 40.327 -1.442 Q 40.881 -1.743 41.141 -2.29 Q 41.332 -2.707 41.339 -3.521 Z" style="fill: rgb(38, 38, 38);"/>
      <path d="M 47.172 -1.429 L 47.35 -0.342 Q 46.823 -0.226 46.287 -0.226 Q 45.75 -0.226 45.381 -0.444 Q 45.012 -0.656 44.861 -1.005 Q 44.704 -1.34 44.711 -2.454 L 44.711 -6.631 L 43.809 -6.631 L 43.809 -7.588 L 44.711 -7.588 L 44.711 -9.386 L 45.935 -10.124 L 45.935 -7.588 L 47.172 -7.588 L 47.172 -6.631 L 45.935 -6.631 L 45.935 -2.386 Q 45.928 -1.859 45.993 -1.706 Q 46.058 -1.552 46.215 -1.47 Q 46.352 -1.374 46.632 -1.381 Q 46.83 -1.374 47.172 -1.429 Z" style="fill: rgb(38, 38, 38);"/>
      <path d="M 48.367 -8.935 L 48.367 -10.35 L 49.598 -10.35 L 49.598 -8.935 Z M 48.367 -0.328 L 48.367 -7.588 L 49.598 -7.588 L 49.598 -0.328 Z" style="fill: rgb(38, 38, 38);"/>
      <path d="M 51.012 -3.958 Q 51.012 -5.968 52.133 -6.945 Q 53.063 -7.752 54.416 -7.752 Q 55.906 -7.745 56.863 -6.774 Q 57.814 -5.79 57.814 -4.061 Q 57.814 -2.652 57.397 -1.859 Q 56.973 -1.046 56.173 -0.608 Q 55.359 -0.164 54.416 -0.164 Q 52.885 -0.164 51.955 -1.142 Q 51.012 -2.112 51.012 -3.958 Z M 52.276 -3.958 Q 52.276 -2.557 52.885 -1.873 Q 53.486 -1.176 54.416 -1.176 Q 55.325 -1.176 55.94 -1.873 Q 56.542 -2.57 56.549 -3.999 Q 56.542 -5.339 55.94 -6.043 Q 55.325 -6.727 54.416 -6.733 Q 53.486 -6.727 52.885 -6.043 Q 52.276 -5.353 52.276 -3.958 Z" style="fill: rgb(38, 38, 38);"/>
      <path d="M 59.251 -0.328 L 59.251 -7.588 L 60.358 -7.588 L 60.358 -6.556 Q 61.158 -7.752 62.669 -7.752 Q 63.325 -7.752 63.879 -7.52 Q 64.419 -7.273 64.699 -6.897 Q 64.966 -6.508 65.082 -5.988 Q 65.15 -5.64 65.15 -4.792 L 65.15 -0.328 L 63.92 -0.328 L 63.92 -4.744 Q 63.92 -5.489 63.776 -5.872 Q 63.626 -6.241 63.27 -6.467 Q 62.901 -6.679 62.259 -6.682 Q 61.616 -6.686 61.056 -6.187 Q 60.481 -5.681 60.481 -4.293 L 60.481 -0.328 Z" style="fill: rgb(38, 38, 38);"/>
      <path d="M 71.064 -0.328 L 71.064 -10.35 L 74.517 -10.35 Q 75.686 -10.35 76.424 -10.179 Q 77.162 -10.008 77.771 -9.488 Q 78.557 -8.812 78.96 -7.779 Q 79.35 -6.733 79.35 -5.394 Q 79.35 -4.252 79.083 -3.37 Q 78.816 -2.488 78.399 -1.914 Q 77.976 -1.326 77.49 -1.005 Q 76.984 -0.663 76.294 -0.499 Q 75.583 -0.321 74.681 -0.328 Z M 72.391 -1.511 L 74.53 -1.511 Q 75.522 -1.511 76.089 -1.695 Q 76.643 -1.873 77.049 -2.28 Q 77.456 -2.687 77.723 -3.486 Q 77.976 -4.272 77.982 -5.414 Q 77.982 -6.979 77.47 -7.834 Q 76.943 -8.675 76.212 -8.962 Q 75.672 -9.167 74.496 -9.167 L 72.391 -9.167 Z" style="fill: rgb(38, 38, 38);"/>
      <path d="M 85.986 -2.666 L 87.258 -2.509 Q 86.95 -1.388 86.144 -0.779 Q 85.323 -0.164 84.065 -0.164 Q 82.473 -0.164 81.543 -1.148 Q 80.606 -2.119 80.606 -3.896 Q 80.606 -5.722 81.55 -6.74 Q 82.486 -7.752 83.997 -7.752 Q 85.453 -7.752 86.376 -6.761 Q 87.299 -5.763 87.299 -3.972 Q 87.299 -3.855 87.292 -3.644 L 81.878 -3.644 Q 81.946 -2.44 82.555 -1.812 Q 83.156 -1.176 84.072 -1.176 Q 84.742 -1.169 85.228 -1.531 Q 85.706 -1.887 85.986 -2.666 Z M 81.946 -4.655 L 86 -4.655 Q 85.911 -5.564 85.426 -6.149 Q 84.94 -6.733 84.011 -6.74 Q 83.156 -6.733 82.589 -6.173 Q 82.001 -5.605 81.946 -4.655 Z" style="fill: rgb(38, 38, 38);"/>
      <path d="M 88.798 -0.328 L 88.798 -7.588 L 89.905 -7.588 L 89.905 -6.556 Q 90.705 -7.752 92.216 -7.752 Q 92.872 -7.752 93.426 -7.52 Q 93.966 -7.273 94.246 -6.897 Q 94.513 -6.508 94.629 -5.988 Q 94.697 -5.64 94.697 -4.792 L 94.697 -0.328 L 93.467 -0.328 L 93.467 -4.744 Q 93.467 -5.489 93.323 -5.872 Q 93.173 -6.241 92.817 -6.467 Q 92.448 -6.679 91.806 -6.682 Q 91.163 -6.686 90.603 -6.187 Q 90.028 -5.681 90.028 -4.293 L 90.028 -0.328 Z" style="fill: rgb(38, 38, 38);"/>
      <path d="M 96.087 -2.495 L 97.304 -2.687 Q 97.406 -1.955 97.878 -1.565 Q 98.336 -1.176 99.184 -1.176 Q 100.031 -1.176 100.441 -1.524 Q 100.852 -1.859 100.852 -2.331 Q 100.845 -2.748 100.489 -2.987 Q 100.229 -3.145 99.231 -3.404 Q 97.878 -3.739 97.358 -3.999 Q 96.832 -4.245 96.565 -4.689 Q 96.285 -5.127 96.292 -5.66 Q 96.292 -6.139 96.518 -6.562 Q 96.729 -6.966 97.119 -7.246 Q 97.399 -7.451 97.905 -7.608 Q 98.397 -7.752 99.105 -7.752 Q 99.812 -7.752 100.469 -7.506 Q 101.111 -7.26 101.419 -6.843 Q 101.727 -6.419 101.843 -5.715 L 100.64 -5.551 Q 100.558 -6.104 100.168 -6.426 Q 99.765 -6.74 99.054 -6.74 Q 98.199 -6.733 97.844 -6.46 Q 97.481 -6.18 97.481 -5.804 Q 97.475 -5.564 97.632 -5.373 Q 97.782 -5.175 98.103 -5.045 Q 98.288 -4.97 99.389 -4.672 Q 100.489 -4.375 101.016 -4.163 Q 101.521 -3.931 101.822 -3.514 Q 102.116 -3.083 102.116 -2.461 Q 102.116 -1.846 101.761 -1.306 Q 101.398 -0.759 100.722 -0.465 Q 100.038 -0.164 99.19 -0.164 Q 97.775 -0.164 97.037 -0.752 Q 96.285 -1.333 96.087 -2.495 Z" style="fill: rgb(38, 38, 38);"/>
      <path d="M 103.586 -8.935 L 103.586 -10.35 L 104.816 -10.35 L 104.816 -8.935 Z M 103.586 -0.328 L 103.586 -7.588 L 104.816 -7.588 L 104.816 -0.328 Z" style="fill: rgb(38, 38, 38);"/>
      <path d="M 109.375 -1.429 L 109.553 -0.342 Q 109.027 -0.226 108.49 -0.226 Q 107.953 -0.226 107.584 -0.444 Q 107.215 -0.656 107.065 -1.005 Q 106.908 -1.34 106.914 -2.454 L 106.914 -6.631 L 106.012 -6.631 L 106.012 -7.588 L 106.914 -7.588 L 106.914 -9.386 L 108.138 -10.124 L 108.138 -7.588 L 109.375 -7.588 L 109.375 -6.631 L 108.138 -6.631 L 108.138 -2.386 Q 108.131 -1.859 108.196 -1.706 Q 108.261 -1.552 108.418 -1.47 Q 108.555 -1.374 108.835 -1.381 Q 109.034 -1.374 109.375 -1.429 Z" style="fill: rgb(38, 38, 38);"/>
      <path d="M 110.509 2.468 L 110.372 1.313 Q 110.769 1.429 111.128 1.425 Q 111.487 1.422 111.733 1.285 Q 111.979 1.155 112.136 0.902 Q 112.245 0.718 112.512 -0.014 Q 112.539 -0.116 112.621 -0.314 L 109.867 -7.588 L 111.193 -7.588 L 112.703 -3.384 Q 112.991 -2.584 113.23 -1.702 Q 113.435 -2.543 113.736 -3.356 L 115.287 -7.588 L 116.518 -7.588 L 113.756 -0.205 Q 113.312 0.998 113.021 1.528 Q 112.731 2.058 112.314 2.331 Q 111.883 2.618 111.302 2.618 Q 110.94 2.625 110.509 2.468 Z" style="fill: rgb(38, 38, 38);"/>
      <path d="M 123.79 2.618 Q 122.772 1.34 122.068 -0.39 Q 121.357 -2.112 121.364 -3.958 Q 121.364 -5.585 121.89 -7.075 Q 122.505 -8.805 123.79 -10.521 L 124.672 -10.521 Q 123.838 -9.092 123.496 -8.319 Q 123.155 -7.547 122.922 -6.521 Q 122.621 -5.236 122.628 -3.951 Q 122.628 -0.656 124.672 2.618 Z" style="fill: rgb(38, 38, 38);"/>
      <path d="M 125.767 -4.136 L 125.767 -5.537 Q 126.484 -6.357 127.667 -6.357 Q 128.077 -6.351 128.528 -6.241 Q 128.98 -6.118 129.814 -5.763 Q 130.285 -5.564 130.525 -5.503 Q 130.757 -5.441 130.996 -5.441 Q 131.434 -5.441 131.919 -5.708 Q 132.391 -5.975 132.76 -6.378 L 132.76 -4.929 Q 132.316 -4.519 131.878 -4.334 Q 131.427 -4.149 130.866 -4.149 Q 130.456 -4.149 130.087 -4.245 Q 129.704 -4.334 128.904 -4.703 Q 128.091 -5.059 127.551 -5.065 Q 127.107 -5.065 126.731 -4.881 Q 126.341 -4.683 125.767 -4.136 Z" style="fill: rgb(38, 38, 38);"/>
      <path d="M 137.896 -5.209 Q 137.889 -7.697 139.236 -9.119 Q 140.569 -10.521 142.695 -10.527 Q 144.075 -10.527 145.197 -9.864 Q 146.311 -9.194 146.899 -8.019 Q 147.48 -6.829 147.48 -5.325 Q 147.48 -3.794 146.865 -2.598 Q 146.249 -1.395 145.121 -0.779 Q 143.987 -0.15 142.688 -0.157 Q 141.273 -0.15 140.158 -0.841 Q 139.037 -1.524 138.47 -2.707 Q 137.896 -3.883 137.896 -5.209 Z M 139.263 -5.188 Q 139.263 -3.37 140.24 -2.338 Q 141.211 -1.292 142.681 -1.292 Q 144.171 -1.285 145.149 -2.345 Q 146.113 -3.391 146.113 -5.332 Q 146.113 -6.549 145.702 -7.472 Q 145.279 -8.381 144.492 -8.887 Q 143.693 -9.386 142.701 -9.386 Q 141.293 -9.386 140.281 -8.422 Q 139.263 -7.444 139.263 -5.188 Z" style="fill: rgb(38, 38, 38);"/>
      <path d="M 149.174 -0.328 L 149.174 -10.35 L 152.626 -10.35 Q 153.795 -10.35 154.533 -10.179 Q 155.272 -10.008 155.88 -9.488 Q 156.666 -8.812 157.07 -7.779 Q 157.459 -6.733 157.459 -5.394 Q 157.459 -4.252 157.193 -3.37 Q 156.926 -2.488 156.509 -1.914 Q 156.085 -1.326 155.6 -1.005 Q 155.094 -0.663 154.404 -0.499 Q 153.693 -0.321 152.79 -0.328 Z M 150.5 -1.511 L 152.64 -1.511 Q 153.631 -1.511 154.198 -1.695 Q 154.752 -1.873 155.159 -2.28 Q 155.566 -2.687 155.832 -3.486 Q 156.085 -4.272 156.092 -5.414 Q 156.092 -6.979 155.579 -7.834 Q 155.053 -8.675 154.322 -8.962 Q 153.781 -9.167 152.606 -9.167 L 150.5 -9.167 Z" style="fill: rgb(38, 38, 38);"/>
      <path d="M 165.169 -7.896 L 163.945 -7.8 Q 163.774 -8.524 163.374 -8.948 Q 162.974 -9.372 162.25 -9.379 Q 161.655 -9.379 161.142 -9 Q 160.63 -8.62 160.302 -7.813 Q 159.96 -7 159.953 -5.496 Q 160.391 -6.173 161.04 -6.501 Q 161.676 -6.829 162.387 -6.829 Q 163.61 -6.829 164.485 -5.927 Q 165.347 -5.011 165.347 -3.582 Q 165.34 -2.639 164.943 -1.832 Q 164.526 -1.019 163.822 -0.588 Q 163.111 -0.157 162.209 -0.157 Q 160.671 -0.15 159.7 -1.292 Q 158.723 -2.42 158.729 -5.018 Q 158.723 -7.916 159.803 -9.242 Q 160.732 -10.391 162.325 -10.391 Q 163.501 -10.391 164.266 -9.728 Q 165.012 -9.058 165.169 -7.896 Z M 160.144 -3.575 Q 160.138 -2.939 160.418 -2.358 Q 160.684 -1.771 161.17 -1.477 Q 161.648 -1.169 162.305 -1.169 Q 162.961 -1.169 163.528 -1.798 Q 164.089 -2.42 164.089 -3.507 Q 164.089 -4.539 163.535 -5.147 Q 162.981 -5.742 162.141 -5.742 Q 161.307 -5.742 160.725 -5.147 Q 160.138 -4.539 160.144 -3.575 Z" style="fill: rgb(38, 38, 38);"/>
      <path d="M 166.565 -5.271 Q 166.565 -7.041 166.934 -8.135 Q 167.29 -9.208 168.021 -9.803 Q 168.732 -10.384 169.833 -10.391 Q 170.639 -10.384 171.248 -10.069 Q 171.849 -9.734 172.253 -9.133 Q 172.649 -8.511 172.875 -7.643 Q 173.1 -6.754 173.1 -5.271 Q 173.093 -3.5 172.738 -2.427 Q 172.376 -1.333 171.658 -0.752 Q 170.926 -0.157 169.833 -0.157 Q 168.383 -0.157 167.556 -1.196 Q 166.558 -2.447 166.565 -5.271 Z M 167.83 -5.271 Q 167.823 -2.796 168.411 -1.989 Q 168.978 -1.169 169.833 -1.169 Q 170.673 -1.169 171.261 -1.989 Q 171.836 -2.81 171.836 -5.271 Q 171.836 -7.738 171.261 -8.559 Q 170.673 -9.365 169.819 -9.372 Q 168.964 -9.372 168.465 -8.654 Q 167.83 -7.738 167.83 -5.271 Z" style="fill: rgb(38, 38, 38);"/>
      <path d="M 174.347 -5.271 Q 174.347 -7.041 174.716 -8.135 Q 175.072 -9.208 175.803 -9.803 Q 176.514 -10.384 177.615 -10.391 Q 178.421 -10.384 179.03 -10.069 Q 179.631 -9.734 180.035 -9.133 Q 180.431 -8.511 180.657 -7.643 Q 180.882 -6.754 180.882 -5.271 Q 180.875 -3.5 180.52 -2.427 Q 180.158 -1.333 179.44 -0.752 Q 178.708 -0.157 177.615 -0.157 Q 176.165 -0.157 175.338 -1.196 Q 174.34 -2.447 174.347 -5.271 Z M 175.612 -5.271 Q 175.605 -2.796 176.193 -1.989 Q 176.76 -1.169 177.615 -1.169 Q 178.455 -1.169 179.043 -1.989 Q 179.618 -2.81 179.618 -5.271 Q 179.618 -7.738 179.043 -8.559 Q 178.455 -9.365 177.601 -9.372 Q 176.746 -9.372 176.247 -8.654 Q 175.612 -7.738 175.612 -5.271 Z" style="fill: rgb(38, 38, 38);"/>
      <path d="M 183.276 2.618 L 182.395 2.618 Q 184.432 -0.656 184.439 -3.951 Q 184.439 -5.229 184.145 -6.501 Q 183.905 -7.526 183.495 -8.47 Q 183.222 -9.085 182.395 -10.521 L 183.276 -10.521 Q 184.555 -8.805 185.177 -7.075 Q 185.696 -5.585 185.703 -3.958 Q 185.703 -2.112 184.999 -0.39 Q 184.288 1.34 183.276 2.618 Z" style="fill: rgb(38, 38, 38);"/>
    </g>
    <g transform="matrix(0.4999999995 0 0 -0.4999999995 -18.499998075 206.499999995)">
      <path d="M 73 374 L 73 31.5" style="fill: none; stroke: rgb(38, 38, 38); stroke-opacity: 1; stroke-miterlimit: 0; stroke-linecap: square; stroke-linejoin: round; stroke-width: 0.5px; stroke-dashoffset: 0px;"/>
      <path d="M 507 374 L 507 31.5" style="fill: none; stroke: rgb(38, 38, 38); stroke-opacity: 1; stroke-miterlimit: 0; stroke-linecap: square; stroke-linejoin: round; stroke-width: 0.5px; stroke-dashoffset: 0px;"/>
      <path d="M 73 374 L 77.3400039 374" style="fill: none; stroke: rgb(38, 38, 38); stroke-opacity: 1; stroke-miterlimit: 0; stroke-linecap: square; stroke-linejoin: round; stroke-width: 0.5px; stroke-dashoffset: 0px;"/>
      <path d="M 73 305.5 L 77.3400039 305.5" style="fill: none; stroke: rgb(38, 38, 38); stroke-opacity: 1; stroke-miterlimit: 0; stroke-linecap: square; stroke-linejoin: round; stroke-width: 0.5px; stroke-dashoffset: 0px;"/>
      <path d="M 73 237 L 77.3400039 237" style="fill: none; stroke: rgb(38, 38, 38); stroke-opacity: 1; stroke-miterlimit: 0; stroke-linecap: square; stroke-linejoin: round; stroke-width: 0.5px; stroke-dashoffset: 0px;"/>
      <path d="M 73 168.5 L 77.3400039 168.5" style="fill: none; stroke: rgb(38, 38, 38); stroke-opacity: 1; stroke-miterlimit: 0; stroke-linecap: square; stroke-linejoin: round; stroke-width: 0.5px; stroke-dashoffset: 0px;"/>
      <path d="M 73 100 L 77.3400039 100" style="fill: none; stroke: rgb(38, 38, 38); stroke-opacity: 1; stroke-miterlimit: 0; stroke-linecap: square; stroke-linejoin: round; stroke-width: 0.5px; stroke-dashoffset: 0px;"/>
      <path d="M 73 31.5 L 77.3400039 31.5" style="fill: none; stroke: rgb(38, 38, 38); stroke-opacity: 1; stroke-miterlimit: 0; stroke-linecap: square; stroke-linejoin: round; stroke-width: 0.5px; stroke-dashoffset: 0px;"/>
      <path d="M 507 374 L 502.660003 374" style="fill: none; stroke: rgb(38, 38, 38); stroke-opacity: 1; stroke-miterlimit: 0; stroke-linecap: square; stroke-linejoin: round; stroke-width: 0.5px; stroke-dashoffset: 0px;"/>
      <path d="M 507 305.5 L 502.660003 305.5" style="fill: none; stroke: rgb(38, 38, 38); stroke-opacity: 1; stroke-miterlimit: 0; stroke-linecap: square; stroke-linejoin: round; stroke-width: 0.5px; stroke-dashoffset: 0px;"/>
      <path d="M 507 237 L 502.660003 237" style="fill: none; stroke: rgb(38, 38, 38); stroke-opacity: 1; stroke-miterlimit: 0; stroke-linecap: square; stroke-linejoin: round; stroke-width: 0.5px; stroke-dashoffset: 0px;"/>
      <path d="M 507 168.5 L 502.660003 168.5" style="fill: none; stroke: rgb(38, 38, 38); stroke-opacity: 1; stroke-miterlimit: 0; stroke-linecap: square; stroke-linejoin: round; stroke-width: 0.5px; stroke-dashoffset: 0px;"/>
      <path d="M 507 100 L 502.660003 100" style="fill: none; stroke: rgb(38, 38, 38); stroke-opacity: 1; stroke-miterlimit: 0; stroke-linecap: square; stroke-linejoin: round; stroke-width: 0.5px; stroke-dashoffset: 0px;"/>
      <path d="M 507 31.5 L 502.660003 31.5" style="fill: none; stroke: rgb(38, 38, 38); stroke-opacity: 1; stroke-miterlimit: 0; stroke-linecap: square; stroke-linejoin: round; stroke-width: 0.5px; stroke-dashoffset: 0px;"/>
    </g>
    <g transform="matrix(0.4999999995 0 0 -0.4999999995 13.00000185 17.75)">
      <path d="M 0.415 -3.483 Q 0.415 -4.748 0.679 -5.529 Q 0.933 -6.296 1.455 -6.721 Q 1.963 -7.136 2.749 -7.141 Q 3.325 -7.136 3.76 -6.911 Q 4.189 -6.672 4.478 -6.242 Q 4.761 -5.798 4.922 -5.178 Q 5.083 -4.543 5.083 -3.483 Q 5.078 -2.219 4.824 -1.452 Q 4.565 -0.671 4.053 -0.256 Q 3.53 0.169 2.749 0.169 Q 1.714 0.169 1.123 -0.573 Q 0.41 -1.467 0.415 -3.483 Z M 1.318 -3.483 Q 1.313 -1.716 1.733 -1.14 Q 2.139 -0.554 2.749 -0.554 Q 3.35 -0.554 3.77 -1.14 Q 4.18 -1.726 4.18 -3.483 Q 4.18 -5.246 3.77 -5.832 Q 3.35 -6.408 2.739 -6.413 Q 2.129 -6.413 1.772 -5.9 Q 1.318 -5.246 1.318 -3.483 Z" style="fill: rgb(38, 38, 38);"/>
    </g>
    <g transform="matrix(0.4999999995 0 0 -0.4999999995 9.000001875 52.00000025)">
      <path d="M 0.415 -3.483 Q 0.415 -4.748 0.679 -5.529 Q 0.933 -6.296 1.455 -6.721 Q 1.963 -7.136 2.749 -7.141 Q 3.325 -7.136 3.76 -6.911 Q 4.189 -6.672 4.478 -6.242 Q 4.761 -5.798 4.922 -5.178 Q 5.083 -4.543 5.083 -3.483 Q 5.078 -2.219 4.824 -1.452 Q 4.565 -0.671 4.053 -0.256 Q 3.53 0.169 2.749 0.169 Q 1.714 0.169 1.123 -0.573 Q 0.41 -1.467 0.415 -3.483 Z M 1.318 -3.483 Q 1.313 -1.716 1.733 -1.14 Q 2.139 -0.554 2.749 -0.554 Q 3.35 -0.554 3.77 -1.14 Q 4.18 -1.726 4.18 -3.483 Q 4.18 -5.246 3.77 -5.832 Q 3.35 -6.408 2.739 -6.413 Q 2.129 -6.413 1.772 -5.9 Q 1.318 -5.246 1.318 -3.483 Z" style="fill: rgb(38, 38, 38);"/>
      <path d="M 6.455 0.047 L 6.455 -0.954 L 7.456 -0.954 L 7.456 0.047 Z" style="fill: rgb(38, 38, 38);"/>
      <path d="M 8.728 -1.828 L 9.65 -1.906 Q 9.753 -1.232 10.129 -0.896 Q 10.5 -0.549 11.027 -0.554 Q 11.662 -0.554 12.102 -1.032 Q 12.541 -1.506 12.541 -2.302 Q 12.536 -3.054 12.121 -3.488 Q 11.691 -3.918 11.013 -3.923 Q 10.588 -3.923 10.246 -3.732 Q 9.899 -3.532 9.709 -3.229 L 8.884 -3.337 L 9.577 -7.014 L 13.137 -7.014 L 13.137 -6.174 L 10.28 -6.174 L 9.895 -4.25 Q 10.534 -4.694 11.247 -4.699 Q 12.185 -4.699 12.829 -4.05 Q 13.474 -3.396 13.474 -2.38 Q 13.469 -1.403 12.907 -0.7 Q 12.219 0.174 11.027 0.169 Q 10.051 0.174 9.436 -0.378 Q 8.811 -0.925 8.728 -1.828 Z" style="fill: rgb(38, 38, 38);"/>
    </g>
    <g transform="matrix(0.4999999995 0 0 -0.4999999995 13.00000185 86.2500005)">
      <path d="M 3.726 0.047 L 2.847 0.047 L 2.847 -5.554 Q 2.529 -5.246 2.017 -4.948 Q 1.494 -4.646 1.089 -4.494 L 1.089 -5.344 Q 1.826 -5.686 2.378 -6.184 Q 2.925 -6.672 3.159 -7.141 L 3.726 -7.141 Z" style="fill: rgb(38, 38, 38);"/>
    </g>
    <g transform="matrix(0.4999999995 0 0 -0.4999999995 9.000001875 120.5)">
      <path d="M 3.726 0.047 L 2.847 0.047 L 2.847 -5.554 Q 2.529 -5.246 2.017 -4.948 Q 1.494 -4.646 1.089 -4.494 L 1.089 -5.344 Q 1.826 -5.686 2.378 -6.184 Q 2.925 -6.672 3.159 -7.141 L 3.726 -7.141 Z" style="fill: rgb(38, 38, 38);"/>
      <path d="M 6.455 0.047 L 6.455 -0.954 L 7.456 -0.954 L 7.456 0.047 Z" style="fill: rgb(38, 38, 38);"/>
      <path d="M 8.728 -1.828 L 9.65 -1.906 Q 9.753 -1.232 10.129 -0.896 Q 10.5 -0.549 11.027 -0.554 Q 11.662 -0.554 12.102 -1.032 Q 12.541 -1.506 12.541 -2.302 Q 12.536 -3.054 12.121 -3.488 Q 11.691 -3.918 11.013 -3.923 Q 10.588 -3.923 10.246 -3.732 Q 9.899 -3.532 9.709 -3.229 L 8.884 -3.337 L 9.577 -7.014 L 13.137 -7.014 L 13.137 -6.174 L 10.28 -6.174 L 9.895 -4.25 Q 10.534 -4.694 11.247 -4.699 Q 12.185 -4.699 12.829 -4.05 Q 13.474 -3.396 13.474 -2.38 Q 13.469 -1.403 12.907 -0.7 Q 12.219 0.174 11.027 0.169 Q 10.051 0.174 9.436 -0.378 Q 8.811 -0.925 8.728 -1.828 Z" style="fill: rgb(38, 38, 38);"/>
    </g>
    <g transform="matrix(0.4999999995 0 0 -0.4999999995 13.00000185 154.750000025)">
      <path d="M 5.034 -0.798 L 5.034 0.047 L 0.303 0.047 Q 0.293 -0.266 0.437 -0.656 Q 0.581 -1.047 0.986 -1.516 Q 1.377 -1.984 2.336 -2.768 Q 3.296 -3.552 3.711 -4.118 Q 4.121 -4.675 4.121 -5.173 Q 4.121 -5.69 3.75 -6.057 Q 3.374 -6.413 2.773 -6.413 Q 2.134 -6.413 1.758 -6.032 Q 1.377 -5.651 1.372 -4.978 L 0.469 -5.07 Q 0.557 -6.076 1.167 -6.613 Q 1.772 -7.141 2.793 -7.141 Q 3.823 -7.141 4.424 -6.569 Q 5.024 -5.993 5.024 -5.153 Q 5.024 -4.719 4.849 -4.309 Q 4.668 -3.889 4.268 -3.435 Q 3.853 -2.971 2.91 -2.175 Q 2.119 -1.506 1.895 -1.276 Q 1.665 -1.032 1.523 -0.798 Z" style="fill: rgb(38, 38, 38);"/>
    </g>
    <g transform="matrix(0.4999999995 0 0 -0.4999999995 9.000001875 189.00000005)">
      <path d="M 5.034 -0.798 L 5.034 0.047 L 0.303 0.047 Q 0.293 -0.266 0.437 -0.656 Q 0.581 -1.047 0.986 -1.516 Q 1.377 -1.984 2.336 -2.768 Q 3.296 -3.552 3.711 -4.118 Q 4.121 -4.675 4.121 -5.173 Q 4.121 -5.69 3.75 -6.057 Q 3.374 -6.413 2.773 -6.413 Q 2.134 -6.413 1.758 -6.032 Q 1.377 -5.651 1.372 -4.978 L 0.469 -5.07 Q 0.557 -6.076 1.167 -6.613 Q 1.772 -7.141 2.793 -7.141 Q 3.823 -7.141 4.424 -6.569 Q 5.024 -5.993 5.024 -5.153 Q 5.024 -4.719 4.849 -4.309 Q 4.668 -3.889 4.268 -3.435 Q 3.853 -2.971 2.91 -2.175 Q 2.119 -1.506 1.895 -1.276 Q 1.665 -1.032 1.523 -0.798 Z" style="fill: rgb(38, 38, 38);"/>
      <path d="M 6.455 0.047 L 6.455 -0.954 L 7.456 -0.954 L 7.456 0.047 Z" style="fill: rgb(38, 38, 38);"/>
      <path d="M 8.728 -1.828 L 9.65 -1.906 Q 9.753 -1.232 10.129 -0.896 Q 10.5 -0.549 11.027 -0.554 Q 11.662 -0.554 12.102 -1.032 Q 12.541 -1.506 12.541 -2.302 Q 12.536 -3.054 12.121 -3.488 Q 11.691 -3.918 11.013 -3.923 Q 10.588 -3.923 10.246 -3.732 Q 9.899 -3.532 9.709 -3.229 L 8.884 -3.337 L 9.577 -7.014 L 13.137 -7.014 L 13.137 -6.174 L 10.28 -6.174 L 9.895 -4.25 Q 10.534 -4.694 11.247 -4.699 Q 12.185 -4.699 12.829 -4.05 Q 13.474 -3.396 13.474 -2.38 Q 13.469 -1.403 12.907 -0.7 Q 12.219 0.174 11.027 0.169 Q 10.051 0.174 9.436 -0.378 Q 8.811 -0.925 8.728 -1.828 Z" style="fill: rgb(38, 38, 38);"/>
    </g>
    <g transform="matrix(0 0.4999999995 0.4999999995 0 6.00000381 53.625092)">
      <path d="M 1.08 -0.328 L 1.08 -10.35 L 4.86 -10.35 Q 5.852 -10.343 6.484 -10.233 Q 7.116 -10.124 7.622 -9.789 Q 8.121 -9.44 8.429 -8.818 Q 8.723 -8.189 8.729 -7.451 Q 8.723 -6.166 7.916 -5.291 Q 7.096 -4.396 4.977 -4.402 L 2.406 -4.402 L 2.406 -0.328 Z M 2.406 -5.585 L 4.997 -5.585 Q 6.275 -5.578 6.822 -6.063 Q 7.362 -6.535 7.362 -7.41 Q 7.362 -8.032 7.048 -8.49 Q 6.727 -8.928 6.207 -9.078 Q 5.865 -9.167 4.97 -9.167 L 2.406 -9.167 Z" style="fill: rgb(38, 38, 38);"/>
      <path d="M 15.221 -2.666 L 16.492 -2.509 Q 16.185 -1.388 15.378 -0.779 Q 14.558 -0.164 13.3 -0.164 Q 11.707 -0.164 10.777 -1.148 Q 9.841 -2.119 9.841 -3.896 Q 9.841 -5.722 10.784 -6.74 Q 11.721 -7.752 13.231 -7.752 Q 14.687 -7.752 15.61 -6.761 Q 16.533 -5.763 16.533 -3.972 Q 16.533 -3.855 16.526 -3.644 L 11.112 -3.644 Q 11.181 -2.44 11.789 -1.812 Q 12.391 -1.176 13.307 -1.176 Q 13.977 -1.169 14.462 -1.531 Q 14.94 -1.887 15.221 -2.666 Z M 11.181 -4.655 L 15.234 -4.655 Q 15.146 -5.564 14.66 -6.149 Q 14.175 -6.733 13.245 -6.74 Q 12.391 -6.733 11.823 -6.173 Q 11.235 -5.605 11.181 -4.655 Z" style="fill: rgb(38, 38, 38);"/>
      <path d="M 18.019 -0.328 L 18.019 -7.588 L 19.126 -7.588 L 19.126 -6.487 Q 19.543 -7.253 19.912 -7.506 Q 20.268 -7.752 20.791 -7.752 Q 21.314 -7.752 21.963 -7.355 L 21.539 -6.214 Q 21.088 -6.48 20.637 -6.48 Q 20.227 -6.474 19.912 -6.241 Q 19.584 -5.995 19.417 -5.452 Q 19.249 -4.908 19.249 -4.129 L 19.249 -0.328 Z" style="fill: rgb(38, 38, 38);"/>
      <path d="M 22.21 -3.336 L 22.21 -4.573 L 25.99 -4.573 L 25.99 -3.336 Z" style="fill: rgb(38, 38, 38);"/>
      <path d="M 34.652 -3.842 L 35.979 -3.507 Q 35.555 -1.866 34.481 -1.019 Q 33.395 -0.157 31.829 -0.157 Q 30.209 -0.15 29.197 -0.82 Q 28.172 -1.477 27.652 -2.728 Q 27.119 -3.979 27.119 -5.414 Q 27.112 -6.979 27.721 -8.148 Q 28.315 -9.304 29.423 -9.919 Q 30.517 -10.521 31.85 -10.521 Q 33.354 -10.521 34.379 -9.755 Q 35.404 -8.982 35.808 -7.602 L 34.502 -7.294 Q 34.153 -8.381 33.49 -8.887 Q 32.82 -9.386 31.822 -9.386 Q 30.66 -9.386 29.895 -8.832 Q 29.115 -8.278 28.801 -7.349 Q 28.48 -6.412 28.486 -5.421 Q 28.48 -4.136 28.862 -3.192 Q 29.225 -2.235 30.018 -1.764 Q 30.804 -1.292 31.72 -1.292 Q 32.834 -1.285 33.606 -1.935 Q 34.372 -2.577 34.652 -3.842 Z" style="fill: rgb(38, 38, 38);"/>
      <path d="M 42.191 -1.224 Q 41.501 -0.636 40.879 -0.403 Q 40.243 -0.164 39.519 -0.164 Q 38.315 -0.164 37.68 -0.752 Q 37.03 -1.326 37.037 -2.242 Q 37.037 -2.775 37.283 -3.22 Q 37.516 -3.657 37.919 -3.924 Q 38.309 -4.19 38.801 -4.327 Q 39.156 -4.416 39.894 -4.512 Q 41.378 -4.683 42.089 -4.936 Q 42.096 -5.182 42.096 -5.257 Q 42.096 -6.002 41.685 -6.368 Q 41.275 -6.733 40.346 -6.733 Q 39.471 -6.727 39.067 -6.433 Q 38.644 -6.118 38.452 -5.353 L 37.249 -5.517 Q 37.406 -6.282 37.789 -6.768 Q 38.165 -7.239 38.876 -7.499 Q 39.58 -7.752 40.523 -7.752 Q 41.446 -7.745 42.034 -7.533 Q 42.608 -7.314 42.889 -6.986 Q 43.155 -6.645 43.271 -6.146 Q 43.333 -5.824 43.333 -5.011 L 43.333 -3.37 Q 43.333 -1.654 43.415 -1.203 Q 43.483 -0.738 43.723 -0.328 L 42.437 -0.328 Q 42.239 -0.704 42.191 -1.224 Z M 42.089 -3.972 Q 41.419 -3.691 40.079 -3.507 Q 39.32 -3.391 39.006 -3.261 Q 38.685 -3.117 38.52 -2.864 Q 38.343 -2.591 38.343 -2.187 Q 38.343 -1.784 38.726 -1.456 Q 39.095 -1.128 39.812 -1.128 Q 40.517 -1.121 41.077 -1.442 Q 41.631 -1.743 41.891 -2.29 Q 42.082 -2.707 42.089 -3.521 Z" style="fill: rgb(38, 38, 38);"/>
      <path d="M 45.235 2.454 L 45.235 -7.588 L 46.356 -7.588 L 46.356 -6.645 Q 46.746 -7.198 47.252 -7.479 Q 47.751 -7.752 48.462 -7.752 Q 49.392 -7.752 50.103 -7.273 Q 50.807 -6.788 51.176 -5.927 Q 51.531 -5.045 51.538 -4.013 Q 51.538 -2.892 51.142 -2.01 Q 50.738 -1.114 49.979 -0.643 Q 49.207 -0.157 48.373 -0.164 Q 47.751 -0.164 47.272 -0.424 Q 46.78 -0.677 46.466 -1.08 L 46.466 2.454 Z M 46.35 -3.917 Q 46.35 -2.509 46.917 -1.846 Q 47.478 -1.176 48.291 -1.176 Q 49.111 -1.176 49.699 -1.873 Q 50.28 -2.557 50.28 -4.02 Q 50.273 -5.4 49.713 -6.098 Q 49.132 -6.781 48.346 -6.788 Q 47.553 -6.781 46.958 -6.057 Q 46.35 -5.318 46.35 -3.917 Z" style="fill: rgb(38, 38, 38);"/>
      <path d="M 53.023 -8.935 L 53.023 -10.35 L 54.254 -10.35 L 54.254 -8.935 Z M 53.023 -0.328 L 53.023 -7.588 L 54.254 -7.588 L 54.254 -0.328 Z" style="fill: rgb(38, 38, 38);"/>
      <path d="M 58.812 -1.429 L 58.99 -0.342 Q 58.464 -0.226 57.927 -0.226 Q 57.391 -0.226 57.021 -0.444 Q 56.652 -0.656 56.502 -1.005 Q 56.345 -1.34 56.352 -2.454 L 56.352 -6.631 L 55.449 -6.631 L 55.449 -7.588 L 56.352 -7.588 L 56.352 -9.386 L 57.575 -10.124 L 57.575 -7.588 L 58.812 -7.588 L 58.812 -6.631 L 57.575 -6.631 L 57.575 -2.386 Q 57.568 -1.859 57.633 -1.706 Q 57.698 -1.552 57.855 -1.47 Q 57.992 -1.374 58.272 -1.381 Q 58.471 -1.374 58.812 -1.429 Z" style="fill: rgb(38, 38, 38);"/>
      <path d="M 64.738 -1.224 Q 64.048 -0.636 63.426 -0.403 Q 62.79 -0.164 62.065 -0.164 Q 60.862 -0.164 60.227 -0.752 Q 59.577 -1.326 59.584 -2.242 Q 59.584 -2.775 59.83 -3.22 Q 60.062 -3.657 60.466 -3.924 Q 60.855 -4.19 61.348 -4.327 Q 61.703 -4.416 62.441 -4.512 Q 63.925 -4.683 64.636 -4.936 Q 64.643 -5.182 64.643 -5.257 Q 64.643 -6.002 64.232 -6.368 Q 63.822 -6.733 62.893 -6.733 Q 62.018 -6.727 61.614 -6.433 Q 61.19 -6.118 60.999 -5.353 L 59.796 -5.517 Q 59.953 -6.282 60.336 -6.768 Q 60.712 -7.239 61.423 -7.499 Q 62.127 -7.752 63.07 -7.752 Q 63.993 -7.745 64.581 -7.533 Q 65.155 -7.314 65.436 -6.986 Q 65.702 -6.645 65.818 -6.146 Q 65.88 -5.824 65.88 -5.011 L 65.88 -3.37 Q 65.88 -1.654 65.962 -1.203 Q 66.03 -0.738 66.27 -0.328 L 64.984 -0.328 Q 64.786 -0.704 64.738 -1.224 Z M 64.636 -3.972 Q 63.966 -3.691 62.626 -3.507 Q 61.867 -3.391 61.553 -3.261 Q 61.231 -3.117 61.067 -2.864 Q 60.89 -2.591 60.89 -2.187 Q 60.89 -1.784 61.272 -1.456 Q 61.642 -1.128 62.359 -1.128 Q 63.063 -1.121 63.624 -1.442 Q 64.178 -1.743 64.437 -2.29 Q 64.629 -2.707 64.636 -3.521 Z" style="fill: rgb(38, 38, 38);"/>
      <path d="M 71.842 -0.328 L 71.842 -10.35 L 79.088 -10.35 L 79.088 -9.167 L 73.168 -9.167 L 73.168 -6.098 L 78.712 -6.098 L 78.712 -4.922 L 73.168 -4.922 L 73.168 -1.511 L 79.32 -1.511 L 79.32 -0.328 Z" style="fill: rgb(38, 38, 38);"/>
      <path d="M 80.165 -0.328 L 82.817 -4.102 L 80.363 -7.588 L 81.901 -7.588 L 83.016 -5.886 Q 83.323 -5.4 83.521 -5.072 Q 83.815 -5.523 84.075 -5.872 L 85.299 -7.588 L 86.769 -7.588 L 84.26 -4.17 L 86.96 -0.328 L 85.449 -0.328 L 83.959 -2.584 L 83.563 -3.192 L 81.655 -0.328 Z" style="fill: rgb(38, 38, 38);"/>
      <path d="M 87.985 2.454 L 87.985 -7.588 L 89.106 -7.588 L 89.106 -6.645 Q 89.496 -7.198 90.002 -7.479 Q 90.501 -7.752 91.212 -7.752 Q 92.142 -7.752 92.853 -7.273 Q 93.557 -6.788 93.926 -5.927 Q 94.281 -5.045 94.288 -4.013 Q 94.288 -2.892 93.892 -2.01 Q 93.488 -1.114 92.729 -0.643 Q 91.957 -0.157 91.123 -0.164 Q 90.501 -0.164 90.022 -0.424 Q 89.53 -0.677 89.216 -1.08 L 89.216 2.454 Z M 89.1 -3.917 Q 89.1 -2.509 89.667 -1.846 Q 90.228 -1.176 91.041 -1.176 Q 91.861 -1.176 92.449 -1.873 Q 93.03 -2.557 93.03 -4.02 Q 93.023 -5.4 92.463 -6.098 Q 91.882 -6.781 91.096 -6.788 Q 90.303 -6.781 89.708 -6.057 Q 89.1 -5.318 89.1 -3.917 Z" style="fill: rgb(38, 38, 38);"/>
      <path d="M 95.753 -0.328 L 95.753 -7.588 L 96.86 -7.588 L 96.86 -6.487 Q 97.277 -7.253 97.647 -7.506 Q 98.002 -7.752 98.525 -7.752 Q 99.048 -7.752 99.697 -7.355 L 99.273 -6.214 Q 98.822 -6.48 98.371 -6.48 Q 97.961 -6.474 97.647 -6.241 Q 97.318 -5.995 97.151 -5.452 Q 96.983 -4.908 96.983 -4.129 L 96.983 -0.328 Z" style="fill: rgb(38, 38, 38);"/>
      <path d="M 105.393 -2.666 L 106.664 -2.509 Q 106.356 -1.388 105.55 -0.779 Q 104.729 -0.164 103.472 -0.164 Q 101.879 -0.164 100.949 -1.148 Q 100.013 -2.119 100.013 -3.896 Q 100.013 -5.722 100.956 -6.74 Q 101.893 -7.752 103.403 -7.752 Q 104.859 -7.752 105.782 -6.761 Q 106.705 -5.763 106.705 -3.972 Q 106.705 -3.855 106.698 -3.644 L 101.284 -3.644 Q 101.353 -2.44 101.961 -1.812 Q 102.563 -1.176 103.479 -1.176 Q 104.148 -1.169 104.634 -1.531 Q 105.112 -1.887 105.393 -2.666 Z M 101.353 -4.655 L 105.406 -4.655 Q 105.317 -5.564 104.832 -6.149 Q 104.347 -6.733 103.417 -6.74 Q 102.563 -6.733 101.995 -6.173 Q 101.407 -5.605 101.353 -4.655 Z" style="fill: rgb(38, 38, 38);"/>
      <path d="M 107.712 -2.495 L 108.928 -2.687 Q 109.031 -1.955 109.503 -1.565 Q 109.961 -1.176 110.808 -1.176 Q 111.656 -1.176 112.066 -1.524 Q 112.476 -1.859 112.476 -2.331 Q 112.469 -2.748 112.114 -2.987 Q 111.854 -3.145 110.856 -3.404 Q 109.503 -3.739 108.983 -3.999 Q 108.457 -4.245 108.19 -4.689 Q 107.91 -5.127 107.917 -5.66 Q 107.917 -6.139 108.142 -6.562 Q 108.354 -6.966 108.744 -7.246 Q 109.024 -7.451 109.53 -7.608 Q 110.022 -7.752 110.73 -7.752 Q 111.437 -7.752 112.093 -7.506 Q 112.736 -7.26 113.044 -6.843 Q 113.351 -6.419 113.468 -5.715 L 112.264 -5.551 Q 112.182 -6.104 111.793 -6.426 Q 111.389 -6.74 110.678 -6.74 Q 109.824 -6.733 109.468 -6.46 Q 109.106 -6.18 109.106 -5.804 Q 109.099 -5.564 109.257 -5.373 Q 109.407 -5.175 109.728 -5.045 Q 109.913 -4.97 111.013 -4.672 Q 112.114 -4.375 112.64 -4.163 Q 113.146 -3.931 113.447 -3.514 Q 113.741 -3.083 113.741 -2.461 Q 113.741 -1.846 113.385 -1.306 Q 113.023 -0.759 112.346 -0.465 Q 111.663 -0.164 110.815 -0.164 Q 109.4 -0.164 108.662 -0.752 Q 107.91 -1.333 107.712 -2.495 Z" style="fill: rgb(38, 38, 38);"/>
      <path d="M 114.712 -2.495 L 115.928 -2.687 Q 116.031 -1.955 116.503 -1.565 Q 116.961 -1.176 117.808 -1.176 Q 118.656 -1.176 119.066 -1.524 Q 119.476 -1.859 119.476 -2.331 Q 119.469 -2.748 119.114 -2.987 Q 118.854 -3.145 117.856 -3.404 Q 116.503 -3.739 115.983 -3.999 Q 115.457 -4.245 115.19 -4.689 Q 114.91 -5.127 114.917 -5.66 Q 114.917 -6.139 115.142 -6.562 Q 115.354 -6.966 115.744 -7.246 Q 116.024 -7.451 116.53 -7.608 Q 117.022 -7.752 117.73 -7.752 Q 118.437 -7.752 119.093 -7.506 Q 119.736 -7.26 120.044 -6.843 Q 120.351 -6.419 120.468 -5.715 L 119.264 -5.551 Q 119.182 -6.104 118.793 -6.426 Q 118.389 -6.74 117.678 -6.74 Q 116.824 -6.733 116.468 -6.46 Q 116.106 -6.18 116.106 -5.804 Q 116.099 -5.564 116.257 -5.373 Q 116.407 -5.175 116.728 -5.045 Q 116.913 -4.97 118.013 -4.672 Q 119.114 -4.375 119.64 -4.163 Q 120.146 -3.931 120.447 -3.514 Q 120.741 -3.083 120.741 -2.461 Q 120.741 -1.846 120.385 -1.306 Q 120.023 -0.759 119.346 -0.465 Q 118.663 -0.164 117.815 -0.164 Q 116.4 -0.164 115.662 -0.752 Q 114.91 -1.333 114.712 -2.495 Z" style="fill: rgb(38, 38, 38);"/>
      <path d="M 122.211 -8.935 L 122.211 -10.35 L 123.441 -10.35 L 123.441 -8.935 Z M 122.211 -0.328 L 122.211 -7.588 L 123.441 -7.588 L 123.441 -0.328 Z" style="fill: rgb(38, 38, 38);"/>
      <path d="M 124.856 -3.958 Q 124.856 -5.968 125.977 -6.945 Q 126.907 -7.752 128.26 -7.752 Q 129.75 -7.745 130.707 -6.774 Q 131.658 -5.79 131.658 -4.061 Q 131.658 -2.652 131.241 -1.859 Q 130.817 -1.046 130.017 -0.608 Q 129.203 -0.164 128.26 -0.164 Q 126.729 -0.164 125.799 -1.142 Q 124.856 -2.112 124.856 -3.958 Z M 126.12 -3.958 Q 126.12 -2.557 126.729 -1.873 Q 127.33 -1.176 128.26 -1.176 Q 129.169 -1.176 129.785 -1.873 Q 130.386 -2.57 130.393 -3.999 Q 130.386 -5.339 129.785 -6.043 Q 129.169 -6.727 128.26 -6.733 Q 127.33 -6.727 126.729 -6.043 Q 126.12 -5.353 126.12 -3.958 Z" style="fill: rgb(38, 38, 38);"/>
      <path d="M 133.095 -0.328 L 133.095 -7.588 L 134.202 -7.588 L 134.202 -6.556 Q 135.002 -7.752 136.513 -7.752 Q 137.169 -7.752 137.723 -7.52 Q 138.263 -7.273 138.543 -6.897 Q 138.81 -6.508 138.926 -5.988 Q 138.994 -5.64 138.994 -4.792 L 138.994 -0.328 L 137.764 -0.328 L 137.764 -4.744 Q 137.764 -5.489 137.62 -5.872 Q 137.47 -6.241 137.114 -6.467 Q 136.745 -6.679 136.103 -6.682 Q 135.46 -6.686 134.9 -6.187 Q 134.325 -5.681 134.325 -4.293 L 134.325 -0.328 Z" style="fill: rgb(38, 38, 38);"/>
      <path d="M 147.102 2.618 Q 146.084 1.34 145.38 -0.39 Q 144.669 -2.112 144.676 -3.958 Q 144.676 -5.585 145.202 -7.075 Q 145.817 -8.805 147.102 -10.521 L 147.984 -10.521 Q 147.15 -9.092 146.808 -8.319 Q 146.467 -7.547 146.234 -6.521 Q 145.933 -5.236 145.94 -3.951 Q 145.94 -0.656 147.984 2.618 Z" style="fill: rgb(38, 38, 38);"/>
      <path d="M 149.585 -0.328 L 149.585 -10.35 L 154.028 -10.35 Q 155.368 -10.35 156.065 -10.083 Q 156.755 -9.803 157.179 -9.126 Q 157.596 -8.436 157.596 -7.615 Q 157.589 -6.542 156.906 -5.817 Q 156.215 -5.079 154.773 -4.888 Q 155.293 -4.628 155.573 -4.389 Q 156.147 -3.855 156.673 -3.056 L 158.417 -0.328 L 156.749 -0.328 L 155.422 -2.413 Q 154.835 -3.309 154.465 -3.794 Q 154.083 -4.266 153.796 -4.464 Q 153.495 -4.655 153.187 -4.73 Q 152.962 -4.778 152.449 -4.778 L 150.911 -4.778 L 150.911 -0.328 Z M 150.911 -5.927 L 153.761 -5.927 Q 154.671 -5.92 155.183 -6.118 Q 155.696 -6.296 155.963 -6.72 Q 156.229 -7.13 156.229 -7.725 Q 156.229 -8.319 155.716 -8.784 Q 155.19 -9.242 154.083 -9.242 L 150.911 -9.242 Z" style="fill: rgb(38, 38, 38);"/>
      <path d="M 159.619 -0.328 L 159.619 -10.35 L 160.946 -10.35 L 160.946 -1.511 L 165.881 -1.511 L 165.881 -0.328 Z" style="fill: rgb(38, 38, 38);"/>
      <path d="M 174.031 -10.35 L 175.357 -10.35 L 175.357 -4.56 Q 175.351 -3.049 175.016 -2.16 Q 174.674 -1.265 173.785 -0.718 Q 172.883 -0.15 171.44 -0.157 Q 170.025 -0.157 169.137 -0.643 Q 168.234 -1.121 167.858 -2.051 Q 167.476 -2.96 167.476 -4.56 L 167.476 -10.35 L 168.802 -10.35 L 168.802 -4.566 Q 168.802 -3.261 169.048 -2.646 Q 169.28 -2.017 169.882 -1.688 Q 170.463 -1.347 171.324 -1.354 Q 172.78 -1.347 173.409 -2.017 Q 174.031 -2.68 174.031 -4.566 Z" style="fill: rgb(38, 38, 38);"/>
      <path d="M 176.484 -0.157 L 179.389 -10.521 L 180.374 -10.521 L 177.475 -0.157 Z" style="fill: rgb(38, 38, 38);"/>
      <path d="M 181.036 -5.209 Q 181.029 -7.697 182.376 -9.119 Q 183.709 -10.521 185.835 -10.527 Q 187.215 -10.527 188.337 -9.864 Q 189.451 -9.194 190.039 -8.019 Q 190.62 -6.829 190.62 -5.325 Q 190.62 -3.794 190.005 -2.598 Q 189.389 -1.395 188.261 -0.779 Q 187.127 -0.15 185.828 -0.157 Q 184.413 -0.15 183.298 -0.841 Q 182.177 -1.524 181.61 -2.707 Q 181.036 -3.883 181.036 -5.209 Z M 182.403 -5.188 Q 182.403 -3.37 183.38 -2.338 Q 184.351 -1.292 185.821 -1.292 Q 187.311 -1.285 188.289 -2.345 Q 189.253 -3.391 189.253 -5.332 Q 189.253 -6.549 188.842 -7.472 Q 188.419 -8.381 187.632 -8.887 Q 186.833 -9.386 185.841 -9.386 Q 184.433 -9.386 183.421 -8.422 Q 182.403 -7.444 182.403 -5.188 Z" style="fill: rgb(38, 38, 38);"/>
      <path d="M 192.314 -0.328 L 192.314 -10.35 L 195.766 -10.35 Q 196.935 -10.35 197.673 -10.179 Q 198.412 -10.008 199.02 -9.488 Q 199.806 -8.812 200.21 -7.779 Q 200.599 -6.733 200.599 -5.394 Q 200.599 -4.252 200.333 -3.37 Q 200.066 -2.488 199.649 -1.914 Q 199.225 -1.326 198.74 -1.005 Q 198.234 -0.663 197.544 -0.499 Q 196.833 -0.321 195.93 -0.328 Z M 193.64 -1.511 L 195.78 -1.511 Q 196.771 -1.511 197.338 -1.695 Q 197.892 -1.873 198.299 -2.28 Q 198.706 -2.687 198.972 -3.486 Q 199.225 -4.272 199.232 -5.414 Q 199.232 -6.979 198.719 -7.834 Q 198.193 -8.675 197.462 -8.962 Q 196.921 -9.167 195.746 -9.167 L 193.64 -9.167 Z" style="fill: rgb(38, 38, 38);"/>
      <path d="M 203.073 2.618 L 202.192 2.618 Q 204.229 -0.656 204.236 -3.951 Q 204.236 -5.229 203.942 -6.501 Q 203.702 -7.526 203.292 -8.47 Q 203.019 -9.085 202.192 -10.521 L 203.073 -10.521 Q 204.352 -8.805 204.974 -7.075 Q 205.493 -5.585 205.5 -3.958 Q 205.5 -2.112 204.796 -0.39 Q 204.085 1.34 203.073 2.618 Z" style="fill: rgb(38, 38, 38);"/>
    </g>
    <g transform="matrix(0.4999999995 0 0 -0.4999999995 18.000001875 191.500000025)">
      <path d="M 1.47 -0.241 Q 1.465 -0.314 1.519 -0.383 L 3.599 -2.453 L 1.519 -4.533 Q 1.465 -4.582 1.47 -4.665 Q 1.47 -4.733 1.528 -4.799 Q 1.587 -4.865 1.67 -4.865 Q 1.733 -4.865 1.821 -4.802 L 3.892 -2.731 L 5.952 -4.802 Q 6.03 -4.865 6.104 -4.865 Q 6.177 -4.865 6.238 -4.804 Q 6.299 -4.743 6.299 -4.663 Q 6.299 -4.582 6.25 -4.533 L 4.17 -2.453 L 6.25 -0.383 Q 6.299 -0.314 6.299 -0.236 Q 6.299 -0.158 6.238 -0.1 Q 6.177 -0.041 6.101 -0.041 Q 6.025 -0.041 5.952 -0.114 L 3.892 -2.175 L 1.821 -0.114 Q 1.748 -0.041 1.667 -0.039 Q 1.587 -0.036 1.528 -0.102 Q 1.47 -0.168 1.47 -0.241 Z" style="fill: rgb(38, 38, 38);"/>
    </g>
    <g transform="matrix(0.4999999995 0 0 -0.4999999995 22.00000185 191.500000025)">
      <path d="M 3.726 0.047 L 2.847 0.047 L 2.847 -5.554 Q 2.529 -5.246 2.017 -4.948 Q 1.494 -4.646 1.089 -4.494 L 1.089 -5.344 Q 1.826 -5.686 2.378 -6.184 Q 2.925 -6.672 3.159 -7.141 L 3.726 -7.141 Z" style="fill: rgb(38, 38, 38);"/>
      <path d="M 5.962 -3.483 Q 5.962 -4.748 6.226 -5.529 Q 6.479 -6.296 7.002 -6.721 Q 7.51 -7.136 8.296 -7.141 Q 8.872 -7.136 9.307 -6.911 Q 9.736 -6.672 10.024 -6.242 Q 10.308 -5.798 10.469 -5.178 Q 10.63 -4.543 10.63 -3.483 Q 10.625 -2.219 10.371 -1.452 Q 10.112 -0.671 9.6 -0.256 Q 9.077 0.169 8.296 0.169 Q 7.261 0.169 6.67 -0.573 Q 5.957 -1.467 5.962 -3.483 Z M 6.865 -3.483 Q 6.86 -1.716 7.28 -1.14 Q 7.686 -0.554 8.296 -0.554 Q 8.896 -0.554 9.316 -1.14 Q 9.727 -1.726 9.727 -3.483 Q 9.727 -5.246 9.316 -5.832 Q 8.896 -6.408 8.286 -6.413 Q 7.676 -6.413 7.319 -5.9 Q 6.865 -5.246 6.865 -3.483 Z" style="fill: rgb(38, 38, 38);"/>
    </g>
    <g transform="matrix(0.4999999995 0 0 -0.4999999995 27.5000019 194)">
      <path d="M 2.586 0.234 L 2.586 -1.137 L 0.102 -1.137 L 0.102 -1.781 L 2.715 -5.492 L 3.289 -5.492 L 3.289 -1.781 L 4.063 -1.781 L 4.063 -1.137 L 3.289 -1.137 L 3.289 0.234 Z M 2.586 -1.781 L 2.586 -4.363 L 0.793 -1.781 Z" style="fill: rgb(38, 38, 38);"/>
    </g>
    <g transform="matrix(0.4999999995 0 0 -0.4999999995 94.00000125 193.500000005)">
      <path d="M 5.063 0.484 L 7.461 -10.969 L 9.695 -10.969 L 7.305 0.484 Z"/>
      <path d="M 12.68 -5.461 L 10.492 -5.648 Q 10.867 -6.758 11.805 -7.383 Q 12.727 -8 14.273 -8.008 Q 15.875 -8.008 16.641 -7.367 Q 17.398 -6.711 17.406 -5.789 Q 17.398 -5.414 17.344 -4.992 Q 17.273 -4.562 16.875 -2.773 Q 16.547 -1.281 16.547 -0.695 Q 16.547 -0.156 16.734 0.484 L 14.555 0.484 Q 14.422 0.031 14.391 -0.453 Q 13.898 0.102 13.258 0.383 Q 12.609 0.68 11.77 0.68 Q 10.93 0.68 10.266 0 Q 9.594 -0.664 9.594 -1.734 Q 9.594 -2.914 10.336 -3.633 Q 11.07 -4.336 12.969 -4.492 Q 14.57 -4.617 15.109 -4.812 Q 15.25 -5.281 15.25 -5.598 Q 15.25 -5.914 14.961 -6.164 Q 14.664 -6.406 14.102 -6.406 Q 13.492 -6.406 13.156 -6.164 Q 12.805 -5.914 12.68 -5.461 Z M 14.813 -3.383 Q 14.609 -3.32 14.273 -3.281 Q 12.586 -3.07 12.07 -2.687 Q 11.703 -2.406 11.703 -1.93 Q 11.703 -1.539 11.984 -1.273 Q 12.266 -1 12.727 -1 Q 13.227 -1 13.688 -1.25 Q 14.133 -1.492 14.359 -1.883 Q 14.57 -2.266 14.75 -3.086 Z"/>
      <path d="M 18.117 -1.836 L 20.289 -2.18 Q 20.57 -1.484 21.008 -1.211 Q 21.437 -0.914 22.18 -0.922 Q 22.937 -0.922 23.406 -1.266 Q 23.719 -1.492 23.727 -1.836 Q 23.727 -2.055 23.562 -2.242 Q 23.383 -2.414 22.633 -2.664 Q 20.594 -3.328 19.973 -3.832 Q 19.352 -4.336 19.359 -5.32 Q 19.352 -6.297 20.094 -7.016 Q 21.109 -8.008 23.133 -8.008 Q 24.734 -8.008 25.555 -7.422 Q 26.367 -6.828 26.594 -5.836 L 24.523 -5.477 Q 24.352 -5.93 23.918 -6.195 Q 23.484 -6.461 22.789 -6.461 Q 22.086 -6.461 21.781 -6.227 Q 21.461 -5.992 21.469 -5.687 Q 21.461 -5.367 21.781 -5.172 Q 21.969 -5.039 23.324 -4.645 Q 24.68 -4.25 25.348 -3.699 Q 26.016 -3.148 26.016 -2.234 Q 26.016 -1.047 25.023 -0.187 Q 24.023 0.68 22.227 0.68 Q 20.422 0.688 19.453 0.016 Q 18.469 -0.641 18.117 -1.836 Z"/>
      <path d="M 27.297 0.484 L 29.695 -10.969 L 33.609 -10.969 Q 34.883 -10.969 35.559 -10.871 Q 36.234 -10.773 36.82 -10.422 Q 37.406 -10.07 37.711 -9.484 Q 38.016 -8.898 38.016 -8.187 Q 38.008 -7.227 37.484 -6.539 Q 36.953 -5.836 35.844 -5.477 Q 36.719 -5.227 37.227 -4.617 Q 37.719 -3.992 37.719 -3.211 Q 37.719 -2.18 37.133 -1.258 Q 36.547 -0.328 35.516 0.078 Q 34.484 0.492 32.695 0.484 Z M 31.078 -6.344 L 32.875 -6.344 Q 34.078 -6.336 34.617 -6.516 Q 35.141 -6.687 35.414 -7.078 Q 35.68 -7.461 35.68 -7.914 Q 35.672 -8.344 35.43 -8.633 Q 35.172 -8.914 34.719 -9.008 Q 34.461 -9.055 33.477 -9.055 L 31.648 -9.055 L 31.078 -6.344 Z M 30.039 -1.359 L 32.312 -1.359 Q 33.742 -1.359 34.234 -1.547 Q 34.711 -1.719 35.016 -2.148 Q 35.305 -2.57 35.305 -3.039 Q 35.305 -3.609 34.883 -3.984 Q 34.461 -4.344 33.477 -4.352 L 30.664 -4.352 Z"/>
    </g>
    <g transform="matrix(0.4999999995 0 0 -0.4999999995 113.00000175 193.500000005)">
      <path d="M 5.602 0.484 L 5.602 -10.969 L 14.094 -10.969 L 14.094 -9.031 L 7.914 -9.031 L 7.914 -6.492 L 13.664 -6.492 L 13.664 -4.562 L 7.914 -4.562 L 7.914 -1.445 L 14.313 -1.445 L 14.313 0.484 Z"/>
      <path d="M 15.203 0.484 L 18.195 -3.789 L 15.328 -7.812 L 18.008 -7.812 L 19.477 -5.531 L 21.023 -7.812 L 23.602 -7.812 L 20.789 -3.883 L 23.859 0.484 L 21.164 0.484 L 19.477 -2.086 L 17.773 0.484 Z"/>
      <path d="M 25.086 -7.812 L 27.133 -7.812 L 27.133 -6.594 Q 27.531 -7.211 28.211 -7.609 Q 28.883 -7.992 29.719 -8 Q 31.156 -8 32.172 -6.867 Q 33.18 -5.727 33.18 -3.711 Q 33.18 -1.633 32.164 -0.484 Q 31.141 0.68 29.703 0.672 Q 29.008 0.672 28.461 0.398 Q 27.898 0.133 27.281 -0.539 L 27.281 3.641 L 25.086 3.641 Z M 27.258 -3.805 Q 27.258 -2.406 27.813 -1.742 Q 28.359 -1.07 29.164 -1.07 Q 29.922 -1.062 30.438 -1.687 Q 30.938 -2.297 30.945 -3.695 Q 30.945 -4.992 30.422 -5.633 Q 29.891 -6.266 29.125 -6.266 Q 28.313 -6.266 27.789 -5.648 Q 27.258 -5.023 27.258 -3.805 Z"/>
      <path d="M 37.016 0.484 L 34.82 0.484 L 34.82 -7.812 L 36.859 -7.812 L 36.859 -6.633 Q 37.383 -7.461 37.805 -7.734 Q 38.211 -8 38.855 -7.996 Q 39.5 -7.992 40.195 -7.586 L 39.516 -5.672 Q 38.961 -6.031 38.484 -6.031 Q 38.016 -6.023 37.703 -5.781 Q 37.375 -5.523 37.203 -4.859 Q 37.016 -4.187 37.016 -2.078 Z"/>
      <path d="M 45.938 -2.156 L 48.125 -1.789 Q 47.695 -0.578 46.797 0.039 Q 45.883 0.672 44.516 0.672 Q 42.344 0.68 41.313 -0.742 Q 40.492 -1.875 40.492 -3.602 Q 40.492 -5.664 41.57 -6.836 Q 42.641 -7.992 44.297 -8 Q 46.148 -8 47.219 -6.781 Q 48.281 -5.547 48.242 -3.031 L 42.742 -3.031 Q 42.766 -2.055 43.273 -1.516 Q 43.773 -0.961 44.539 -0.969 Q 45.055 -0.969 45.406 -1.25 Q 45.758 -1.531 45.938 -2.156 Z M 46.063 -4.375 Q 46.039 -5.32 45.57 -5.828 Q 45.094 -6.32 44.43 -6.32 Q 43.711 -6.32 43.242 -5.797 Q 42.766 -5.266 42.781 -4.375 Z"/>
      <path d="M 49.25 -1.883 L 51.453 -2.219 Q 51.586 -1.57 52.023 -1.25 Q 52.453 -0.906 53.227 -0.914 Q 54.07 -0.906 54.508 -1.227 Q 54.797 -1.445 54.797 -1.812 Q 54.789 -2.055 54.641 -2.227 Q 54.477 -2.375 53.906 -2.516 Q 51.242 -3.102 50.398 -3.676 Q 49.555 -4.25 49.555 -5.453 Q 49.547 -6.523 50.406 -7.266 Q 51.25 -8 53.047 -8 Q 54.742 -7.992 55.578 -7.445 Q 56.398 -6.891 56.719 -5.805 L 54.648 -5.422 Q 54.508 -5.898 54.148 -6.164 Q 53.773 -6.422 53.086 -6.422 Q 52.219 -6.422 51.844 -6.18 Q 51.594 -6 51.594 -5.734 Q 51.586 -5.5 51.844 -5.305 Q 52.102 -5.109 53.867 -4.719 Q 55.609 -4.312 56.313 -3.742 Q 57 -3.148 57 -2.109 Q 56.992 -0.969 56.047 -0.148 Q 55.086 0.672 53.227 0.672 Q 51.523 0.68 50.547 -0.016 Q 49.547 -0.695 49.25 -1.883 Z"/>
      <path d="M 58.141 -1.883 L 60.344 -2.219 Q 60.477 -1.57 60.914 -1.25 Q 61.344 -0.906 62.117 -0.914 Q 62.961 -0.906 63.398 -1.227 Q 63.687 -1.445 63.687 -1.812 Q 63.68 -2.055 63.531 -2.227 Q 63.367 -2.375 62.797 -2.516 Q 60.133 -3.102 59.289 -3.676 Q 58.445 -4.25 58.445 -5.453 Q 58.437 -6.523 59.297 -7.266 Q 60.141 -8 61.937 -8 Q 63.633 -7.992 64.469 -7.445 Q 65.289 -6.891 65.609 -5.805 L 63.539 -5.422 Q 63.398 -5.898 63.039 -6.164 Q 62.664 -6.422 61.977 -6.422 Q 61.109 -6.422 60.734 -6.18 Q 60.484 -6 60.484 -5.734 Q 60.477 -5.5 60.734 -5.305 Q 60.992 -5.109 62.758 -4.719 Q 64.5 -4.312 65.203 -3.742 Q 65.891 -3.148 65.891 -2.109 Q 65.883 -0.969 64.937 -0.148 Q 63.977 0.672 62.117 0.672 Q 60.414 0.68 59.437 -0.016 Q 58.437 -0.695 58.141 -1.883 Z"/>
      <path d="M 67.805 -8.937 L 67.805 -10.969 L 70 -10.969 L 70 -8.937 Z M 67.805 0.484 L 67.805 -7.812 L 70 -7.812 L 70 0.484 Z"/>
      <path d="M 71.734 -3.781 Q 71.734 -4.867 72.273 -5.898 Q 72.805 -6.914 73.805 -7.461 Q 74.789 -8 76.336 -8 Q 77.883 -8 79.094 -6.781 Q 80.297 -5.547 80.297 -3.687 Q 80.289 -1.797 79.086 -0.57 Q 77.859 0.672 76.023 0.672 Q 74.883 0.672 73.852 0.156 Q 72.805 -0.359 72.273 -1.359 Q 71.734 -2.352 71.734 -3.781 Z M 73.984 -3.664 Q 73.984 -2.43 74.57 -1.773 Q 75.156 -1.117 76.016 -1.117 Q 76.867 -1.117 77.461 -1.773 Q 78.031 -2.422 78.039 -3.68 Q 78.031 -4.898 77.461 -5.555 Q 76.867 -6.211 76.016 -6.211 Q 75.156 -6.211 74.57 -5.555 Q 73.984 -4.891 73.984 -3.664 Z"/>
      <path d="M 89.555 0.484 L 87.359 0.484 L 87.359 -3.75 Q 87.359 -5.094 87.219 -5.492 Q 87.078 -5.875 86.766 -6.102 Q 86.445 -6.32 86 -6.32 Q 85.422 -6.32 84.977 -6.008 Q 84.516 -5.687 84.359 -5.18 Q 84.18 -4.664 84.188 -3.273 L 84.188 0.484 L 81.992 0.484 L 81.992 -7.812 L 84.031 -7.812 L 84.031 -6.594 Q 85.109 -8 86.766 -8 Q 87.492 -8 88.094 -7.742 Q 88.688 -7.469 89.008 -7.07 Q 89.305 -6.656 89.438 -6.148 Q 89.555 -5.633 89.555 -4.672 Z"/>
    </g>
    <g transform="matrix(0.4999999995 0 0 -0.4999999995 -18.499998075 206.499999995)">
      <path d="M 73 352.245788 L 77.3400039 350.436126 L 81.6800003 350.016235 L 86.0199966 349.385803 L 90.3600006 348.536224 L 94.6999969 347.465118 L 99.0400009 346.174621 L 103.379997 344.670471 L 107.720001 342.960937 L 112.059997 341.056121 L 116.400001 338.967315 L 120.739997 336.706481 L 125.080001 334.28598 L 129.419998 331.718231 L 133.759994 329.015502 L 138.100006 326.189849 L 142.440002 323.252868 L 146.779998 320.215606 L 151.119995 317.088958 L 155.459991 313.882995 L 159.800003 310.607116 L 164.139999 307.270355 L 168.479995 303.881164 L 172.820007 300.447418 L 177.160003 296.97647 L 181.5 293.475158 L 185.839996 289.949737 L 190.180007 286.406097 L 194.520004 282.849609 L 198.86 279.285247 L 203.199996 275.717498 L 207.539993 272.150604 L 211.880004 268.588287 L 216.220001 265.034027 L 220.560012 261.490814 L 224.899993 257.961853 L 229.23999 254.449462 L 233.580001 250.956024 L 237.919998 247.483566 L 242.260009 244.033966 L 246.59999 240.608886 L 250.940002 237.209747 L 255.279998 233.83789 L 259.619995 230.49443 L 263.959991 227.180328 L 268.300018 223.896453 L 272.640014 220.643554 L 276.97998 217.422225 L 281.320007 214.232986 L 285.660003 211.076248 L 290 207.952346 L 294.339996 204.861557 L 298.679992 201.804046 L 303.019989 198.779922 L 307.360015 195.789291 L 311.700012 192.832138 L 316.040008 189.908416 L 320.380004 187.018066 L 324.720001 184.160949 L 329.059997 181.336929 L 333.399993 178.545806 L 337.73999 175.787384 L 342.079986 173.061401 L 346.420013 170.36763 L 350.760009 167.70578 L 355.099975 165.075546 L 359.440002 162.476623 L 363.779998 159.908706 L 368.120025 157.371444 L 372.459991 154.864486 L 376.799987 152.387496 L 381.140014 149.940124 L 385.47998 147.521987 L 389.820007 145.13272 L 394.160003 142.771957 L 398.5 140.439315 L 402.839996 138.13446 L 407.179992 135.856933 L 411.520019 133.606445 L 415.860015 131.382583 L 420.199981 129.184967 L 424.540008 127.013244 L 428.880004 124.866996 L 433.220001 122.745903 L 437.559997 120.649589 L 441.899993 118.577651 L 446.24002 116.5298 L 450.579986 114.505599 L 454.919982 112.504753 L 459.260009 110.526901 L 463.600006 108.571647 L 467.940002 106.638694 L 472.279998 104.727836 L 476.619995 102.838493 L 480.959991 100.970481 L 485.299987 99.1234436 L 489.640014 97.2970581 L 493.98001 95.4910125 L 498.319976 93.7050094 L 502.660003 91.9387283 L 507 90.1918945" style="fill: none; stroke: rgb(44, 49, 114); stroke-opacity: 1; stroke-miterlimit: 0; stroke-linecap: butt; stroke-linejoin: round; stroke-width: 2px; stroke-dashoffset: 0px;"/>
    </g>
  </g>
</svg>