<?xml version="1.0" encoding="utf-8"?>
<svg width="550px" height="421px" viewBox="0 0 252 193" version="1.1" style="fill-rule:evenodd;clip-rule:evenodd;stroke-linecap:square;stroke-linejoin:round;stroke-miterlimit:10;" xmlns="http://www.w3.org/2000/svg">
  <defs/>
  <g transform="matrix(0.75,0,0,-0.75,0,192.62)">
    <rect x="-1.34" y="-0.68" width="336.377" height="258.187" style="fill:white;"/>
  </g>
  <g transform="matrix(0.75,0,0,-0.75,0,88.2611)">
    <rect x="18.667" y="11.351" width="106.667" height="94.979" style="fill:white;"/>
  </g>
  <g transform="matrix(1.13131,0,0,-1.13906,-22.5,166.84)">
    <path d="M32.263,76.46L102.978,76.46" style="fill:none;fill-rule:nonzero;stroke:rgb(38,38,38);stroke-width:0.22px;"/>
  </g>
  <g transform="matrix(1.13131,0,0,-1.13906,-22.5,24.3712)">
    <path d="M32.263,13.922L102.978,13.922" style="fill:none;fill-rule:nonzero;stroke:rgb(38,38,38);stroke-width:0.22px;"/>
  </g>
  <g transform="matrix(0,-1.13906,1.13131,0,-72.1,116.095)">
    <path d="M31.91,76.106L32.617,76.106" style="fill:none;fill-rule:nonzero;stroke:rgb(38,38,38);stroke-width:0.22px;"/>
  </g>
  <g transform="matrix(0,-1.13906,1.13131,0,-56.1,132.205)">
    <path d="M46.053,76.106L46.76,76.106" style="fill:none;fill-rule:nonzero;stroke:rgb(38,38,38);stroke-width:0.22px;"/>
  </g>
  <g transform="matrix(0,-1.13906,1.13131,0,-40.1,148.314)">
    <path d="M60.196,76.106L60.903,76.106" style="fill:none;fill-rule:nonzero;stroke:rgb(38,38,38);stroke-width:0.22px;"/>
  </g>
  <g transform="matrix(0,-1.13906,1.13131,0,-24.1,164.424)">
    <path d="M74.338,76.106L75.046,76.106" style="fill:none;fill-rule:nonzero;stroke:rgb(38,38,38);stroke-width:0.22px;"/>
  </g>
  <g transform="matrix(0,-1.13906,1.13131,0,-8.1,180.533)">
    <path d="M88.481,76.106L89.188,76.106" style="fill:none;fill-rule:nonzero;stroke:rgb(38,38,38);stroke-width:0.22px;"/>
  </g>
  <g transform="matrix(0,-1.13906,1.13131,0,7.9,196.643)">
    <path d="M102.624,76.106L103.331,76.106" style="fill:none;fill-rule:nonzero;stroke:rgb(38,38,38);stroke-width:0.22px;"/>
  </g>
  <g transform="matrix(0,1.13906,-1.13131,0,30.15,-27.8338)">
    <path d="M31.91,14.275L32.617,14.275" style="fill:none;fill-rule:nonzero;stroke:rgb(38,38,38);stroke-width:0.22px;"/>
  </g>
  <g transform="matrix(0,1.13906,-1.13131,0,46.15,-43.9434)">
    <path d="M46.053,14.275L46.76,14.275" style="fill:none;fill-rule:nonzero;stroke:rgb(38,38,38);stroke-width:0.22px;"/>
  </g>
  <g transform="matrix(0,1.13906,-1.13131,0,62.15,-60.053)">
    <path d="M60.196,14.275L60.903,14.275" style="fill:none;fill-rule:nonzero;stroke:rgb(38,38,38);stroke-width:0.22px;"/>
  </g>
  <g transform="matrix(0,1.13906,-1.13131,0,78.15,-76.1625)">
    <path d="M74.338,14.275L75.046,14.275" style="fill:none;fill-rule:nonzero;stroke:rgb(38,38,38);stroke-width:0.22px;"/>
  </g>
  <g transform="matrix(0,1.13906,-1.13131,0,94.15,-92.2721)">
    <path d="M88.481,14.275L89.188,14.275" style="fill:none;fill-rule:nonzero;stroke:rgb(38,38,38);stroke-width:0.22px;"/>
  </g>
  <g transform="matrix(0,1.13906,-1.13131,0,110.15,-108.382)">
    <path d="M102.624,14.275L103.331,14.275" style="fill:none;fill-rule:nonzero;stroke:rgb(38,38,38);stroke-width:0.22px;"/>
  </g>
  <g transform="matrix(0,-1.13906,1.13131,0,-37.125,80.8805)">
    <path d="M0.994,45.191L63.532,45.191" style="fill:none;fill-rule:nonzero;stroke:rgb(38,38,38);stroke-width:0.22px;"/>
  </g>
  <g transform="matrix(0,-1.13906,1.13131,0,42.875,161.428)">
    <path d="M71.709,45.191L134.247,45.191" style="fill:none;fill-rule:nonzero;stroke:rgb(38,38,38);stroke-width:0.22px;"/>
  </g>
  <g transform="matrix(1.13131,0,0,-1.13906,-22.5,166.84)">
    <path d="M32.263,76.46L32.971,76.46" style="fill:none;fill-rule:nonzero;stroke:rgb(38,38,38);stroke-width:0.22px;"/>
  </g>
  <g transform="matrix(1.13131,0,0,-1.13906,-22.5,131.223)">
    <path d="M32.263,60.825L32.971,60.825" style="fill:none;fill-rule:nonzero;stroke:rgb(38,38,38);stroke-width:0.22px;"/>
  </g>
  <g transform="matrix(1.13131,0,0,-1.13906,-22.5,95.6057)">
    <path d="M32.263,45.191L32.971,45.191" style="fill:none;fill-rule:nonzero;stroke:rgb(38,38,38);stroke-width:0.22px;"/>
  </g>
  <g transform="matrix(1.13131,0,0,-1.13906,-22.5,59.9885)">
    <path d="M32.263,29.556L32.971,29.556" style="fill:none;fill-rule:nonzero;stroke:rgb(38,38,38);stroke-width:0.22px;"/>
  </g>
  <g transform="matrix(-1.13131,0,0,-1.13906,209.7,166.84)">
    <path d="M102.271,76.46L102.978,76.46" style="fill:none;fill-rule:nonzero;stroke:rgb(38,38,38);stroke-width:0.22px;"/>
  </g>
  <g transform="matrix(-1.13131,0,0,-1.13906,209.7,131.223)">
    <path d="M102.271,60.825L102.978,60.825" style="fill:none;fill-rule:nonzero;stroke:rgb(38,38,38);stroke-width:0.22px;"/>
  </g>
  <g transform="matrix(-1.13131,0,0,-1.13906,209.7,95.6057)">
    <path d="M102.271,45.191L102.978,45.191" style="fill:none;fill-rule:nonzero;stroke:rgb(38,38,38);stroke-width:0.22px;"/>
  </g>
  <g transform="matrix(-1.13131,0,0,-1.13906,209.7,59.9885)">
    <path d="M102.271,29.556L102.978,29.556" style="fill:none;fill-rule:nonzero;stroke:rgb(38,38,38);stroke-width:0.22px;"/>
  </g>
  <g transform="matrix(1.13131,0,0,-1.13906,-22.5,155.355)">
    <path d="M32.263,66.377L34.031,66.387L35.799,66.399L37.567,66.413L39.335,66.429L41.103,66.448L42.871,66.471L44.638,66.499L46.406,66.534L48.174,66.578L49.942,66.635L51.71,66.708L53.478,66.804L55.246,66.926L57.013,67.08L58.781,67.268L60.549,67.488L62.317,67.738L64.085,68.015L65.853,68.315L67.621,68.634L69.388,68.969L71.156,69.316L72.924,69.675L74.692,70.042L76.46,70.417L78.228,70.798L79.996,71.185L81.763,71.576L83.531,71.971L85.299,72.369L87.067,72.769L88.835,73.173L90.603,73.578L92.371,73.986L94.138,74.395L95.906,74.805L97.674,75.217L99.442,75.631L101.21,76.045L102.978,76.46" style="fill:none;fill-rule:nonzero;stroke:rgb(165,205,144);stroke-width:0.88px;stroke-linecap:butt;"/>
  </g>
  <g transform="matrix(1.13131,0,0,-1.13906,-22.5,110.167)">
    <path d="M32.263,26.706L34.031,26.752L35.799,26.822L37.567,26.917L39.335,27.043L41.103,27.206L42.871,27.416L44.638,27.683L46.406,28.023L48.174,28.458L49.942,29.013L51.71,29.72L53.478,30.609L55.246,31.701L57.013,32.999L58.781,34.48L60.549,36.102L62.317,37.819L64.085,39.59L65.853,41.382L67.621,43.177L69.388,44.961L71.156,46.729L72.924,48.479L74.692,50.21L76.46,51.923L78.228,53.619L79.996,55.301L81.763,56.97L83.531,58.628L85.299,60.277L87.067,61.917L88.835,63.549L90.603,65.176L92.371,66.798L94.138,68.415L95.906,70.029L97.674,71.64L99.442,73.248L101.21,74.855L102.978,76.46" style="fill:none;fill-rule:nonzero;stroke:rgb(52,133,141);stroke-width:0.88px;stroke-linecap:butt;"/>
  </g>
  <g transform="matrix(1.13131,0,0,-1.13906,-22.5,162.989)">
    <path d="M32.263,73.079L34.031,73.189L35.799,73.298L37.567,73.407L39.335,73.513L41.103,73.616L42.871,73.714L44.638,73.807L46.406,73.892L48.174,73.967L49.942,74.031L51.71,74.083L53.478,74.123L55.246,74.152L57.013,74.175L58.781,74.196L60.549,74.221L62.317,74.254L64.085,74.294L65.853,74.344L67.621,74.403L69.388,74.469L71.156,74.542L72.924,74.621L74.692,74.706L76.46,74.795L78.228,74.888L79.996,74.985L81.763,75.085L83.531,75.188L85.299,75.294L87.067,75.402L88.835,75.512L90.603,75.625L92.371,75.739L94.138,75.855L95.906,75.973L97.674,76.093L99.442,76.214L101.21,76.336L102.978,76.46" style="fill:none;fill-rule:nonzero;stroke:rgb(44,49,114);stroke-width:0.88px;stroke-linecap:butt;"/>
  </g>
  <g transform="matrix(0.75,0,0,-0.75,0,88.2611)">
    <rect x="177.667" y="11.351" width="107" height="94.979" style="fill:white;"/>
  </g>
  <g transform="matrix(1.13131,0,0,-1.13906,-22.5,166.84)">
    <path d="M137.672,76.46L208.607,76.46" style="fill:none;fill-rule:nonzero;stroke:rgb(38,38,38);stroke-width:0.22px;"/>
  </g>
  <g transform="matrix(1.13131,0,0,-1.13906,-22.5,24.3712)">
    <path d="M137.672,13.922L208.607,13.922" style="fill:none;fill-rule:nonzero;stroke:rgb(38,38,38);stroke-width:0.22px;"/>
  </g>
  <g transform="matrix(0,-1.13906,1.13131,0,47.1512,236.16)">
    <path d="M137.317,76.105L138.027,76.105" style="fill:none;fill-rule:nonzero;stroke:rgb(38,38,38);stroke-width:0.22px;"/>
  </g>
  <g transform="matrix(0,-1.13906,1.13131,0,63.2012,252.32)">
    <path d="M151.504,76.105L152.214,76.105" style="fill:none;fill-rule:nonzero;stroke:rgb(38,38,38);stroke-width:0.22px;"/>
  </g>
  <g transform="matrix(0,-1.13906,1.13131,0,79.2513,268.48)">
    <path d="M165.691,76.105L166.401,76.105" style="fill:none;fill-rule:nonzero;stroke:rgb(38,38,38);stroke-width:0.22px;"/>
  </g>
  <g transform="matrix(0,-1.13906,1.13131,0,95.3013,284.64)">
    <path d="M179.878,76.105L180.588,76.105" style="fill:none;fill-rule:nonzero;stroke:rgb(38,38,38);stroke-width:0.22px;"/>
  </g>
  <g transform="matrix(0,-1.13906,1.13131,0,111.351,300.8)">
    <path d="M194.065,76.105L194.775,76.105" style="fill:none;fill-rule:nonzero;stroke:rgb(38,38,38);stroke-width:0.22px;"/>
  </g>
  <g transform="matrix(0,-1.13906,1.13131,0,127.401,316.96)">
    <path d="M208.252,76.105L208.962,76.105" style="fill:none;fill-rule:nonzero;stroke:rgb(38,38,38);stroke-width:0.22px;"/>
  </g>
  <g transform="matrix(0,1.13906,-1.13131,0,149.401,-147.899)">
    <path d="M137.317,14.277L138.027,14.277" style="fill:none;fill-rule:nonzero;stroke:rgb(38,38,38);stroke-width:0.22px;"/>
  </g>
  <g transform="matrix(0,1.13906,-1.13131,0,165.451,-164.059)">
    <path d="M151.504,14.277L152.214,14.277" style="fill:none;fill-rule:nonzero;stroke:rgb(38,38,38);stroke-width:0.22px;"/>
  </g>
  <g transform="matrix(0,1.13906,-1.13131,0,181.501,-180.219)">
    <path d="M165.691,14.277L166.401,14.277" style="fill:none;fill-rule:nonzero;stroke:rgb(38,38,38);stroke-width:0.22px;"/>
  </g>
  <g transform="matrix(0,1.13906,-1.13131,0,197.551,-196.379)">
    <path d="M179.878,14.277L180.588,14.277" style="fill:none;fill-rule:nonzero;stroke:rgb(38,38,38);stroke-width:0.22px;"/>
  </g>
  <g transform="matrix(0,1.13906,-1.13131,0,213.601,-212.539)">
    <path d="M194.065,14.277L194.775,14.277" style="fill:none;fill-rule:nonzero;stroke:rgb(38,38,38);stroke-width:0.22px;"/>
  </g>
  <g transform="matrix(0,1.13906,-1.13131,0,229.651,-228.699)">
    <path d="M208.252,14.277L208.962,14.277" style="fill:none;fill-rule:nonzero;stroke:rgb(38,38,38);stroke-width:0.22px;"/>
  </g>
  <g transform="matrix(0,-1.13906,1.13131,0,82.125,200.947)">
    <path d="M106.403,45.191L168.941,45.191" style="fill:none;fill-rule:nonzero;stroke:rgb(38,38,38);stroke-width:0.22px;"/>
  </g>
  <g transform="matrix(0,-1.13906,1.13131,0,162.375,281.747)">
    <path d="M177.338,45.191L239.876,45.191" style="fill:none;fill-rule:nonzero;stroke:rgb(38,38,38);stroke-width:0.22px;"/>
  </g>
  <g transform="matrix(1.13131,0,0,-1.13906,-22.5,166.84)">
    <path d="M137.672,76.46L138.381,76.46" style="fill:none;fill-rule:nonzero;stroke:rgb(38,38,38);stroke-width:0.22px;"/>
  </g>
  <g transform="matrix(1.13131,0,0,-1.13906,-22.5,24.3712)">
    <path d="M137.672,13.922L138.381,13.922" style="fill:none;fill-rule:nonzero;stroke:rgb(38,38,38);stroke-width:0.22px;"/>
  </g>
  <g transform="matrix(-1.13131,0,0,-1.13906,448.697,166.84)">
    <path d="M207.898,76.46L208.607,76.46" style="fill:none;fill-rule:nonzero;stroke:rgb(38,38,38);stroke-width:0.22px;"/>
  </g>
  <g transform="matrix(-1.13131,0,0,-1.13906,448.697,24.3712)">
    <path d="M207.898,13.922L208.607,13.922" style="fill:none;fill-rule:nonzero;stroke:rgb(38,38,38);stroke-width:0.22px;"/>
  </g>
  <g transform="matrix(1.13131,0,0,-1.13906,-22.5,155.258)">
    <path d="M137.672,66.292L139.445,66.302L141.219,66.314L142.992,66.328L144.765,66.344L146.539,66.363L148.312,66.387L150.086,66.416L151.859,66.453L153.632,66.5L155.406,66.562L157.179,66.644L158.952,66.751L160.726,66.886L162.499,67.054L164.273,67.254L166.046,67.485L167.819,67.743L169.593,68.026L171.366,68.329L173.14,68.649L174.913,68.985L176.686,69.333L178.46,69.691L180.233,70.057L182.006,70.432L183.78,70.812L185.553,71.197L187.327,71.587L189.1,71.981L190.873,72.378L192.647,72.778L194.42,73.18L196.193,73.585L197.967,73.991L199.74,74.399L201.514,74.809L203.287,75.22L205.06,75.632L206.834,76.046L208.607,76.46" style="fill:none;fill-rule:nonzero;stroke:rgb(165,205,144);stroke-width:0.88px;stroke-linecap:butt;"/>
  </g>
  <g transform="matrix(1.13131,0,0,-1.13906,-22.5,103.602)">
    <path d="M137.672,20.942L139.445,20.989L141.219,21.06L142.992,21.16L144.765,21.297L146.539,21.479L148.312,21.72L150.086,22.037L151.859,22.454L153.632,23.003L155.406,23.72L157.179,24.645L158.952,25.809L160.726,27.218L162.499,28.847L164.273,30.646L166.046,32.561L167.819,34.539L169.593,36.544L171.366,38.549L173.14,40.54L174.913,42.509L176.686,44.451L178.46,46.366L180.233,48.256L182.006,50.122L183.78,51.966L185.553,53.791L187.327,55.598L189.1,57.39L190.873,59.168L192.647,60.933L194.42,62.688L196.193,64.434L197.967,66.171L199.74,67.9L201.514,69.623L203.287,71.339L205.06,73.051L206.834,74.757L208.607,76.46" style="fill:none;fill-rule:nonzero;stroke:rgb(52,133,141);stroke-width:0.88px;stroke-linecap:butt;"/>
  </g>
  <g transform="matrix(1.13131,0,0,-1.13906,-22.5,95.5972)">
    <path d="M137.672,13.914L139.445,14.036L141.219,14.184L142.992,14.363L144.765,14.581L146.539,14.848L148.312,15.181L150.086,15.602L151.859,16.146L153.632,16.864L155.406,17.827L157.179,19.132L158.952,20.896L160.726,23.234L162.499,26.236L164.273,29.951L166.046,34.379L167.819,39.487L169.593,45.22L171.366,51.516L173.14,58.309L174.913,65.537L176.686,73.145L177.427,76.46" style="fill:none;fill-rule:nonzero;stroke:rgb(44,49,114);stroke-width:0.88px;stroke-linecap:butt;"/>
  </g>
  <g transform="matrix(-0.75,0,0,-0.75,467,36.1567)">
    <rect x="290" y="11.351" width="42.667" height="25.507" style="fill:white;"/>
  </g>
  <g transform="matrix(1.13131,0,0,-1.13906,-22.5,31.9226)">
    <path d="M213.911,17.237L227.17,17.237" style="fill:none;fill-rule:nonzero;stroke:rgb(165,205,144);stroke-width:0.88px;stroke-linecap:butt;"/>
  </g>
  <g transform="matrix(1.13131,0,0,-1.13906,-22.5,43.5013)">
    <path d="M213.911,22.319L227.17,22.319" style="fill:none;fill-rule:nonzero;stroke:rgb(52,133,141);stroke-width:0.88px;stroke-linecap:butt;"/>
  </g>
  <g transform="matrix(1.13131,0,0,-1.13906,-22.5,55.0801)">
    <path d="M213.911,27.402L227.17,27.402" style="fill:none;fill-rule:nonzero;stroke:rgb(44,49,114);stroke-width:0.88px;stroke-linecap:butt;"/>
  </g>
  <g transform="matrix(0,-1,1,0,0,0)">
    <g transform="matrix(1.00685,0,0,1,0.450387,0)">
      <g transform="matrix(5.65657,0,0,5.65657,-22.8458,8.82071)"/>
      <text x="-65.773px" y="8.821px" style="font-family: ArialMT, Arial, sans-serif; font-size: 5.657px; fill: rgb(38, 38, 38); white-space: pre;">Expression <tspan x="-36.329px " y="8.821px ">L</tspan>evel</text>
    </g>
  </g>
  <g>
    <g transform="matrix(0.993199,0,0,1,0.232611,0)">
      <text x="34.202px" y="6.005px" style="font-family: ArialMT, Arial, sans-serif; font-size: 5.695px; white-space: pre;">W<tspan x="39.465px " y="6.005px ">e</tspan>ak <tspan x="49.878px 53.667px " y="6.005px 6.005px ">Ac</tspan>tivation</text>
    </g>
    <g transform="matrix(0.993199,0,0,1,0.0136021,0)">
      <g transform="matrix(7.97342,0,0,7.97342,7.31821,8.17305)"/>
      <text x="2px" y="8.173px" style="font-family: ArialMT, Arial, sans-serif; font-size: 7.973px; white-space: pre;">A</text>
    </g>
  </g>
  <g>
    <g transform="matrix(0.993199,0,0,1,1.03679,0)">
      <text x="152.446px" y="6.005px" style="font-family: ArialMT, Arial, sans-serif; font-size: 5.695px; white-space: pre;">Strong <tspan x="170.416px 174.203px " y="6.005px 6.005px ">Ac</tspan>tivation</text>
    </g>
    <g transform="matrix(0.993199,0,0,1,0.824374,0)">
      <g transform="matrix(7.97342,0,0,7.97342,126.531,8.17305)"/>
      <text x="121.212px" y="8.173px" style="font-family: ArialMT, Arial, sans-serif; font-size: 7.973px; white-space: pre;">B</text>
    </g>
  </g>
  <g>
    <g transform="matrix(0.993199,0,0,1,1.60505,0)">
      <text x="236px" y="13.553px" style="font-family: ArialMT, Arial, sans-serif; font-size: 4.556px; white-space: pre;">QS 1</text>
    </g>
    <g transform="matrix(0.993199,0,0,1,1.60505,0)">
      <text x="236px" y="19.339px" style="font-family: ArialMT, Arial, sans-serif; font-size: 4.556px; white-space: pre;">QS 2</text>
    </g>
    <g transform="matrix(0.993199,0,0,1,1.60505,0)">
      <g transform="matrix(4.55624,0,0,4.55624,246.359,25.1252)"/>
      <text x="236px" y="25.125px" style="font-family: ArialMT, Arial, sans-serif; font-size: 4.556px; white-space: pre;">QS 3</text>
    </g>
  </g>
  <g transform="matrix(0.993199,0,0,1,0.205681,0)">
    <g transform="matrix(5.6953,0,0,5.6953,77.5358,188.597)"/>
    <text x="30.242px" y="188.597px" style="font-family: ArialMT, Arial, sans-serif; font-size: 5.695px; fill: rgb(38, 38, 38); white-space: pre;">Populatio<tspan x="53.888px " y="188.597px ">n</tspan> Density</text>
  </g>
  <g transform="matrix(0,-1,1,0,0,0)">
    <g transform="matrix(1.00685,0,0,1,1.14243,0)">
      <g transform="matrix(5.65657,0,0,5.65657,-123.908,8.82071)"/>
      <text x="-166.835px" y="8.821px" style="font-family: ArialMT, Arial, sans-serif; font-size: 5.657px; fill: rgb(38, 38, 38); white-space: pre;">Expression <tspan x="-137.391px " y="8.821px ">L</tspan>evel</text>
    </g>
  </g>
  <g>
    <g transform="matrix(0.993199,0,0,1,0.217222,0)">
      <text x="31.939px" y="106.941px" style="font-family: ArialMT, Arial, sans-serif; font-size: 5.695px; white-space: pre;">Limited <tspan x="51.485px 55.274px " y="106.941px 106.941px ">Ac</tspan>tivation</text>
    </g>
    <g transform="matrix(0.993199,0,0,1,0.0136021,0)">
      <g transform="matrix(7.97342,0,0,7.97342,7.75815,109.097)"/>
      <text x="2px" y="109.097px" style="font-family: ArialMT, Arial, sans-serif; font-size: 7.973px; white-space: pre;">C</text>
    </g>
  </g>
  <g transform="matrix(0.993199,0,0,1,1.01756,0)">
    <g transform="matrix(5.6953,0,0,5.6953,196.911,188.597)"/>
    <text x="149.617px" y="188.597px" style="font-family: ArialMT, Arial, sans-serif; font-size: 5.695px; fill: rgb(38, 38, 38); white-space: pre;">Populatio<tspan x="173.263px " y="188.597px ">n</tspan> Density</text>
  </g>
  <g>
    <g transform="matrix(0.993199,0,0,1,1.01756,0)">
      <text x="149.618px" y="106.941px" style="font-family: ArialMT, Arial, sans-serif; font-size: 5.695px; white-space: pre;">Damped <tspan x="172.337px 176.125px " y="106.941px 106.941px ">Ac</tspan>tivation</text>
    </g>
    <g transform="matrix(0.993199,0,0,1,0.824374,0)">
      <g transform="matrix(7.97342,0,0,7.97342,126.971,109.097)"/>
      <text x="121.212px" y="109.097px" style="font-family: ArialMT, Arial, sans-serif; font-size: 7.973px; white-space: pre;">D</text>
    </g>
  </g>
  <g transform="matrix(0,-1.13906,1.13131,0,208.25,275.831)">
    <rect x="217.888" y="8.176" width="16.795" height="28.286" style="fill:none;stroke:rgb(38,38,38);stroke-width:0.22px;stroke-linecap:butt;stroke-linejoin:miter;stroke-miterlimit:2;"/>
  </g>
  <g transform="matrix(0.75,0,0,-0.75,0,290.386)">
    <rect x="18.667" y="145.933" width="106.667" height="95.315" style="fill:white;"/>
  </g>
  <g transform="matrix(1.13131,0,0,-1.13906,-22.5,369.217)">
    <path d="M32.263,165.295L102.978,165.295" style="fill:none;fill-rule:nonzero;stroke:rgb(38,38,38);stroke-width:0.22px;"/>
  </g>
  <g transform="matrix(1.13131,0,0,-1.13906,-22.5,226.244)">
    <path d="M32.263,102.536L102.978,102.536" style="fill:none;fill-rule:nonzero;stroke:rgb(38,38,38);stroke-width:0.22px;"/>
  </g>
  <g transform="matrix(0,-1.13906,1.13131,0,-172.6,217.283)">
    <path d="M31.91,164.941L32.617,164.941" style="fill:none;fill-rule:nonzero;stroke:rgb(38,38,38);stroke-width:0.22px;"/>
  </g>
  <g transform="matrix(0,-1.13906,1.13131,0,-132.6,257.557)">
    <path d="M67.267,164.941L67.974,164.941" style="fill:none;fill-rule:nonzero;stroke:rgb(38,38,38);stroke-width:0.22px;"/>
  </g>
  <g transform="matrix(0,-1.13906,1.13131,0,-92.6,297.831)">
    <path d="M102.624,164.941L103.331,164.941" style="fill:none;fill-rule:nonzero;stroke:rgb(38,38,38);stroke-width:0.22px;"/>
  </g>
  <g transform="matrix(0,1.13906,-1.13131,0,130.4,73.1026)">
    <path d="M31.91,102.889L32.617,102.889" style="fill:none;fill-rule:nonzero;stroke:rgb(38,38,38);stroke-width:0.22px;"/>
  </g>
  <g transform="matrix(0,1.13906,-1.13131,0,170.4,32.8287)">
    <path d="M67.267,102.889L67.974,102.889" style="fill:none;fill-rule:nonzero;stroke:rgb(38,38,38);stroke-width:0.22px;"/>
  </g>
  <g transform="matrix(0,1.13906,-1.13131,0,210.4,-7.44517)">
    <path d="M102.624,102.889L103.331,102.889" style="fill:none;fill-rule:nonzero;stroke:rgb(38,38,38);stroke-width:0.22px;"/>
  </g>
  <g transform="matrix(0,-1.13906,1.13131,0,-137.5,181.943)">
    <path d="M0.884,133.915L63.643,133.915" style="fill:none;fill-rule:nonzero;stroke:rgb(38,38,38);stroke-width:0.22px;"/>
  </g>
  <g transform="matrix(0,-1.13906,1.13131,0,-57.5,262.491)">
    <path d="M71.598,133.915L134.357,133.915" style="fill:none;fill-rule:nonzero;stroke:rgb(38,38,38);stroke-width:0.22px;"/>
  </g>
  <g transform="matrix(1.13131,0,0,-1.13906,-22.5,369.217)">
    <path d="M32.263,165.295L32.971,165.295" style="fill:none;fill-rule:nonzero;stroke:rgb(38,38,38);stroke-width:0.22px;"/>
  </g>
  <g transform="matrix(1.13131,0,0,-1.13906,-22.5,333.473)">
    <path d="M32.263,149.605L32.971,149.605" style="fill:none;fill-rule:nonzero;stroke:rgb(38,38,38);stroke-width:0.22px;"/>
  </g>
  <g transform="matrix(1.13131,0,0,-1.13906,-22.5,297.73)">
    <path d="M32.263,133.915L32.971,133.915" style="fill:none;fill-rule:nonzero;stroke:rgb(38,38,38);stroke-width:0.22px;"/>
  </g>
  <g transform="matrix(1.13131,0,0,-1.13906,-22.5,261.987)">
    <path d="M32.263,118.225L32.971,118.225" style="fill:none;fill-rule:nonzero;stroke:rgb(38,38,38);stroke-width:0.22px;"/>
  </g>
  <g transform="matrix(1.13131,0,0,-1.13906,-22.5,226.244)">
    <path d="M32.263,102.536L32.971,102.536" style="fill:none;fill-rule:nonzero;stroke:rgb(38,38,38);stroke-width:0.22px;"/>
  </g>
  <g transform="matrix(-1.13131,0,0,-1.13906,209.7,369.217)">
    <path d="M102.271,165.295L102.978,165.295" style="fill:none;fill-rule:nonzero;stroke:rgb(38,38,38);stroke-width:0.22px;"/>
  </g>
  <g transform="matrix(-1.13131,0,0,-1.13906,209.7,333.473)">
    <path d="M102.271,149.605L102.978,149.605" style="fill:none;fill-rule:nonzero;stroke:rgb(38,38,38);stroke-width:0.22px;"/>
  </g>
  <g transform="matrix(-1.13131,0,0,-1.13906,209.7,297.73)">
    <path d="M102.271,133.915L102.978,133.915" style="fill:none;fill-rule:nonzero;stroke:rgb(38,38,38);stroke-width:0.22px;"/>
  </g>
  <g transform="matrix(-1.13131,0,0,-1.13906,209.7,261.987)">
    <path d="M102.271,118.225L102.978,118.225" style="fill:none;fill-rule:nonzero;stroke:rgb(38,38,38);stroke-width:0.22px;"/>
  </g>
  <g transform="matrix(-1.13131,0,0,-1.13906,209.7,226.244)">
    <path d="M102.271,102.536L102.978,102.536" style="fill:none;fill-rule:nonzero;stroke:rgb(38,38,38);stroke-width:0.22px;"/>
  </g>
  <g transform="matrix(1.13131,0,0,-1.13906,-22.5,357.622)">
    <path d="M32.263,155.116L34.031,155.126L35.799,155.138L37.567,155.152L39.335,155.168L41.103,155.188L42.871,155.211L44.638,155.241L46.406,155.278L48.174,155.326L49.942,155.388L51.71,155.47L53.478,155.575L55.246,155.709L57.013,155.874L58.781,156.071L60.549,156.299L62.317,156.555L64.085,156.836L65.853,157.139L67.621,157.459L69.388,157.795L71.156,158.144L72.924,158.503L74.692,158.871L76.46,159.246L78.228,159.627L79.996,160.014L81.763,160.405L83.531,160.8L85.299,161.199L87.067,161.6L88.835,162.004L90.603,162.41L92.371,162.818L94.138,163.227L95.906,163.638L97.674,164.051L99.442,164.464L101.21,164.879L102.978,165.295" style="fill:none;fill-rule:nonzero;stroke:rgb(165,205,144);stroke-width:0.88px;stroke-linecap:butt;"/>
  </g>
  <g transform="matrix(1.13131,0,0,-1.13906,-22.5,307.8)">
    <path d="M32.263,111.376L34.031,111.423L35.799,111.495L37.567,111.598L39.335,111.739L41.103,111.928L42.871,112.177L44.638,112.505L46.406,112.933L48.174,113.488L49.942,114.201L51.71,115.104L53.478,116.221L55.246,117.557L57.013,119.095L58.781,120.797L60.549,122.616L62.317,124.507L64.085,126.434L65.853,128.369L67.621,130.297L69.388,132.208L71.156,134.097L72.924,135.963L74.692,137.805L76.46,139.625L78.228,141.425L79.996,143.206L81.763,144.97L83.531,146.719L85.299,148.455L87.067,150.178L88.835,151.89L90.603,153.592L92.371,155.285L94.138,156.97L95.906,158.648L97.674,160.319L99.442,161.983L101.21,163.642L102.978,165.295" style="fill:none;fill-rule:nonzero;stroke:rgb(52,133,141);stroke-width:0.88px;stroke-linecap:butt;"/>
  </g>
  <g transform="matrix(1.13131,0,0,-1.13906,-22.5,337.12)">
    <path d="M32.263,137.116L34.031,137.244L35.799,137.411L37.567,137.62L39.335,137.881L41.103,138.203L42.871,138.599L44.638,139.087L46.406,139.691L48.174,140.436L49.942,141.351L51.71,142.455L53.478,143.752L55.246,145.215L57.013,146.791L58.781,148.411L60.549,150.012L62.317,151.547L64.085,152.986L65.853,154.319L67.621,155.543L69.388,156.661L71.156,157.681L72.924,158.61L74.692,159.454L76.46,160.221L78.228,160.917L79.996,161.548L81.763,162.117L83.531,162.63L85.299,163.089L87.067,163.498L88.835,163.859L90.603,164.176L92.371,164.45L94.138,164.683L95.906,164.877L97.674,165.034L99.442,165.155L101.21,165.241L102.978,165.295" style="fill:none;fill-rule:nonzero;stroke:rgb(44,49,114);stroke-width:0.88px;stroke-linecap:butt;"/>
  </g>
  <g transform="matrix(0.75,0,0,-0.75,0,290.386)">
    <rect x="177.667" y="145.933" width="107" height="95.315" style="fill:white;"/>
  </g>
  <g transform="matrix(1.13131,0,0,-1.13906,-22.5,369.217)">
    <path d="M137.672,165.295L208.607,165.295" style="fill:none;fill-rule:nonzero;stroke:rgb(38,38,38);stroke-width:0.22px;"/>
  </g>
  <g transform="matrix(1.13131,0,0,-1.13906,-22.5,226.244)">
    <path d="M137.672,102.536L208.607,102.536" style="fill:none;fill-rule:nonzero;stroke:rgb(38,38,38);stroke-width:0.22px;"/>
  </g>
  <g transform="matrix(0,-1.13906,1.13131,0,-53.3488,337.349)">
    <path d="M137.317,164.94L138.027,164.94" style="fill:none;fill-rule:nonzero;stroke:rgb(38,38,38);stroke-width:0.22px;"/>
  </g>
  <g transform="matrix(0,-1.13906,1.13131,0,-13.2238,377.748)">
    <path d="M172.785,164.94L173.494,164.94" style="fill:none;fill-rule:nonzero;stroke:rgb(38,38,38);stroke-width:0.22px;"/>
  </g>
  <g transform="matrix(0,-1.13906,1.13131,0,26.9012,418.148)">
    <path d="M208.252,164.94L208.962,164.94" style="fill:none;fill-rule:nonzero;stroke:rgb(38,38,38);stroke-width:0.22px;"/>
  </g>
  <g transform="matrix(0,1.13906,-1.13131,0,249.651,-46.9627)">
    <path d="M137.317,102.89L138.027,102.89" style="fill:none;fill-rule:nonzero;stroke:rgb(38,38,38);stroke-width:0.22px;"/>
  </g>
  <g transform="matrix(0,1.13906,-1.13131,0,289.776,-87.3624)">
    <path d="M172.785,102.89L173.494,102.89" style="fill:none;fill-rule:nonzero;stroke:rgb(38,38,38);stroke-width:0.22px;"/>
  </g>
  <g transform="matrix(0,1.13906,-1.13131,0,329.901,-127.762)">
    <path d="M208.252,102.89L208.962,102.89" style="fill:none;fill-rule:nonzero;stroke:rgb(38,38,38);stroke-width:0.22px;"/>
  </g>
  <g transform="matrix(0,-1.13906,1.13131,0,-18.25,302.009)">
    <path d="M106.292,133.915L169.051,133.915" style="fill:none;fill-rule:nonzero;stroke:rgb(38,38,38);stroke-width:0.22px;"/>
  </g>
  <g transform="matrix(0,-1.13906,1.13131,0,62,382.809)">
    <path d="M177.228,133.915L239.987,133.915" style="fill:none;fill-rule:nonzero;stroke:rgb(38,38,38);stroke-width:0.22px;"/>
  </g>
  <g transform="matrix(1.13131,0,0,-1.13906,-22.5,369.217)">
    <path d="M137.672,165.295L138.381,165.295" style="fill:none;fill-rule:nonzero;stroke:rgb(38,38,38);stroke-width:0.22px;"/>
  </g>
  <g transform="matrix(1.13131,0,0,-1.13906,-22.5,333.473)">
    <path d="M137.672,149.605L138.381,149.605" style="fill:none;fill-rule:nonzero;stroke:rgb(38,38,38);stroke-width:0.22px;"/>
  </g>
  <g transform="matrix(1.13131,0,0,-1.13906,-22.5,297.73)">
    <path d="M137.672,133.915L138.381,133.915" style="fill:none;fill-rule:nonzero;stroke:rgb(38,38,38);stroke-width:0.22px;"/>
  </g>
  <g transform="matrix(1.13131,0,0,-1.13906,-22.5,261.987)">
    <path d="M137.672,118.225L138.381,118.225" style="fill:none;fill-rule:nonzero;stroke:rgb(38,38,38);stroke-width:0.22px;"/>
  </g>
  <g transform="matrix(1.13131,0,0,-1.13906,-22.5,226.244)">
    <path d="M137.672,102.536L138.381,102.536" style="fill:none;fill-rule:nonzero;stroke:rgb(38,38,38);stroke-width:0.22px;"/>
  </g>
  <g transform="matrix(-1.13131,0,0,-1.13906,448.697,369.217)">
    <path d="M207.898,165.295L208.607,165.295" style="fill:none;fill-rule:nonzero;stroke:rgb(38,38,38);stroke-width:0.22px;"/>
  </g>
  <g transform="matrix(-1.13131,0,0,-1.13906,448.697,333.473)">
    <path d="M207.898,149.605L208.607,149.605" style="fill:none;fill-rule:nonzero;stroke:rgb(38,38,38);stroke-width:0.22px;"/>
  </g>
  <g transform="matrix(-1.13131,0,0,-1.13906,448.697,297.73)">
    <path d="M207.898,133.915L208.607,133.915" style="fill:none;fill-rule:nonzero;stroke:rgb(38,38,38);stroke-width:0.22px;"/>
  </g>
  <g transform="matrix(-1.13131,0,0,-1.13906,448.697,261.987)">
    <path d="M207.898,118.225L208.607,118.225" style="fill:none;fill-rule:nonzero;stroke:rgb(38,38,38);stroke-width:0.22px;"/>
  </g>
  <g transform="matrix(-1.13131,0,0,-1.13906,448.697,226.244)">
    <path d="M207.898,102.536L208.607,102.536" style="fill:none;fill-rule:nonzero;stroke:rgb(38,38,38);stroke-width:0.22px;"/>
  </g>
  <g transform="matrix(1.13131,0,0,-1.13906,-22.5,357.638)">
    <path d="M137.672,155.13L139.445,155.14L141.219,155.153L142.992,155.166L144.765,155.183L146.539,155.203L148.312,155.228L150.086,155.259L151.859,155.299L153.632,155.35L155.406,155.417L157.179,155.503L158.952,155.612L160.726,155.749L162.499,155.915L164.273,156.113L166.046,156.34L167.819,156.596L169.593,156.875L171.366,157.176L173.14,157.496L174.913,157.83L176.686,158.177L178.46,158.535L180.233,158.902L182.006,159.276L183.78,159.656L185.553,160.042L187.327,160.432L189.1,160.826L190.873,161.223L192.647,161.623L194.42,162.025L196.193,162.429L197.967,162.836L199.74,163.243L201.514,163.652L203.287,164.062L205.06,164.472L206.834,164.883L208.607,165.295" style="fill:none;fill-rule:nonzero;stroke:rgb(165,205,144);stroke-width:0.88px;stroke-linecap:butt;"/>
  </g>
  <g transform="matrix(1.13131,0,0,-1.13906,-22.5,308.908)">
    <path d="M137.672,112.349L139.445,112.397L141.219,112.475L142.992,112.595L144.765,112.766L146.539,113.001L148.312,113.315L150.086,113.725L151.859,114.249L153.632,114.909L155.406,115.729L157.179,116.728L158.952,117.92L160.726,119.305L162.499,120.866L164.273,122.572L166.046,124.383L167.819,126.261L169.593,128.171L171.366,130.092L173.14,132.005L174.913,133.901L176.686,135.776L178.46,137.627L180.233,139.453L182.006,141.255L183.78,143.034L185.553,144.79L187.327,146.524L189.1,148.238L190.873,149.93L192.647,151.602L194.42,153.252L196.193,154.879L197.967,156.48L199.74,158.054L201.514,159.595L203.287,161.098L205.06,162.555L206.834,163.958L208.607,165.295" style="fill:none;fill-rule:nonzero;stroke:rgb(52,133,141);stroke-width:0.88px;stroke-linecap:butt;"/>
  </g>
  <g transform="matrix(1.13131,0,0,-1.13906,-22.5,316.252)">
    <path d="M137.672,118.796L139.445,118.972L141.219,119.287L142.992,119.751L144.765,120.383L146.539,121.209L148.312,122.268L150.086,123.615L151.859,125.316L153.632,127.443L155.406,130.058L157.179,133.184L158.952,136.775L160.726,140.703L162.499,144.769L164.273,148.749L166.046,152.448L167.819,155.73L169.593,158.523L171.366,160.805L173.14,162.584L174.913,163.889L176.686,164.752L178.46,165.21L180.233,165.295L182.006,165.038L183.78,164.466L185.553,163.605L187.327,162.477L189.1,161.101L190.873,159.497L192.647,157.682L194.42,155.673L196.193,153.488L197.967,151.144L199.74,148.662L201.514,146.061L203.287,143.368L205.06,140.613L206.834,137.83L208.607,135.063" style="fill:none;fill-rule:nonzero;stroke:rgb(44,49,114);stroke-width:0.88px;stroke-linecap:butt;"/>
  </g>
  <g transform="matrix(-0.75,0,0,-0.75,467,238.03)">
    <rect x="290" y="145.933" width="42.667" height="25.507" style="fill:white;"/>
  </g>
  <g>
    <g transform="matrix(0.993199,0,0,1,1.60505,0)">
      <text x="236px" y="114.489px" style="font-family: ArialMT, Arial, sans-serif; font-size: 4.556px; white-space: pre;">QS 1</text>
    </g>
    <g transform="matrix(0.993199,0,0,1,1.60505,0)">
      <text x="236px" y="120.275px" style="font-family: ArialMT, Arial, sans-serif; font-size: 4.556px; white-space: pre;">QS 2</text>
    </g>
    <g transform="matrix(0.993199,0,0,1,1.60505,0)">
      <g transform="matrix(4.55624,0,0,4.55624,246.359,126.062)"/>
      <text x="236px" y="126.062px" style="font-family: ArialMT, Arial, sans-serif; font-size: 4.556px; white-space: pre;">QS 3</text>
    </g>
  </g>
  <g transform="matrix(1.13131,0,0,-1.13906,-22.5,233.796)">
    <path d="M213.911,105.85L227.17,105.85" style="fill:none;fill-rule:nonzero;stroke:rgb(165,205,144);stroke-width:0.88px;stroke-linecap:butt;"/>
  </g>
  <g transform="matrix(1.13131,0,0,-1.13906,-22.5,245.374)">
    <path d="M213.911,110.933L227.17,110.933" style="fill:none;fill-rule:nonzero;stroke:rgb(52,133,141);stroke-width:0.88px;stroke-linecap:butt;"/>
  </g>
  <g transform="matrix(1.13131,0,0,-1.13906,-22.5,256.953)">
    <path d="M213.911,116.016L227.17,116.016" style="fill:none;fill-rule:nonzero;stroke:rgb(44,49,114);stroke-width:0.88px;stroke-linecap:butt;"/>
  </g>
  <g transform="matrix(0,-1.13906,1.13131,0,108,376.768)">
    <rect x="217.888" y="96.79" width="16.795" height="28.286" style="fill:none;stroke:rgb(38,38,38);stroke-width:0.22px;stroke-linecap:butt;stroke-linejoin:miter;stroke-miterlimit:2;"/>
  </g>
</svg>