<?xml version="1.0" encoding="UTF-8" standalone="no"?>
<!-- This is a Stata 17.0 generated SVG file (http://www.stata.com) -->

<svg version="1.1" width="8.250in" height="3.750in" viewBox="0 0 5940 2700" xmlns="http://www.w3.org/2000/svg" xmlns:xlink="http://www.w3.org/1999/xlink">
	<desc>Stata Graph - lasb_heat</desc>
	<rect x="0" y="0" width="5940" height="2700" style="fill:#FFFFFF;stroke:none"/>
	<rect x="0.00" y="0.00" width="5939.81" height="2700.00" style="fill:#FFFFFF"/>
	<rect x="2.70" y="2.70" width="5934.41" height="2694.60" style="fill:none;stroke:#FFFFFF;stroke-width:5.40"/>
	<rect x="59.40" y="59.40" width="2910.41" height="2581.20" style="fill:#FFFFFF"/>
	<rect x="61.42" y="61.43" width="2906.36" height="2577.15" style="fill:none;stroke:#FFFFFF;stroke-width:4.05"/>
	<defs>
		<path id="path_aDpsjqOc" d="M422.85 1559.67 L422.85 1559.67 L422.85 1818.62 L668.81 1818.62 L668.81 1559.67 L422.85 1559.67 Z" stroke-linejoin="round"/>
	</defs>
	<defs>
		<clipPath id="clipPath_nnlObsOL">
			<use xlink:href="#path_aDpsjqOc"/>
		</clipPath>
	</defs>
	<use xlink:href="#path_aDpsjqOc" style="stroke:none;fill:#4B2362"/>
	<use xlink:href="#path_aDpsjqOc" style="fill:none;stroke:#4B2362;stroke-width:12.15" clip-path="url(#clipPath_nnlObsOL)"/>
	<defs>
		<path id="path_LiGjhtsX" d="M422.85 1818.62 L422.85 1818.62 L422.85 1818.62 L422.85 2077.39 L668.81 2077.39 L668.81 1818.62 L422.85 1818.62 Z" stroke-linejoin="round"/>
	</defs>
	<defs>
		<clipPath id="clipPath_FxmdlImW">
			<use xlink:href="#path_LiGjhtsX"/>
		</clipPath>
	</defs>
	<use xlink:href="#path_LiGjhtsX" style="stroke:none;fill:#4B2362"/>
	<use xlink:href="#path_LiGjhtsX" style="fill:none;stroke:#4B2362;stroke-width:12.15" clip-path="url(#clipPath_FxmdlImW)"/>
	<defs>
		<path id="path_FnUkRHvq" d="M422.85 2077.39 L422.85 2077.39 L422.85 2077.39 L422.85 2336.16 L668.81 2336.16 L668.81 2077.39 L422.85 2077.39 Z" stroke-linejoin="round"/>
	</defs>
	<defs>
		<clipPath id="clipPath_kCPisfTR">
			<use xlink:href="#path_FnUkRHvq"/>
		</clipPath>
	</defs>
	<use xlink:href="#path_FnUkRHvq" style="stroke:none;fill:#4B2362"/>
	<use xlink:href="#path_FnUkRHvq" style="fill:none;stroke:#4B2362;stroke-width:12.15" clip-path="url(#clipPath_kCPisfTR)"/>
	<defs>
		<path id="path_vnrgthoz" d="M668.81 2077.39 L668.81 2077.39 L668.81 2077.39 L668.81 2336.16 L914.57 2336.16 L914.57 2077.39 L668.81 2077.39 Z" stroke-linejoin="round"/>
	</defs>
	<defs>
		<clipPath id="clipPath_GJVbwFZp">
			<use xlink:href="#path_vnrgthoz"/>
		</clipPath>
	</defs>
	<use xlink:href="#path_vnrgthoz" style="stroke:none;fill:#4B2362"/>
	<use xlink:href="#path_vnrgthoz" style="fill:none;stroke:#4B2362;stroke-width:12.15" clip-path="url(#clipPath_GJVbwFZp)"/>
	<defs>
		<path id="path_lDYZyJwJ" d="M914.57 2077.39 L914.57 2077.39 L914.57 2077.39 L914.57 2336.16 L1160.53 2336.16 L1160.53 2077.39 L914.57 2077.39 Z" stroke-linejoin="round"/>
	</defs>
	<defs>
		<clipPath id="clipPath_FtgKXuUv">
			<use xlink:href="#path_lDYZyJwJ"/>
		</clipPath>
	</defs>
	<use xlink:href="#path_lDYZyJwJ" style="stroke:none;fill:#4B2362"/>
	<use xlink:href="#path_lDYZyJwJ" style="fill:none;stroke:#4B2362;stroke-width:12.15" clip-path="url(#clipPath_FtgKXuUv)"/>
	<defs>
		<path id="path_XTXFXVtl" d="M1160.53 2077.39 L1160.53 2077.39 L1160.53 2077.39 L1160.53 2336.16 L1406.48 2336.16 L1406.48 2077.39 L1160.53 2077.39 Z" stroke-linejoin="round"/>
	</defs>
	<defs>
		<clipPath id="clipPath_VNjndGXZ">
			<use xlink:href="#path_XTXFXVtl"/>
		</clipPath>
	</defs>
	<use xlink:href="#path_XTXFXVtl" style="stroke:none;fill:#4B2362"/>
	<use xlink:href="#path_XTXFXVtl" style="fill:none;stroke:#4B2362;stroke-width:12.15" clip-path="url(#clipPath_VNjndGXZ)"/>
	<defs>
		<path id="path_LXpugyXe" d="M1406.48 2077.39 L1406.48 2077.39 L1406.48 2077.39 L1406.48 2336.16 L1652.25 2336.16 L1652.25 2077.39 L1406.48 2077.39 Z" stroke-linejoin="round"/>
	</defs>
	<defs>
		<clipPath id="clipPath_sXUSUYYG">
			<use xlink:href="#path_LXpugyXe"/>
		</clipPath>
	</defs>
	<use xlink:href="#path_LXpugyXe" style="stroke:none;fill:#4B2362"/>
	<use xlink:href="#path_LXpugyXe" style="fill:none;stroke:#4B2362;stroke-width:12.15" clip-path="url(#clipPath_sXUSUYYG)"/>
	<defs>
		<path id="path_ceIdmHkX" d="M1652.25 2077.39 L1652.25 2077.39 L1652.25 2077.39 L1652.25 2336.16 L1898.20 2336.16 L1898.20 2077.39 L1652.25 2077.39 Z" stroke-linejoin="round"/>
	</defs>
	<defs>
		<clipPath id="clipPath_xkJwAqfG">
			<use xlink:href="#path_ceIdmHkX"/>
		</clipPath>
	</defs>
	<use xlink:href="#path_ceIdmHkX" style="stroke:none;fill:#4B2362"/>
	<use xlink:href="#path_ceIdmHkX" style="fill:none;stroke:#4B2362;stroke-width:12.15" clip-path="url(#clipPath_xkJwAqfG)"/>
	<defs>
		<path id="path_QFGXRxPD" d="M1898.20 2077.39 L1898.20 2077.39 L1898.20 2077.39 L1898.20 2336.16 L2143.97 2336.16 L2143.97 2077.39 L1898.20 2077.39 Z" stroke-linejoin="round"/>
	</defs>
	<defs>
		<clipPath id="clipPath_fDKIwdnJ">
			<use xlink:href="#path_QFGXRxPD"/>
		</clipPath>
	</defs>
	<use xlink:href="#path_QFGXRxPD" style="stroke:none;fill:#4B2362"/>
	<use xlink:href="#path_QFGXRxPD" style="fill:none;stroke:#4B2362;stroke-width:12.15" clip-path="url(#clipPath_fDKIwdnJ)"/>
	<defs>
		<path id="path_HivtjtJO" d="M2143.97 2077.39 L2143.97 2077.39 L2143.97 2077.39 L2143.97 2336.16 L2389.92 2336.16 L2389.92 2077.39 L2143.97 2077.39 Z" stroke-linejoin="round"/>
	</defs>
	<defs>
		<clipPath id="clipPath_AmhmgFNS">
			<use xlink:href="#path_HivtjtJO"/>
		</clipPath>
	</defs>
	<use xlink:href="#path_HivtjtJO" style="stroke:none;fill:#4B2362"/>
	<use xlink:href="#path_HivtjtJO" style="fill:none;stroke:#4B2362;stroke-width:12.15" clip-path="url(#clipPath_AmhmgFNS)"/>
	<defs>
		<path id="path_NBkGDkfK" d="M422.85 1042.13 L422.85 1042.13 L422.85 1300.90 L668.81 1300.90 L668.81 1042.13 L422.85 1042.13 Z" stroke-linejoin="round"/>
	</defs>
	<defs>
		<clipPath id="clipPath_CoiGqHKQ">
			<use xlink:href="#path_NBkGDkfK"/>
		</clipPath>
	</defs>
	<use xlink:href="#path_NBkGDkfK" style="stroke:none;fill:#552665"/>
	<use xlink:href="#path_NBkGDkfK" style="fill:none;stroke:#552665;stroke-width:12.15" clip-path="url(#clipPath_CoiGqHKQ)"/>
	<defs>
		<path id="path_AHEIUhnB" d="M422.85 1300.90 L422.85 1300.90 L422.85 1300.90 L422.85 1559.67 L668.81 1559.67 L668.81 1300.90 L422.85 1300.90 Z" stroke-linejoin="round"/>
	</defs>
	<defs>
		<clipPath id="clipPath_oOvEeWqi">
			<use xlink:href="#path_AHEIUhnB"/>
		</clipPath>
	</defs>
	<use xlink:href="#path_AHEIUhnB" style="stroke:none;fill:#552665"/>
	<use xlink:href="#path_AHEIUhnB" style="fill:none;stroke:#552665;stroke-width:12.15" clip-path="url(#clipPath_oOvEeWqi)"/>
	<defs>
		<path id="path_IcxDHDHJ" d="M422.85 524.41 L422.85 524.41 L422.85 783.18 L668.81 783.18 L668.81 524.41 L422.85 524.41 Z" stroke-linejoin="round"/>
	</defs>
	<defs>
		<clipPath id="clipPath_uVuWILvu">
			<use xlink:href="#path_IcxDHDHJ"/>
		</clipPath>
	</defs>
	<use xlink:href="#path_IcxDHDHJ" style="stroke:none;fill:#5E2868"/>
	<use xlink:href="#path_IcxDHDHJ" style="fill:none;stroke:#5E2868;stroke-width:12.15" clip-path="url(#clipPath_uVuWILvu)"/>
	<defs>
		<path id="path_cQtoCXnh" d="M422.85 783.18 L422.85 783.18 L422.85 783.18 L422.85 1042.13 L668.81 1042.13 L668.81 783.18 L422.85 783.18 Z" stroke-linejoin="round"/>
	</defs>
	<defs>
		<clipPath id="clipPath_bDyQkZWO">
			<use xlink:href="#path_cQtoCXnh"/>
		</clipPath>
	</defs>
	<use xlink:href="#path_cQtoCXnh" style="stroke:none;fill:#5E2868"/>
	<use xlink:href="#path_cQtoCXnh" style="fill:none;stroke:#5E2868;stroke-width:12.15" clip-path="url(#clipPath_bDyQkZWO)"/>
	<defs>
		<path id="path_JxtJwbPl" d="M668.81 1818.62 L668.81 1818.62 L668.81 1818.62 L668.81 2077.39 L914.57 2077.39 L914.57 1818.62 L668.81 1818.62 Z" stroke-linejoin="round"/>
	</defs>
	<defs>
		<clipPath id="clipPath_RpKRgqus">
			<use xlink:href="#path_JxtJwbPl"/>
		</clipPath>
	</defs>
	<use xlink:href="#path_JxtJwbPl" style="stroke:none;fill:#5E2868"/>
	<use xlink:href="#path_JxtJwbPl" style="fill:none;stroke:#5E2868;stroke-width:12.15" clip-path="url(#clipPath_RpKRgqus)"/>
	<defs>
		<path id="path_CBvVTocg" d="M422.85 265.64 L422.85 265.64 L422.85 524.41 L668.81 524.41 L668.81 265.64 L422.85 265.64 Z" stroke-linejoin="round"/>
	</defs>
	<defs>
		<clipPath id="clipPath_YPhJxnMa">
			<use xlink:href="#path_CBvVTocg"/>
		</clipPath>
	</defs>
	<use xlink:href="#path_CBvVTocg" style="stroke:none;fill:#682A6C"/>
	<use xlink:href="#path_CBvVTocg" style="fill:none;stroke:#682A6C;stroke-width:12.15" clip-path="url(#clipPath_YPhJxnMa)"/>
	<defs>
		<path id="path_XLOBBuhw" d="M914.57 1818.62 L914.57 1818.62 L914.57 2077.39 L1160.53 2077.39 L1160.53 1818.62 L914.57 1818.62 Z" stroke-linejoin="round"/>
	</defs>
	<defs>
		<clipPath id="clipPath_VkXBDkzx">
			<use xlink:href="#path_XLOBBuhw"/>
		</clipPath>
	</defs>
	<use xlink:href="#path_XLOBBuhw" style="stroke:none;fill:#722C6E"/>
	<use xlink:href="#path_XLOBBuhw" style="fill:none;stroke:#722C6E;stroke-width:12.15" clip-path="url(#clipPath_VkXBDkzx)"/>
	<defs>
		<path id="path_ccUWVagT" d="M1160.53 1818.62 L1160.53 1818.62 L1160.53 1818.62 L1160.53 2077.39 L1406.48 2077.39 L1406.48 1818.62 L1160.53 1818.62 Z" stroke-linejoin="round"/>
	</defs>
	<defs>
		<clipPath id="clipPath_kDMUYuIw">
			<use xlink:href="#path_ccUWVagT"/>
		</clipPath>
	</defs>
	<use xlink:href="#path_ccUWVagT" style="stroke:none;fill:#722C6E"/>
	<use xlink:href="#path_ccUWVagT" style="fill:none;stroke:#722C6E;stroke-width:12.15" clip-path="url(#clipPath_kDMUYuIw)"/>
	<defs>
		<path id="path_MqnzrHBt" d="M668.81 1300.90 L668.81 1300.90 L668.81 1559.67 L914.57 1559.67 L914.57 1300.90 L668.81 1300.90 Z" stroke-linejoin="round"/>
	</defs>
	<defs>
		<clipPath id="clipPath_CwNbnHmw">
			<use xlink:href="#path_MqnzrHBt"/>
		</clipPath>
	</defs>
	<use xlink:href="#path_MqnzrHBt" style="stroke:none;fill:#7C2E70"/>
	<use xlink:href="#path_MqnzrHBt" style="fill:none;stroke:#7C2E70;stroke-width:12.15" clip-path="url(#clipPath_CwNbnHmw)"/>
	<defs>
		<path id="path_zkPuhmeS" d="M668.81 1559.67 L668.81 1559.67 L668.81 1559.67 L668.81 1818.62 L914.57 1818.62 L914.57 1559.67 L668.81 1559.67 Z" stroke-linejoin="round"/>
	</defs>
	<defs>
		<clipPath id="clipPath_GUrczYVQ">
			<use xlink:href="#path_zkPuhmeS"/>
		</clipPath>
	</defs>
	<use xlink:href="#path_zkPuhmeS" style="stroke:none;fill:#7C2E70"/>
	<use xlink:href="#path_zkPuhmeS" style="fill:none;stroke:#7C2E70;stroke-width:12.15" clip-path="url(#clipPath_GUrczYVQ)"/>
	<defs>
		<path id="path_NZrRgFTV" d="M1406.48 1818.62 L1406.48 1818.62 L1406.48 1818.62 L1406.48 2077.39 L1652.25 2077.39 L1652.25 1818.62 L1406.48 1818.62 Z" stroke-linejoin="round"/>
	</defs>
	<defs>
		<clipPath id="clipPath_tFFRMseH">
			<use xlink:href="#path_NZrRgFTV"/>
		</clipPath>
	</defs>
	<use xlink:href="#path_NZrRgFTV" style="stroke:none;fill:#7C2E70"/>
	<use xlink:href="#path_NZrRgFTV" style="fill:none;stroke:#7C2E70;stroke-width:12.15" clip-path="url(#clipPath_tFFRMseH)"/>
	<defs>
		<path id="path_fUnUYNLB" d="M1652.25 1818.62 L1652.25 1818.62 L1652.25 1818.62 L1652.25 2077.39 L1898.20 2077.39 L1898.20 1818.62 L1652.25 1818.62 Z" stroke-linejoin="round"/>
	</defs>
	<defs>
		<clipPath id="clipPath_bbSvfian">
			<use xlink:href="#path_fUnUYNLB"/>
		</clipPath>
	</defs>
	<use xlink:href="#path_fUnUYNLB" style="stroke:none;fill:#7C2E70"/>
	<use xlink:href="#path_fUnUYNLB" style="fill:none;stroke:#7C2E70;stroke-width:12.15" clip-path="url(#clipPath_bbSvfian)"/>
	<defs>
		<path id="path_qEZGRYKK" d="M914.57 1559.67 L914.57 1559.67 L914.57 1818.62 L1160.53 1818.62 L1160.53 1559.67 L914.57 1559.67 Z" stroke-linejoin="round"/>
	</defs>
	<defs>
		<clipPath id="clipPath_HKZohfju">
			<use xlink:href="#path_qEZGRYKK"/>
		</clipPath>
	</defs>
	<use xlink:href="#path_qEZGRYKK" style="stroke:none;fill:#873171"/>
	<use xlink:href="#path_qEZGRYKK" style="fill:none;stroke:#873171;stroke-width:12.15" clip-path="url(#clipPath_HKZohfju)"/>
	<defs>
		<path id="path_qtvumhub" d="M1160.53 1559.67 L1160.53 1559.67 L1160.53 1818.62 L1406.48 1818.62 L1406.48 1559.67 L1160.53 1559.67 Z" stroke-linejoin="round"/>
	</defs>
	<defs>
		<clipPath id="clipPath_XaNKumGm">
			<use xlink:href="#path_qtvumhub"/>
		</clipPath>
	</defs>
	<use xlink:href="#path_qtvumhub" style="stroke:none;fill:#903371"/>
	<use xlink:href="#path_qtvumhub" style="fill:none;stroke:#903371;stroke-width:12.15" clip-path="url(#clipPath_XaNKumGm)"/>
	<defs>
		<path id="path_gkbfwykD" d="M1898.20 1818.62 L1898.20 1818.62 L1898.20 1818.62 L1898.20 2077.39 L2143.97 2077.39 L2143.97 1818.62 L1898.20 1818.62 Z" stroke-linejoin="round"/>
	</defs>
	<defs>
		<clipPath id="clipPath_mkFKuYiR">
			<use xlink:href="#path_gkbfwykD"/>
		</clipPath>
	</defs>
	<use xlink:href="#path_gkbfwykD" style="stroke:none;fill:#903371"/>
	<use xlink:href="#path_gkbfwykD" style="fill:none;stroke:#903371;stroke-width:12.15" clip-path="url(#clipPath_mkFKuYiR)"/>
	<defs>
		<path id="path_GxhpLXIO" d="M2143.97 1818.62 L2143.97 1818.62 L2143.97 1818.62 L2143.97 2077.39 L2389.92 2077.39 L2389.92 1818.62 L2143.97 1818.62 Z" stroke-linejoin="round"/>
	</defs>
	<defs>
		<clipPath id="clipPath_nbAWDvhY">
			<use xlink:href="#path_GxhpLXIO"/>
		</clipPath>
	</defs>
	<use xlink:href="#path_GxhpLXIO" style="stroke:none;fill:#903371"/>
	<use xlink:href="#path_GxhpLXIO" style="fill:none;stroke:#903371;stroke-width:12.15" clip-path="url(#clipPath_nbAWDvhY)"/>
	<defs>
		<path id="path_XDtoRaaX" d="M668.81 1042.13 L668.81 1042.13 L668.81 1300.90 L914.57 1300.90 L914.57 1042.13 L668.81 1042.13 Z" stroke-linejoin="round"/>
	</defs>
	<defs>
		<clipPath id="clipPath_qsEIwrBK">
			<use xlink:href="#path_XDtoRaaX"/>
		</clipPath>
	</defs>
	<use xlink:href="#path_XDtoRaaX" style="stroke:none;fill:#9A3670"/>
	<use xlink:href="#path_XDtoRaaX" style="fill:none;stroke:#9A3670;stroke-width:12.15" clip-path="url(#clipPath_qsEIwrBK)"/>
	<defs>
		<path id="path_WvaGfRzC" d="M914.57 1300.90 L914.57 1300.90 L914.57 1300.90 L914.57 1559.67 L1160.53 1559.67 L1160.53 1300.90 L914.57 1300.90 Z" stroke-linejoin="round"/>
	</defs>
	<defs>
		<clipPath id="clipPath_DvCiSZxz">
			<use xlink:href="#path_WvaGfRzC"/>
		</clipPath>
	</defs>
	<use xlink:href="#path_WvaGfRzC" style="stroke:none;fill:#9A3670"/>
	<use xlink:href="#path_WvaGfRzC" style="fill:none;stroke:#9A3670;stroke-width:12.15" clip-path="url(#clipPath_DvCiSZxz)"/>
	<defs>
		<path id="path_SmNyAeWh" d="M668.81 783.18 L668.81 783.18 L668.81 1042.13 L914.57 1042.13 L914.57 783.18 L668.81 783.18 Z" stroke-linejoin="round"/>
	</defs>
	<defs>
		<clipPath id="clipPath_ubSUIPfU">
			<use xlink:href="#path_SmNyAeWh"/>
		</clipPath>
	</defs>
	<use xlink:href="#path_SmNyAeWh" style="stroke:none;fill:#A4386F"/>
	<use xlink:href="#path_SmNyAeWh" style="fill:none;stroke:#A4386F;stroke-width:12.15" clip-path="url(#clipPath_ubSUIPfU)"/>
	<defs>
		<path id="path_DYhFasZK" d="M1160.53 1300.90 L1160.53 1300.90 L1160.53 1300.90 L1160.53 1559.67 L1406.48 1559.67 L1406.48 1300.90 L1160.53 1300.90 Z" stroke-linejoin="round"/>
	</defs>
	<defs>
		<clipPath id="clipPath_AfeZgwif">
			<use xlink:href="#path_DYhFasZK"/>
		</clipPath>
	</defs>
	<use xlink:href="#path_DYhFasZK" style="stroke:none;fill:#A4386F"/>
	<use xlink:href="#path_DYhFasZK" style="fill:none;stroke:#A4386F;stroke-width:12.15" clip-path="url(#clipPath_AfeZgwif)"/>
	<defs>
		<path id="path_yDTXGMvd" d="M1406.48 1559.67 L1406.48 1559.67 L1406.48 1559.67 L1406.48 1818.62 L1652.25 1818.62 L1652.25 1559.67 L1406.48 1559.67 Z" stroke-linejoin="round"/>
	</defs>
	<defs>
		<clipPath id="clipPath_LjKLzlpH">
			<use xlink:href="#path_yDTXGMvd"/>
		</clipPath>
	</defs>
	<use xlink:href="#path_yDTXGMvd" style="stroke:none;fill:#A4386F"/>
	<use xlink:href="#path_yDTXGMvd" style="fill:none;stroke:#A4386F;stroke-width:12.15" clip-path="url(#clipPath_LjKLzlpH)"/>
	<defs>
		<path id="path_hvUeRhRy" d="M914.57 1042.13 L914.57 1042.13 L914.57 1300.90 L1160.53 1300.90 L1160.53 1042.13 L914.57 1042.13 Z" stroke-linejoin="round"/>
	</defs>
	<defs>
		<clipPath id="clipPath_nvqRRNOk">
			<use xlink:href="#path_hvUeRhRy"/>
		</clipPath>
	</defs>
	<use xlink:href="#path_hvUeRhRy" style="stroke:none;fill:#AE3B6D"/>
	<use xlink:href="#path_hvUeRhRy" style="fill:none;stroke:#AE3B6D;stroke-width:12.15" clip-path="url(#clipPath_nvqRRNOk)"/>
	<defs>
		<path id="path_JZTShvdg" d="M1406.48 1300.90 L1406.48 1300.90 L1406.48 1300.90 L1406.48 1559.67 L1652.25 1559.67 L1652.25 1300.90 L1406.48 1300.90 Z" stroke-linejoin="round"/>
	</defs>
	<defs>
		<clipPath id="clipPath_fLevOgpt">
			<use xlink:href="#path_JZTShvdg"/>
		</clipPath>
	</defs>
	<use xlink:href="#path_JZTShvdg" style="stroke:none;fill:#AE3B6D"/>
	<use xlink:href="#path_JZTShvdg" style="fill:none;stroke:#AE3B6D;stroke-width:12.15" clip-path="url(#clipPath_fLevOgpt)"/>
	<defs>
		<path id="path_CTBjlurs" d="M1898.20 1559.67 L1898.20 1559.67 L1898.20 1559.67 L1898.20 1818.62 L2143.97 1818.62 L2143.97 1559.67 L1898.20 1559.67 Z" stroke-linejoin="round"/>
	</defs>
	<defs>
		<clipPath id="clipPath_dyJihSAR">
			<use xlink:href="#path_CTBjlurs"/>
		</clipPath>
	</defs>
	<use xlink:href="#path_CTBjlurs" style="stroke:none;fill:#AE3B6D"/>
	<use xlink:href="#path_CTBjlurs" style="fill:none;stroke:#AE3B6D;stroke-width:12.15" clip-path="url(#clipPath_dyJihSAR)"/>
	<defs>
		<path id="path_VJYrwvOQ" d="M914.57 524.41 L914.57 524.41 L914.57 783.18 L1160.53 783.18 L1160.53 524.41 L914.57 524.41 Z" stroke-linejoin="round"/>
	</defs>
	<defs>
		<clipPath id="clipPath_UkOKMHcC">
			<use xlink:href="#path_VJYrwvOQ"/>
		</clipPath>
	</defs>
	<use xlink:href="#path_VJYrwvOQ" style="stroke:none;fill:#B83E6B"/>
	<use xlink:href="#path_VJYrwvOQ" style="fill:none;stroke:#B83E6B;stroke-width:12.15" clip-path="url(#clipPath_UkOKMHcC)"/>
	<defs>
		<path id="path_YmdCwWos" d="M914.57 783.18 L914.57 783.18 L914.57 783.18 L914.57 1042.13 L1160.53 1042.13 L1160.53 783.18 L914.57 783.18 Z" stroke-linejoin="round"/>
	</defs>
	<defs>
		<clipPath id="clipPath_zzyoEgLl">
			<use xlink:href="#path_YmdCwWos"/>
		</clipPath>
	</defs>
	<use xlink:href="#path_YmdCwWos" style="stroke:none;fill:#B83E6B"/>
	<use xlink:href="#path_YmdCwWos" style="fill:none;stroke:#B83E6B;stroke-width:12.15" clip-path="url(#clipPath_zzyoEgLl)"/>
	<defs>
		<path id="path_RkTINJhn" d="M1160.53 1042.13 L1160.53 1042.13 L1160.53 1042.13 L1160.53 1300.90 L1406.48 1300.90 L1406.48 1042.13 L1160.53 1042.13 Z" stroke-linejoin="round"/>
	</defs>
	<defs>
		<clipPath id="clipPath_hQilolku">
			<use xlink:href="#path_RkTINJhn"/>
		</clipPath>
	</defs>
	<use xlink:href="#path_RkTINJhn" style="stroke:none;fill:#B83E6B"/>
	<use xlink:href="#path_RkTINJhn" style="fill:none;stroke:#B83E6B;stroke-width:12.15" clip-path="url(#clipPath_hQilolku)"/>
	<defs>
		<path id="path_WYOIBGtN" d="M1652.25 1300.90 L1652.25 1300.90 L1652.25 1300.90 L1652.25 1559.67 L1898.20 1559.67 L1898.20 1300.90 L1652.25 1300.90 Z" stroke-linejoin="round"/>
	</defs>
	<defs>
		<clipPath id="clipPath_ZEXqqNZR">
			<use xlink:href="#path_WYOIBGtN"/>
		</clipPath>
	</defs>
	<use xlink:href="#path_WYOIBGtN" style="stroke:none;fill:#B83E6B"/>
	<use xlink:href="#path_WYOIBGtN" style="fill:none;stroke:#B83E6B;stroke-width:12.15" clip-path="url(#clipPath_ZEXqqNZR)"/>
	<defs>
		<path id="path_ivYvBlEA" d="M1652.25 1559.67 L1652.25 1559.67 L1652.25 1559.67 L1652.25 1818.62 L1898.20 1818.62 L1898.20 1559.67 L1652.25 1559.67 Z" stroke-linejoin="round"/>
	</defs>
	<defs>
		<clipPath id="clipPath_nhczFHYc">
			<use xlink:href="#path_ivYvBlEA"/>
		</clipPath>
	</defs>
	<use xlink:href="#path_ivYvBlEA" style="stroke:none;fill:#B83E6B"/>
	<use xlink:href="#path_ivYvBlEA" style="fill:none;stroke:#B83E6B;stroke-width:12.15" clip-path="url(#clipPath_nhczFHYc)"/>
	<defs>
		<path id="path_ebQgLXmG" d="M2143.97 1559.67 L2143.97 1559.67 L2143.97 1559.67 L2143.97 1818.62 L2389.92 1818.62 L2389.92 1559.67 L2143.97 1559.67 Z" stroke-linejoin="round"/>
	</defs>
	<defs>
		<clipPath id="clipPath_IsVqFTCs">
			<use xlink:href="#path_ebQgLXmG"/>
		</clipPath>
	</defs>
	<use xlink:href="#path_ebQgLXmG" style="stroke:none;fill:#B83E6B"/>
	<use xlink:href="#path_ebQgLXmG" style="fill:none;stroke:#B83E6B;stroke-width:12.15" clip-path="url(#clipPath_IsVqFTCs)"/>
	<defs>
		<path id="path_WGPkHCfz" d="M1898.20 1300.90 L1898.20 1300.90 L1898.20 1559.67 L2143.97 1559.67 L2143.97 1300.90 L1898.20 1300.90 Z" stroke-linejoin="round"/>
	</defs>
	<defs>
		<clipPath id="clipPath_riEkhndK">
			<use xlink:href="#path_WGPkHCfz"/>
		</clipPath>
	</defs>
	<use xlink:href="#path_WGPkHCfz" style="stroke:none;fill:#C14168"/>
	<use xlink:href="#path_WGPkHCfz" style="fill:none;stroke:#C14168;stroke-width:12.15" clip-path="url(#clipPath_riEkhndK)"/>
	<defs>
		<path id="path_oqylhlHC" d="M668.81 265.64 L668.81 265.64 L668.81 524.41 L914.57 524.41 L914.57 265.64 L668.81 265.64 Z" stroke-linejoin="round"/>
	</defs>
	<defs>
		<clipPath id="clipPath_xjGTIhfq">
			<use xlink:href="#path_oqylhlHC"/>
		</clipPath>
	</defs>
	<use xlink:href="#path_oqylhlHC" style="stroke:none;fill:#CB4564"/>
	<use xlink:href="#path_oqylhlHC" style="fill:none;stroke:#CB4564;stroke-width:12.15" clip-path="url(#clipPath_xjGTIhfq)"/>
	<defs>
		<path id="path_CaaZKEKL" d="M668.81 524.41 L668.81 524.41 L668.81 524.41 L668.81 783.18 L914.57 783.18 L914.57 524.41 L668.81 524.41 Z" stroke-linejoin="round"/>
	</defs>
	<defs>
		<clipPath id="clipPath_xXJYcSgp">
			<use xlink:href="#path_CaaZKEKL"/>
		</clipPath>
	</defs>
	<use xlink:href="#path_CaaZKEKL" style="stroke:none;fill:#CB4564"/>
	<use xlink:href="#path_CaaZKEKL" style="fill:none;stroke:#CB4564;stroke-width:12.15" clip-path="url(#clipPath_xXJYcSgp)"/>
	<defs>
		<path id="path_KztMBDye" d="M1160.53 783.18 L1160.53 783.18 L1160.53 783.18 L1160.53 1042.13 L1406.48 1042.13 L1406.48 783.18 L1160.53 783.18 Z" stroke-linejoin="round"/>
	</defs>
	<defs>
		<clipPath id="clipPath_wUeToMsY">
			<use xlink:href="#path_KztMBDye"/>
		</clipPath>
	</defs>
	<use xlink:href="#path_KztMBDye" style="stroke:none;fill:#CB4564"/>
	<use xlink:href="#path_KztMBDye" style="fill:none;stroke:#CB4564;stroke-width:12.15" clip-path="url(#clipPath_wUeToMsY)"/>
	<defs>
		<path id="path_HMnlOFFW" d="M914.57 265.64 L914.57 265.64 L914.57 524.41 L1160.53 524.41 L1160.53 265.64 L914.57 265.64 Z" stroke-linejoin="round"/>
	</defs>
	<defs>
		<clipPath id="clipPath_xKPaAwny">
			<use xlink:href="#path_HMnlOFFW"/>
		</clipPath>
	</defs>
	<use xlink:href="#path_HMnlOFFW" style="stroke:none;fill:#D34C60"/>
	<use xlink:href="#path_HMnlOFFW" style="fill:none;stroke:#D34C60;stroke-width:12.15" clip-path="url(#clipPath_xKPaAwny)"/>
	<defs>
		<path id="path_XUfWOjyC" d="M1406.48 783.18 L1406.48 783.18 L1406.48 783.18 L1406.48 1042.13 L1652.25 1042.13 L1652.25 783.18 L1406.48 783.18 Z" stroke-linejoin="round"/>
	</defs>
	<defs>
		<clipPath id="clipPath_GCDwPDyV">
			<use xlink:href="#path_XUfWOjyC"/>
		</clipPath>
	</defs>
	<use xlink:href="#path_XUfWOjyC" style="stroke:none;fill:#D34C60"/>
	<use xlink:href="#path_XUfWOjyC" style="fill:none;stroke:#D34C60;stroke-width:12.15" clip-path="url(#clipPath_GCDwPDyV)"/>
	<defs>
		<path id="path_bIouihoQ" d="M1406.48 1042.13 L1406.48 1042.13 L1406.48 1042.13 L1406.48 1300.90 L1652.25 1300.90 L1652.25 1042.13 L1406.48 1042.13 Z" stroke-linejoin="round"/>
	</defs>
	<defs>
		<clipPath id="clipPath_IDpDxKIU">
			<use xlink:href="#path_bIouihoQ"/>
		</clipPath>
	</defs>
	<use xlink:href="#path_bIouihoQ" style="stroke:none;fill:#D34C60"/>
	<use xlink:href="#path_bIouihoQ" style="fill:none;stroke:#D34C60;stroke-width:12.15" clip-path="url(#clipPath_IDpDxKIU)"/>
	<defs>
		<path id="path_bnpsYfhy" d="M1898.20 1042.13 L1898.20 1042.13 L1898.20 1042.13 L1898.20 1300.90 L2143.97 1300.90 L2143.97 1042.13 L1898.20 1042.13 Z" stroke-linejoin="round"/>
	</defs>
	<defs>
		<clipPath id="clipPath_UytfIsLn">
			<use xlink:href="#path_bnpsYfhy"/>
		</clipPath>
	</defs>
	<use xlink:href="#path_bnpsYfhy" style="stroke:none;fill:#D34C60"/>
	<use xlink:href="#path_bnpsYfhy" style="fill:none;stroke:#D34C60;stroke-width:12.15" clip-path="url(#clipPath_UytfIsLn)"/>
	<defs>
		<path id="path_sWsyjxdU" d="M2143.97 1300.90 L2143.97 1300.90 L2143.97 1300.90 L2143.97 1559.67 L2389.92 1559.67 L2389.92 1300.90 L2143.97 1300.90 Z" stroke-linejoin="round"/>
	</defs>
	<defs>
		<clipPath id="clipPath_yGrDxaIc">
			<use xlink:href="#path_sWsyjxdU"/>
		</clipPath>
	</defs>
	<use xlink:href="#path_sWsyjxdU" style="stroke:none;fill:#D34C60"/>
	<use xlink:href="#path_sWsyjxdU" style="fill:none;stroke:#D34C60;stroke-width:12.15" clip-path="url(#clipPath_yGrDxaIc)"/>
	<defs>
		<path id="path_fjJoeORc" d="M1160.53 524.41 L1160.53 524.41 L1160.53 783.18 L1406.48 783.18 L1406.48 524.41 L1160.53 524.41 Z" stroke-linejoin="round"/>
	</defs>
	<defs>
		<clipPath id="clipPath_yIUiPPwI">
			<use xlink:href="#path_fjJoeORc"/>
		</clipPath>
	</defs>
	<use xlink:href="#path_fjJoeORc" style="stroke:none;fill:#DE5D5C"/>
	<use xlink:href="#path_fjJoeORc" style="fill:none;stroke:#DE5D5C;stroke-width:12.15" clip-path="url(#clipPath_yIUiPPwI)"/>
	<defs>
		<path id="path_QNhnlWsH" d="M1652.25 783.18 L1652.25 783.18 L1652.25 783.18 L1652.25 1042.13 L1898.20 1042.13 L1898.20 783.18 L1652.25 783.18 Z" stroke-linejoin="round"/>
	</defs>
	<defs>
		<clipPath id="clipPath_ikbKJTKd">
			<use xlink:href="#path_QNhnlWsH"/>
		</clipPath>
	</defs>
	<use xlink:href="#path_QNhnlWsH" style="stroke:none;fill:#DE5D5C"/>
	<use xlink:href="#path_QNhnlWsH" style="fill:none;stroke:#DE5D5C;stroke-width:12.15" clip-path="url(#clipPath_ikbKJTKd)"/>
	<defs>
		<path id="path_ubVaKYyF" d="M1898.20 524.41 L1898.20 524.41 L1898.20 524.41 L1898.20 783.18 L2143.97 783.18 L2143.97 524.41 L1898.20 524.41 Z" stroke-linejoin="round"/>
	</defs>
	<defs>
		<clipPath id="clipPath_qnuGFanJ">
			<use xlink:href="#path_ubVaKYyF"/>
		</clipPath>
	</defs>
	<use xlink:href="#path_ubVaKYyF" style="stroke:none;fill:#DE5D5C"/>
	<use xlink:href="#path_ubVaKYyF" style="fill:none;stroke:#DE5D5C;stroke-width:12.15" clip-path="url(#clipPath_qnuGFanJ)"/>
	<defs>
		<path id="path_oBNKeXXf" d="M1898.20 783.18 L1898.20 783.18 L1898.20 783.18 L1898.20 1042.13 L2143.97 1042.13 L2143.97 783.18 L1898.20 783.18 Z" stroke-linejoin="round"/>
	</defs>
	<defs>
		<clipPath id="clipPath_oWKbLZBy">
			<use xlink:href="#path_oBNKeXXf"/>
		</clipPath>
	</defs>
	<use xlink:href="#path_oBNKeXXf" style="stroke:none;fill:#DE5D5C"/>
	<use xlink:href="#path_oBNKeXXf" style="fill:none;stroke:#DE5D5C;stroke-width:12.15" clip-path="url(#clipPath_oWKbLZBy)"/>
	<defs>
		<path id="path_yLWMiJdB" d="M1406.48 265.64 L1406.48 265.64 L1406.48 524.41 L1652.25 524.41 L1652.25 265.64 L1406.48 265.64 Z" stroke-linejoin="round"/>
	</defs>
	<defs>
		<clipPath id="clipPath_sRrfwhsZ">
			<use xlink:href="#path_yLWMiJdB"/>
		</clipPath>
	</defs>
	<use xlink:href="#path_yLWMiJdB" style="stroke:none;fill:#E2675C"/>
	<use xlink:href="#path_yLWMiJdB" style="fill:none;stroke:#E2675C;stroke-width:12.15" clip-path="url(#clipPath_sRrfwhsZ)"/>
	<defs>
		<path id="path_xZeDcLmF" d="M1406.48 524.41 L1406.48 524.41 L1406.48 524.41 L1406.48 783.18 L1652.25 783.18 L1652.25 524.41 L1406.48 524.41 Z" stroke-linejoin="round"/>
	</defs>
	<defs>
		<clipPath id="clipPath_HtCJusRE">
			<use xlink:href="#path_xZeDcLmF"/>
		</clipPath>
	</defs>
	<use xlink:href="#path_xZeDcLmF" style="stroke:none;fill:#E2675C"/>
	<use xlink:href="#path_xZeDcLmF" style="fill:none;stroke:#E2675C;stroke-width:12.15" clip-path="url(#clipPath_HtCJusRE)"/>
	<defs>
		<path id="path_DqwjDblk" d="M2143.97 1042.13 L2143.97 1042.13 L2143.97 1042.13 L2143.97 1300.90 L2389.92 1300.90 L2389.92 1042.13 L2143.97 1042.13 Z" stroke-linejoin="round"/>
	</defs>
	<defs>
		<clipPath id="clipPath_wtyCUbLg">
			<use xlink:href="#path_DqwjDblk"/>
		</clipPath>
	</defs>
	<use xlink:href="#path_DqwjDblk" style="stroke:none;fill:#E2675C"/>
	<use xlink:href="#path_DqwjDblk" style="fill:none;stroke:#E2675C;stroke-width:12.15" clip-path="url(#clipPath_wtyCUbLg)"/>
	<defs>
		<path id="path_jlwONAWw" d="M1160.53 265.64 L1160.53 265.64 L1160.53 524.41 L1406.48 524.41 L1406.48 265.64 L1160.53 265.64 Z" stroke-linejoin="round"/>
	</defs>
	<defs>
		<clipPath id="clipPath_xasCHxsJ">
			<use xlink:href="#path_jlwONAWw"/>
		</clipPath>
	</defs>
	<use xlink:href="#path_jlwONAWw" style="stroke:none;fill:#E5715E"/>
	<use xlink:href="#path_jlwONAWw" style="fill:none;stroke:#E5715E;stroke-width:12.15" clip-path="url(#clipPath_xasCHxsJ)"/>
	<defs>
		<path id="path_hAwlwUDS" d="M2143.97 783.18 L2143.97 783.18 L2143.97 783.18 L2143.97 1042.13 L2389.92 1042.13 L2389.92 783.18 L2143.97 783.18 Z" stroke-linejoin="round"/>
	</defs>
	<defs>
		<clipPath id="clipPath_tfjxkEkw">
			<use xlink:href="#path_hAwlwUDS"/>
		</clipPath>
	</defs>
	<use xlink:href="#path_hAwlwUDS" style="stroke:none;fill:#E5715E"/>
	<use xlink:href="#path_hAwlwUDS" style="fill:none;stroke:#E5715E;stroke-width:12.15" clip-path="url(#clipPath_tfjxkEkw)"/>
	<defs>
		<path id="path_wYpzysBP" d="M1652.25 1042.13 L1652.25 1042.13 L1652.25 1300.90 L1898.20 1300.90 L1898.20 1042.13 L1652.25 1042.13 Z" stroke-linejoin="round"/>
	</defs>
	<defs>
		<clipPath id="clipPath_CMrhkLcD">
			<use xlink:href="#path_wYpzysBP"/>
		</clipPath>
	</defs>
	<use xlink:href="#path_wYpzysBP" style="stroke:none;fill:#E77C63"/>
	<use xlink:href="#path_wYpzysBP" style="fill:none;stroke:#E77C63;stroke-width:12.15" clip-path="url(#clipPath_CMrhkLcD)"/>
	<defs>
		<path id="path_dimTmdVq" d="M1898.20 265.64 L1898.20 265.64 L1898.20 265.64 L1898.20 524.41 L2143.97 524.41 L2143.97 265.64 L1898.20 265.64 Z" stroke-linejoin="round"/>
	</defs>
	<defs>
		<clipPath id="clipPath_CkGOuuAm">
			<use xlink:href="#path_dimTmdVq"/>
		</clipPath>
	</defs>
	<use xlink:href="#path_dimTmdVq" style="stroke:none;fill:#E77C63"/>
	<use xlink:href="#path_dimTmdVq" style="fill:none;stroke:#E77C63;stroke-width:12.15" clip-path="url(#clipPath_CkGOuuAm)"/>
	<defs>
		<path id="path_laitvSjB" d="M1652.25 265.64 L1652.25 265.64 L1652.25 524.41 L1898.20 524.41 L1898.20 265.64 L1652.25 265.64 Z" stroke-linejoin="round"/>
	</defs>
	<defs>
		<clipPath id="clipPath_URFEYxAo">
			<use xlink:href="#path_laitvSjB"/>
		</clipPath>
	</defs>
	<use xlink:href="#path_laitvSjB" style="stroke:none;fill:#EA916E"/>
	<use xlink:href="#path_laitvSjB" style="fill:none;stroke:#EA916E;stroke-width:12.15" clip-path="url(#clipPath_URFEYxAo)"/>
	<defs>
		<path id="path_xLIbuizu" d="M2143.97 524.41 L2143.97 524.41 L2143.97 783.18 L2389.92 783.18 L2389.92 524.41 L2143.97 524.41 Z" stroke-linejoin="round"/>
	</defs>
	<defs>
		<clipPath id="clipPath_iEEGGHjY">
			<use xlink:href="#path_xLIbuizu"/>
		</clipPath>
	</defs>
	<use xlink:href="#path_xLIbuizu" style="stroke:none;fill:#ECA57A"/>
	<use xlink:href="#path_xLIbuizu" style="fill:none;stroke:#ECA57A;stroke-width:12.15" clip-path="url(#clipPath_iEEGGHjY)"/>
	<defs>
		<path id="path_cJCqBmHS" d="M1652.25 524.41 L1652.25 524.41 L1652.25 783.18 L1898.20 783.18 L1898.20 524.41 L1652.25 524.41 Z" stroke-linejoin="round"/>
	</defs>
	<defs>
		<clipPath id="clipPath_btOnnVdk">
			<use xlink:href="#path_cJCqBmHS"/>
		</clipPath>
	</defs>
	<use xlink:href="#path_cJCqBmHS" style="stroke:none;fill:#EDB081"/>
	<use xlink:href="#path_cJCqBmHS" style="fill:none;stroke:#EDB081;stroke-width:12.15" clip-path="url(#clipPath_btOnnVdk)"/>
	<defs>
		<path id="path_XaqNhuSC" d="M2143.97 265.64 L2143.97 265.64 L2143.97 265.64 L2143.97 524.41 L2389.92 524.41 L2389.92 265.64 L2143.97 265.64 Z" stroke-linejoin="round"/>
	</defs>
	<defs>
		<clipPath id="clipPath_GVDpkrXG">
			<use xlink:href="#path_XaqNhuSC"/>
		</clipPath>
	</defs>
	<use xlink:href="#path_XaqNhuSC" style="stroke:none;fill:#EDB081"/>
	<use xlink:href="#path_XaqNhuSC" style="fill:none;stroke:#EDB081;stroke-width:12.15" clip-path="url(#clipPath_GVDpkrXG)"/>
	<text x="408.93" y="431.84" style="font-family:'Arial';font-size:105.06px;fill:#000000" text-anchor="end">5</text>
	<text x="408.93" y="690.61" style="font-family:'Arial';font-size:105.06px;fill:#000000" text-anchor="end">4</text>
	<text x="408.93" y="949.38" style="font-family:'Arial';font-size:105.06px;fill:#000000" text-anchor="end">3</text>
	<text x="408.93" y="1208.15" style="font-family:'Arial';font-size:105.06px;fill:#000000" text-anchor="end">2</text>
	<text x="408.93" y="1467.11" style="font-family:'Arial';font-size:105.06px;fill:#000000" text-anchor="end">1</text>
	<text x="408.93" y="1725.87" style="font-family:'Arial';font-size:105.06px;fill:#000000" text-anchor="end">.5</text>
	<text x="408.93" y="1984.64" style="font-family:'Arial';font-size:105.06px;fill:#000000" text-anchor="end">.1</text>
	<text x="408.93" y="2243.60" style="font-family:'Arial';font-size:105.06px;fill:#000000" text-anchor="end">0</text>
	<text x="238.79" y="1300.90" style="fill:#000000" transform="rotate(-90 238.79,1300.90)" text-anchor="middle">
		<tspan style="font-family:'Arial';font-size:134.95px">[3–oxo–C</tspan>
		<tspan baseline-shift="sub" style="font-family:'Arial';font-size:78.68px">12</tspan>
		<tspan style="font-family:'Arial';font-size:134.95px">–HSL] (μM)</tspan>
	</text>
	<text x="545.92" y="2423.73" style="font-family:'Arial';font-size:105.06px;fill:#000000" text-anchor="middle">0</text>
	<text x="791.88" y="2423.73" style="font-family:'Arial';font-size:105.06px;fill:#000000" text-anchor="middle">.1</text>
	<text x="1037.64" y="2423.73" style="font-family:'Arial';font-size:105.06px;fill:#000000" text-anchor="middle">.5</text>
	<text x="1283.60" y="2423.73" style="font-family:'Arial';font-size:105.06px;fill:#000000" text-anchor="middle">1</text>
	<text x="1529.36" y="2423.73" style="font-family:'Arial';font-size:105.06px;fill:#000000" text-anchor="middle">2</text>
	<text x="1775.32" y="2423.73" style="font-family:'Arial';font-size:105.06px;fill:#000000" text-anchor="middle">3</text>
	<text x="2021.27" y="2423.73" style="font-family:'Arial';font-size:105.06px;fill:#000000" text-anchor="middle">4</text>
	<text x="2267.04" y="2423.73" style="font-family:'Arial';font-size:105.06px;fill:#000000" text-anchor="middle">5</text>
	<text x="1406.48" y="2569.02" style="fill:#000000" text-anchor="middle">
		<tspan style="font-family:'Arial';font-size:134.95px">[C</tspan>
		<tspan baseline-shift="sub" style="font-family:'Arial';font-size:78.68px">4</tspan>
		<tspan style="font-family:'Arial';font-size:134.95px">–HSL] (μM)</tspan>
	</text>
	<rect x="2414.24" y="289.77" width="460.54" height="2022.08" style="fill:#FFFFFF"/>
	<rect x="2414.24" y="289.77" width="460.54" height="2022.08" style="fill:none;stroke:#000000;stroke-width:0.00"/>
	<text x="2644.23" y="706.02" style="font-family:'Arial';font-size:105.06px;fill:#000000">36</text>
	<text x="2644.23" y="2274.04" style="font-family:'Arial';font-size:105.06px;fill:#000000">1</text>
	<rect x="2522.27" y="713.38" width="84.46" height="59.22" style="fill:#EDB081"/>
	<rect x="2525.31" y="716.42" width="78.38" height="53.14" style="fill:none;stroke:#EDB081;stroke-width:6.07"/>
	<rect x="2522.27" y="772.60" width="84.46" height="59.22" style="fill:#ECA57A"/>
	<rect x="2525.31" y="775.63" width="78.38" height="53.14" style="fill:none;stroke:#ECA57A;stroke-width:6.07"/>
	<rect x="2522.27" y="831.81" width="84.46" height="59.22" style="fill:#EB9B74"/>
	<rect x="2525.31" y="834.85" width="78.38" height="53.14" style="fill:none;stroke:#EB9B74;stroke-width:6.07"/>
	<rect x="2522.27" y="891.03" width="84.46" height="59.22" style="fill:#EA916E"/>
	<rect x="2525.31" y="894.07" width="78.38" height="53.14" style="fill:none;stroke:#EA916E;stroke-width:6.07"/>
	<rect x="2522.27" y="950.24" width="84.46" height="59.22" style="fill:#E98768"/>
	<rect x="2525.31" y="953.28" width="78.38" height="53.14" style="fill:none;stroke:#E98768;stroke-width:6.07"/>
	<rect x="2522.27" y="1009.46" width="84.46" height="59.03" style="fill:#E77C63"/>
	<rect x="2525.31" y="1012.50" width="78.38" height="52.96" style="fill:none;stroke:#E77C63;stroke-width:6.07"/>
	<rect x="2522.27" y="1068.49" width="84.46" height="59.22" style="fill:#E5715E"/>
	<rect x="2525.31" y="1071.53" width="78.38" height="53.14" style="fill:none;stroke:#E5715E;stroke-width:6.07"/>
	<rect x="2522.27" y="1127.71" width="84.46" height="59.22" style="fill:#E2675C"/>
	<rect x="2525.31" y="1130.74" width="78.38" height="53.14" style="fill:none;stroke:#E2675C;stroke-width:6.07"/>
	<rect x="2522.27" y="1186.92" width="84.46" height="59.22" style="fill:#DE5D5C"/>
	<rect x="2525.31" y="1189.96" width="78.38" height="53.14" style="fill:none;stroke:#DE5D5C;stroke-width:6.07"/>
	<rect x="2522.27" y="1246.14" width="84.46" height="59.22" style="fill:#D9535D"/>
	<rect x="2525.31" y="1249.18" width="78.38" height="53.14" style="fill:none;stroke:#D9535D;stroke-width:6.07"/>
	<rect x="2522.27" y="1305.36" width="84.46" height="59.22" style="fill:#D34C60"/>
	<rect x="2525.31" y="1308.39" width="78.38" height="53.14" style="fill:none;stroke:#D34C60;stroke-width:6.07"/>
	<rect x="2522.27" y="1364.57" width="84.46" height="59.03" style="fill:#CB4564"/>
	<rect x="2525.31" y="1367.61" width="78.38" height="52.96" style="fill:none;stroke:#CB4564;stroke-width:6.07"/>
	<rect x="2522.27" y="1423.60" width="84.46" height="59.22" style="fill:#C14168"/>
	<rect x="2525.31" y="1426.64" width="78.38" height="53.14" style="fill:none;stroke:#C14168;stroke-width:6.07"/>
	<rect x="2522.27" y="1482.82" width="84.46" height="59.22" style="fill:#B83E6B"/>
	<rect x="2525.31" y="1485.86" width="78.38" height="53.14" style="fill:none;stroke:#B83E6B;stroke-width:6.07"/>
	<rect x="2522.27" y="1542.04" width="84.46" height="59.22" style="fill:#AE3B6D"/>
	<rect x="2525.31" y="1545.07" width="78.38" height="53.14" style="fill:none;stroke:#AE3B6D;stroke-width:6.07"/>
	<rect x="2522.27" y="1601.25" width="84.46" height="59.22" style="fill:#A4386F"/>
	<rect x="2525.31" y="1604.29" width="78.38" height="53.14" style="fill:none;stroke:#A4386F;stroke-width:6.07"/>
	<rect x="2522.27" y="1660.47" width="84.46" height="59.22" style="fill:#9A3670"/>
	<rect x="2525.31" y="1663.50" width="78.38" height="53.14" style="fill:none;stroke:#9A3670;stroke-width:6.07"/>
	<rect x="2522.27" y="1719.68" width="84.46" height="59.03" style="fill:#903371"/>
	<rect x="2525.31" y="1722.72" width="78.38" height="52.96" style="fill:none;stroke:#903371;stroke-width:6.07"/>
	<rect x="2522.27" y="1778.71" width="84.46" height="59.22" style="fill:#873171"/>
	<rect x="2525.31" y="1781.75" width="78.38" height="53.14" style="fill:none;stroke:#873171;stroke-width:6.07"/>
	<rect x="2522.27" y="1837.93" width="84.46" height="59.22" style="fill:#7C2E70"/>
	<rect x="2525.31" y="1840.97" width="78.38" height="53.14" style="fill:none;stroke:#7C2E70;stroke-width:6.07"/>
	<rect x="2522.27" y="1897.15" width="84.46" height="59.22" style="fill:#722C6E"/>
	<rect x="2525.31" y="1900.18" width="78.38" height="53.14" style="fill:none;stroke:#722C6E;stroke-width:6.07"/>
	<rect x="2522.27" y="1956.36" width="84.46" height="59.22" style="fill:#682A6C"/>
	<rect x="2525.31" y="1959.40" width="78.38" height="53.14" style="fill:none;stroke:#682A6C;stroke-width:6.07"/>
	<rect x="2522.27" y="2015.58" width="84.46" height="59.03" style="fill:#5E2868"/>
	<rect x="2525.31" y="2018.62" width="78.38" height="52.96" style="fill:none;stroke:#5E2868;stroke-width:6.07"/>
	<rect x="2522.27" y="2074.61" width="84.46" height="59.22" style="fill:#552665"/>
	<rect x="2525.31" y="2077.65" width="78.38" height="53.14" style="fill:none;stroke:#552665;stroke-width:6.07"/>
	<rect x="2522.27" y="2133.83" width="84.46" height="59.22" style="fill:#4B2362"/>
	<rect x="2525.31" y="2136.86" width="78.38" height="53.14" style="fill:none;stroke:#4B2362;stroke-width:6.07"/>
	<text x="2450.81" y="348.00" style="font-family:'Arial';font-size:112.49px;fill:#000000">Mean</text>
	<text x="2450.81" y="460.49" style="font-family:'Arial';font-size:112.49px;fill:#000000">fold</text>
	<text x="2450.81" y="572.99" style="font-family:'Arial';font-size:112.49px;fill:#000000">change</text>
	<text x="435.11" y="212.81" style="font-family:'Arial';font-size:134.95px;fill:#000000">A</text>
	<text x="1406.48" y="212.81" style="fill:#000000" text-anchor="middle">
		<tspan style="font-family:'Arial';font-style:italic;font-size:134.95px">lasB</tspan>
		<tspan style="font-family:'Arial';font-size:134.95px"> Expression</tspan>
	</text>
	<rect x="2969.81" y="59.40" width="2910.60" height="2581.20" style="fill:#FFFFFF"/>
	<rect x="2971.84" y="61.43" width="2906.55" height="2577.15" style="fill:none;stroke:#FFFFFF;stroke-width:4.05"/>
</svg>
